<svg width="24" height="24" viewBox="0 0 24 24" fill="none" xmlns="http://www.w3.org/2000/svg">
<path d="M19.0554 3.41696C19.7228 3.69352 20.3292 4.09888 20.84 4.60987C21.351 5.12063 21.7563 5.72706 22.0329 6.39452C22.3095 7.06198 22.4518 7.77738 22.4518 8.49987C22.4518 9.22236 22.3095 9.93777 22.0329 10.6052C21.7563 11.2727 21.351 11.8791 20.84 12.3899L19.78 13.4499L12 21.2299L4.22 13.4499L3.16 12.3899C2.1283 11.3582 1.54871 9.95891 1.54871 8.49987C1.54871 7.04084 2.1283 5.64156 3.16 4.60987C4.19169 3.57818 5.59096 2.99858 7.05 2.99858C8.50903 2.99858 9.9083 3.57818 10.94 4.60987L12 5.66987L13.06 4.60987C13.5708 4.09888 14.1772 3.69352 14.8446 3.41696C15.5121 3.14039 16.2275 2.99805 16.95 2.99805C17.6725 2.99805 18.3879 3.14039 19.0554 3.41696Z" stroke="#1F2223" stroke-width="2" stroke-linecap="round" stroke-linejoin="round"/>
</svg>
