<svg xmlns="http://www.w3.org/2000/svg" width="37" height="40" fill="none" viewBox="0 0 37 40"><path fill="#FFE202" fill-rule="evenodd" d="M8.26495 5.33066C10.0279 2.48223 13.1652 0 18.1049 0C23.0447 0 26.182 2.48222 27.9449 5.33066C29.6369 8.06439 30.1621 11.2311 30.1621 13.3333H33.5295C35.2407 13.3333 36.5133 14.7649 36.1466 16.2772L30.855 38.0954C30.5853 39.2076 29.4964 40 28.2379 40H7.97198C6.7135 40 5.62462 39.2076 5.35488 38.0954L0.0633336 16.2772C-0.303439 14.7649 0.969232 13.3333 2.68043 13.3333H6.04779C6.04779 11.2311 6.57295 8.06439 8.26495 5.33066ZM23.2694 7.69964C24.3908 9.51137 24.8034 11.7992 24.8034 13.3333H11.4065C11.4065 11.7992 11.8191 9.51137 12.9405 7.69964C13.9908 6.00262 15.5424 4.84848 18.1049 4.84848C20.6675 4.84848 22.2191 6.00262 23.2694 7.69964ZM18.1049 28.5517C21.0484 28.5517 23.6812 26.3933 25.4344 24.5L28.8224 27.5654C26.1963 30.2376 22.3679 32.8756 18.1049 32.8756C13.842 32.8756 10.0135 30.2376 7.38746 27.5654L10.7755 24.5C12.5287 26.3933 15.1614 28.5517 18.1049 28.5517Z" clip-rule="evenodd"/></svg>