<svg width="171" height="40" viewBox="0 0 171 40" fill="none" xmlns="http://www.w3.org/2000/svg">
<path fill-rule="evenodd" clip-rule="evenodd" d="M8.26495 5.33066C10.0279 2.48223 13.1652 0 18.1049 0C23.0447 0 26.182 2.48222 27.9449 5.33066C29.6369 8.06439 30.1621 11.2311 30.1621 13.3333H33.5295C35.2407 13.3333 36.5133 14.7649 36.1466 16.2772L30.855 38.0954C30.5853 39.2076 29.4964 40 28.2379 40H7.97198C6.7135 40 5.62462 39.2076 5.35488 38.0954L0.0633336 16.2772C-0.303439 14.7649 0.969232 13.3333 2.68043 13.3333H6.04779C6.04779 11.2311 6.57295 8.06439 8.26495 5.33066ZM23.2694 7.69964C24.3908 9.51137 24.8034 11.7992 24.8034 13.3333H11.4065C11.4065 11.7992 11.8191 9.51137 12.9405 7.69964C13.9908 6.00262 15.5424 4.84848 18.1049 4.84848C20.6675 4.84848 22.2191 6.00262 23.2694 7.69964ZM18.1049 28.5517C21.0484 28.5517 23.6812 26.3933 25.4344 24.5L28.8224 27.5654C26.1963 30.2376 22.3679 32.8756 18.1049 32.8756C13.842 32.8756 10.0135 30.2376 7.38746 27.5654L10.7755 24.5C12.5287 26.3933 15.1614 28.5517 18.1049 28.5517Z" fill="black"/>
<path d="M55.7064 14.9677C53.5673 14.9677 51.9467 15.7419 51.0716 16.9355V8.96774H46.2099V31.5484H51.0716V22.7419C51.0716 20.4516 52.3032 19.4194 54.0858 19.4194C55.6416 19.4194 56.9056 20.3548 56.9056 22.3548V31.5484H61.7673V21.6452C61.7673 17.2903 58.98 14.9677 55.7064 14.9677Z" fill="black"/>
<path d="M76.8712 15.4194V16.9355C75.8017 15.7097 74.2135 14.9677 72.042 14.9677C67.7961 14.9677 64.2957 18.6774 64.2957 23.4839C64.2957 28.2903 67.7961 32 72.042 32C74.2135 32 75.8017 31.2581 76.8712 30.0323V31.5484H81.7329V15.4194H76.8712ZM73.0143 27.4194C70.7779 27.4194 69.1574 25.9032 69.1574 23.4839C69.1574 21.0645 70.7779 19.5484 73.0143 19.5484C75.2507 19.5484 76.8712 21.0645 76.8712 23.4839C76.8712 25.9032 75.2507 27.4194 73.0143 27.4194Z" fill="black"/>
<path d="M94.9907 14.9677C92.8191 14.9677 91.231 15.7097 90.1614 16.9355V8.96774H85.2997V31.5484H90.1614V30.0323C91.231 31.2581 92.8191 32 94.9907 32C99.2366 32 102.737 28.2903 102.737 23.4839C102.737 18.6774 99.2366 14.9677 94.9907 14.9677ZM94.0183 27.4194C91.782 27.4194 90.1614 25.9032 90.1614 23.4839C90.1614 21.0645 91.782 19.5484 94.0183 19.5484C96.2547 19.5484 97.8753 21.0645 97.8753 23.4839C97.8753 25.9032 96.2547 27.4194 94.0183 27.4194Z" fill="black"/>
<path d="M107.924 14C109.512 14 110.841 12.6774 110.841 11.0968C110.841 9.51613 109.512 8.19355 107.924 8.19355C106.336 8.19355 105.007 9.51613 105.007 11.0968C105.007 12.6774 106.336 14 107.924 14ZM105.493 31.5484H110.355V15.4194H105.493V31.5484Z" fill="black"/>
<path d="M123.409 20.0645V15.4194H120.071V10.9032L115.209 12.3548V15.4194H112.616V20.0645H115.209V25.7742C115.209 30.2903 117.057 32.1935 123.409 31.5484V27.1613C121.27 27.2903 120.071 27.1613 120.071 25.7742V20.0645H123.409Z" fill="black"/>
<path d="M136.947 15.4194V24.2258C136.947 26.5161 135.716 27.5484 133.933 27.5484C132.377 27.5484 131.113 26.6129 131.113 24.6129V15.4194H126.252V25.3226C126.252 29.6774 129.039 32 132.313 32C134.452 32 136.072 31.2258 136.947 30.0323V31.5484H141.809V15.4194H136.947Z" fill="black"/>
<path d="M157.14 15.4194V16.9355C156.07 15.7097 154.482 14.9677 152.311 14.9677C148.065 14.9677 144.564 18.6774 144.564 23.4839C144.564 28.2903 148.065 32 152.311 32C154.482 32 156.07 31.2581 157.14 30.0323V31.5484H162.002V15.4194H157.14ZM153.283 27.4194C151.047 27.4194 149.426 25.9032 149.426 23.4839C149.426 21.0645 151.047 19.5484 153.283 19.5484C155.519 19.5484 157.14 21.0645 157.14 23.4839C157.14 25.9032 155.519 27.4194 153.283 27.4194Z" fill="black"/>
<path d="M165.568 31.5484H170.43V8H165.568V31.5484Z" fill="black"/>
</svg>
