<svg xmlns="http://www.w3.org/2000/svg" width="120" height="120" fill="none" viewBox="0 0 120 120"><path fill="#FFE393" fill-rule="evenodd" d="M68.1742 99.4855C79.7628 99.4855 89.9326 90.8651 84.2212 79.1567C78.5099 67.4482 99.731 67.8263 105.965 59.7341C113.567 49.8655 111.365 7.97417 62.562 33.5131C54.7444 37.6042 34.6668 29.3043 28.007 33.4226C20.1676 38.2701 9.13826 48.1963 20.1676 58.3642C25.6006 63.3727 6.1224 76.3725 14.6534 88.017C22.9775 99.3791 28.8127 88.5477 41.486 90.8651C54.1595 93.1827 59.5675 99.4855 68.1742 99.4855Z" clip-rule="evenodd"/><path fill="#fff" d="M54.7231 79.1161C54.7231 79.1161 57.3913 77.8609 58.3875 76.9876C59.3838 76.1143 60.6222 73.9449 60.6222 73.9449C60.6222 73.9449 74.2259 83.7693 83.0959 82.3679C85.1396 82.045 89.1219 80.6866 89.3758 78.293C90.0692 71.7572 80.475 70.0871 82.5708 66.7727C83.85 64.7495 87.8239 67.7605 87.8239 67.7605L104.307 75.8681C104.307 75.8681 98.6124 89.9049 84.7935 90.4673C67.7945 91.1593 54.7231 79.1161 54.7231 79.1161Z"/><path fill="#fff" fill-rule="evenodd" d="M41.6551 24.1447C41.5004 24.0839 40.6695 23.0666 39.6148 22.8815C39.1356 22.7973 39.5705 23.4076 39.0431 23.4132C37.4721 23.4295 34.919 23.1343 34.446 23.4132C34.0945 23.6197 34.8686 24.3412 34.446 24.3743C30.4585 24.6869 24.3753 28.6682 23.0556 30.5997C22.6355 31.2145 26.0326 30.1716 25.4913 30.4754C24.8838 30.8165 24.21 33.05 23.8073 34.7748C23.5284 35.9626 23.3528 37.4913 23.2908 39.1543C23.2392 40.59 23.2598 40.8276 23.4665 41.6125C23.7039 42.4905 23.8899 42.7487 24.21 42.6247C24.3238 42.5834 24.3753 42.4285 24.3753 42.1393C24.3753 41.9121 24.4993 41.2303 24.6542 40.6209L24.9228 39.5261L25.0364 39.9805C25.1811 40.5073 26.028 42.1393 26.7923 43.3271C26.8336 43.3901 27.0108 43.31 27.1708 42.9234C27.3166 42.5711 27.2574 42.0084 27.5051 41.4052C28.0689 40.0313 29.1763 38.245 30.4585 36.8151C32.3536 34.702 32.9822 32.2562 34.7587 30.293C38.0737 26.6293 42.2342 24.3721 41.6551 24.1447Z" clip-rule="evenodd"/><path fill="#EAEAEA" fill-rule="evenodd" d="M25.538 30.974C25.0062 31.4017 24.2169 34.8702 24.2033 34.9281C23.9244 36.1159 23.6556 40.2407 23.9304 41.0217C24.2052 41.8027 24.9747 38.9876 24.9747 38.9876C24.9747 38.9876 26.1376 42.0075 27.1652 42.8355C27.2091 42.8708 25.9438 39.0991 25.538 36.8974C25.0024 33.991 25.8406 30.7307 25.538 30.974Z" clip-rule="evenodd"/><path fill="#fff" fill-rule="evenodd" d="M45.3596 91.7203C46.3511 91.5033 48.0242 90.7479 48.6647 90.4897C49.3053 90.2313 51.2573 87.4752 51.9596 84.366C52.4658 82.0731 52.7239 78.8092 52.4347 78.2617C52.392 78.1841 52.2357 76.7 52.6517 77.1846C53.5762 78.2617 54.6735 79.9529 58.1362 76.9225C59.0792 76.0971 60.3293 75.032 60.0002 74.0902C59.0792 71.4553 55.0874 66.1497 54.4788 65.7478C53.7512 65.2672 50.0735 65.6756 44.6004 64.0601C38.3935 62.2281 35.8088 56.8336 33.3799 57.5358C31.4155 58.1036 26.7091 61.5936 25.528 63.8036C19.9519 74.2376 26.7091 81.5486 28.2482 83.6484L29.7423 84.2939L29.7939 85.6262L29.8663 86.4628C30.0005 88.0638 30.0522 88.2084 30.7752 88.7455C32.5827 90.1193 36.1461 91.4 39.3688 91.8545C40.8664 92.0611 44.12 91.9888 45.3596 91.7203Z" clip-rule="evenodd"/><path fill="#EAEAEA" fill-rule="evenodd" d="M30.3296 85.1386L30.4019 85.975C30.5363 87.5761 30.5879 87.7206 31.3109 88.2578C32.3773 89.0682 34.0547 89.8462 35.9127 90.4414C37.2042 90.855 38.5831 91.1805 39.9045 91.3667C41.4023 91.5733 44.6557 91.5009 45.8952 91.2325C46.5079 91.0997 41.4685 87.1406 38.4997 88.2578C36.2199 89.1157 30.8464 82.5718 33.0312 80.8622C35.4821 78.9443 30.9911 71.3802 30.8464 69.7379C30.7018 68.0957 30.1323 67.7034 30.1157 67.761C30.0991 67.8186 30.0991 68.015 30.1437 68.4885C30.3365 70.529 30.3296 85.1386 30.3296 85.1386Z" clip-rule="evenodd"/><path fill="#F9D262" fill-rule="evenodd" d="M29.792 69.2692C30.0088 69.2269 30.2187 69.3685 30.261 69.5855C31.0405 73.5903 34.3379 76.3017 40.2341 77.7196C46.1654 79.1458 50.2056 79.0689 52.3342 77.5465C52.5139 77.418 52.38 78.5185 52.2483 78.6029C50.86 79.4932 46.1395 80.8217 40.5062 79.621C33.3035 78.0858 29.9216 72.0293 29.4757 69.7383C29.4336 69.5215 29.575 69.3114 29.792 69.2692Z" clip-rule="evenodd"/><path fill="#F9D262" fill-rule="evenodd" d="M26.7884 62.0431C26.9801 61.9335 34.134 70.1324 43.9516 71.9882C53.769 73.844 56.1461 72.6637 56.5282 70.1324C56.5612 69.914 56.765 69.7636 56.9834 69.7965C57.2018 69.8295 57.3522 70.0333 57.3193 70.2517C56.8349 73.46 52.2922 74.2231 43.817 72.7768C35.4482 71.3487 29.7105 67.9557 26.6397 62.589C26.5301 62.3973 26.5965 62.1528 26.7884 62.0431Z" clip-rule="evenodd"/><path fill="#363939" fill-rule="evenodd" d="M67.994 61.5886C67.7254 61.4956 67.4362 61.289 67.2503 61.0514L66.9404 60.6692L68.0353 59.5847C69.719 57.9321 71.01 56.2382 72.1255 54.2241C72.4974 53.5527 73.4372 51.3113 73.4372 51.0945C73.4372 51.0222 73.5509 50.7329 73.6852 50.4334C73.8918 49.9996 74.0466 49.8343 74.4908 49.5865C75.0175 49.2766 75.6167 49.1734 75.8748 49.3489C76.3706 49.6794 76.3706 50.7226 75.8748 52.5198C75.3274 54.4926 74.5942 55.9076 73.0758 57.9425C72.8382 58.2522 72.394 58.8617 72.0738 59.2852C71.2166 60.4214 70.6588 60.9687 69.9049 61.3922C69.1612 61.8054 68.7273 61.857 67.994 61.5886ZM75.41 60.659L76.1537 60.9895C76.3079 61.0606 78.0092 61.878 80.0526 62.8599C83.3471 64.443 87.5313 66.4534 87.5567 66.4534C87.5981 66.4534 87.7919 66.0052 87.8356 65.4825C87.939 64.3567 88.321 62.8279 88.7652 61.7641C88.9718 61.289 89.137 60.6951 89.137 60.6436C89.137 60.6199 88.9692 60.5522 88.6943 60.4414C88.367 60.3094 87.8882 60.1162 87.3606 59.8636C84.7577 58.6138 79.6655 56.0626 79.0354 55.6804C78.4157 55.319 78.2918 55.2879 78.2918 55.5255C78.2918 55.8354 77.6618 57.2711 77.1762 58.0457C76.9181 58.4692 76.4119 59.2335 76.0505 59.7396L75.41 60.659ZM87.3812 64.5942C87.6774 64.7658 87.1642 65.0177 87.0404 65.059C86.3105 65.121 85.4513 64.9838 84.7473 64.5735C84.3793 64.3126 81.4809 62.7023 79.5583 61.6342C78.6794 61.146 78.0044 60.771 77.8684 60.69C77.4345 60.4318 77.0214 60.1529 76.949 60.0702C76.7322 59.7913 76.9388 59.6674 77.5481 59.719C77.9145 59.75 86.7413 64.2234 87.3812 64.5942ZM45.3945 91.6351C46.1913 91.4607 47.4281 90.9388 48.2156 90.6065C48.4082 90.5252 48.5738 90.4553 48.6998 90.4046C49.3404 90.1462 51.2922 87.39 51.9946 84.2809C52.5007 81.9879 52.759 78.7241 52.4698 78.1766C52.2954 77.8596 53.3313 78.9231 54.1028 79.7151C54.3367 79.9553 54.5463 80.1705 54.6905 80.3146C59.1938 84.7871 65.8972 88.3815 72.8588 90.065C76.3294 90.9121 78.798 91.2116 82.1135 91.2116C87.6807 91.2116 92.0705 90.1167 96.0574 87.7102C96.2468 87.5958 96.4242 87.4908 96.5933 87.3906C97.9831 86.5678 98.8111 86.0775 101.077 83.527C103.619 80.6658 105.88 74.0244 106.634 71.7314C106.965 70.6985 107.77 66.5903 107.77 65.5652C107.77 64.3514 107.347 63.7783 106.768 63.1895C105.746 62.1876 104.362 61.8262 103.215 62.2599L102.678 62.4665L102.513 61.9191C102.275 61.0927 101.78 60.4318 101.015 59.9359C99.8791 59.1818 99.7138 59.1303 98.6913 59.1303C97.8959 59.1303 97.6789 59.1716 97.1729 59.4092L96.5841 59.6777L96.4602 59.3058C96.2226 58.5415 95.4258 57.4761 94.8076 57.1678C94.2593 56.8945 93.3102 56.8694 92.6489 56.9922C91.2028 57.2607 90.17 57.9321 89.7465 58.8721C89.6225 59.1612 89.4676 59.3886 89.4057 59.3886C89.354 59.3886 87.3193 58.8202 84.8919 57.746C84.4825 57.5642 84.0978 57.3937 83.7367 57.2337C79.378 55.3017 78.4332 54.883 78.5191 54.3583C78.5913 53.9142 78.5706 53.6663 78.4468 53.2841C78.2298 52.6438 77.982 52.4682 77.2796 52.4682C76.7218 52.4682 76.7218 52.4682 76.7837 52.1894C77.1143 50.609 77.1041 49.7001 76.7529 49.1217C76.5153 48.7394 76.2364 48.5846 75.5959 48.4916C75.2241 48.4399 75.0485 48.471 74.6354 48.6982C74.3565 48.8428 74.1189 48.946 74.0983 48.9254C74.0777 48.9047 74.15 48.3367 74.2636 47.6652C75.1105 42.697 74.4562 38.4166 72.2975 33.8719C72.2769 33.8284 72.2529 33.777 72.2255 33.7182C71.5692 32.3092 68.9303 26.6438 61.3836 23.785C61.042 23.6556 60.7188 23.5305 60.4081 23.4103C57.8373 22.4153 56.1284 21.7537 52.005 21.7606C47.3833 21.7682 45.818 22.4217 42.771 23.8161C42.3476 24.0122 41.9758 24.1258 41.9447 24.0846C41.9137 24.0329 41.7175 23.909 41.5212 23.8057C41.325 23.7025 40.9015 23.4442 40.5916 23.2377C39.7033 22.6385 39.1559 22.3906 38.877 22.4526C38.5569 22.5353 38.5569 22.8038 38.877 22.9278C39.0113 22.9794 39.1663 23.155 39.2282 23.3306C39.3625 23.7025 39.5174 23.7438 39.6103 23.4338C39.6518 23.3202 39.7137 23.2377 39.7447 23.2583C39.7564 23.2641 39.7958 23.2826 39.8558 23.3106C40.0068 23.3814 40.2886 23.5134 40.5916 23.661C41.0151 23.8676 41.4799 24.0846 41.6039 24.1362C41.8311 24.2188 41.7588 24.2809 40.7775 24.8593C36.9455 27.111 33.8263 30.6124 32.0807 34.5993C31.8121 35.1983 31.5746 35.5702 31.3266 35.7769C30.6966 36.3036 29.4572 37.8012 29.1679 38.39C29.013 38.7102 28.6825 39.206 28.4242 39.4951C28.1764 39.7844 27.9078 40.1562 27.8148 40.3111C27.7322 40.4764 27.6497 40.59 27.6186 40.5694C27.598 40.5383 27.6289 40.0322 27.7012 39.4436C27.8562 38.0698 27.8562 37.7082 27.7322 37.6774C27.5463 37.6257 27.2778 38.3487 27.1641 39.2473C27.0815 39.7946 27.0609 40.621 27.1126 41.4679L27.1745 42.8108L26.4412 41.623C26.189 41.2257 25.9407 40.8286 25.7642 40.5465V40.5463H25.7641V40.5462L25.7638 40.5455L25.7634 40.5452V40.545L25.7633 40.5449L25.763 40.5444C25.6511 40.3654 25.5682 40.233 25.5322 40.1769C25.2636 39.7844 25.1087 39.1956 25.2223 38.9994C25.2842 38.8858 25.274 38.8342 25.1706 38.8342C24.9538 38.8342 24.5303 39.5262 24.2514 40.3215C24.1172 40.6934 23.9828 41.0031 23.9415 41.0031C23.7866 41.0031 23.859 37.3055 24.0242 36.1177C24.365 33.773 25.2636 30.8809 25.6665 30.8809C25.749 30.8809 25.8214 30.8396 25.8214 30.7777C25.8214 30.5918 25.5529 30.6641 25.3359 30.9017C24.8505 31.4284 24.2102 33.05 23.8073 34.775C23.5284 35.9628 23.3529 37.4914 23.2908 39.1543C23.2393 40.59 23.2599 40.8276 23.4665 41.6126C23.7041 42.4905 23.89 42.7487 24.2102 42.6249C24.3238 42.5834 24.3754 42.4286 24.3754 42.1393C24.3754 41.9121 24.4993 41.2305 24.6543 40.621L24.9228 39.5262L25.0364 39.9806C25.181 40.5074 26.0279 42.1394 26.7922 43.3271C27.3191 44.1329 27.3294 44.1844 27.505 45.4446C27.598 46.1572 27.8871 47.8908 28.5585 50.5574C29.1518 52.9135 32.4865 55.2506 33.3193 55.8343L33.3198 55.8346C33.4292 55.9113 33.4953 55.9577 33.506 55.9697C33.6094 56.0833 33.754 56.1452 33.8366 56.1143C33.9295 56.0833 33.9812 56.1246 33.9812 56.2382C33.9812 56.3415 34.0535 56.4758 34.1361 56.5377C34.2394 56.61 34.3118 56.8889 34.3324 57.3743C34.3841 58.3452 35.107 60.2044 35.6647 60.8138C36.0263 61.2063 36.7802 61.3716 37.6169 61.227C38.1644 61.1444 38.3193 61.0825 38.2676 60.9585C38.2367 60.8759 38.4329 60.9791 38.7015 61.1857C41.8414 63.582 45.0226 65.0177 48.5964 65.6374C49.9806 65.875 52.2735 66.0092 53.5233 65.9162C54.6286 65.8441 54.6285 65.8441 54.5769 66.0609C54.5046 66.3502 54.5975 66.5257 56.1157 69.0975C57.3242 71.1324 57.4276 71.2666 58.7703 72.6404C61.621 75.5841 64.73 77.8668 68.2522 79.633C71.5677 81.2855 76.8612 82.6593 81.7004 83.0932C86.5394 83.527 90.015 79.0855 90.0047 77.9494C89.9841 76.3897 89.7671 75.3671 89.2404 74.3756C88.7239 73.415 88.3831 73.0846 86.8337 72.0516C85.1089 70.9052 84.045 69.9652 83.3426 68.9633C82.8985 68.3332 82.7332 67.6206 82.7332 67.2383C82.7332 66.9905 83.0534 66.4327 83.5286 66.3191C83.9623 66.2055 84.045 66.2158 84.5305 66.4534C84.8196 66.5876 85.5737 66.9388 86.1933 67.2383C86.8234 67.5276 87.4329 67.8169 87.5567 67.8788C87.9221 67.9802 88.0767 68.6956 88.1604 69.0833C88.1791 69.1698 88.1943 69.2401 88.2074 69.2834C88.3521 69.8206 89.0364 70.5142 89.478 70.7502C90.2532 71.1649 92.1636 71.2202 92.6903 70.6522C92.8247 70.5076 93.2698 70.3297 93.3615 70.3836C93.4534 70.4375 93.785 70.8844 93.785 71.246C93.7954 71.8657 94.1156 72.4338 94.7972 73.0018C96.0884 74.0761 97.0903 74.3343 98.1025 73.8591C98.6292 73.6113 99.061 73.5145 99.061 73.5145C99.061 73.5145 99.4916 74.0639 99.5175 74.2516C99.7204 75.7191 101.893 76.3343 102.472 76.3964C102.604 76.4097 102.862 76.3529 103.124 76.2953C103.474 76.2183 103.832 76.1396 103.907 76.2244C104.055 76.391 101.439 80.7175 101.077 81.2649C97.6377 86.4294 90.9445 89.59 82.7538 89.9206C77.4345 90.1374 70.8964 88.65 65.2258 85.9439C61.6004 84.1983 58.3882 82.0602 54.9487 79.0649C54.3497 78.5484 53.6575 77.9598 53.4097 77.7532C53.1618 77.5569 52.573 76.8855 52.1186 76.2658C51.3543 75.2329 50.9204 74.861 50.9204 75.2122C50.9204 75.3671 51.4162 76.3174 51.9842 77.2574C52.2116 77.6292 52.3561 77.8874 52.3046 77.8462C52.2529 77.8047 52.0876 78.5484 51.9327 79.4986C51.4265 82.5457 50.59 85.5514 49.743 87.4209C49.2782 88.4332 48.3869 89.189 48.1183 89.3956C47.1268 90.1497 45.6425 90.4886 43.587 90.6951C40.9841 90.9534 37.1521 90.375 34.229 89.2801C33.4545 88.991 31.4609 88.1543 31.3266 88.0614C31.3186 88.0532 31.2729 87.7561 31.209 87.3414C31.191 87.2244 31.1716 87.0982 31.1511 86.9665C30.7793 84.4153 30.2628 74.5926 30.2628 70.0478C30.2628 68.1679 30.2422 67.7548 30.1182 67.7548C29.8599 67.7548 29.7567 68.0028 29.6431 68.891C29.3849 70.9154 29.4366 81.4818 29.7154 83.7025L29.7774 84.2087L29.4262 84.0124C28.889 83.7025 26.8439 81.6265 26.1313 80.6658C25.5279 79.8446 25.1694 78.7929 24.901 78.006C24.8386 77.823 24.7812 77.6543 24.7265 77.5062C23.2289 73.354 23.7556 68.6948 25.8214 64.5012C27.5774 60.9274 29.7361 58.9444 32.8967 57.9838C33.413 57.8289 33.8676 57.6636 33.9193 57.6223C34.1154 57.4364 32.8553 57.5294 32.1633 57.7462C29.9116 58.4382 27.5567 60.3284 25.9558 62.7454C23.7041 66.1332 22.6918 71.1324 23.4044 75.3982C23.5697 76.4103 24.241 78.6001 24.427 78.755C24.4434 78.7714 24.5284 78.9497 24.6569 79.2193C25.0122 79.9646 25.7002 81.4079 26.1932 82.0602C26.7922 82.8762 28.5999 84.6527 29.3538 85.2002L29.829 85.541L29.9014 86.3777C30.0356 87.9786 30.0873 88.1233 30.8102 88.6604C32.6178 90.0342 36.1812 91.3148 39.4038 91.7694C40.9015 91.9759 44.1551 91.9036 45.3945 91.6351ZM80.306 81.9362C74.3049 81.4095 67.054 78.5482 61.807 74.1276C59.5967 72.258 56.7252 68.6225 55.589 66.6084C55.3514 66.1951 55.1759 65.999 54.9693 65.9473C54.7524 65.8854 54.9383 65.8233 55.8266 65.6788C59.5759 65.0383 63.222 63.4786 66.1658 61.258L66.5996 60.9378L66.7236 61.2374C67.0025 61.9087 68.0766 62.5905 68.8719 62.5905C69.1921 62.5905 70.2663 62.105 70.917 61.6609L71.3612 61.3614L71.7226 61.7228C72.0532 62.0534 72.1151 62.074 72.735 62.074C73.4476 62.074 74.3049 61.7538 74.7801 61.2993L75.0382 61.0617L75.7716 61.5473C76.1641 61.8262 77.259 62.4354 78.1988 62.9209C79.6036 63.6439 81.091 64.4806 82.506 65.3482L82.7332 65.4929L82.5162 65.782C82.289 66.0919 81.8658 66.6806 81.8658 67.5793C81.8658 68.5914 82.9183 70.4102 84.9332 71.6591C86.5162 72.6404 89.2404 74.5705 89.137 77.3916C89.1245 77.7324 88.7446 78.5794 88.2385 79.3438C87.9079 79.8292 86.9887 80.5522 86.1521 80.9758C84.7266 81.6884 82.2167 82.1015 80.306 81.9362ZM25.2327 35.5702C25.5116 35.6322 25.6975 35.7252 25.6561 35.7665C25.5218 35.9007 24.8092 35.8388 24.6439 35.6735C24.3857 35.4257 24.4476 35.25 24.8092 35.1777C24.9951 35.1468 25.274 34.9918 25.4289 34.8369C25.5839 34.682 25.7182 34.6097 25.7182 34.6614C25.7182 34.7956 25.2017 35.2706 24.9434 35.374C24.7782 35.4463 24.8298 35.4772 25.2327 35.5702ZM29.3436 35.7354C29.6431 35.5702 29.581 35.4566 29.23 35.5082C28.8788 35.5599 28.8582 35.5186 29.0854 35.1674C29.1783 35.0332 29.23 34.8369 29.2092 34.7335C29.1783 34.5993 29.106 34.6614 28.9407 34.9918C28.8167 35.2294 28.6412 35.4257 28.5585 35.4257C28.3004 35.4257 28.2796 35.6322 28.5276 35.7252C28.8478 35.8594 29.0956 35.8594 29.3436 35.7354ZM25.7698 30.0959C25.5218 30.1372 24.7473 30.4471 24.0655 30.7879C23.3735 31.1185 22.7847 31.3974 22.7434 31.3871C21.6898 31.2735 23.1566 29.5175 25.8214 27.7204C28.3726 25.9954 30.0975 25.0865 31.6985 24.6217C32.7004 24.3324 33.8263 24.2911 34.1465 24.5287C34.322 24.663 34.2601 24.6734 33.4958 24.6836C31.8431 24.6836 29.9322 25.5306 26.8233 27.6066C25.2121 28.6809 23.3425 30.2199 23.3425 30.4678C23.3425 30.5194 23.642 30.4161 24.0138 30.251C24.8092 29.8894 25.6252 29.7034 25.9866 29.7862C26.3689 29.8894 26.2862 30.0236 25.7698 30.0959ZM29.767 30.9842C30.738 30.7879 30.7793 30.7777 30.7793 30.6743C30.7793 30.6228 30.4074 30.5711 29.9426 30.5505L29.106 30.5194L29.8806 29.6415C30.3041 29.1561 30.7999 28.6706 30.9754 28.557C31.3577 28.309 31.3783 28.1335 31.0684 28.0302L30.831 27.9578L31.089 27.8649C31.2337 27.8134 31.5023 27.7926 31.6882 27.8236C31.9671 27.8649 32.029 27.8442 31.998 27.6996C31.9671 27.5551 31.8535 27.5241 31.3473 27.5345C29.8703 27.5551 29.2402 27.9476 30.397 28.1335C30.7172 28.1852 30.9858 28.2678 30.9858 28.3194C30.9858 28.3607 30.9342 28.402 30.8722 28.402C30.6759 28.402 29.013 30.0857 28.8065 30.4988C28.4863 31.1082 28.6618 31.2012 29.767 30.9842ZM36.5841 26.9767C36.2846 26.9974 36.2122 27.0489 36.2329 27.1935L36.2361 27.2146C36.2476 27.291 36.2543 27.335 36.2372 27.3482C36.214 27.3662 36.1476 27.3286 35.9914 27.2399L35.9642 27.2246C35.7681 27.1212 35.7474 27.0697 35.861 26.987C35.9334 26.925 36.1295 26.8321 36.2846 26.801L36.5737 26.7287L36.3569 26.5015C36.2431 26.3673 36.1812 26.2433 36.2122 26.202C36.2948 26.1194 37.3071 26.233 37.4516 26.3466C37.5137 26.3982 37.6066 26.3879 37.6686 26.326C37.8132 26.1814 38.0094 26.295 38.0094 26.5222C38.0094 26.6462 37.9785 26.6564 37.8855 26.5634C37.8028 26.4809 37.7305 26.4809 37.6375 26.5532C37.555 26.6255 37.493 26.6255 37.4414 26.5428C37.4103 26.4911 37.2142 26.4396 37.0076 26.4396C36.8169 26.4396 36.7268 26.4396 36.7084 26.4759C36.6919 26.5084 36.7332 26.5702 36.8113 26.6874C36.9761 26.9449 36.9663 26.9457 36.5876 26.9764L36.5841 26.9767ZM35.014 24.2292C35.014 24.095 34.8902 23.8574 34.7351 23.7025L34.446 23.4132L35.9953 23.4751C36.8526 23.5166 37.8234 23.6095 38.1644 23.7025C38.5052 23.785 38.8977 23.847 39.0423 23.847C39.2593 23.847 39.2178 23.8057 38.8151 23.5887C38.1127 23.2273 37.2142 23.0518 35.4892 22.9278C33.4234 22.7831 32.3802 22.9794 32.5764 23.4958C32.6074 23.5991 32.7727 23.6508 33.0206 23.6508C33.5266 23.6508 34.353 23.9503 34.6319 24.2292C34.9314 24.5287 35.014 24.5287 35.014 24.2292ZM29.9735 51.5799C30.8102 52.6542 31.9154 53.8729 32.4319 54.286C32.7417 54.534 33.0103 54.7406 33.031 54.7406C33.0412 54.7406 32.814 54.2654 32.5249 53.687C31.3577 51.363 30.6759 49.0494 30.3558 46.3846C30.2834 45.7958 30.1698 45.2999 30.0458 45.0934C29.798 44.6802 29.798 44.1431 30.0562 43.637C30.1905 43.3686 30.2628 43.0276 30.2628 42.6558V42.0878L29.767 42.6041C29.2815 43.1103 28.8167 43.3169 28.8167 43.007C28.8167 42.7798 29.581 41.6849 29.9839 41.3441C30.3041 41.0754 30.3454 40.9825 30.4487 40.1769C30.521 39.6914 30.6863 38.8342 30.8206 38.266C30.9652 37.698 31.0478 37.2126 31.0271 37.1919C30.9548 37.1196 28.5276 39.9073 28.197 40.7966C28.1244 40.9919 27.9286 41.3337 27.7735 41.5402L27.505 41.885C27.505 41.885 27.5884 42.3679 27.6806 42.9746C27.7737 43.5878 27.8174 44.0092 27.8564 44.3846C27.9084 44.8866 27.9519 45.3063 28.0937 45.9921C28.259 46.839 28.4242 47.5722 28.4655 47.6239C28.4966 47.686 28.6308 48.161 28.7652 48.6878C29.0543 49.855 29.5398 51.0118 29.9735 51.5799ZM71.8879 61.351L71.6711 61.134C71.6711 61.134 75.2711 56.5601 75.9162 54.8748C76.4084 53.5887 76.6982 53.2239 77.089 53.2239C77.3078 53.2239 77.4861 53.2738 77.5687 53.3978C77.7133 53.6146 77.8527 53.8833 77.6668 54.8025C77.357 56.2898 76.8818 57.2711 75.4564 59.3886C75.126 59.874 74.7025 60.4111 74.5166 60.597C74.0828 60.9998 73.1068 61.4129 72.5386 61.5058C72.1772 61.5575 72.0738 61.5369 71.8879 61.351Z" clip-rule="evenodd"/><path fill="#fff" d="M100.488 71.4553C101.773 67.9542 101.579 67.2082 101.356 67.1353C101.356 67.1353 100.865 67.4142 100.648 68.0028C100.246 69.1081 98.8669 72.0001 98.3504 72.5166C97.7409 73.126 97.7409 73.126 97.1213 73.126C96.5016 73.126 94.7142 72.1927 94.4709 71.2727C94.0814 69.8007 95.7579 64.6873 95.7992 64.3982L95.5203 64.2018C95.3344 64.3775 92.916 71.711 89.7362 69.8001C89.372 69.5812 88.6 68.5503 88.5381 68.0028C88.1939 66.4122 89.773 60.8502 90.0416 59.7078C90.2819 58.685 91.5334 57.7361 93.0723 57.7361C95.4376 57.7361 95.12 59.8036 96.1795 60.5321C96.6489 60.855 97.4205 60.2697 97.6584 60.2252C98.9907 59.9774 99.5014 60.266 100.478 61.0412C101.232 61.6396 101.79 62.8239 102.404 63.2412C102.745 63.473 103.107 63.1562 103.226 63.0967C103.712 62.8527 104.754 63.0346 105.044 63.2412C105.468 63.4262 106.506 64.4249 106.671 65.0057C107.414 67.6383 105.065 73.4748 104.179 74.5697C102.711 76.382 99.2035 74.9564 100.488 71.4553Z"/><path fill="#fff" fill-rule="evenodd" d="M41.1081 61.862C43.9384 63.6489 46.8564 64.8159 50.1824 65.1361C52.8059 65.3841 56.3432 65.0433 58.8841 64.2169C61.0222 63.5249 63.9142 61.6077 65.8457 59.9862C69.5952 56.8462 71.9604 51.9415 72.9932 46.7359C73.1379 46.0025 73.3584 44.1591 73.3481 42.331C73.3481 40.2031 72.4116 34.3887 69.5744 31.0361C63.7227 24.1212 54.1035 21.0063 46.0193 23.6679C43.1032 24.6279 39.9982 26.3674 37.6536 28.6398C34.6995 31.5215 32.5201 35.4465 31.6524 39.454C30.7435 43.6889 31.9259 48.75 33.9812 52.9022C35.6236 56.2074 38.3297 60.0958 41.1081 61.862ZM68.6862 49.3801C66.7443 55.2158 61.6832 59.5746 55.3206 60.8967C54.3497 61.0929 53.6784 61.1652 52.315 61.1858C51.3544 61.2169 50.3939 61.2065 50.1976 61.1858C45.7459 60.6487 42.358 59.0065 39.2387 55.8871C37.8753 54.5135 37.2969 53.7698 36.4499 52.3031C35.1176 49.9791 34.4048 47.6034 34.188 44.7423C33.4443 34.9404 40.4576 26.7703 50.3318 25.9233C54.2051 25.5927 58.5019 26.7806 61.7659 29.0942C62.9744 29.9514 65.164 32.1206 65.8457 33.1327C66.1246 33.5356 68.8307 37.4916 69.3059 39.7639C69.9153 42.718 69.6777 46.4156 68.6862 49.3801Z" clip-rule="evenodd"/><path fill="#EAEAEA" fill-rule="evenodd" d="M73.3521 42.3308C73.3521 49.2636 70.0725 56.8431 65.8402 60.0801C63.821 61.6244 61.1823 63.4943 58.8844 64.2169C55.5167 65.2756 50.1826 65.1361 50.1826 65.1361C50.1826 65.1361 55.6245 64.4085 57.6412 63.597C63.4241 61.2697 66.5809 57.6972 68.5301 54.2695C72.378 47.5033 73.3521 42.1625 73.3521 42.3308Z" clip-rule="evenodd"/><path fill="#fff" fill-rule="evenodd" d="M50.3006 59.9463C47.5427 59.5951 44.8055 58.6138 42.5953 57.1575C41.2835 56.3002 39.3003 54.2862 38.3398 52.8505C36.966 50.7847 36.0571 48.5743 35.6129 46.1986C35.2928 44.4737 35.3032 41.8193 35.6233 40.2802C35.9539 38.7103 36.3772 37.5121 37.1313 35.9938C38.0092 34.2378 38.9388 32.9468 40.3332 31.5524C42.7089 29.1767 45.4667 27.6687 48.7512 26.9457C49.8152 26.7185 53.6678 26.5326 53.802 26.7082C53.8331 26.7598 54.0396 26.8942 54.2564 27.0078C54.4734 27.1316 55.0518 27.5655 55.527 27.9889C56.2396 28.6087 56.5598 29.0012 57.1795 29.9721C57.603 30.6332 57.9438 31.2322 57.9438 31.2839C57.9438 31.3975 58.2744 31.6041 58.4603 31.6041C58.7185 31.6041 58.8942 30.8294 58.9457 29.466C58.9767 28.7119 59.0387 28.0922 59.0801 28.0922C59.2246 28.0922 60.8153 28.9702 61.559 29.466C63.0153 30.4369 64.4716 31.8002 65.5459 33.2257C66.0313 33.866 66.1036 34.0313 66.1036 34.4238C66.1036 34.7854 66.207 35.0642 66.5272 35.622C67.3328 37.0266 67.9628 38.7929 68.3451 40.745C68.5929 42.0569 68.5929 44.5358 68.3347 45.9095C67.6323 49.6898 65.5459 53.4495 62.8294 55.8354C60.526 57.8495 58.0782 59.089 55.186 59.6985C54.1945 59.9153 51.2198 60.0599 50.3006 59.9463ZM42.9155 52.8814C43.0084 52.7782 43.0704 52.6231 43.0393 52.551C43.03 52.5292 42.9008 52.4684 42.7115 52.3794C42.2702 52.1719 41.503 51.8113 41.1705 51.4354C39.8484 49.9274 39.3628 48.8015 39.0633 46.4775C38.7742 44.2156 39.0171 42.6863 39.5385 40.2286C39.7928 39.0297 40.4688 38.0393 40.8894 37.4233C41.1753 37.0042 41.3433 36.7583 41.1803 36.7375C40.7774 36.6754 40.7155 36.7065 40.292 37.1094C39.383 37.9769 38.9699 38.6689 38.536 40.0014C37.8646 42.0878 37.7348 47.7263 39.0633 50.2682C40.3918 52.8102 42.6779 53.15 42.9155 52.8814ZM57.603 44.2052C57.4276 45.8097 56.6838 48.1302 55.8161 49.1423C55.4132 49.6175 53.9347 50.4335 52.6865 50.2682C51.4809 50.1086 50.538 49.5452 49.7324 48.3367C49.0404 47.2935 48.683 46.0273 48.4414 44.4324C48.0241 41.6785 49.846 38.4727 50.631 37.6774C51.4264 36.8614 51.9945 36.5722 52.7176 36.5618C53.4198 36.5618 53.8744 36.7169 54.587 37.223C55.8884 38.1319 57.9438 41.0873 57.603 44.2052ZM43.6798 35.6633C43.8864 35.4257 43.9174 35.3121 43.8553 34.8679C43.814 34.4548 43.7315 34.2895 43.5145 34.114C43.1323 33.8041 42.6572 33.8041 42.306 34.1346C42.0582 34.3722 42.0272 34.4548 42.0582 35.0228C42.0891 35.6322 42.1097 35.6735 42.4507 35.8594C42.9051 36.1074 43.3492 36.0351 43.6798 35.6633ZM50.1249 29.2903C48.2657 30.6228 47.4601 31.1702 46.6235 31.6866C45.9625 32.0998 45.7558 32.1102 45.7558 31.7383C45.7558 31.542 45.9004 31.3252 46.2723 30.9842L46.7888 30.5092L45.7868 30.375C44.6611 30.2303 43.5662 29.9204 43.3286 29.6828C42.9361 29.2801 43.2769 29.1871 44.3924 29.3937C44.8883 29.4762 45.8488 29.5796 46.5305 29.6002L47.77 29.6519L48.6686 29.0012C50.6414 27.5758 52.6865 26.7702 53.6678 27.018C54.2771 27.1626 54.2049 27.3279 53.5128 27.4105C52.7176 27.5034 52.232 27.7721 50.1249 29.2903Z" clip-rule="evenodd"/><path fill="#fff" d="M52.7798 48.8532C52.7798 48.8015 52.8417 48.75 52.9244 48.75C53.007 48.75 53.1103 48.8015 53.1412 48.8532C53.1723 48.9151 53.1103 48.9566 52.9967 48.9566C52.8727 48.9566 52.7798 48.9151 52.7798 48.8532Z"/><path fill="#fff" d="M53.3994 48.7603C53.3994 48.6467 53.6577 48.5435 53.9469 48.5435C54.1741 48.5537 54.1741 48.5537 53.9778 48.6983C53.7506 48.8739 53.3994 48.9049 53.3994 48.7603Z"/><path fill="#fff" d="M51.7985 48.4917C51.7674 48.4091 51.7261 48.2645 51.6953 48.1817C51.6642 48.0785 51.7159 48.0269 51.8501 48.0269C51.9637 48.0269 52.0567 48.0888 52.0567 48.1715C52.0567 48.2541 52.0877 48.3883 52.1186 48.4813C52.1601 48.595 52.129 48.6465 52.0154 48.6465C51.9225 48.6465 51.8191 48.5742 51.7985 48.4917Z"/><path fill="#fff" d="M52.3462 48.2334C52.2947 47.9237 52.4083 47.8203 52.7801 47.8203C52.8937 47.8203 52.9867 47.9237 53.028 48.0992C53.1105 48.3987 52.9763 48.5433 52.6148 48.5433C52.4496 48.5433 52.3772 48.471 52.3462 48.2334Z"/><path fill="#fff" d="M51.2921 48.2852C51.0959 48.1301 51.0959 48.1301 51.3127 48.1301C51.4471 48.1301 51.5401 48.1922 51.5401 48.2852C51.5401 48.4711 51.5401 48.4711 51.2921 48.2852Z"/><path fill="#fff" d="M53.3681 48.2748C53.2338 48.1406 53.2958 47.7377 53.461 47.6758C53.7606 47.5622 53.8948 47.6138 53.9569 47.8823C53.9982 48.0374 54.0188 48.1716 53.9982 48.1818C53.9154 48.2748 53.43 48.3369 53.3681 48.2748Z"/><path fill="#fff" d="M54.2875 48.0578C54.2566 48.0269 54.2256 47.8926 54.2256 47.7686C54.2256 47.5931 54.3083 47.5208 54.5561 47.4691C54.7731 47.4278 54.9073 47.4485 54.9693 47.531C55.0726 47.6963 55.0726 47.9029 54.9797 47.9546C54.7937 48.0578 54.3598 48.1198 54.2875 48.0578Z"/><path fill="#fff" d="M50.8174 47.7377C50.8174 47.6137 50.9103 47.5105 51.0447 47.4794C51.3132 47.4071 51.3028 47.3967 51.3545 47.6654C51.3751 47.8202 51.3236 47.8823 51.1067 47.903C50.8795 47.9338 50.8174 47.8926 50.8174 47.7377Z"/><path fill="#fff" d="M51.6022 47.7481C51.4575 47.5932 51.5505 47.304 51.7468 47.304C51.881 47.304 51.9534 47.3763 51.9534 47.5003C51.9534 47.6966 51.7158 47.8617 51.6022 47.7481Z"/><path fill="#fff" d="M52.2219 47.4381C52.1393 47.2418 52.3148 47.0972 52.6556 47.0972C52.8107 47.0972 52.883 47.1592 52.883 47.2935C52.883 47.4071 52.79 47.5104 52.6556 47.5517C52.3148 47.6343 52.2942 47.6343 52.2219 47.4381Z"/><path fill="#fff" d="M55.2073 47.4073C55.2382 47.3556 55.2898 47.304 55.3209 47.304C55.3519 47.304 55.3415 47.3556 55.3105 47.4073C55.2796 47.4692 55.2279 47.5107 55.1969 47.5107C55.166 47.5107 55.1762 47.4692 55.2073 47.4073Z"/><path fill="#fff" d="M53.1517 47.2316C53.0689 47.025 53.1723 46.9216 53.5029 46.87C53.6888 46.8493 53.7713 46.8908 53.792 47.0352C53.8643 47.3762 53.2755 47.5621 53.1517 47.2316Z"/><path fill="#fff" d="M50.6727 47.0559C50.5797 46.7151 50.6004 46.6841 50.869 46.6841C51.0135 46.6841 51.1271 46.7255 51.1271 46.777C51.1271 46.8287 51.1581 46.9423 51.1892 47.025C51.2201 47.1282 51.1581 47.1903 50.9826 47.2212C50.7863 47.2625 50.714 47.2212 50.6727 47.0559Z"/><path fill="#fff" d="M54.1226 46.9423C54.1226 46.7564 54.1949 46.6737 54.391 46.622C54.6803 46.5497 54.8454 46.6943 54.8454 47.0249C54.8454 47.1591 54.7629 47.2004 54.484 47.2004C54.1638 47.2004 54.1226 47.1695 54.1226 46.9423Z"/><path fill="#fff" d="M50.3627 46.9422C50.3317 46.8597 50.3523 46.7874 50.404 46.7874C50.4659 46.7874 50.5074 46.8597 50.5074 46.9422C50.5074 47.025 50.4866 47.0973 50.4659 47.0973C50.4453 47.0973 50.404 47.025 50.3627 46.9422Z"/><path fill="#fff" d="M51.4061 47.0249C51.2616 46.8906 51.3442 46.6013 51.5301 46.5497C51.6437 46.5188 51.7573 46.529 51.7883 46.5601C51.9123 46.6737 51.84 46.9732 51.685 47.0351C51.4888 47.1074 51.4888 47.1074 51.4061 47.0249Z"/><path fill="#fff" d="M55.0935 46.9528C54.9799 46.6531 55.1039 46.4259 55.3932 46.395C55.61 46.364 55.6721 46.4053 55.6721 46.5706C55.6721 46.9114 55.5583 47.0973 55.3518 47.0973C55.2382 47.0973 55.1246 47.0353 55.0935 46.9528Z"/><path fill="#fff" d="M52.1291 46.8185C52.0051 46.7049 52.0464 46.4983 52.2221 46.4364C52.4182 46.3641 52.8315 46.5706 52.7179 46.6842C52.5733 46.8082 52.2014 46.9012 52.1291 46.8185Z"/><path fill="#fff" d="M53.0277 46.5602C52.9348 46.4156 53.2653 46.1677 53.534 46.1677C53.6578 46.1677 53.7095 46.2296 53.6889 46.3432C53.6476 46.5498 53.1207 46.7151 53.0277 46.5602Z"/><path fill="#fff" d="M50.1975 46.4877C50.1975 46.436 50.1666 46.3224 50.1356 46.2295C50.1046 46.1365 50.115 46.0642 50.1769 46.0642C50.3111 46.0642 50.4145 46.4567 50.2905 46.5394C50.2388 46.5704 50.1975 46.5496 50.1975 46.4877Z"/><path fill="#fff" d="M50.4763 46.2501C50.4144 46.0229 50.5382 45.8577 50.7758 45.8577C50.91 45.8577 51.0443 46.2605 50.9617 46.3948C50.8481 46.5705 50.528 46.4671 50.4763 46.2501Z"/><path fill="#fff" d="M51.1994 46.3019C51.0445 46.1471 51.1375 45.7752 51.344 45.7236C51.4989 45.6823 51.5816 45.7338 51.6642 45.9197C51.7261 46.0541 51.7571 46.1884 51.7365 46.209C51.6331 46.302 51.2615 46.3743 51.1994 46.3019Z"/><path fill="#fff" d="M53.9883 46.3019C53.8541 46.1677 53.916 46.0849 54.2259 45.9713C54.4842 45.8888 54.5565 45.899 54.6082 46.023C54.7011 46.2709 54.1847 46.5085 53.9883 46.3019Z"/><path fill="#fff" d="M54.8973 46.0644C54.7939 45.8993 54.9386 45.7546 55.2071 45.7546C55.5274 45.7546 55.6203 46.0231 55.3311 46.1058C55.0211 46.1884 54.9696 46.1782 54.8973 46.0644Z"/><path fill="#fff" d="M55.7749 45.8165C55.7749 45.6616 55.9608 45.4963 56.0434 45.5789C56.1157 45.6512 55.9711 45.9611 55.8679 45.9611C55.8162 45.9611 55.7749 45.8991 55.7749 45.8165Z"/><path fill="#fff" d="M50.0635 45.6823C50.0222 45.6513 49.9911 45.5171 50.0015 45.4035C50.0015 45.2073 50.0118 45.2073 50.1047 45.4345C50.2081 45.6823 50.1875 45.8063 50.0635 45.6823Z"/><path fill="#fff" d="M50.2591 45.5272C50.1661 45.1656 50.1765 45.1348 50.445 45.1348C50.7447 45.1348 50.9306 45.5168 50.7032 45.6615C50.4658 45.8061 50.3314 45.7648 50.2591 45.5272Z"/><path fill="#fff" d="M53.8125 45.7337C53.8125 45.7028 53.8642 45.5375 53.9261 45.3516C54.0707 44.9385 54.3909 44.9177 54.4632 45.3206C54.4943 45.4755 54.5045 45.6099 54.4943 45.6201C54.4426 45.682 53.8125 45.775 53.8125 45.7337Z"/><path fill="#fff" d="M50.9927 45.4757C50.9514 45.4447 50.9204 45.3207 50.9204 45.2071C50.9204 45.0418 50.9514 45.0316 51.0753 45.1348C51.158 45.2071 51.2303 45.3311 51.2303 45.4034C51.2303 45.5583 51.1063 45.5996 50.9927 45.4757Z"/><path fill="#fff" d="M54.7111 45.269C54.649 44.9489 54.7832 44.8042 55.1035 44.8455C55.2584 44.8662 55.3101 44.9591 55.3101 45.1865C55.3101 45.4447 55.2688 45.5066 55.0415 45.5273C54.8143 45.5583 54.7626 45.5066 54.7111 45.269Z"/><path fill="#fff" d="M55.7233 45.3104C55.589 44.8971 55.6303 44.7732 55.9092 44.7422C56.1572 44.7112 56.1881 44.7422 56.1881 45.0108C56.1881 45.238 56.1261 45.331 55.9713 45.3723C55.8575 45.4033 55.7439 45.3723 55.7233 45.3104Z"/><path fill="#fff" d="M49.9082 44.7216C49.9082 44.5253 49.9288 44.4427 49.9599 44.5459C49.9805 44.6389 49.9805 44.8041 49.9599 44.9075C49.9288 45.0005 49.9082 44.9177 49.9082 44.7216Z"/><path fill="#fff" d="M50.1664 44.856C50.0322 44.732 50.0941 44.3293 50.2594 44.2672C50.497 44.1743 50.6106 44.2879 50.6106 44.6288C50.6106 44.8456 50.5589 44.9283 50.4247 44.9283C50.3215 44.9283 50.1975 44.8973 50.1664 44.856Z"/><path fill="#fff" d="M50.7863 44.577C50.745 44.4222 50.7244 44.2569 50.7657 44.2258C50.869 44.1226 50.9309 44.2879 50.8999 44.5874L50.869 44.8766L50.7863 44.577Z"/><path fill="#fff" d="M54.1226 44.5049C54.1226 44.3913 54.1741 44.3292 54.2258 44.3603C54.2878 44.3913 54.3291 44.4945 54.3291 44.5772C54.3291 44.6598 54.2878 44.7217 54.2258 44.7217C54.1741 44.7217 54.1226 44.6287 54.1226 44.5049Z"/><path fill="#fff" d="M54.587 44.6392C54.4424 44.4843 54.556 44.2054 54.7936 44.1433C55.0931 44.071 55.1035 44.071 55.1965 44.3705C55.2584 44.5564 55.2171 44.5979 54.9485 44.6392C54.7832 44.67 54.6181 44.6598 54.587 44.6392Z"/><path fill="#fff" d="M55.5376 44.4429C55.424 44.3395 55.4548 43.9987 55.5684 43.9987C55.6305 43.9987 55.6718 43.9574 55.6718 43.8954C55.6718 43.8438 55.6099 43.7922 55.5272 43.7922C55.3516 43.7922 55.207 43.2861 55.3516 43.1414C55.5376 42.9555 55.7441 43.1517 55.8681 43.6579C55.9403 43.9264 56.0126 44.2363 56.0436 44.3395C56.0849 44.4738 56.0436 44.5152 55.8473 44.5152C55.7131 44.5152 55.5684 44.4842 55.5376 44.4429Z"/><path fill="#fff" d="M56.0952 43.8955C56.0229 43.5855 55.8369 42.9659 55.7027 42.5113C55.4961 41.8503 55.4755 41.6851 55.5891 41.6127C55.6614 41.5611 55.7544 41.5198 55.7853 41.5198C55.8989 41.5198 56.3121 43.6372 56.2707 44.0503L56.2398 44.4635L56.0952 43.8955Z"/><path fill="#fff" d="M49.8052 43.8436C49.8052 43.6784 49.8258 43.6164 49.8569 43.7196C49.8775 43.8126 49.8775 43.9572 49.8569 44.0296C49.8258 44.0915 49.8052 44.0192 49.8052 43.8436Z"/><path fill="#fff" d="M50.0114 43.8229C50.0528 43.4615 50.3523 43.3788 50.4349 43.7093C50.5072 43.9778 50.5279 43.9469 50.2181 44.0501C50.0011 44.1122 49.9805 44.0916 50.0114 43.8229Z"/><path fill="#fff" d="M54.3703 43.73C54.2878 43.4305 54.4633 43.255 54.7939 43.2963C55.0417 43.3273 55.1347 43.7713 54.9281 43.9057C54.6699 44.0708 54.4324 43.9987 54.3703 43.73Z"/><path fill="#fff" d="M50.6104 43.6475C50.6104 43.4719 50.662 43.3789 50.7756 43.3789C50.879 43.3789 50.9203 43.4512 50.8996 43.6061C50.8479 43.9367 50.6104 43.9677 50.6104 43.6475Z"/><path fill="#fff" d="M49.6915 43.2136C49.6915 43.1 49.7225 43.0691 49.7535 43.1516C49.7844 43.224 49.7742 43.3169 49.7431 43.348C49.7121 43.3892 49.6812 43.3272 49.6915 43.2136Z"/><path fill="#fff" d="M49.8877 43.1828C49.8877 43.0277 49.9496 42.9658 50.1047 42.9658C50.2491 42.9658 50.3008 43.0175 50.2802 43.1415C50.2285 43.41 49.8877 43.441 49.8877 43.1828Z"/><path fill="#fff" d="M50.4555 43.0898C50.3831 42.9039 50.3831 42.9039 50.6931 42.8211C50.879 42.7592 50.9203 42.7903 50.9203 42.9451C50.9203 43.193 50.5484 43.317 50.4555 43.0898Z"/><path fill="#fff" d="M54.1947 42.9452C54.1223 42.687 54.2566 42.5527 54.618 42.5527C54.7937 42.5527 54.8454 42.6147 54.8454 42.811C54.8454 42.9659 54.7833 43.0692 54.7007 43.0692C54.618 43.0692 54.4838 43.1003 54.4012 43.1311C54.3083 43.1622 54.2359 43.1003 54.1947 42.9452Z"/><path fill="#fff" d="M55.093 42.7078C55.0103 42.5011 55.1343 42.3462 55.3719 42.3462C55.5165 42.3462 55.568 42.4185 55.568 42.6044C55.568 42.7904 55.5165 42.8627 55.3615 42.8627C55.2479 42.8627 55.1239 42.7904 55.093 42.7078Z"/><path fill="#fff" d="M49.7842 42.5628C49.7842 42.3459 50.0218 42.098 50.1251 42.2116C50.1664 42.2427 50.1975 42.3872 50.1975 42.5216C50.1975 42.6867 50.1354 42.759 49.9907 42.759C49.8565 42.759 49.7842 42.6867 49.7842 42.5628Z"/><path fill="#fff" d="M50.3523 42.4388C50.2698 42.1807 50.3628 42.0669 50.714 42.0154C51.0341 41.974 51.1375 42.3149 50.8586 42.5215C50.5899 42.7177 50.4247 42.6868 50.3523 42.4388Z"/><path fill="#fff" d="M54.0916 42.377C54.0193 42.3151 53.9884 41.9329 54.0503 41.9329C54.0607 41.9329 54.2156 41.8916 54.4015 41.8399C54.7114 41.7469 54.7321 41.7573 54.7217 42.0362C54.7114 42.2428 54.6493 42.3461 54.4945 42.3874C54.2156 42.4597 54.1743 42.4597 54.0916 42.377Z"/><path fill="#fff" d="M53.7095 42.1393C53.7095 42.0672 53.7404 42.0361 53.7816 42.0672C53.8127 42.1084 53.8127 42.1704 53.7816 42.2116C53.7404 42.2427 53.7095 42.2116 53.7095 42.1393Z"/><path fill="#fff" d="M54.8661 41.9742C54.8971 41.7987 55.2173 41.5405 55.2896 41.623C55.3206 41.6541 55.3722 41.7779 55.4032 41.9123C55.4755 42.1189 55.4445 42.1395 55.1554 42.1395C54.9074 42.1395 54.8352 42.0982 54.8661 41.9742Z"/><path fill="#fff" d="M49.8877 41.9639C49.8877 41.9122 49.9394 41.809 49.9909 41.7263C50.0736 41.6024 50.0943 41.6127 50.0943 41.809C50.0943 41.933 50.053 42.0362 49.9909 42.0362C49.9394 42.0362 49.8877 42.0051 49.8877 41.9639Z"/><path fill="#fff" d="M50.1973 41.7368C50.1973 41.4475 50.4142 41.3545 50.5795 41.5715C50.6827 41.7264 50.6827 41.778 50.5795 41.8503C50.3625 41.9846 50.1973 41.9433 50.1973 41.7368Z"/><path fill="#fff" d="M53.3375 41.6022C53.1516 41.3957 53.1516 41.3854 53.3273 41.4473C53.4305 41.4886 53.5647 41.5196 53.6164 41.5196C53.6681 41.5196 53.7094 41.592 53.7094 41.6745C53.7094 41.8915 53.5647 41.8709 53.3375 41.6022Z"/><path fill="#fff" d="M51.1167 41.5919C50.6725 41.2511 50.6106 40.4868 51.0237 40.4868C51.3026 40.4868 51.5608 40.9206 51.5195 41.3235C51.4885 41.6953 51.3647 41.7779 51.1167 41.5919Z"/><path fill="#fff" d="M53.947 41.6541C53.9883 41.6231 54.0502 41.6231 54.0915 41.6541C54.1226 41.6954 54.0915 41.7265 54.0192 41.7265C53.947 41.7265 53.916 41.6954 53.947 41.6541Z"/><path fill="#fff" d="M55.5062 41.2513C55.5373 41.1583 55.5682 41.0653 55.5682 41.0447C55.5682 41.0241 55.6198 41.0034 55.6715 41.0034C55.7334 41.0034 55.7747 41.0964 55.7747 41.21C55.7747 41.3338 55.7024 41.4165 55.6094 41.4165C55.4958 41.4165 55.465 41.3649 55.5062 41.2513Z"/><path fill="#fff" d="M50.0942 41.2202C50.0942 40.9827 50.3112 40.5901 50.435 40.5901C50.652 40.5901 50.497 41.2512 50.2698 41.2925C50.1768 41.3131 50.0942 41.2822 50.0942 41.2202Z"/><path fill="#fff" d="M52.4182 41.1066L52.1084 41.0342L52.3873 40.9619C52.6764 40.8794 52.883 40.9413 52.883 41.117C52.883 41.2202 52.8727 41.2202 52.4182 41.1066Z"/><path fill="#fff" d="M52.0566 40.6106C52.0566 40.1871 52.2942 40.1252 52.5112 40.497C52.6558 40.7449 52.6661 40.7966 52.5318 40.7966C52.4493 40.7966 52.3149 40.8276 52.2219 40.8585C52.0981 40.9102 52.0566 40.8482 52.0566 40.6106Z"/><path fill="#fff" d="M53.8537 40.7554C53.3889 40.5488 53.0894 40.0015 53.0894 39.3508C53.0894 38.886 53.1306 38.7724 53.4095 38.5141C53.585 38.3488 53.7607 38.2146 53.8122 38.2146C54.0396 38.2146 54.8762 39.01 55.1551 39.5056L55.4753 40.0738L55.1345 40.4352C54.7418 40.8484 54.3081 40.962 53.8537 40.7554Z"/><path fill="#fff" d="M51.6953 40.4869C51.6642 40.4352 51.6849 40.3835 51.7365 40.3835C51.7985 40.3835 51.8501 40.4352 51.8501 40.4869C51.8501 40.5488 51.8295 40.5903 51.8089 40.5903C51.7778 40.5903 51.7263 40.5488 51.6953 40.4869Z"/><path fill="#fff" d="M50.3421 40.3216C50.373 40.2286 50.4041 40.1356 50.4041 40.115C50.4041 40.0944 50.497 40.0737 50.6106 40.0737C50.8689 40.0737 50.8791 40.239 50.6209 40.3836C50.3421 40.5281 50.2698 40.5179 50.3421 40.3216Z"/><path fill="#fff" d="M51.1582 40.1975C50.9206 40.1666 50.8483 40.0324 51.0033 39.9394C51.0446 39.9084 51.2305 39.8567 51.4164 39.8154C51.6953 39.7535 51.7468 39.7741 51.7468 39.9497C51.7468 40.1666 51.5301 40.2596 51.1582 40.1975Z"/><path fill="#fff" d="M51.9531 39.8465C51.9531 39.7227 51.9635 39.6503 51.9842 39.671C51.9944 39.6916 52.0771 39.7948 52.1494 39.8982C52.2733 40.0428 52.263 40.0737 52.1184 40.0737C52.015 40.0737 51.9531 39.9911 51.9531 39.8465Z"/><path fill="#fff" d="M50.5073 39.7741C50.5073 39.7122 50.559 39.6398 50.6105 39.609C50.6726 39.5779 50.7139 39.6192 50.7139 39.7019C50.7139 39.7949 50.6726 39.867 50.6105 39.867C50.559 39.867 50.5073 39.8258 50.5073 39.7741Z"/><path fill="#fff" d="M50.8898 39.6193C50.8072 39.4127 51.5405 39.1855 51.6645 39.3817C51.7574 39.547 51.6645 39.6193 51.272 39.702C51.0344 39.7535 50.931 39.7329 50.8898 39.6193Z"/><path fill="#fff" d="M51.86 39.2886C51.86 39.175 51.891 39.1439 51.9219 39.2267C51.9529 39.299 51.9425 39.3919 51.9116 39.4228C51.8806 39.4643 51.8496 39.4022 51.86 39.2886Z"/><path fill="#fff" d="M50.9823 39.1236C51.1061 38.8963 51.4677 38.5244 51.5607 38.5244C51.6639 38.5244 51.6743 39.0099 51.5709 39.0719C51.5194 39.0926 51.3541 39.1443 51.1991 39.1855C50.9719 39.2372 50.9202 39.2268 50.9823 39.1236Z"/><path fill="#fff" d="M51.8088 38.8858C51.6952 38.5761 51.7469 38.4417 51.9947 38.4004C52.253 38.3487 52.253 38.3487 52.0877 38.669C51.8811 39.0821 51.8914 39.0821 51.8088 38.8858Z"/><path fill="#fff" d="M51.7471 38.2663C51.7471 38.2455 51.9536 38.101 52.2119 37.9563C52.5218 37.7704 52.7386 37.7085 52.8936 37.7498C53.0796 37.8117 53.0279 37.853 52.5733 38.0699C52.0672 38.2971 51.7471 38.3799 51.7471 38.2663Z"/><path fill="#fff" d="M57.479 29.1148C57.2001 28.7119 56.6114 28.0612 56.1879 27.6687C55.7644 27.2762 55.4855 26.9561 55.5682 26.9561C55.7954 26.9561 57.5306 27.4311 57.9644 27.617C58.326 27.7719 58.3362 27.7927 58.2433 28.1129C58.1918 28.2988 58.1503 28.7636 58.1503 29.1457C58.1503 29.5381 58.1194 29.8481 58.0782 29.8481C58.0265 29.8481 57.7682 29.5175 57.479 29.1148Z"/><path fill="#fff" d="M36.4605 60.4009C36.037 60.1841 35.9441 60.0601 35.4069 58.9963C34.6324 57.4883 34.6116 57.137 35.345 57.9943C35.6341 58.3351 36.3057 59.0375 36.8324 59.554C37.7309 60.4215 37.7722 60.4836 37.4727 60.4423C37.2559 60.4113 37.1732 60.4319 37.2249 60.5145C37.3489 60.7004 36.9562 60.6489 36.4605 60.4009Z"/><path fill="#363939" fill-rule="evenodd" d="M53.7697 79.219C53.6841 79.0153 53.7796 78.7809 53.9831 78.6952L54.2057 78.6008C56.3693 77.675 57.6111 77.1188 58.4549 76.2358C59.2988 75.3528 59.3997 74.0558 59.5583 73.2667C59.6018 73.05 60.0922 73.4304 60.3089 73.4739C60.5253 73.5174 60.6657 73.7283 60.6221 73.9449C60.4316 74.8937 59.9183 75.7984 59.0919 76.6571C58.2684 77.5129 56.674 78.4304 54.2937 79.4324C54.09 79.5182 53.8554 79.4227 53.7697 79.219Z" clip-rule="evenodd"/><path fill="#363939" fill-rule="evenodd" d="M63.5541 38.0071C63.7438 37.894 63.9894 37.9564 64.1024 38.1461C65.2338 40.0468 65.8398 42.2196 65.8398 44.4801C65.8398 51.3284 60.2882 56.8801 53.4398 56.8801C51.6202 56.8801 49.8552 56.4876 48.2389 55.7397C48.0384 55.6469 47.281 54.9084 48.0438 55.2087C48.8066 55.5092 51.7581 56.1834 53.4611 56.1834C59.8677 56.1834 64.3998 50.8865 64.3998 44.4801C64.3998 42.3645 63.5541 40.4869 63.4149 38.5554C63.3989 38.3314 63.3642 38.1201 63.5541 38.0071Z" clip-rule="evenodd"/><path fill="#363939" fill-rule="evenodd" d="M23.9388 68.2807C24.0802 68.1109 24.3324 67.768 24.5022 67.9093C25.1985 68.4893 25.9417 69.1613 26.7366 69.2911C27.5636 69.4261 28.5449 69.4261 29.679 69.2887C29.8983 69.2623 30.0977 69.4184 30.1242 69.6378C30.1508 69.8572 29.9945 70.0564 29.7751 70.0829C28.5708 70.2287 27.5155 70.2287 26.6076 70.0807C25.6676 69.9272 24.7935 69.5132 23.9902 68.844C23.8204 68.7026 23.7975 68.4504 23.9388 68.2807Z" clip-rule="evenodd"/><path fill="#fff" d="M32.4318 54.2863C31.9153 53.8732 30.8102 52.6543 29.9735 51.5801C29.5398 51.0121 29.0543 49.8553 28.765 48.6881C28.6308 48.1613 28.4966 47.6861 28.4655 47.6242C28.4242 47.5725 28.259 46.8393 28.0937 45.9922C27.8458 44.7941 27.8982 44.4081 27.6806 42.9749C27.5884 42.3681 27.5049 41.8853 27.5049 41.8853L27.7735 41.5405C27.9284 41.334 28.1244 40.9921 28.1969 40.7969C28.5274 39.9074 30.9548 37.1197 31.0271 37.1921C31.0478 37.2127 30.965 37.6981 30.8204 38.2663C30.6862 38.8343 30.5209 39.6916 30.4486 40.177C30.3454 40.9828 30.3041 41.0757 29.9838 41.3442C29.581 41.6852 28.8167 42.7799 28.8167 43.0073C28.8167 43.317 29.2815 43.1105 29.767 42.6044L30.2626 42.0879V42.6561C30.2626 43.0279 30.1905 43.3687 30.0561 43.6372C29.7978 44.1434 29.7978 44.6804 30.0458 45.0937C30.1697 45.3002 30.2834 45.7959 30.3556 46.3847C30.6759 49.0495 31.3575 51.3633 32.5247 53.6873C32.814 54.2657 33.0412 54.7407 33.0308 54.7407C33.0102 54.7407 32.7417 54.5341 32.4318 54.2863Z"/><path fill="#fff" fill-rule="evenodd" d="M75.4102 60.6591L76.1538 60.9897C76.3081 61.0607 78.0094 61.8782 80.0527 62.8601C83.3473 64.4431 87.5314 66.4535 87.5569 66.4535C87.5983 66.4535 87.7921 66.0054 87.8358 65.4826C87.9391 64.3569 88.3212 62.8281 88.7654 61.7642C88.9719 61.2892 89.1372 60.6953 89.1372 60.6438C89.1372 60.6201 88.9694 60.5524 88.6945 60.4415C88.3671 60.3095 87.8884 60.1164 87.3607 59.8638C84.7578 58.614 79.6657 56.0628 79.0356 55.6806C78.4159 55.3191 78.2919 55.2881 78.2919 55.5257C78.2919 55.8356 77.662 57.2713 77.1764 58.0458C76.9183 58.4694 76.4121 59.2337 76.0506 59.7398L75.4102 60.6591ZM87.3814 64.5943C87.6775 64.766 87.1644 65.0178 87.0406 65.0591C86.3106 65.1212 85.4514 64.9839 84.7474 64.5737C84.3794 64.3127 81.481 62.7025 79.5585 61.6343C78.6796 61.1462 78.0046 60.7711 77.8686 60.6902C77.4346 60.4319 77.0215 60.153 76.9492 60.0703C76.7324 59.7914 76.939 59.6676 77.5482 59.7191C77.9146 59.7502 86.7415 64.2236 87.3814 64.5943Z" clip-rule="evenodd"/><path fill="#fff" d="M67.994 61.5887C67.7254 61.4958 67.4363 61.289 67.2504 61.0516L66.9404 60.6694L68.0353 59.5849C69.7188 57.9322 70.9584 56.1262 72.0739 54.1121C72.4457 53.4407 73.5508 50.733 73.6851 50.4335C73.8918 49.9998 74.0467 49.8345 74.4908 49.5866C75.0175 49.2767 75.6166 49.1734 75.8748 49.349C76.3707 49.6794 76.3707 50.7228 75.8748 52.5199C75.3275 54.4927 74.594 55.9078 73.0758 57.9426C72.8382 58.2524 72.394 58.8618 72.0739 59.2854C71.2166 60.4215 70.6588 60.9689 69.9048 61.3924C69.1611 61.8055 68.7273 61.8572 67.994 61.5887Z"/><path fill="#fff" d="M71.8883 61.3512L71.6714 61.1344C71.6714 61.1344 75.2715 56.5604 75.9165 54.875C76.4088 53.5889 76.6986 53.2241 77.0895 53.2241C77.308 53.2241 77.4866 53.274 77.5691 53.398C77.7138 53.615 77.8531 53.8835 77.6672 54.8027C77.3573 56.29 76.8823 57.2713 75.4568 59.3888C75.1263 59.8742 74.7029 60.4113 74.517 60.5972C74.0831 61 73.1071 61.4132 72.5391 61.5062C72.1776 61.5577 72.0743 61.5371 71.8883 61.3512Z"/><path fill="#EAEAEA" fill-rule="evenodd" d="M77.9348 56.5682C78.1431 56.0918 78.2916 55.6761 78.2916 55.5257C78.2916 55.2881 78.4154 55.3191 79.0353 55.6806C79.6652 56.0628 84.7574 58.614 87.3602 59.8638C88.3311 60.3286 89.1369 60.5921 89.1369 60.6438C89.1369 60.6953 77.714 57.0735 77.9348 56.5682Z" clip-rule="evenodd"/><path fill="#EAEAEA" fill-rule="evenodd" d="M42.5953 57.1576C41.2835 56.3003 39.3003 54.2862 38.3398 52.8504C36.966 50.7846 36.0571 48.5744 35.6129 46.1987C35.2928 44.4737 35.3032 41.8193 35.6233 40.2803C35.9539 38.7102 36.3772 37.5121 37.1313 35.9937C38.0092 34.2379 38.9388 32.9469 40.3332 31.5525C41.7006 30.1851 35.6233 35.8398 37.1313 45.9573C38.3398 54.4357 43.5334 57.7757 42.5953 57.1576Z" clip-rule="evenodd"/></svg>