<svg width="120" height="120" viewBox="0 0 120 120" fill="none" xmlns="http://www.w3.org/2000/svg">
<path fill-rule="evenodd" clip-rule="evenodd" d="M115.668 50.1362C114.286 60.4442 112.725 65.8892 103.616 76.6841C94.5078 87.4791 52.8259 94.5806 37.4162 94.5806C22.0064 94.5806 3.0156 82.698 4.21416 68.9302C5.41272 55.1622 11.6658 43.9094 26.6328 42.5241C41.9283 41.1084 55.3642 47.6641 70.3808 44.1482C83.3634 41.1084 87.3355 29.522 96.2523 25.8666C114.286 18.4737 116.609 43.1236 115.668 50.1362Z" fill="#FFE393"/>
<path d="M106.391 55.1706C105.881 56.0341 99.4315 60.4039 95.5192 61.0506C94.7622 61.1757 93.9355 61.2188 93.2777 60.8234C92.8893 60.5898 92.5998 60.2256 92.3248 59.8653C91.6961 59.0416 91.0963 58.1957 90.527 57.3298C90.2277 56.8748 89.931 56.3999 89.8294 55.8648C89.5601 54.448 90.7022 53.1756 91.8309 52.278C94.4253 50.2144 97.4629 48.7111 100.677 47.9002C101.246 47.7567 101.849 47.6351 102.413 47.7981C103.328 48.0628 103.875 48.9885 104.224 49.8746C104.573 50.7607 104.845 51.73 105.543 52.3781C105.702 52.5261 106.9 54.3071 106.391 55.1706Z" fill="white"/>
<path fill-rule="evenodd" clip-rule="evenodd" d="M71.7347 92.8168C65.4752 93.8873 68.4586 89.3379 69.3218 83.6436C70.7402 74.287 72.4893 60.0681 72.4893 60.0681C72.4893 60.0681 73.6299 81.7344 73.6299 87.0099C73.6299 92.2856 72.4891 92.6878 71.7347 92.8168Z" fill="white"/>
<path d="M65.0465 87.6617C65.2063 89.1685 65.3748 90.707 66.015 92.0801C65.6657 88.9707 65.3164 85.8611 64.967 82.7517C64.9239 82.3677 64.9367 81.8789 65.2898 81.7222C65.5889 85.2334 66.0345 88.7321 66.6254 92.2062C66.6954 92.6187 66.0759 92.8544 65.7279 92.6221C65.3801 92.3897 65.2687 91.9374 65.1897 91.5265C64.613 88.5329 64.2961 85.4894 64.2434 82.4413C63.5094 82.5857 62.9946 83.2974 62.8462 84.0307C62.6977 84.7638 62.8407 85.5211 62.9838 86.2555C63.4441 88.6192 63.9044 90.9829 64.3647 93.3465C64.5801 94.4521 64.7954 95.5944 64.5578 96.6955C63.6442 92.5241 62.9097 88.3137 62.357 84.0795C55.3468 88.3662 46.314 89.1633 38.6614 86.1705C36.99 85.5169 35.33 84.6509 34.2262 83.2358C33.3566 82.1213 32.8926 80.7374 32.6494 79.3448C31.786 74.3987 33.5553 69.3536 35.9567 64.9443C36.8679 63.2712 37.9057 61.5286 37.8321 59.6249C37.8068 58.9696 37.6655 58.244 38.0482 57.7112C38.1023 57.8099 35.5426 39.4995 36.5695 35.4493C39.0415 25.6987 47.0722 24.3782 52.214 24.4985C55.6639 24.5792 77.5318 28.9251 80.6913 34.8349C84.8438 42.6022 83.9622 49.1326 83.2247 53.4385C83.005 54.7208 72.4922 59.9734 72.4894 60C71.8884 65.5872 67.8551 77.7617 64.4726 82.2491C64.6639 84.0533 64.8553 85.8576 65.0465 87.6617Z" fill="white"/>
<path fill-rule="evenodd" clip-rule="evenodd" d="M14.5698 64.9278C12.5982 64.1407 10.2487 64.3742 8.47126 65.5337C8.29918 65.6458 8.05179 65.5207 7.9666 65.334C7.8814 65.1473 7.91327 64.93 7.95684 64.7295C8.52454 62.117 10.786 60.1182 13.301 59.1994C15.816 58.2809 18.567 58.2783 21.2404 58.4353C21.5057 58.451 21.783 58.4716 22.0092 58.6106C22.2355 58.7497 22.3878 59.0471 22.275 59.2873C21.2233 61.5268 20.4312 63.8874 19.9192 66.3074C19.8361 66.6998 19.4296 66.9601 19.0291 66.9929C18.6286 67.0255 18.2363 66.8778 17.8729 66.7068C16.7403 66.1737 15.7324 65.3919 14.5698 64.9278Z" fill="white"/>
<path fill-rule="evenodd" clip-rule="evenodd" d="M75.1695 25.4901C75.2674 23.9915 75.1545 22.4792 74.8349 21.0118L74.8281 20.9805C74.7738 20.7323 74.7181 20.4771 74.7681 20.2288C74.8786 19.6797 75.4885 19.3491 76.0487 19.3606C76.6087 19.3722 77.1276 19.6395 77.6233 19.9006C80.0001 21.1528 82.4199 22.4365 84.2913 24.364C84.35 25.9245 83.9823 27.4643 83.6193 28.9845L83.5852 29.1274C82.0695 35.4811 80.8285 41.9005 79.8666 48.3613C79.7743 48.9805 79.5996 49.711 79.0122 49.9278C78.5909 50.0835 78.101 49.8846 77.8017 49.5498C77.5023 49.2149 77.3593 48.7704 77.2594 48.3325C77.0132 47.252 76.9836 46.1227 77.1729 45.0309C77.2885 44.3632 77.4841 43.7138 77.6797 43.0642L77.6799 43.064V43.0638V43.0637C77.8556 42.4806 78.0313 41.8974 78.1492 41.3006C78.2671 40.7038 78.3266 40.0973 78.3844 39.4917C78.6911 36.2714 78.9513 33.0466 79.1649 29.8187C79.1949 29.3627 79.2225 28.8922 79.073 28.4602C78.8073 27.6918 78.0332 27.2061 77.2513 26.9835C77.1164 26.9451 76.9796 26.9125 76.8426 26.8798C76.5241 26.8038 76.2057 26.7278 75.9149 26.5798C75.4996 26.3682 75.1391 25.9554 75.1695 25.4901ZM76.6218 25.3669C77.7271 25.6002 78.8073 25.9523 79.8377 26.4155C80.0452 26.5088 80.2634 26.6179 80.3754 26.8158C80.4669 26.9774 80.4722 27.1722 80.4749 27.3579C80.5074 29.5395 80.5143 31.727 80.2833 33.8966C80.1449 35.1958 79.9217 36.4837 79.6986 37.7714C79.6279 38.1789 79.5573 38.5866 79.4893 38.9944C79.1532 41.0131 78.8826 43.0426 78.6783 45.0787C78.53 46.5562 78.4213 48.083 78.8809 49.495C79.1167 49.452 79.2074 49.168 79.2521 48.9325L83.4991 26.5474C83.602 26.005 83.7047 25.4442 83.5836 24.9056C83.3713 23.9627 82.5343 23.307 81.7274 22.775C80.1741 21.751 78.5207 20.8789 76.7985 20.175C76.6551 21.9014 76.5962 23.6347 76.6218 25.3669ZM78.8058 40.0685C79.5834 36.0765 79.9348 32.0014 79.8519 27.9352C79.8457 27.628 79.829 27.2979 79.6412 27.0549C79.5036 26.8768 79.2933 26.7725 79.0879 26.6805C78.3164 26.3349 77.5053 26.0778 76.6756 25.9157C76.4356 25.8688 76.0825 25.9197 76.093 26.1642L79.0751 27.3963C79.25 27.4686 79.4364 27.5504 79.5351 27.7118C79.6321 27.8701 79.6226 28.069 79.61 28.2541L78.8058 40.0685ZM76.0309 19.7802C75.785 19.6171 75.4298 19.7851 75.2929 20.0464C75.1559 20.3077 75.1769 20.6203 75.2079 20.9136C75.2533 21.344 75.3133 21.7746 75.3733 22.2053C75.5396 23.4 75.706 24.5952 75.5647 25.7875C75.7901 25.865 76.042 25.7059 76.1513 25.4941C76.2607 25.2822 76.2636 25.0334 76.2639 24.7949L76.2716 20.4954C76.2719 20.2326 76.2498 19.9253 76.0309 19.7802ZM78.2389 49.3981C78.1036 48.3355 78.0681 47.2603 78.1332 46.1912C78.1679 45.6194 78.2313 45.0498 78.2948 44.4802C78.3786 43.7269 78.4625 42.9739 78.4801 42.2166C77.8607 44.0602 77.6268 46.032 77.7978 47.9693C77.8423 48.4731 77.9249 49.0016 78.2389 49.3981ZM78.5797 41.1277C78.6794 41.083 78.7213 40.943 78.6625 40.851C78.5613 40.901 78.5183 41.0422 78.5746 41.14L78.5797 41.1277ZM77.6537 31.895C72.7247 28.8554 67.1514 27.0341 61.5778 25.4626C59.7961 24.9602 57.9994 24.4787 56.1597 24.2726C50.7089 23.6621 45.1828 25.5427 40.6503 28.6318C38.8325 29.8709 37.0786 31.3947 36.2933 33.4496C35.7106 34.9742 35.7146 36.6526 35.7708 38.2838C35.9647 43.9098 36.6865 49.5026 37.4076 55.0854C37.9713 54.9837 38.0269 54.204 37.9453 53.6371C37.1956 48.4307 36.7753 43.1768 36.6876 37.9174C36.6629 36.4427 36.6706 34.9307 37.181 33.5467C38.105 31.0416 40.4879 29.4034 42.826 28.1139C45.7709 26.4899 48.9722 25.1248 52.3345 25.0523C56.4073 24.9646 60.2677 26.7712 63.8255 28.7554C65.809 29.8614 67.8201 31.0968 69.082 32.985C70.2277 34.6997 70.6441 36.7893 70.9447 38.8294C71.8988 45.3045 71.9338 51.8755 71.9669 58.4205C71.9682 58.6853 71.9521 58.9886 71.7447 59.1533C71.6028 59.2658 71.4092 59.2798 71.2284 59.2893L64.5839 59.6352C67.6801 60.5253 71.1148 60.1742 73.9668 58.676L81.3497 54.7974C82.0388 54.4354 82.75 54.0552 83.225 53.4386C83.8786 52.5899 83.9722 51.4482 84.0029 50.3774C84.1169 46.4227 83.7215 42.4538 82.8295 38.5994C83.1388 42.769 83.1817 46.9582 82.9578 51.1333C82.9197 51.8462 82.8625 52.5942 82.4748 53.1938C82.0607 53.8342 81.3407 54.1968 80.6548 54.5302L72.6871 58.4029C73.0169 52.212 72.7612 45.9902 71.9244 39.8475C71.6429 37.7814 71.2839 35.6864 70.3385 33.828C68.1039 29.436 63.1583 27.2634 58.5874 25.4226C65.4212 27.4218 72.3329 29.4541 78.4809 33.0458C78.5609 32.5496 78.0815 32.1589 77.6537 31.895ZM103.117 50.7925C103.471 51.7054 103.969 52.6787 104.885 53.0267C105.102 53.0435 105.231 52.7558 105.16 52.5504C105.101 52.3787 104.961 52.2538 104.824 52.1309C104.813 52.1219 104.804 52.1131 104.794 52.1042L104.778 52.0904L104.766 52.0795L104.759 52.0726C104.754 52.0678 104.748 52.063 104.743 52.0582C104.161 51.517 103.875 50.752 103.593 49.9986L103.593 49.9979C103.537 49.8491 103.482 49.7008 103.424 49.5546C103.075 48.6685 102.528 47.7429 101.613 47.4781C101.049 47.315 100.446 47.4366 99.8773 47.5802C96.6631 48.3912 93.6253 49.8944 91.0309 51.9579C89.9023 52.8555 88.7604 54.128 89.0295 55.5448C89.1313 56.0798 89.4279 56.5549 89.7271 57.0098C90.2965 57.8757 90.8964 58.7216 91.525 59.5454C91.8001 59.9058 92.0895 60.2699 92.478 60.5034C93.1356 60.8987 93.9623 60.8557 94.7194 60.7306C98.6317 60.0839 101.98 57.6525 105.166 55.292C105.332 55.1691 105.505 55.0382 105.591 54.8506C105.677 54.663 105.64 54.4019 105.458 54.3051C105.249 54.1941 105.002 54.3474 104.816 54.4933C101.851 56.8146 98.6837 59.083 95.0074 59.8986C94.3105 60.0531 93.5423 60.1442 92.9153 59.8029C92.4461 59.5477 92.1293 59.0886 91.8301 58.6461L89.9756 55.9019C89.8194 55.6709 89.6573 55.4224 89.6516 55.1435C89.6458 54.8646 89.8713 54.5629 90.1479 54.5989C92.7476 54.937 95.3596 55.18 97.9769 55.3274C98.1853 55.339 98.4033 55.3485 98.593 55.2618C98.8377 55.1501 98.9868 54.9027 99.1172 54.6677C100.225 52.6701 101.072 50.5275 101.628 48.312C102.368 48.8424 102.713 49.7406 103.042 50.5978L103.042 50.5984C103.067 50.6634 103.092 50.7282 103.117 50.7925ZM100.829 48.1366C100.334 49.9896 99.6012 51.7789 98.6546 53.4469C98.4959 53.7266 98.3197 54.0146 98.0423 54.177C97.6893 54.3837 97.2501 54.3448 96.8436 54.2994L90.3679 53.5768C91.4423 52.1571 93.0383 51.2357 94.633 50.444C96.1426 49.6946 97.6922 49.0261 99.2732 48.4422C99.7737 48.2574 100.299 48.0784 100.829 48.1366ZM65.0468 87.6618C65.2066 89.1685 65.3749 90.7071 66.0153 92.0803L64.9673 82.7517C64.9241 82.3677 64.9369 81.8789 65.2901 81.7223C65.589 85.2336 66.0346 88.7323 66.6255 92.2064C66.6956 92.6187 66.0762 92.8544 65.7282 92.6221C65.3802 92.3898 65.269 91.9374 65.1898 91.5267C64.6133 88.5331 64.2964 85.4894 64.2436 82.4413C63.5097 82.5859 62.9948 83.2975 62.8463 84.0307C62.6978 84.764 62.841 85.5211 62.9841 86.2555L64.365 93.3466C64.5804 94.4522 64.7956 95.5946 64.558 96.6955C63.6444 92.5242 62.9098 88.3138 62.3572 84.0795C55.3469 88.3662 46.3141 89.1634 38.6615 86.1707C36.9901 85.5171 35.3303 84.6509 34.2263 83.236C33.3567 82.1213 32.8927 80.7374 32.6497 79.3448C31.7863 74.3987 33.5556 69.3536 35.9569 64.9443C36.0194 64.8294 36.0826 64.7142 36.146 64.5987C37.0053 63.0312 37.9009 61.3981 37.8324 59.6251C37.8277 59.508 37.8196 59.3885 37.8113 59.2683C37.7732 58.7163 37.7341 58.1488 38.0484 57.7114C38.47 58.4782 38.6306 59.3858 38.4977 60.2509C45.7551 59.9386 53.0233 59.8755 60.285 60.0622C60.3698 60.3962 59.8861 60.5512 59.5417 60.5461C52.7649 60.445 45.9849 60.5605 39.2154 60.8922C39.001 60.9027 38.7761 60.9166 38.5943 61.0309C38.4031 61.1509 38.2917 61.3616 38.1889 61.5626C36.2677 65.3218 34.3401 69.1357 33.4114 73.2541C32.9338 75.3718 32.7509 77.6898 33.7298 79.6275C34.101 80.3627 34.6263 81.012 35.2125 81.5904C38.3605 84.6954 43.0743 85.6472 47.4951 85.573C50.3167 85.5255 53.1321 85.1199 55.8522 84.369C58.7361 83.5728 61.6122 82.3179 63.5805 80.065C64.7365 78.7419 65.5221 77.1397 66.2101 75.5232C67.5239 72.4366 68.5316 69.2198 69.2137 65.9354C69.6407 66.0253 69.6468 66.6291 69.5482 67.0542C68.3289 72.3144 66.9116 77.9213 62.8956 81.5306C59.2684 84.7904 54.1573 85.8015 49.2881 86.0741C46.4756 86.2315 43.6185 86.1823 40.8943 85.4653C38.17 84.7483 35.5689 83.3141 33.8393 81.0904C34.3437 83.0138 36.0524 84.3864 37.8313 85.2746C42.502 87.6069 48.0175 87.4837 53.1748 86.673C56.6101 86.1328 60.1364 85.2466 62.81 83.0226C65.0954 81.1216 66.5517 78.4067 67.6481 75.6435C68.8615 72.585 69.7033 69.3792 70.1489 66.1192C70.4265 65.9438 70.6321 66.4342 70.597 66.7606C69.9959 72.348 67.8553 77.7618 64.4727 82.2491L65.0468 87.6618ZM61.7986 97.2162C61.5007 96.713 61.3087 96.1472 61.2393 95.5664L60.8109 97.0174L59.7305 92.8963C59.6466 92.5766 59.4426 92.1767 59.1193 92.2453C58.805 92.312 58.7698 92.7434 58.8165 93.0613C59.0521 94.66 59.501 96.2271 60.1479 97.708L58.9986 96.6995C58.9428 97.1797 59.0692 97.6787 59.3468 98.0742C58.7482 97.6334 57.9453 97.4832 57.2279 97.6778C57.7405 98.3901 58.4365 98.9693 59.2303 99.344L58.2593 97.9887C59.0442 98.4416 59.8665 98.8299 60.7151 99.148L59.8924 98.1163L60.9089 98.3981C60.1309 96.6285 59.3386 94.7914 59.3573 92.8586C59.6519 94.4309 60.0828 95.9778 60.6441 97.4759C60.7391 97.7298 60.8447 97.9922 61.0473 98.1723C61.25 98.3525 61.5791 98.4203 61.7913 98.2517C61.9564 98.1207 62.0045 97.8944 62.0418 97.687L62.4997 95.1479L63.0026 98.2968C63.3839 97.3338 64.6241 97.0923 65.6597 97.0859C67.0276 97.0773 68.4055 97.228 69.7799 97.3784H69.7801H69.7802C72.258 97.6493 74.7241 97.9189 77.0981 97.2525C77.0284 97.6195 76.9065 97.9766 76.737 98.3096C78.6527 98.0307 80.5909 97.9083 82.5265 97.944C83.3439 97.9592 84.1637 98.0023 84.9836 98.0453H84.9837H84.9839H84.9841C87.1516 98.159 89.3191 98.2727 91.4426 97.8703L77.3482 97.7464C77.613 97.731 77.8159 97.4232 77.7257 97.1739C77.6354 96.9246 77.2826 96.8179 77.0693 96.9754C76.9306 96.5347 76.3076 96.3387 75.9417 96.6208C76.1538 95.9667 76.5733 95.3816 77.1247 94.9709C76.5025 94.9374 75.8703 95.128 75.3701 95.4999L76.8861 88.4835C76.758 88.3733 76.5442 88.4474 76.4495 88.5875C76.3557 88.7261 76.3453 88.9026 76.3354 89.0698L76.3351 89.0751C76.1932 91.4707 75.3484 93.8208 73.9324 95.7586L73.3762 94.1498L72.5793 96.0714C72.2181 95.7917 71.7058 95.721 71.2825 95.8928C71.3906 96.3037 71.7193 96.6493 72.1242 96.7779L72.3127 96.2726L73.5578 97.1066C73.082 96.608 72.9788 95.7922 73.3156 95.1907L74.069 96.4546L75.5293 93.5663C75.5377 94.7259 75.0405 95.8221 74.5533 96.8744C75.0829 96.4597 75.538 95.9504 75.8908 95.3778C76.2313 95.9808 75.8594 96.7893 75.2671 97.1483C74.6749 97.5072 73.9426 97.5267 73.2506 97.4975C72.1949 97.4528 71.1313 97.3202 70.0689 97.1879C67.6829 96.8904 65.3036 96.5938 63.0372 97.2963L62.7105 94.2829C62.2113 95.185 61.8988 96.1899 61.7986 97.2162ZM76.0185 97.2967C75.9673 97.2354 75.9676 97.1371 76.0193 97.0763L76.0604 97.0918C76.1295 96.9262 76.4207 96.9398 76.4741 97.1112C76.3399 97.208 76.1821 97.2722 76.0185 97.2967ZM83.7188 65.2803C82.0773 64.4507 80.1239 64.6746 78.3017 64.9243C77.7868 64.9949 77.2618 65.069 76.7954 65.2983C76.3292 65.5275 75.9229 65.9427 75.8425 66.456C71.3924 65.9005 67.1279 63.9418 63.8068 60.9278C63.086 60.2738 62.3505 59.3422 62.6746 58.4245C62.7765 58.136 62.9748 57.8926 63.181 57.6666C64.7293 55.969 66.8641 54.948 68.9423 53.968C66.5869 54.1746 64.3269 55.3202 62.7681 57.0978C62.4108 57.5053 62.0815 57.9605 61.9585 58.4882C61.6546 59.7912 62.6666 61.0136 63.6796 61.8878C66.9114 64.6771 70.9765 66.4885 75.2117 67.0264C75.4657 67.0587 75.4788 67.4158 75.4556 67.6707C75.3524 68.8048 75.9706 69.9115 76.8274 70.6616C77.6842 71.4118 78.7575 71.8622 79.8223 72.2656C83.1202 73.5147 86.5428 74.4347 90.0226 75.0075C90.2525 75.0454 90.5682 75.0275 90.6167 74.7995C89.8137 74.2683 88.8473 74.0659 87.9021 73.868L87.8986 73.8674L87.8881 73.8651L87.8068 73.8482L87.7492 73.836C85.3532 73.3315 82.9892 72.6746 80.6765 71.8704C79.7277 71.5405 78.7765 71.1802 77.9493 70.6104C77.122 70.0405 76.4194 69.2355 76.1549 68.2666C76.0242 67.788 76.2015 67.0736 76.694 67.1339C78.6988 67.379 80.7588 67.6211 82.7164 67.1238C83.1593 67.0114 83.6212 66.8416 83.8911 66.4728C84.1612 66.104 84.1266 65.4866 83.7188 65.2803ZM78.6617 66.6053C77.9735 66.4867 77.2705 66.455 76.5743 66.511C76.9125 65.8686 77.7388 65.6995 78.4581 65.6014C80.0218 65.3886 81.6501 65.181 83.1482 65.6766C83.2471 65.7094 83.3529 65.7512 83.4063 65.8406C83.4769 65.9584 83.4253 66.1187 83.3252 66.2125C83.225 66.3064 83.0885 66.349 82.9564 66.3859C81.5645 66.7749 80.086 66.8504 78.6617 66.6053ZM55.8885 99.0174C57.0402 98.9851 58.1989 99.2398 59.2311 99.7518C58.9553 100.148 58.4007 100.204 57.918 100.222L45.302 100.701C45.1865 100.687 45.1647 100.508 45.2465 100.425C45.3284 100.342 45.4565 100.332 45.5729 100.326L57.8885 99.7254C57.1769 99.6602 56.4826 99.4144 55.8885 99.0174ZM31.6095 57.2936C31.4297 58.1534 32.1572 59.0707 33.0332 59.1357C31.6007 61.2946 29.0204 62.3598 26.541 63.112C24.9937 63.5813 23.2772 63.9667 21.8021 63.3045C21.6191 63.4163 21.8143 63.6918 22.0076 63.785C23.4431 64.4767 25.145 64.0912 26.6719 63.6355C28.9113 62.9672 31.2194 62.1035 32.7433 60.3317C32.8055 60.2592 32.8677 60.1845 32.9303 60.1094V60.1093C33.3225 59.6379 33.7314 59.1464 34.3212 59.0373C36.2194 58.6862 37.8005 57.4973 39.3629 56.3222H39.3631V56.3221H39.3633C39.7175 56.0557 40.0708 55.7899 40.4266 55.535C42.5897 53.9846 44.9889 52.7642 47.5157 51.9288C47.7389 51.855 48.0103 51.7181 47.9905 51.484C44.8577 51.7715 42.1193 53.6397 39.5943 55.5163L39.51 55.5789C37.794 56.8547 36.0009 58.1878 33.8893 58.504C34.5789 57.96 34.4333 56.703 33.6553 56.2955C32.877 55.888 31.7893 56.4338 31.6095 57.2936ZM32.1941 57.819C32.0533 57.4019 32.2706 56.9058 32.6569 56.6946C32.7665 56.6346 32.8892 56.5946 33.0141 56.5944C33.4266 56.5941 33.7279 57.0352 33.7305 57.4477C33.7332 57.8602 33.5242 58.2405 33.321 58.5995C32.8457 58.5267 32.3479 58.2746 32.1941 57.819ZM79.0727 48.6283C78.9561 48.4982 78.9919 48.3232 79.029 48.1418C79.0553 48.0136 79.0823 47.8822 79.0564 47.7614C79.034 47.6568 78.9729 47.5677 78.9116 47.4782C78.8575 47.399 78.8031 47.3197 78.7753 47.2291C78.7815 47.1094 78.9417 47.048 79.0506 47.0978C79.1597 47.1474 79.2209 47.2645 79.2589 47.3781C79.3978 47.7928 79.3265 48.2722 79.0727 48.6283ZM68.5117 39.5285C68.8036 38.8363 69.3823 38.2227 70.1202 38.0822C70.3589 38.0368 70.3516 37.643 70.1423 37.5194C69.9332 37.3955 69.6644 37.4686 69.4449 37.5731C68.4226 38.0598 67.7772 39.1309 67.5244 40.2344C67.2714 41.3381 67.3551 42.4874 67.4401 43.6163L67.8921 49.6174C67.9074 49.8214 67.9261 50.0357 68.0397 50.2059C68.2713 50.5525 68.7674 50.5634 69.1834 50.537L71.2887 50.4032C70.8209 50.0365 70.1929 49.8822 69.6082 49.9901C69.2669 50.0531 68.9239 49.828 68.7431 49.5317C68.5621 49.2354 68.5092 48.8808 68.4644 48.5366C68.1709 46.2845 68.0633 44.008 68.1429 41.7382C68.1692 40.9875 68.2197 40.2205 68.5117 39.5285ZM73.8871 92.7955C73.7676 92.8822 73.6477 92.6846 73.6303 92.5379C72.8167 85.6992 72.694 78.7992 72.5722 71.9133L72.4901 67.2712C72.4877 67.1389 72.4897 66.9941 72.5746 66.8927C72.721 66.7183 73.0287 66.7982 73.1564 66.9867C73.2842 67.175 73.2844 67.419 73.2802 67.6467C73.1549 74.4229 73.2372 81.2122 73.886 87.9584C73.8938 88.0405 73.9018 88.1226 73.9098 88.2048C74.0585 89.7373 74.2095 91.2928 73.8871 92.7955ZM67.1233 49.6877C66.945 49.5898 66.7252 49.6451 66.5301 49.7029C57.5106 52.3704 48.5117 55.1211 39.6453 58.2606C39.4794 58.3194 39.2895 58.404 39.2514 58.576C39.2111 58.7579 39.3825 58.9318 39.5658 58.9656C39.7493 58.9994 39.9348 58.9338 40.1098 58.8694C48.9953 55.6008 58.0146 52.6955 67.1375 50.1637C67.3333 50.1094 67.3013 49.7854 67.1233 49.6877Z" fill="#363939"/>
<path fill-rule="evenodd" clip-rule="evenodd" d="M99.2586 90.494C99.0485 90.5863 98.8211 90.6721 98.5951 90.6332C98.3691 90.5945 98.1576 90.3822 98.2031 90.1574C98.6181 88.1019 98.097 85.876 96.8123 84.2184C96.3623 83.6374 95.8263 83.1264 95.3875 82.5366C95.1112 82.1651 94.8653 81.6979 95.0055 81.2564C95.205 80.6284 96.0083 80.4756 96.6658 80.4308C98.1941 80.3267 99.7226 80.2225 101.251 80.1184C101.955 80.0704 102.766 80.0631 103.236 80.5897C104.545 82.0555 107.096 82.1539 108.513 80.7934C108.733 80.5828 109.009 81.002 109 81.3059C108.973 82.2616 108.579 83.2022 107.917 83.8923C107.761 84.055 107.561 84.2145 107.337 84.1911C107.113 84.1678 106.947 83.8457 107.126 83.7083C107.51 83.4136 107.901 83.1113 108.17 82.7091C108.439 82.3068 108.569 81.7796 108.386 81.3318C107.399 82.5807 106.402 83.8224 105.396 85.0563C103.651 87.1956 101.786 89.3839 99.2586 90.494ZM102.015 84.1987C101.764 84.2681 101.496 84.2147 101.246 84.1438C99.4418 83.6342 97.7799 82.2248 95.9346 82.5545C98.0863 84.2875 99.2287 87.1929 98.8335 89.9271C100.251 89.6236 101.371 88.5652 102.375 87.5195C103.861 85.9715 105.272 84.3515 106.601 82.667C105.646 82.6592 104.694 82.3835 103.882 81.8796C102.879 82.1278 103.011 83.9232 102.015 84.1987ZM103.325 81.3526C102.728 80.6481 101.654 80.6699 100.734 80.7507C99.5333 80.8561 98.333 80.9615 97.1327 81.067C96.6453 81.1099 96.0856 81.1953 95.8315 81.6134C97.9091 82.0483 99.9344 82.7315 101.851 83.6435C102.097 82.8692 102.592 82.1759 103.243 81.6902C103.316 81.6355 103.4 81.5654 103.39 81.4745C103.385 81.4281 103.356 81.3883 103.325 81.3526Z" fill="#F9D262"/>
<path fill-rule="evenodd" clip-rule="evenodd" d="M14.337 64.5533C12.5291 63.8302 10.3747 64.0446 8.74476 65.1099C8.58695 65.2129 8.36009 65.0981 8.28197 64.9264C8.20386 64.7549 8.23308 64.5553 8.27303 64.3712C8.79359 61.9712 10.8674 60.1349 13.1736 59.2909C15.4798 58.447 18.0023 58.4446 20.454 58.5889C20.6972 58.6032 20.9515 58.6222 21.159 58.7501C21.3665 58.8777 21.506 59.1509 21.4027 59.3715C20.4382 61.4288 19.7118 63.5976 19.2423 65.8206C19.1662 66.1811 18.7934 66.4203 18.4262 66.4504C18.059 66.4805 17.6991 66.3446 17.3659 66.1875C16.3273 65.6979 15.4031 64.9797 14.337 64.5533ZM14.5437 62.1249C14.3825 62.2558 14.1307 62.1867 13.9791 62.0448C13.8275 61.903 13.7411 61.7067 13.6219 61.5368C12.9827 60.6249 11.5158 60.7006 10.6463 61.3963C9.77681 62.092 9.35606 63.1913 8.97292 64.2369C11.5238 63.1289 14.6657 63.5265 16.8601 65.2352C17.1598 65.4685 17.4571 65.7312 17.826 65.8211C18.195 65.9109 18.6598 65.7494 18.7532 65.3814C19.2524 63.4152 19.8676 61.4785 20.5945 59.5848C19.1998 61.3184 16.2707 60.7219 14.5437 62.1249ZM13.9886 61.0773C14.1318 61.2571 14.3919 61.3049 14.6183 61.2643C14.8447 61.2237 15.0504 61.1109 15.2614 61.0192C15.9877 60.7035 16.7921 60.6331 17.5708 60.4888C18.3495 60.3443 19.1526 60.1 19.7007 59.5285C18.4639 59.5248 17.2271 59.5211 15.9904 59.5173C14.7475 59.5136 13.4081 59.5398 12.4096 60.2801C13.0175 60.3022 13.6098 60.6013 13.9886 61.0773Z" fill="#F9D262"/>
<path fill-rule="evenodd" clip-rule="evenodd" d="M72.4199 64.3874C72.417 63.2996 72.4141 62.2116 72.4111 61.1237C72.4103 60.8114 72.4095 60.4989 72.4087 60.1865C72.4081 59.9711 72.4442 59.7015 72.649 59.6345C72.8039 59.5839 72.9743 59.6951 73.0466 59.8412C73.1191 59.9871 73.1183 60.1572 73.1157 60.3201C73.0932 61.8383 73.0706 63.3564 73.0481 64.8745C73.0447 65.0929 73.0082 65.3615 72.8037 65.4381C72.4628 65.245 72.421 64.7793 72.4199 64.3874Z" fill="#363939"/>
<path fill-rule="evenodd" clip-rule="evenodd" d="M70.2484 63.3805C70.091 63.4495 70.0097 63.1901 70.034 63.0199C70.1211 62.4108 70.2084 61.8002 70.3566 61.2029C70.4489 60.8311 70.5819 60.4399 70.8889 60.2109C71.1961 59.9818 71.7235 60.022 71.8737 60.3743C71.9465 60.545 71.9161 60.7401 71.8828 60.9226C71.676 62.0527 71.3976 63.1698 71.0496 64.2647C71.0348 64.3111 71.0187 64.3596 70.9835 64.3933C70.8979 64.4754 70.7433 64.4202 70.684 64.3175C70.6248 64.2148 70.6324 64.0882 70.6419 63.97C70.7833 63.9596 70.8492 63.7932 70.8832 63.6556C71.0219 63.0933 71.1606 62.5313 71.2992 61.969C71.4072 61.5316 71.5056 61.0333 71.2544 60.6593C70.9964 60.8181 70.8995 61.1394 70.8228 61.4325C70.6683 62.0221 70.5139 62.6117 70.3595 63.2012C70.3409 63.2717 70.3152 63.3513 70.2484 63.3805Z" fill="#363939"/>
</svg>
