<svg xmlns="http://www.w3.org/2000/svg" width="120" height="120" fill="none" viewBox="0 0 120 120"><path fill="#FFE393" fill-rule="evenodd" d="M87.6272 74.0586C85.8821 74.741 83.8632 75.7652 83.676 77.6297C86.0465 75.8058 88.975 74.7173 91.9614 74.5501C89.8982 77.1495 87.2931 79.3167 84.3617 80.8722C81.7291 82.2692 78.3961 83.7591 78.1704 86.7308C80.9976 83.3641 85.3446 81.3258 89.7409 81.3055C86.9283 85.425 82.4182 88.3471 77.5089 89.2305C77.6774 90.4964 83.1206 93.2078 84.7061 93.7295C85.8352 98.5802 86.3243 104.871 87.4534 109.722C87.7312 110.915 87.9758 112.287 87.2449 113.271C86.5198 114.246 85.1504 114.414 83.9376 114.501C79.1577 114.84 72.6181 115.18 67.8382 115.52C67.2659 112.927 66.6937 110.335 66.1214 107.742C58.0589 108.49 23.4946 116.411 17.1515 112.256C-7.3347 96.2153 23.8896 90.7511 24.5606 71.2217C24.7144 66.7438 11.251 58.9162 11.4648 54.3405C11.6044 51.3527 12.0669 48.4342 13.5451 45.8686C15.0234 43.3031 17.3659 41.3268 19.9118 39.8151C16.4066 38.9142 13.7516 35.4201 13.8227 31.8017C13.8937 28.1833 16.6838 24.7961 20.2216 24.0335C18.5536 22.0457 15.9271 21.1346 14.0086 19.3874C11.7738 17.3521 10.6507 14.0689 11.4648 11.1578C12.2789 8.24663 15.1451 5.95622 18.1653 6.08528C20.6459 6.19129 22.829 7.76028 24.5606 9.5398C27.2461 12.2996 29.2434 15.7242 30.3232 19.4206C31.0429 21.8842 33.6806 23.1375 35.9083 24.4126C38.136 25.6876 40.4493 27.9086 39.8216 30.3972C38.9918 26.9916 51.3243 31.0481 62.5089 32.0412C63.9941 32.173 65.5922 32.3649 66.6899 33.3737C68.2675 34.8233 70.636 35.3521 72.6802 34.711C73.3306 36.3233 73.8091 38.1343 73.2561 39.7826C72.7034 41.431 70.7449 42.689 69.1795 41.9329C69.5882 44.0351 69.9968 46.1375 70.4054 48.2397C74.408 48.2879 78.4101 48.3697 82.4113 48.485C84.532 48.5462 86.7485 48.6426 88.5917 49.6932C90.4347 50.7439 92.9016 49.2554 94.7229 45.4313C93.5442 51.6713 94.9406 54.1646 97.349 54.8425C97.3539 54.7953 97.5411 54.8178 97.5465 54.7706C98.2635 48.6042 102.448 43.1292 108.271 40.9633C107.756 42.1498 104.072 44.4937 101.513 47.4868C99.0139 50.4105 97.8177 54.3246 97.6939 55.0274C101.662 53.9869 102.985 56.9433 109.718 54.3405C106.641 58.0393 100.713 58.95 96.668 56.3452C94.7598 58.4734 94.8665 60.8298 93.5147 63.3484C95.811 60.4945 98.8601 63.0247 96.4413 64.8745C97.7251 64.9978 99.1133 65.167 100.044 66.0593C100.976 66.9516 100.999 68.8297 99.7978 69.2994C95.741 70.8858 91.684 72.4722 87.6272 74.0586Z" clip-rule="evenodd"/><path fill="#fff" fill-rule="evenodd" d="M81.0418 59.9952C81.1887 59.716 81.3482 59.4232 81.6185 59.2605C81.8887 59.0978 82.3033 59.1314 82.4489 59.4114C82.6036 59.7091 82.3732 60.0682 82.1028 60.2671C81.8322 60.4659 81.4996 60.6059 81.3238 60.892C82.2738 61.5179 83.2238 62.144 84.1737 62.7699C84.9177 63.2602 85.7594 63.9603 85.6071 64.8383C85.5178 65.353 85.0817 65.7531 84.5958 65.9451C84.1098 66.1373 83.5758 66.1573 83.0535 66.1723C79.5439 66.2735 76.0308 66.2555 72.5223 66.1189C72.279 66.1095 72.0074 66.0867 71.8452 65.905C71.7196 65.7642 71.6937 65.5632 71.6734 65.3757C71.4714 63.5082 71.2695 61.6408 71.0676 59.7735C71.0601 59.7045 71.053 59.6325 71.0777 59.5675C71.1815 59.2949 71.5895 59.4629 71.8175 59.645C73.4326 60.9341 76.0146 60.7826 77.4679 59.3135C77.819 58.9586 78.4169 59.0045 78.8679 59.2184C79.3191 59.4325 79.6966 59.7807 80.149 59.9915C80.1007 59.7299 80.3314 59.4538 80.5975 59.4549C80.8636 59.456 81.0922 59.7339 81.0418 59.9952Z" clip-rule="evenodd"/><path fill="#fff" fill-rule="evenodd" d="M24.5243 39.3848C24.5243 39.3848 24.1323 34.6888 25.1191 33.1792C26.1059 31.6696 29.8649 31.2152 29.8649 31.2152C29.8649 31.2152 40.1675 31.0804 45.7339 31.2932C51.3003 31.506 62.4331 32.4601 62.4331 32.4601C62.4331 32.4601 63.8796 32.7756 64.5299 33.1792C65.1801 33.5828 66.0872 34.728 66.0872 34.728C66.0872 34.728 68.0609 35.0158 69.0428 35.0548C70.0246 35.094 70.9243 34.9208 70.9243 34.9208C70.9243 34.9208 72.1755 38.57 71.2908 40.3096C70.4062 42.0489 67.4361 41.7792 67.4361 41.7792L68.4875 48.2889C68.4875 48.2889 67.2374 48.8796 66.5543 49.6203C65.8711 50.3611 65.5968 51.4232 65.5968 51.4232L67.6273 71.2216C67.6273 71.2216 68.2246 72.2507 69.5076 72.6416C70.7907 73.0323 73.6814 73.0656 73.6814 73.0656C73.6814 73.0656 73.5784 75.0619 73.6814 75.9211C73.7844 76.7801 73.8763 77.2508 73.8763 77.2508L76.0526 92.8313C76.0526 92.8313 73.9374 93.2161 71.8443 93.724C69.7512 94.2318 65.5968 95.368 65.5968 95.368C65.5968 95.368 64.1324 96.0356 63.9427 97.1137C63.7531 98.1916 64.5299 101.431 64.5299 101.431L41.2086 103.209C41.2086 103.209 38.9391 103.252 38.1585 102.76C37.3779 102.268 37.1639 100.66 37.1639 100.66L34.0095 72.2891C34.0095 72.2891 28.9689 72.4124 27.4966 71.572C26.0244 70.7313 25.8463 67.6283 25.8463 67.6283C25.8463 67.6283 26.091 65.8694 25.8463 64.6488C25.7647 64.2416 24.6987 59.8265 24.3406 55.6257C24.1379 53.2486 26.935 51.4232 26.935 51.4232L24.5243 39.3848Z" clip-rule="evenodd"/><path fill="#EAEAEA" fill-rule="evenodd" d="M40.9802 32.8534C40.7988 33.1091 40.9506 33.4904 41.2127 33.6624C41.4748 33.8344 41.8049 33.8538 42.118 33.8678C45.5202 34.021 48.9225 34.1741 52.3245 34.3272C52.6561 34.3421 53.0233 34.3454 53.2745 34.1285C53.5255 33.9117 53.4924 33.3944 53.1647 33.3424C49.3815 32.7408 45.5425 32.491 41.7132 32.5973C41.4444 32.6046 41.1357 32.6341 40.9802 32.8534Z" clip-rule="evenodd"/><path fill="#EAEAEA" fill-rule="evenodd" d="M56.1171 57.2385L55.2329 53.0895C55.2329 53.0895 55.1916 53.9451 54.7236 54.2931C54.2555 54.6411 53.33 54.5043 53.33 54.5043C53.33 54.5043 53.1835 51.607 53.8348 50.7247C54.4864 49.8425 55.1281 50.6758 56.3656 50.3936C57.6019 50.1116 57.3457 49.1828 58.7824 49.5964C60.219 50.01 61.2804 53.0846 61.2804 53.0846C61.2804 53.0846 60.154 53.462 59.6747 53.3652C59.1955 53.2684 59.3123 52.687 59.3123 52.687C59.3123 52.687 58.9726 52.5425 59.0592 53.5619C59.1012 54.0571 59.4761 54.8017 59.6747 55.7759C59.7488 56.1387 59.6747 56.9539 59.6747 56.9539C59.6747 56.9539 58.3964 57.0843 57.2918 57.3207C56.1872 57.5572 56.1171 57.2385 56.1171 57.2385Z" clip-rule="evenodd"/><path fill="#363939" fill-rule="evenodd" d="M24.7286 46.9182C24.3031 46.6892 23.9571 46.3396 23.618 45.9954C22.7431 45.1074 21.8574 44.205 21.2503 43.1162C21.1926 43.0126 21.1358 42.8935 21.1691 42.7796C21.2023 42.6657 21.3763 42.601 21.4414 42.7002C22.4964 44.311 23.8289 45.7396 25.3623 46.9042C25.2244 47.0897 24.9321 47.0278 24.7286 46.9182Z" clip-rule="evenodd"/><path fill="#363939" fill-rule="evenodd" d="M26.0036 26.5314C26.2549 26.2724 26.389 25.924 26.5047 25.5821C26.8656 24.5162 27.1116 23.4114 27.237 22.293C27.2596 22.0916 27.2965 21.8596 27.4712 21.7568C27.6679 22.7159 27.4244 23.7042 27.1823 24.6527C26.9695 25.4864 26.7338 26.362 26.1303 26.9754C26.0692 27.0375 25.9911 27.1007 25.9053 27.0864C25.7895 27.0671 25.7431 26.9132 25.7844 26.8032C25.8258 26.6935 25.9218 26.6156 26.0036 26.5314Z" clip-rule="evenodd"/><path fill="#F9D262" fill-rule="evenodd" d="M86.6756 34.8955C86.7951 34.8635 86.917 34.9579 86.9691 35.0702C87.0213 35.1825 87.0251 35.31 87.0483 35.4318C87.1391 35.907 87.5676 36.2971 88.0493 36.3428C88.1093 36.4825 87.9765 36.6222 87.8716 36.7321C87.6325 36.982 87.4816 37.3148 87.4509 37.6593C87.4309 37.883 87.3839 38.194 87.1595 38.1912C86.9791 38.1888 86.8999 37.9707 86.8349 37.8024C86.6762 37.3913 86.3183 37.0625 85.8952 36.9393C85.8064 36.9134 85.769 36.8 85.7935 36.7107C85.818 36.6216 85.8856 36.5518 85.9501 36.4856C86.2282 36.2003 86.5103 35.8627 86.5072 35.4644C86.5056 35.2491 86.4674 34.9512 86.6756 34.8955Z" clip-rule="evenodd"/><path fill="#EAEAEA" fill-rule="evenodd" d="M95.1007 72.3043C94.7274 72.6878 94.5952 73.2881 94.7728 73.7929C94.5762 73.8809 94.4291 73.6099 94.3317 73.4175C94.1858 73.1291 93.9096 72.9095 93.5957 72.8323C94.0504 72.5454 94.3335 72.0055 94.3107 71.4683C94.4936 71.3491 94.6983 71.5974 94.7507 71.8094C94.8034 72.0212 94.8824 72.2967 95.1007 72.3043Z" clip-rule="evenodd"/><path fill="#EAEAEA" fill-rule="evenodd" d="M91.9158 73.0234C92.1322 73.3668 92.4399 73.6521 92.7988 73.842C92.9278 73.9102 92.8108 74.0999 92.7044 74.1996C92.4361 74.4503 92.2663 74.8038 92.238 75.1698C92.0033 74.9346 91.7687 74.6996 91.5342 74.4644C91.4406 74.3705 91.3417 74.2249 91.4223 74.1198C91.6684 73.799 91.8388 73.4204 91.9158 73.0234Z" clip-rule="evenodd"/><path fill="#F9D262" fill-rule="evenodd" d="M76.2436 31.6708C76.457 30.3111 76.9732 28.9748 77.8797 27.9393C78.7864 26.9038 80.1101 26.1969 81.4864 26.198C82.8628 26.1991 84.2528 26.9786 84.8248 28.2305C85.1207 28.8783 85.1933 29.6074 85.1732 30.3194C85.1349 31.6732 84.7712 33.0169 84.1215 34.2052C83.5354 35.2767 82.693 36.2407 81.5994 36.7842C80.5056 37.3279 79.1426 37.4009 78.0794 36.7999C77.2375 36.3241 76.6485 35.47 76.3679 34.5446C76.0872 33.6191 76.0935 32.6262 76.2436 31.6708ZM84.6557 30.6418C84.6805 29.7988 84.5415 28.9282 84.0981 28.2108C83.8287 27.7746 83.4511 27.4057 83.0088 27.1462C81.5824 26.3097 79.641 26.7591 78.4562 27.9127C77.2716 29.0663 76.758 30.7711 76.705 32.4239C76.6768 33.3055 76.7716 34.2095 77.1464 35.0079C77.5213 35.8063 78.2071 36.4894 79.0615 36.7087C80.1792 36.9958 81.3589 36.4553 82.2354 35.7044C83.6978 34.4518 84.5991 32.5666 84.6557 30.6418Z" clip-rule="evenodd"/><path fill="#F9D262" fill-rule="evenodd" d="M90.3286 30.7265C90.101 31.0241 89.863 31.415 90.0377 31.7464C90.1001 31.8649 89.9385 32.0029 89.8098 31.9656C89.681 31.9281 89.6079 31.7921 89.5737 31.6625C89.5394 31.5329 89.5282 31.3941 89.4596 31.279C89.3908 31.164 89.2346 31.084 89.1209 31.1549C88.9591 31.1357 88.9425 30.8918 89.0366 30.7587C89.1306 30.6256 89.2852 30.5341 89.343 30.3817C89.3887 30.2609 89.3642 30.1256 89.3858 29.9984C89.4076 29.8712 89.5159 29.7353 89.6407 29.7678C89.6366 29.9915 89.6625 30.2235 89.7759 30.4161C89.8894 30.6089 90.1065 30.7531 90.3286 30.7265Z" clip-rule="evenodd"/><path fill="#F9D262" fill-rule="evenodd" d="M69.9687 30.286C70.1466 30.0791 70.3701 29.902 70.6324 29.8267C70.8946 29.7513 71.1989 29.7911 71.4037 29.9715C71.6266 30.1676 71.6965 30.4955 71.6492 30.7886C71.6016 31.0817 71.4538 31.3481 71.2983 31.6009C71.0965 31.9291 70.8773 32.2467 70.642 32.5518C70.5685 32.647 70.4879 32.7452 70.3752 32.7878C70.2266 32.8438 70.0608 32.7892 69.9141 32.7279C69.3989 32.5126 68.9199 32.2103 68.5037 31.838C68.1226 31.4971 67.7709 30.9974 67.9255 30.5099C68.0239 30.1991 68.3244 29.9745 68.6466 29.9265C68.9688 29.8785 69.3029 29.9921 69.5591 30.1934C69.6818 30.2895 69.8671 30.4043 69.9687 30.286ZM68.3408 30.4665C68.0975 30.8012 68.3616 31.2703 68.6682 31.5483C69.0509 31.8951 69.5052 32.1513 69.9552 32.4046C70.013 32.4372 70.0776 32.4708 70.1424 32.4569C70.2004 32.4444 70.2432 32.3971 70.2813 32.3518C70.5861 31.9905 70.8592 31.6025 71.0964 31.1935C71.2788 30.8791 71.4127 30.4169 71.1188 30.2028C70.8863 30.0334 70.5474 30.1699 70.3503 30.3795C70.1532 30.5889 70.0292 30.8625 69.8136 31.0532C69.6455 30.7879 69.4666 30.5126 69.1938 30.3569C68.921 30.2014 68.5255 30.2124 68.3408 30.4665Z" clip-rule="evenodd"/><path fill="#F9D262" fill-rule="evenodd" d="M66.4837 21.1364C67.0416 20.7015 67.662 20.3466 68.3197 20.0862C68.7229 19.9265 69.1831 19.8036 69.5816 19.9746C70.2202 20.2486 70.3447 21.1657 70.0087 21.7738C69.6727 22.3822 69.0354 22.751 68.4287 23.0898C67.2389 23.7543 66.0492 24.4188 64.8596 25.0833C65.0938 24.6158 64.8295 24.0668 64.613 23.5906C64.1253 22.5183 63.8703 21.341 63.8701 20.1631C63.87 19.791 63.8978 19.4078 64.061 19.0734C64.2244 18.739 64.55 18.4615 64.9221 18.4529C65.5173 18.4388 65.9132 19.0588 66.114 19.6193C66.2898 20.1102 66.414 20.6196 66.4837 21.1364ZM69.0052 20.2839C68.0429 20.4794 67.1464 20.9857 66.4821 21.7086C66.4167 21.7798 66.2895 21.7484 66.2296 21.6724C66.17 21.5964 66.1584 21.4943 66.1471 21.3983C66.0722 20.7625 65.9058 20.1374 65.6549 19.5481C65.5149 19.2198 65.2807 18.857 64.9237 18.8513C64.6592 18.847 64.429 19.0588 64.3314 19.3047C64.2338 19.5506 64.2421 19.8244 64.2608 20.0884C64.3652 21.5602 64.7525 23.0118 65.3952 24.3399C66.4477 23.7502 67.5002 23.1604 68.5527 22.5706C68.8812 22.3865 69.2154 22.198 69.4706 21.9214C69.726 21.6447 69.894 21.2604 69.8197 20.8914C69.7456 20.5223 69.3741 20.209 69.0052 20.2839Z" clip-rule="evenodd"/><path fill="#363939" fill-rule="evenodd" d="M59.1189 94.0426C62.1907 93.6926 65.2826 93.5163 68.3743 93.515C68.9415 93.5149 69.4349 93.0742 69.6653 92.556C69.8957 92.0378 69.9141 91.4533 69.9144 90.8861C69.9155 88.7789 69.7173 86.6771 69.5194 84.5792C69.4391 83.7285 69.3589 82.8778 69.2786 82.0269C69.2298 81.5107 69.1781 80.9829 68.9608 80.5122C68.5835 79.6952 67.7482 79.164 66.8779 78.9352C66.0077 78.7064 65.093 78.7376 64.1938 78.7706C61.2082 78.8798 58.2226 78.9893 55.2368 79.0986C56.9579 78.4674 58.8323 78.4378 60.6655 78.4154C62.0707 78.3982 63.476 78.3811 64.8813 78.3638C66.3176 78.3464 67.9589 78.4184 68.8752 79.5248C69.4672 80.2395 69.5978 81.2181 69.6968 82.1408C70.0083 85.0461 70.2365 87.9605 70.381 90.8787C70.429 91.8459 70.3903 92.9826 69.6027 93.5461C69.1623 93.8611 68.5909 93.9085 68.0506 93.9451C64.7603 94.168 61.4701 94.3907 58.1799 94.6136C57.4074 94.6659 56.5933 94.7107 55.8983 94.3693C55.6568 94.2506 55.4088 93.9824 55.5384 93.7467C56.608 94.3291 57.9088 94.1805 59.1189 94.0426Z" clip-rule="evenodd"/><path fill="#363939" fill-rule="evenodd" d="M46.1064 47.4374C46.168 47.5296 46.1821 47.6444 46.1944 47.7545C46.2232 48.0108 46.252 48.2673 46.2808 48.5238C46.315 48.828 46.3221 49.196 46.0698 49.3696C45.9354 49.462 45.7619 49.4696 45.5989 49.474C42.1666 49.5668 38.7344 49.6595 35.3022 49.7523C35.0814 49.7582 34.8259 49.7486 34.6906 49.574C34.6056 49.4646 34.5925 49.3172 34.5846 49.1788C34.5595 48.744 34.5526 48.3083 34.5637 47.8729C34.5654 47.8065 34.5693 47.7353 34.6104 47.6833C34.6597 47.6209 34.7466 47.6057 34.8253 47.595C38.3717 47.1145 41.9658 46.9878 45.5371 47.2169C45.748 47.2305 45.989 47.2619 46.1064 47.4374ZM45.9654 49.1056C45.6168 48.9172 45.968 48.3652 45.8413 47.9899C45.7323 47.6675 45.3186 47.5912 44.9787 47.5718C41.7426 47.3875 38.4894 47.5025 35.2742 47.9147C35.1558 47.9299 35.0245 47.9526 34.9526 48.048C34.8816 48.1422 34.8944 48.2729 34.9106 48.3897C34.9357 48.5705 34.9606 48.7513 34.9856 48.9323C35.0054 49.0747 35.0355 49.2345 35.1552 49.3144C35.2421 49.3723 35.3538 49.3716 35.4581 49.3691C38.9605 49.2812 42.463 49.1934 45.9654 49.1056Z" clip-rule="evenodd"/><path fill="#363939" fill-rule="evenodd" d="M52.5628 53.5136C52.5791 53.1328 52.5954 52.7519 52.6117 52.3709C52.6436 51.628 52.6826 50.8575 53.0279 50.1991C53.373 49.5405 54.1183 49.0288 54.8418 49.1999C55.2944 49.3069 55.7117 49.6628 56.1669 49.5672C56.5634 49.484 56.8064 49.0922 57.1413 48.8644C57.9394 48.3213 59.052 48.8258 59.7122 49.5303C60.4236 50.2896 60.886 51.2784 61.0127 52.3112C61.0234 52.3989 61.0288 52.4973 60.9724 52.5653C60.9256 52.6215 60.849 52.641 60.7778 52.6573C60.5031 52.7204 60.2282 52.7832 59.9535 52.8461C59.7196 52.8997 59.4767 52.9535 59.2416 52.9048C59.0066 52.8562 58.7808 52.6749 58.762 52.4357C58.6917 53.773 59.6932 55.0504 59.4141 56.3602C59.3104 56.3036 59.2066 56.2468 59.1029 56.1901C59.3477 54.8767 58.1772 53.6052 58.4216 52.2917C58.454 52.1178 58.5237 51.9328 58.6791 51.8484C58.8344 51.764 59.0802 51.8599 59.0741 52.0367C59.0644 52.3197 59.37 52.5312 59.6532 52.5288C59.9365 52.5264 60.1941 52.3746 60.436 52.2272C60.5223 52.1749 60.4988 52.0452 60.4628 51.9509C60.1949 51.2484 59.8429 50.578 59.4165 49.9586C59.1282 49.54 58.781 49.1263 58.3021 48.9564C57.8231 48.7863 57.1906 48.9597 57.0143 49.4364C56.8079 49.9943 56.0282 50.0319 55.4556 49.8711C54.8829 49.7101 54.24 49.4591 53.7292 49.7636C53.302 50.0183 53.1589 50.561 53.0789 51.0519C52.9416 51.8941 52.8781 52.7484 52.8896 53.6016C52.9128 53.7319 53.0789 53.7738 53.2111 53.7704C53.9077 53.7524 54.5544 53.2029 54.685 52.5184C54.8727 52.7343 54.9397 53.0268 55.0004 53.3063C55.2106 54.2744 55.421 55.2426 55.6312 56.2108C55.6959 56.5088 55.6204 56.9669 55.3202 56.9127C55.1842 55.8567 54.9828 54.8093 54.7175 53.7783C54.2157 53.8924 53.7141 54.0063 53.2124 54.1204C53.0584 54.1554 52.8861 54.1877 52.7516 54.1055C52.5656 53.9919 52.5535 53.7314 52.5628 53.5136Z" clip-rule="evenodd"/><path fill="#363939" fill-rule="evenodd" d="M67.2392 79.8085C67.4952 80.086 67.0975 80.598 67.332 80.8938C67.4536 81.0472 67.3669 81.2908 67.2056 81.402C67.0445 81.5132 66.8379 81.5282 66.6424 81.5396C63.2813 81.7348 59.9202 81.9301 56.5591 82.1255C56.3306 82.1388 56.0576 82.1309 55.9328 81.9392C55.8783 81.8554 55.865 81.7522 55.8533 81.653C55.8226 81.3948 55.7919 81.1364 55.7611 80.8781C55.7515 80.797 55.7429 80.7101 55.7811 80.638C55.844 80.5189 56 80.4932 56.1341 80.4813C59.6666 80.1695 63.2031 79.906 66.7427 79.6906C66.9186 79.68 67.1197 79.6789 67.2392 79.8085ZM66.8535 80.2448C66.8426 80.181 66.8282 80.1112 66.7771 80.0714C66.7264 80.0317 66.6554 80.0346 66.5911 80.0392C63.457 80.2677 60.3231 80.4962 57.189 80.7247C56.9355 80.7431 56.6728 80.7644 56.4515 80.889C56.2303 81.0138 56.0635 81.2739 56.1299 81.5191C56.1504 81.5949 56.1944 81.6671 56.2616 81.7079C56.344 81.758 56.4471 81.7543 56.5434 81.749C59.8523 81.5695 63.1611 81.3901 66.4701 81.2106C66.8634 81.1892 66.92 80.633 66.8535 80.2448Z" clip-rule="evenodd"/><path fill="#363939" fill-rule="evenodd" d="M69.8914 76.7988C70.4863 78.3643 70.6761 80.0495 70.8609 81.714C71.2903 85.5811 71.7196 89.4479 72.149 93.315C71.8295 93.3412 71.6823 92.9311 71.6425 92.6131C70.9921 87.41 70.7826 82.1399 69.6826 77.0131C69.7522 76.9417 69.8218 76.8702 69.8914 76.7988Z" clip-rule="evenodd"/><path fill="#363939" fill-rule="evenodd" d="M50.7013 49.8622C50.6087 49.8227 50.6106 49.6782 50.6815 49.6068C50.7525 49.5356 50.86 49.5184 50.9599 49.5057C51.7072 49.4107 52.4608 49.3644 53.2141 49.3673C53.1741 49.6888 52.7591 49.7827 52.4354 49.7976C51.8919 49.8227 51.3482 49.8478 50.8045 49.8729C50.7696 49.8745 50.7333 49.876 50.7013 49.8622Z" clip-rule="evenodd"/><path fill="#363939" fill-rule="evenodd" d="M54.9176 89.1872C54.8556 88.0364 54.7935 86.8853 54.7314 85.7344C54.5644 82.6365 54.392 79.5069 53.5296 76.5268C53.4196 76.1463 53.2938 75.76 53.0498 75.448C52.4392 74.6668 51.309 74.577 50.3175 74.577C46.4944 74.5772 42.6716 74.9407 38.917 75.6612C38.5356 75.7344 38.1389 75.8184 37.8344 76.0597C37.3508 76.4432 37.2232 77.1173 37.1783 77.733C37.0962 78.8568 37.1775 79.9927 37.4186 81.0935C37.2805 81.0704 37.1426 81.0476 37.0047 81.0245C36.4988 79.9708 36.2682 78.7863 36.3421 77.6199C36.3743 77.1133 36.4674 76.5975 36.7284 76.1621C37.3776 75.0794 38.8066 74.8197 40.0618 74.6853C43.2466 74.3442 46.4432 74.1144 49.644 73.9967C50.9325 73.9492 52.3882 73.9853 53.2725 74.9236C53.7172 75.3956 53.9424 76.0298 54.1192 76.6536C54.7335 78.8212 54.9029 81.0859 55.0693 83.3327C55.2319 85.5279 55.3944 87.7231 55.557 89.9181C55.5952 90.4341 55.633 90.9581 55.5287 91.4648C55.1885 93.1159 53.4301 94.1202 51.7562 94.3199C50.0823 94.5196 48.3972 94.137 46.7116 94.109C44.4448 94.0712 42.1647 94.674 39.9292 94.2975C39.2853 94.189 38.6007 93.9608 38.2468 93.4122C38.0012 93.0316 37.9568 92.5597 37.9194 92.1084C37.6541 88.9245 37.389 85.7405 37.1239 82.5567C37.1061 82.3436 37.2647 82.0256 37.4285 82.1634C37.7208 85.2301 38.0132 88.297 38.3055 91.3637C38.345 91.7789 38.388 92.2061 38.581 92.5759C38.8612 93.1125 39.4264 93.4538 40.0124 93.6056C40.5984 93.7576 41.2127 93.7453 41.8181 93.7373C44.3792 93.7039 46.9416 93.7677 49.498 93.9285C50.353 93.9823 51.217 94.0464 52.0615 93.9031C52.906 93.7596 53.7439 93.3834 54.2682 92.7058C55.0148 91.741 54.9834 90.4055 54.9176 89.1872Z" clip-rule="evenodd"/><path fill="#363939" fill-rule="evenodd" d="M50.5713 48.6174C50.8097 48.4314 50.6092 48.0505 50.6562 47.7518C50.7226 47.3294 51.2484 47.1842 51.6734 47.1351C54.4022 46.8198 57.1503 46.6706 59.8972 46.6887C60.1258 46.6903 60.3961 46.7158 60.5111 46.9132C60.6494 47.1503 60.5206 47.5642 60.7822 47.6473C60.905 47.6862 61.0625 47.6142 61.1556 47.7033C61.3095 47.8505 61.0228 48.0497 60.8106 48.0687C57.5959 48.3572 54.3743 48.5682 51.1494 48.7018C50.9521 48.71 50.743 48.7151 50.5713 48.6174ZM60.1738 47.2862C60.0988 47.0974 59.8474 47.0697 59.6444 47.0727C57.0545 47.1122 54.4658 47.2402 51.8847 47.4566C51.5822 47.4818 51.2249 47.545 51.0988 47.8212C51.0382 47.9783 51.1537 48.159 51.3063 48.2302C51.4588 48.3015 51.6351 48.2922 51.8031 48.2817C54.3815 48.1182 56.9599 47.9545 59.5383 47.791C59.6971 47.7809 59.8625 47.7689 59.9993 47.6878C60.1361 47.6068 60.2326 47.4338 60.1738 47.2862Z" clip-rule="evenodd"/><path fill="#363939" fill-rule="evenodd" d="M63.6497 85.1218C64.0475 85.4378 63.8774 86.13 64.2233 86.502C64.3841 86.6748 64.6251 86.7423 64.8516 86.8087C64.9972 86.8512 65.1776 86.9583 65.1313 87.1028C65.0838 87.2508 64.8681 87.2269 64.7235 87.1703C64.2508 86.9852 63.718 86.6773 63.692 86.1704C63.6729 85.8005 63.563 85.4356 63.3745 85.1167C63.4275 85.0269 63.5681 85.057 63.6497 85.1218Z" clip-rule="evenodd"/><path fill="#363939" fill-rule="evenodd" d="M65.5301 90.3635C65.4005 88.6956 65.2711 87.0276 65.1415 85.3596C65.1224 85.1145 65.1008 84.8603 64.9794 84.6465C64.8579 84.4326 64.6064 84.2715 64.369 84.3353C63.2944 84.6235 62.1787 84.7571 61.0666 84.7308C60.0941 84.7078 59.0991 84.5657 58.1635 84.832C58.181 85.2953 58.1984 85.7585 58.2157 86.2217C58.2208 86.3571 58.2285 86.5006 58.3055 86.612C58.5211 86.9241 59.0568 86.6862 59.1784 86.3267C59.3002 85.9673 59.1903 85.5742 59.2112 85.1952C59.2149 85.1281 59.2283 85.0518 59.2855 85.0163C59.4067 84.9408 59.5234 85.1209 59.5546 85.2604C59.6437 85.6601 59.7328 86.0785 59.6275 86.4744C59.5223 86.8702 59.1551 87.2288 58.7488 87.1764C58.328 87.1222 58.1557 87.6974 58.1456 88.1217C58.1253 88.9684 58.1048 89.815 58.0845 90.6617C58.0781 90.9283 58.1741 91.2964 58.4389 91.2664C59.1227 91.1889 59.8064 91.1113 60.4903 91.0339C60.6555 91.0152 60.8333 90.9987 60.9786 91.0795C61.1239 91.1603 61.2008 91.3804 61.0818 91.4964C60.2786 91.5668 59.4754 91.6372 58.6723 91.7076C58.4378 91.7281 58.1943 91.7476 57.973 91.6672C57.7517 91.5868 57.5591 91.3763 57.5791 91.1417C57.7767 88.8384 57.8208 86.522 57.7114 84.2128C57.688 83.7216 58.2864 83.4721 58.7698 83.3816C60.3042 83.0939 61.8688 82.9691 63.4293 83.01C63.9525 83.0238 64.5227 83.0756 64.9021 83.4361C65.2885 83.8032 65.3642 84.3814 65.4175 84.9115C65.6171 86.8985 65.8167 88.8854 66.0163 90.8723C66.0271 90.9795 66.0296 91.1068 65.944 91.1721C65.8928 91.211 65.8242 91.2152 65.76 91.2179C65.0939 91.2456 64.428 91.2732 63.7621 91.3009C63.4091 91.3156 63.0295 91.3232 62.7357 91.1272C62.5343 90.9928 62.401 90.7792 62.284 90.5672C62.0032 90.0584 61.7789 89.5187 61.6163 88.9608C61.3616 89.5985 61.2003 90.2734 61.1394 90.9574C60.8175 90.9923 60.7576 90.5094 60.8325 90.1944C60.9869 89.5444 61.1413 88.8947 61.2957 88.2448C61.3192 88.1459 61.3567 88.031 61.4536 88.0006C61.5963 87.9556 61.7059 88.1265 61.7581 88.2668C61.9757 88.8513 62.1931 89.4358 62.4107 90.0203C62.5979 90.5233 63.1378 90.8257 63.6711 90.8876C64.2042 90.9497 64.7384 90.8155 65.2584 90.6824C65.3613 90.656 65.4781 90.618 65.5181 90.5196C65.5379 90.4708 65.5341 90.4161 65.5301 90.3635ZM58.285 84.2564C58.7672 84.2627 59.2495 84.2689 59.7317 84.2752C60.0941 84.28 60.4565 84.2846 60.8187 84.2777C62.1267 84.2531 63.4317 84.0777 64.6997 83.7561C64.4168 83.4657 63.9631 83.4494 63.5579 83.4566C62.1074 83.4825 60.6581 83.567 59.2144 83.7094C58.828 83.7476 58.3479 83.8734 58.285 84.2564Z" clip-rule="evenodd"/><path fill="#363939" fill-rule="evenodd" d="M56.1262 83.0073C56.0985 82.8566 56.2942 82.7742 56.4457 82.7506C58.1953 82.4794 59.9684 82.3596 61.7387 82.3929C61.7641 82.3934 61.7902 82.394 61.8137 82.4038C61.8967 82.4385 61.8929 82.5692 61.8268 82.6305C61.7609 82.6918 61.6639 82.7022 61.5742 82.7089C59.8884 82.8353 58.178 82.7703 56.5265 83.1308C56.3731 83.1644 56.1543 83.1617 56.1262 83.0073Z" clip-rule="evenodd"/><path fill="#F9D262" fill-rule="evenodd" d="M95.2546 79.3848C95.3513 79.1569 95.4578 78.9163 95.663 78.7777C95.8359 78.6608 96.0527 78.635 96.2604 78.6124C96.8764 78.5456 97.4924 78.4787 98.1084 78.4118C98.413 78.3787 98.8063 78.2504 98.7946 77.9441C98.7574 76.9552 98.8338 75.8161 99.6194 75.2144C100.338 74.6638 101.414 74.8148 102.152 75.34C102.889 75.8652 103.356 76.6833 103.759 77.494C103.938 77.8531 104.426 77.9185 104.821 77.8492C105.216 77.7801 105.616 77.6248 106.006 77.7193C106.606 77.8649 106.909 78.5201 107.115 79.102C108.15 82.0219 108.852 85.066 110.139 87.884C110.62 88.9379 110.468 90.2531 109.758 91.1691C109.671 90.4417 109.793 89.6904 110.106 89.0278C110.253 88.7158 109.762 88.5105 109.417 88.5115C105.899 88.5204 102.366 88.5305 98.8878 89.0523C98.7815 89.0683 98.6686 89.0878 98.5894 89.1604C98.5124 89.2308 98.4823 89.3377 98.4558 89.4387C98.3479 89.8484 98.2401 90.258 98.1322 90.6678C98.0646 90.9244 98.107 91.323 98.3711 91.2963C101.814 90.9476 105.275 90.7814 108.736 90.7984C109.1 90.8001 109.597 90.9446 109.55 91.3054C105.863 91.3489 102.163 91.3934 98.5166 91.9361C97.9359 92.0225 97.535 91.3035 97.6007 90.7201C97.6666 90.1368 98.0012 89.6136 98.0954 89.034C98.1767 88.5347 98.0751 88.0254 97.9657 87.5313C97.7918 86.746 97.5974 85.9652 97.383 85.19C97.1737 84.4334 96.9452 83.6824 96.7167 82.9313C96.3713 81.7955 96.0257 80.6595 95.6802 79.5235C95.205 80.2193 94.9934 81.0905 95.0962 81.9267C95.1679 82.5089 95.3838 83.0619 95.5455 83.6259C95.7767 84.432 95.898 85.2648 96.0188 86.0947C96.2566 87.7292 96.4945 89.3638 96.7322 90.9985C96.7673 91.239 96.6982 91.5934 96.4577 91.5579C95.3886 88.2505 95.6822 84.5939 94.4204 81.3552C94.6985 80.6984 94.9766 80.0416 95.2546 79.3848ZM103.217 79.9848C103.566 79.791 103.746 79.3387 103.627 78.9584C103.507 78.5779 103.101 78.3099 102.704 78.35C101.731 78.4486 100.759 78.5472 99.786 78.6457C99.6961 78.6548 99.5956 78.6697 99.5417 78.742C99.4991 78.7992 99.4983 78.8763 99.5023 78.9473C99.5282 79.3918 99.6825 79.8281 99.9417 80.19C100.143 80.4713 100.422 80.808 100.264 81.1161C100.068 81.5011 99.422 81.2852 99.2618 80.8838C99.1017 80.4824 99.2156 80.0292 99.1858 79.598C99.1561 79.1667 98.8462 78.6704 98.4198 78.742C97.7207 78.8598 97.0217 78.9774 96.3225 79.0952C96.2222 79.1121 96.0911 79.174 96.1206 79.2715C96.9719 82.0892 97.8231 84.907 98.6745 87.7249C98.7806 88.0761 99.0198 88.5107 99.3769 88.4273C102.656 87.6616 106.113 88.3857 109.443 87.8825C108.445 84.7552 107.413 81.639 106.347 78.5344C106.316 78.4428 106.28 78.3454 106.202 78.2883C106.115 78.2249 105.999 78.2268 105.892 78.2313C105.392 78.2526 104.893 78.2737 104.393 78.2948C104.196 78.3032 103.926 78.3974 103.97 78.5904C104.105 79.1953 104.241 79.8004 104.377 80.4054C104.4 80.5094 104.423 80.6209 104.384 80.7203C104.279 80.9907 103.88 80.9225 103.615 80.8054C103.441 80.7288 103.257 80.6446 103.15 80.4875C103.042 80.3305 103.051 80.0774 103.217 79.9848ZM101.93 75.5953C101.547 75.3144 101.043 75.1116 100.602 75.2857C100.447 75.3464 100.314 75.4483 100.182 75.5489C99.9481 75.7283 99.7068 75.9158 99.5686 76.1763C99.4401 76.4187 99.4135 76.7004 99.3895 76.9739C99.3686 77.2128 99.3476 77.4516 99.3265 77.6905C99.3135 77.8387 99.3082 78.0089 99.4156 78.1118C99.5186 78.2105 99.6804 78.2033 99.8225 78.1899C100.84 78.0931 101.857 77.9963 102.874 77.8995C103.019 77.8857 103.197 77.8464 103.235 77.7057C103.25 77.6504 103.238 77.5913 103.224 77.5355C103.037 76.7646 102.57 76.0646 101.93 75.5953ZM101.549 78.1227C101.447 78.1516 101.561 78.3436 101.635 78.2676C101.73 78.2286 101.625 78.0497 101.545 78.1142L101.549 78.1227Z" clip-rule="evenodd"/><path fill="#363939" fill-rule="evenodd" d="M69.2952 55.253C69.2775 55.1934 69.3128 55.1312 69.3546 55.0851C69.5595 54.8595 69.9027 54.8427 70.2075 54.8419C72.056 54.8378 73.9047 54.8334 75.7531 54.8291C75.8832 54.8288 76.0226 54.8314 76.1288 54.9066C76.2349 54.9816 76.2765 55.1589 76.1744 55.2397C76.1202 55.2826 76.0453 55.2853 75.9762 55.2861C73.8287 55.3099 71.6811 55.3338 69.5336 55.3576C69.4402 55.3586 69.3219 55.3427 69.2952 55.253Z" clip-rule="evenodd"/><path fill="#363939" fill-rule="evenodd" d="M69.9805 57.1615C69.8691 57.0974 69.8845 56.9179 69.9781 56.8299C70.0718 56.742 70.2083 56.7212 70.3358 56.7059C71.1011 56.6137 71.8706 56.563 72.6397 56.5123C73.0634 56.4844 73.487 56.4564 73.9107 56.4286C74.4616 56.3923 75.0125 56.3559 75.5634 56.3196C75.7384 56.3081 75.9338 56.3031 76.0654 56.4188C76.1973 56.5345 76.1651 56.8129 75.9901 56.8236C74.0459 56.9441 72.1016 57.0646 70.1574 57.1851C70.0971 57.1887 70.0328 57.1916 69.9805 57.1615Z" clip-rule="evenodd"/><path fill="#363939" fill-rule="evenodd" d="M80.4017 59.6752C80.5486 59.396 80.7081 59.1032 80.9783 58.9404C81.2486 58.7777 81.6631 58.8113 81.8087 59.0913C81.9635 59.3891 81.7331 59.7481 81.4627 59.947C81.1921 60.1459 80.8595 60.2859 80.6836 60.572C81.6337 61.1979 82.5836 61.824 83.5335 62.4499C84.2775 62.9401 85.1193 63.6403 84.967 64.5182C84.8777 65.0329 84.4415 65.4331 83.9556 65.6251C83.4697 65.8172 82.9356 65.8372 82.4134 65.8523C78.9038 65.9534 75.3907 65.9355 71.8822 65.7988C71.6388 65.7894 71.3673 65.7667 71.2051 65.5849C71.0795 65.4441 71.0535 65.2432 71.0332 65.0556C70.8313 63.1883 70.6294 61.3208 70.4275 59.4534C70.4199 59.3844 70.4129 59.3124 70.4375 59.2475C70.5414 58.9748 70.9494 59.1428 71.1774 59.3249C72.7924 60.614 75.3745 60.4625 76.8278 58.9934C77.1788 58.6385 77.7767 58.6844 78.2278 58.8984C78.679 59.1124 79.0564 59.4606 79.5089 59.6715C79.4606 59.4099 79.6913 59.1337 79.9574 59.1348C80.2235 59.136 80.4521 59.4139 80.4017 59.6752ZM80.6004 60.8782C80.4851 60.4544 79.8587 60.3656 79.5132 60.6368C79.1678 60.908 79.0558 61.3804 79.0259 61.8185C79.0147 61.982 78.7459 61.9984 78.6537 61.8628C78.5617 61.7273 78.599 61.5448 78.6502 61.3891C78.7851 60.9784 78.9927 60.5916 79.2607 60.2523C79.3935 60.0844 79.199 59.8572 79.0238 59.734C78.4059 59.2996 77.5308 58.871 76.9639 59.3702C75.4107 60.7384 72.9331 60.9206 71.1964 59.7945C71.2171 61.1963 71.3204 62.5968 71.5055 63.9865C71.5241 64.1265 71.5481 64.276 71.6447 64.379C71.7727 64.5152 71.9823 64.5246 72.1692 64.5249C75.1863 64.5288 78.2035 64.5326 81.2206 64.5364C81.5142 64.5368 81.9132 64.432 81.8903 64.1393C81.8371 63.458 82.1387 62.7588 82.6707 62.33C82.2523 62.0262 81.8337 61.7222 81.4153 61.4182C81.2876 61.3254 81.154 61.2302 80.9985 61.2035C80.5291 61.123 80.2155 61.6612 80.0494 62.1076C79.795 61.6528 80.0915 60.991 80.6004 60.8782ZM72.715 65.5294C75.8567 65.554 78.9988 65.5488 82.1406 65.5137C83.0326 65.5036 84.074 65.4131 84.5577 64.6636C80.2191 64.8542 75.8745 64.9014 71.5329 64.8051C71.479 65.3262 72.191 65.5254 72.715 65.5294ZM83.4673 62.7289C83.3739 62.6696 83.2772 62.6091 83.1681 62.5904C82.8391 62.5339 82.5796 62.8625 82.4367 63.1641C82.354 63.3385 82.2822 63.5182 82.2219 63.7014C82.1758 63.8411 82.1359 63.9896 82.1649 64.1337C82.1939 64.2779 82.3121 64.4144 82.4591 64.416C82.9934 64.422 83.5276 64.4164 84.0617 64.399C84.1876 64.3948 84.3246 64.3859 84.419 64.3024C84.53 64.204 84.5435 64.0342 84.5156 63.8886C84.4151 63.3612 83.9207 63.0163 83.4673 62.7289ZM81.5801 59.3182C81.5742 59.1555 81.3569 59.0728 81.2068 59.1356C81.0566 59.1984 80.9643 59.3476 80.8817 59.4881C80.782 59.6577 80.6823 59.8275 80.5827 59.9971C80.5305 60.086 80.502 60.2374 80.6028 60.2598C80.8681 60.0392 81.1332 59.8187 81.3985 59.5982C81.4873 59.5244 81.5843 59.4336 81.5801 59.3182ZM79.8611 59.5833C79.8161 59.8027 79.9286 60.0452 80.1252 60.1523C80.1934 59.9264 80.1534 59.6704 80.0196 59.476C80.0115 59.4209 79.9367 59.3891 79.8913 59.4212C79.8564 59.4656 79.8439 59.5267 79.8587 59.5811L79.8611 59.5833Z" clip-rule="evenodd"/><path fill="#363939" fill-rule="evenodd" d="M69.0588 53.1137C68.9791 52.7278 68.8994 52.3417 68.8196 51.9556C68.7887 51.8057 68.7602 51.6392 68.8388 51.5076C68.9462 51.3284 69.1916 51.3046 69.4004 51.3009C74.5287 51.2118 79.659 51.2313 84.7865 51.3595C85.1364 51.3683 85.4236 51.6704 85.53 52.0036C85.6364 52.3371 85.6014 52.6969 85.5654 53.0449C85.5458 53.2331 85.5148 53.4428 85.3647 53.5579C85.242 53.6521 85.0742 53.6545 84.9193 53.6529C79.7692 53.5966 74.6191 53.5404 69.4689 53.4843C69.3841 53.4833 69.2945 53.4809 69.2226 53.4358C69.1177 53.3697 69.0839 53.2352 69.0588 53.1137ZM69.7671 51.6396C69.3881 51.6368 69.1193 52.0872 69.214 52.4542C69.3087 52.8212 69.6634 53.0739 70.0318 53.1632C70.4002 53.2524 70.786 53.2094 71.1634 53.174C75.8143 52.7393 80.5175 53.5702 85.165 53.1012C85.1894 52.8185 85.2126 52.5262 85.1215 52.2574C85.0305 51.9886 84.7932 51.7478 84.5094 51.7457C79.5953 51.7104 74.6812 51.675 69.7671 51.6396Z" clip-rule="evenodd"/><path fill="#363939" fill-rule="evenodd" d="M38.136 64.2946C37.9644 64.6201 37.7277 64.9505 37.3728 65.0473C36.6968 65.2316 36.138 64.4812 35.9535 63.8054C35.6655 62.7502 35.7383 61.5999 36.1572 60.5895C36.3812 60.049 36.1944 59.41 35.8431 58.942C35.1807 58.0593 33.9447 57.6729 32.8828 57.9732C31.8208 58.2734 30.9828 59.218 30.7607 60.2991C30.7258 60.4682 30.7504 60.706 30.9215 60.73C31.7751 60.8495 32.1669 61.8511 32.2968 62.7031C32.396 63.3537 32.4391 64.0353 32.2184 64.6551C31.9978 65.2751 31.4578 65.8196 30.8016 65.8695C30.2128 65.473 29.7695 64.8652 29.5717 64.1834C29.2039 62.9154 29.6816 61.5713 30.1749 60.3466C30.476 59.5993 30.7991 58.8338 31.3709 58.2663C32.5933 57.0529 34.8759 57.1969 35.9359 58.5543C36.3437 59.0766 36.5778 59.7252 37.0296 60.2097C37.3703 60.575 37.8207 60.8305 38.1314 61.2215C38.8064 62.0706 38.6423 63.3353 38.136 64.2946ZM29.9456 61.9505C29.6362 62.8034 29.7224 63.7911 30.1751 64.5775C30.2493 64.7068 30.3378 64.8353 30.4677 64.9084C30.5976 64.9814 30.7788 64.9826 30.8815 64.8745C31.1893 64.551 31.2277 64.0615 31.2268 63.615C31.2255 63.0868 31.193 62.5586 31.1293 62.0343C31.1032 61.8198 31.0588 61.5825 30.8852 61.4535C30.7116 61.3247 30.3858 61.4326 30.413 61.647C30.4924 62.2711 30.5717 62.8951 30.6509 63.5193C30.669 63.6612 30.6848 63.8148 30.6138 63.939C30.5426 64.063 30.3461 64.1209 30.256 64.0097C30.0226 63.5335 29.9522 62.9791 30.0592 62.4596C30.0978 62.2729 30.1242 62.0172 29.9456 61.9505ZM37.0903 64.4254C37.1692 64.3638 37.206 64.2638 37.2354 64.1682C37.4668 63.4169 37.4693 62.5967 37.2424 61.8439C37.1562 61.5577 36.9224 61.223 36.6394 61.3188C36.4757 61.3742 36.3928 61.5534 36.3408 61.718C36.104 62.4663 36.1356 63.2964 36.4282 64.0246C36.4844 64.1641 36.5536 64.3052 36.6725 64.3974C36.7912 64.4895 36.9717 64.5178 37.0903 64.4254ZM31.5352 61.7249C31.7415 62.77 31.6976 63.8636 31.4084 64.8889C31.3818 64.9833 31.4888 65.0569 31.5784 65.0966C32.0124 64.0442 32.0672 62.8401 31.7311 61.7526C31.6752 61.7129 31.5999 61.7022 31.5352 61.7249ZM37.5551 61.4426C37.4909 61.5449 37.4269 61.6473 37.3628 61.7495C37.574 61.7138 37.6708 62.0022 37.682 62.2161C37.7082 62.7108 37.7343 63.2054 37.7605 63.7001C37.9573 63.6262 37.9928 63.3679 37.9965 63.1577C38.0048 62.6844 38.013 62.2113 38.0213 61.738C37.9504 61.7297 37.8796 61.7214 37.8087 61.713C37.8013 61.579 37.6884 61.4585 37.5551 61.4426Z" clip-rule="evenodd"/><path fill="#363939" fill-rule="evenodd" d="M60.7548 62.3404C59.3449 62.2732 57.9287 62.3343 56.5299 62.5229C56.406 62.5396 56.2675 62.5536 56.1681 62.4781C56.0686 62.4026 56.0795 62.2021 56.2036 62.1885C57.6025 62.0348 59.0076 61.9359 60.4143 61.8922C60.5673 61.8874 60.7387 61.8901 60.8476 61.9975C60.9566 62.105 60.9076 62.3477 60.7548 62.3404Z" clip-rule="evenodd"/><path fill="#363939" fill-rule="evenodd" d="M28.0035 56.7106C28.4039 56.673 28.8042 56.6354 29.2043 56.5978C29.4059 56.5789 29.6077 56.5599 29.8093 56.541C31.0919 56.4205 32.3744 56.3 33.6581 56.1928C33.7085 56.1887 33.7611 56.1848 33.8079 56.2042C33.9469 56.2618 33.9255 56.4863 33.8043 56.5756C33.6834 56.6648 33.5195 56.6597 33.3693 56.6548C31.4787 56.5919 29.5946 57.16 27.7128 56.9679C27.5906 56.9554 27.4306 56.8924 27.4522 56.7714C27.6352 56.7452 27.8195 56.7279 28.0035 56.7106Z" clip-rule="evenodd"/><path fill="#363939" fill-rule="evenodd" d="M71.1146 98.256C71.0517 97.7054 71.0066 97.1062 70.6364 96.6939C70.3522 96.3774 70.4993 95.7893 70.8988 95.6437C71.2983 95.4981 71.7892 95.8537 71.7754 96.2787C71.7706 96.4246 71.7175 96.564 71.6762 96.704C71.3938 97.6601 71.656 98.6891 72.0012 99.6245C72.3508 100.572 72.886 101.58 73.8465 101.891C74.9575 102.251 76.1871 101.454 76.6796 100.395C77.1722 99.336 77.0972 98.1062 76.9252 96.951C76.9079 96.835 76.8769 96.7012 76.7705 96.6521C76.3383 96.4526 76.2727 95.7515 76.6604 95.4752C77.0481 95.199 77.6893 95.4899 77.7369 95.9637C77.753 96.1243 77.7119 96.2843 77.6813 96.4429C77.469 97.543 77.7498 98.6966 77.5172 99.7926C77.3714 100.479 77.0221 101.121 76.5249 101.616C75.9977 102.141 75.2856 102.503 74.5418 102.515C73.5402 102.532 72.6034 101.911 72.0373 101.084C71.4713 100.258 71.2284 99.2513 71.1146 98.256Z" clip-rule="evenodd"/><path fill="#363939" fill-rule="evenodd" d="M41.9065 53.0537C41.9343 53.4308 41.9608 53.8193 41.8434 54.1788C41.7258 54.5382 41.4272 54.8657 41.0505 54.898C39.1082 55.0651 37.1657 55.2321 35.2197 55.3472C32.5663 55.5043 29.9081 55.5648 27.2506 55.6252C27.1557 55.6273 27.0543 55.6278 26.9752 55.5755C26.8565 55.4971 26.8343 55.335 26.8232 55.1932C26.7946 54.8217 26.7658 54.4502 26.737 54.0788C26.7284 53.9657 26.7217 53.8438 26.7826 53.7481C26.8717 53.6081 27.0626 53.5841 27.2284 53.5742C32.116 53.2846 37.0106 53.111 41.9065 53.0537ZM41.0888 54.3568C41.401 54.336 41.4642 53.8446 41.2353 53.6312C41.0063 53.4179 40.6586 53.4131 40.3458 53.4209C36.3233 53.5209 32.2993 53.6209 28.2849 53.8939C27.9957 53.9136 27.6949 53.9376 27.445 54.0843C27.1951 54.231 27.0148 54.5393 27.1101 54.8129C27.2458 55.2016 27.7701 55.2443 28.181 55.2169C32.4836 54.9302 36.7861 54.6435 41.0888 54.3568Z" clip-rule="evenodd"/><path fill="#363939" fill-rule="evenodd" d="M36.912 62.4409C36.9159 62.5431 36.9197 62.6452 36.9235 62.7474C36.9315 62.9601 36.9395 63.1741 36.9088 63.3847C36.6421 63.3564 36.5594 63.0133 36.5439 62.7457C36.5365 62.6183 36.5339 62.4759 36.6192 62.3812C36.7045 62.2863 36.9072 62.3133 36.912 62.4409Z" clip-rule="evenodd"/><path fill="#363939" fill-rule="evenodd" d="M56.1177 63.3116C56.3794 63.07 56.7772 63.0775 57.1332 63.0876C58.2594 63.1196 59.389 63.0325 60.497 62.8284C60.6278 62.8044 60.698 63.0076 60.6166 63.1125C60.5353 63.2175 60.3881 63.2394 60.2561 63.2528C59.0073 63.3799 57.7532 63.4551 56.4982 63.4784C56.3486 63.4812 56.159 63.4554 56.1177 63.3116Z" clip-rule="evenodd"/><path fill="#363939" fill-rule="evenodd" d="M98.1616 67.534C98.038 67.9518 97.6278 68.21 97.2364 68.4014C95.278 69.3593 92.9758 69.5937 90.8646 69.0505C90.1555 68.8679 89.3475 68.4459 89.3172 67.7142C89.2948 67.1764 89.7241 66.7257 90.1788 66.4374C90.8761 65.9953 91.6892 65.7719 92.4998 65.6145C94.0636 65.3106 95.7588 65.2479 97.1744 65.9786C97.7673 66.2847 98.3507 66.894 98.1616 67.534ZM89.8006 67.6329C89.8019 68.2238 90.4611 68.5697 91.0326 68.7196C93.0174 69.2402 95.1884 69.0156 97.0246 68.0996C97.3193 67.9526 97.6302 67.7588 97.7238 67.4431C97.8496 67.0191 97.5211 66.5919 97.1564 66.3415C96.0593 65.5876 94.6081 65.6906 93.2844 65.8324C92.2192 65.9465 91.0841 66.0955 90.2721 66.7942C90.0212 67.0102 89.8 67.3018 89.8006 67.6329Z" clip-rule="evenodd"/><path fill="#363939" fill-rule="evenodd" d="M40.5397 32.9239C40.473 32.544 40.7349 32.1666 41.0725 31.98C41.41 31.7935 41.8079 31.7574 42.1929 31.7347C45.6255 31.5328 49.0529 32.0842 52.4866 32.2653C52.9285 32.2887 53.3946 32.3131 53.7663 32.5531C54.1381 32.7933 54.3564 33.3322 54.0993 33.6923C53.9748 33.8664 53.7692 33.9632 53.565 34.0277C52.9764 34.2136 52.3447 34.189 51.7279 34.1626C48.5177 34.0245 45.3076 33.8864 42.0973 33.7485C41.4601 33.7211 40.6501 33.5522 40.5397 32.9239ZM40.9804 32.3734C40.7989 32.629 40.9508 33.0104 41.2129 33.1824C41.4749 33.3544 41.805 33.3738 42.1181 33.3878C45.5204 33.541 48.9226 33.6941 52.3247 33.8472C52.6562 33.8621 53.0234 33.8653 53.2746 33.6485C53.5257 33.4315 53.4925 32.9144 53.1649 32.8623C49.3817 32.2608 45.5426 32.011 41.7133 32.1171C41.4445 32.1246 41.1361 32.1541 40.9804 32.3734Z" clip-rule="evenodd"/><path fill="#F9D262" fill-rule="evenodd" d="M78.1814 29.6273C78.7036 28.5393 79.5503 27.4177 80.7537 27.3249C81.5553 27.2632 82.4057 27.4033 83.0401 27.8971C84.1906 28.7929 84.2708 30.5297 83.8596 31.9288C83.375 33.5777 82.2935 35.1049 80.742 35.8445C80.3719 36.0209 79.9695 36.1528 79.5599 36.1366C78.4715 36.0939 77.6788 35.0246 77.4444 33.9608C77.1233 32.5029 77.5355 30.9733 78.1814 29.6273ZM79.535 35.7384C80.3396 35.848 81.0977 35.3355 81.6654 34.7549C82.7292 33.6665 83.4433 32.2414 83.6787 30.7379C83.7465 30.3046 83.7746 29.855 83.6567 29.4325C83.4249 28.6016 82.6372 28.0011 81.7921 27.8283C80.9793 27.6622 80.086 27.8605 79.4595 28.4041C79.1583 28.6656 78.9246 28.9957 78.7203 29.3381C78.0543 30.4552 77.6758 31.755 77.722 33.0547C77.743 33.6419 77.8543 34.2387 78.1516 34.7456C78.4487 35.2523 78.9529 35.6592 79.535 35.7384Z" clip-rule="evenodd"/><path fill="#363939" fill-rule="evenodd" d="M51.7962 75.806C51.9032 75.8004 52.018 75.7965 52.1085 75.8538C52.2205 75.9245 52.2615 76.0653 52.2936 76.1936C52.3642 76.4749 52.4352 76.7674 52.3784 77.0517C52.3215 77.3359 52.0973 77.609 51.8077 77.6216C51.0688 77.654 50.3301 77.6861 49.5914 77.7184C49.3016 77.7311 48.9623 77.7725 48.8183 78.0242C48.7207 78.1948 48.7498 78.4066 48.7818 78.6005C48.8724 79.1501 49.1284 79.8448 49.685 79.8247C50.0552 79.8112 50.3853 80.0924 50.5447 80.4268C50.704 80.7613 50.7279 81.142 50.749 81.5119C50.769 81.86 50.68 82.3359 50.3314 82.3445C50.0503 82.3516 49.9727 82.7316 49.9816 83.0127C50.0437 84.968 50.1058 86.9233 50.1679 88.8785C50.178 89.1935 49.7743 89.326 49.4607 89.3577C46.8325 89.6229 44.1772 89.6159 41.5504 89.3369C41.4564 89.3268 41.336 89.29 41.334 89.1952C41.2853 86.986 41.2367 84.7767 41.188 82.5674C41.1853 82.4386 41.1221 82.2605 40.9978 82.2944C40.6064 82.4015 40.2128 82.0383 40.1317 81.6407C40.0508 81.2429 40.1898 80.8372 40.3268 80.4551C40.3901 80.2786 40.4612 80.0914 40.6127 79.9807C40.9362 79.7445 41.5341 79.9127 41.6791 79.5392C41.7031 79.4775 41.7077 79.4098 41.7053 79.3436C41.6852 78.7666 41.1479 78.3114 40.582 78.1973C40.016 78.0832 39.4327 78.2333 38.8815 78.4052C38.7552 77.9285 38.7229 77.4272 38.7868 76.9384C38.802 76.8231 38.8253 76.7018 38.9029 76.6151C39.0135 76.4912 39.1976 76.4741 39.3632 76.4653C43.5076 76.2455 47.6519 76.0258 51.7962 75.806ZM40.7466 80.2821C40.6669 80.3746 40.6493 80.5037 40.6349 80.625C40.5975 80.941 40.56 81.2572 40.5228 81.5732C40.5148 81.6397 40.5074 81.71 40.5343 81.7712C40.5916 81.9026 40.7652 81.9253 40.9085 81.9289C41.6693 81.9477 42.4301 81.9666 43.1909 81.9856C43.3192 81.9887 43.4538 81.9906 43.5677 81.9316C43.7509 81.8365 43.8263 81.5784 43.7229 81.3999C43.8159 81.3903 43.909 81.3808 44.0021 81.3712C43.9612 81.6469 44.242 81.8776 44.5178 81.9183C44.7935 81.9588 45.0706 81.8746 45.3484 81.8525C45.9309 81.8066 46.5125 82.0351 47.0928 81.9664C47.154 81.9592 47.2191 81.9466 47.2618 81.9023C47.3178 81.8445 47.3167 81.7541 47.312 81.6738C47.2901 81.2885 47.268 80.9034 47.2461 80.5181C47.2392 80.3968 47.2288 80.2663 47.1509 80.1732C47.0396 80.04 46.84 80.0359 46.6668 80.0426C45.8292 80.0751 44.9916 80.1074 44.154 80.1399C44.0956 80.1421 44.0308 80.1471 43.9903 80.1893C43.9448 80.2365 43.948 80.3109 43.9541 80.3762C43.9823 80.6759 44.0104 80.9757 44.0386 81.2754C43.9274 81.2863 43.8184 81.3188 43.7196 81.3706C43.6948 81.1344 43.6701 80.8983 43.6453 80.662C43.6228 80.4466 43.5384 80.1708 43.322 80.1679C42.6306 80.1586 41.9394 80.1495 41.248 80.1402C41.0684 80.1378 40.8639 80.146 40.7466 80.2821ZM44.7295 82.606C44.718 82.4469 44.649 82.2364 44.4904 82.2535C43.5047 82.3594 42.5069 82.3533 41.5226 82.2354C41.5469 84.3804 41.5869 86.5252 41.6424 88.6696C41.6496 88.9456 41.998 89.056 42.2727 89.0842C43.0885 89.1679 43.91 89.1964 44.7296 89.1696C44.7968 89.1674 44.8696 89.1628 44.9208 89.1192C44.9882 89.062 44.9925 88.9615 44.9916 88.873C44.968 86.782 44.8807 84.6917 44.7295 82.606ZM49.6591 82.4877C49.6322 82.4415 49.5708 82.4319 49.5173 82.4274C48.6695 82.3556 47.817 82.3354 46.9666 82.3671C46.8895 82.37 46.8071 82.3751 46.746 82.4223C46.6533 82.494 46.6476 82.6293 46.6501 82.7466C46.697 84.8874 46.7439 87.0282 46.7908 89.1692C47.7271 89.2596 48.6804 89.1711 49.584 88.91C49.6402 88.8938 49.6999 88.8744 49.7362 88.8287C49.7754 88.7791 49.778 88.7109 49.7788 88.6479C49.7965 87.2704 49.761 85.893 49.7253 84.516C49.7087 83.8672 49.6919 83.2184 49.6751 82.5698C49.6744 82.5416 49.6733 82.512 49.6591 82.4877ZM39.1444 77.0607C38.9818 77.3162 39.1565 77.6772 39.4237 77.8199C39.6909 77.9628 40.0111 77.9488 40.3136 77.9314C42.1436 77.8253 43.9735 77.7192 45.8034 77.6133C47.5487 77.5122 49.294 77.4109 51.0362 77.2692C51.2914 77.2484 51.5596 77.2223 51.7704 77.077C51.9813 76.9317 52.1037 76.6248 51.9623 76.4114C51.8205 76.1973 51.5154 76.1874 51.2589 76.2007C47.4565 76.3968 43.6541 76.593 39.8516 76.789C39.589 76.8026 39.2855 76.8388 39.1444 77.0607ZM46.4586 89.1192C46.33 87.0293 46.3045 84.9332 46.3823 82.8408C46.3868 82.7207 46.3908 82.5956 46.3428 82.4853C46.2028 82.1632 45.7522 82.1642 45.4052 82.2178C45.2464 82.2424 45.0437 82.3183 45.0557 82.4785C45.2045 84.4799 45.3533 86.4845 45.32 88.4912C45.3156 88.7568 45.4677 89.0194 45.7004 89.1477C45.933 89.276 46.2362 89.2647 46.4586 89.1192ZM50.3858 81.404C50.3405 81.1279 50.2933 80.8456 50.1586 80.6004C50.024 80.3551 49.7828 80.1496 49.5034 80.1357C48.9724 80.1092 48.4413 80.0828 47.9104 80.0564C47.7722 80.0495 47.5812 80.0911 47.5879 80.2293C47.608 80.6495 47.6284 81.0698 47.6485 81.49C47.6573 81.6733 47.6916 81.8948 47.8615 81.9644C47.9164 81.9868 47.977 81.9885 48.0362 81.9898C48.7285 82.0056 49.4208 82.0215 50.1132 82.0373C50.2453 82.0404 50.356 81.9242 50.392 81.797C50.4282 81.67 50.4071 81.5344 50.3858 81.404ZM47.0338 79.3333C46.9645 79.0416 46.8922 78.7429 46.7264 78.4932C46.5605 78.2432 46.2791 78.048 45.98 78.0701C45.5191 78.1039 45.0581 78.1378 44.5972 78.1717C44.31 78.1928 43.9847 78.2341 43.8164 78.4677C43.6128 78.7503 43.7524 79.1445 43.6975 79.4885C43.6781 79.6093 43.7725 79.725 43.8855 79.7719C43.9984 79.8189 44.1255 79.8133 44.2476 79.8071C45.0728 79.7647 45.898 79.7221 46.7231 79.6797C46.8442 79.6735 46.9896 79.6514 47.038 79.54C47.0658 79.4757 47.0501 79.4016 47.0338 79.3333ZM48.4799 78.8048C48.3229 78.5898 48.3268 78.2712 48.489 78.06C48.1997 77.8804 47.7946 77.9136 47.5386 78.138C47.2824 78.3623 47.1962 78.7596 47.3362 79.0698C47.3855 79.1792 47.3572 79.3088 47.392 79.4237C47.4413 79.5869 47.612 79.6895 47.7813 79.7104C47.9504 79.7314 48.1202 79.6869 48.285 79.6429C48.501 79.5852 48.764 79.4696 48.762 79.246C48.7602 79.0676 48.585 78.949 48.4799 78.8048ZM43.3232 79.5706C43.4191 79.2572 43.2901 78.8997 43.044 78.6831C42.7981 78.4666 42.4535 78.3821 42.1269 78.4116C41.9959 78.4232 41.8589 78.4557 41.764 78.5471C41.6692 78.6384 41.6352 78.8028 41.7207 78.9028C41.7839 78.9768 41.892 78.9984 41.9583 79.0698C42.0592 79.1786 42.0252 79.3527 42.0714 79.4938C42.1759 79.8125 42.6087 79.8426 42.9426 79.812C43.057 79.8016 43.1831 79.7855 43.2584 79.6988C43.29 79.6623 43.3092 79.6167 43.3232 79.5706ZM43.3773 78.516C43.4548 78.4412 43.4688 78.3095 43.4088 78.2199C43.2756 78.1802 43.1264 78.2596 43.0562 78.3797C43.1084 78.4991 43.2549 78.568 43.3802 78.5322M47.1828 78.1832C47.2023 78.1309 47.1908 78.0684 47.1541 78.0263C47.0276 77.9863 46.88 78.0221 46.7861 78.1157C46.8829 78.2255 47.0588 78.2551 47.1861 78.1831L47.1828 78.1832Z" clip-rule="evenodd"/><path fill="#363939" fill-rule="evenodd" d="M98.1979 69.2994C94.1411 70.8858 90.0841 72.4722 86.0273 74.0586C84.2822 74.741 82.2633 75.7652 82.0761 77.6297C84.4468 75.8058 87.3751 74.7174 90.3615 74.5502C88.2983 77.1495 85.6934 79.3167 82.7619 80.8722C80.1292 82.2692 76.7963 83.7591 76.5705 86.7308C79.3979 83.3641 83.7447 81.3258 88.1411 81.3055C85.3284 85.425 80.8183 88.3471 75.9091 89.2305C76.0775 90.4964 76.246 91.7623 76.4145 93.0283C78.0825 92.969 79.7607 93.2078 81.3462 93.7295C82.4753 98.5802 83.6044 103.431 84.7335 108.282C85.0113 109.475 85.2559 110.847 84.5251 111.831C83.7999 112.806 82.4305 112.974 81.2177 113.061C76.438 113.4 71.6582 113.74 66.8783 114.08C66.3062 111.487 65.7339 108.895 65.1615 106.302C57.0991 107.05 49.0366 107.799 40.9742 108.548C39.2763 108.706 37.4806 108.847 35.9443 108.107C30.3716 105.424 23.6145 110.617 17.7286 108.717C22.8999 108.62 28.0553 107.718 32.9526 106.054C34.7286 105.45 36.8551 103.797 35.9271 102.167C31.3857 105.336 25.5585 106.601 20.1118 105.6C20.4315 100.311 20.2259 94.9897 19.4987 89.7406C23.3742 89.1862 27.1937 88.2399 30.8798 86.921C31.9051 86.5542 32.9599 86.1319 33.69 85.3239C34.4203 84.5159 34.7155 83.2106 34.0739 82.3306C28.4673 85.3182 21.994 86.6553 15.6627 86.1335C15.9931 93.2974 16.3235 100.461 16.6539 107.625C15.718 100.466 15.2217 93.2503 15.1686 86.0308C18.4278 85.7418 21.6868 85.4529 24.9459 85.1638C24.4219 82.8375 23.8945 80.458 24.1638 78.0886C24.4329 75.7191 25.6524 73.3198 27.7959 72.2748C26.1743 68.8161 23.7235 65.7495 20.7073 63.4054C17.1715 60.6572 12.6256 58.5852 11.0109 54.4082C9.94334 51.6465 10.467 48.4342 11.9453 45.8686C13.4235 43.3031 15.766 41.3268 18.3119 39.8151C14.8067 38.9142 12.1518 35.4201 12.2228 31.8017C12.2938 28.1833 15.0839 24.7961 18.6217 24.0335C16.9537 22.0457 14.3272 21.1346 12.4088 19.3874C10.1739 17.3521 9.05083 14.0689 9.86491 11.1578C10.679 8.24663 13.5453 5.95622 16.5654 6.08528C19.046 6.19129 21.2291 7.76028 22.9607 9.5398C25.6462 12.2996 27.6435 15.7242 28.7233 19.4206C29.443 21.8842 32.0807 23.1375 34.3084 24.4126C36.5361 25.6876 38.8494 27.9086 38.2217 30.3972C37.3919 26.9916 34.6057 24.137 31.2212 23.2249C29.4577 22.7497 28.815 20.6511 28.2476 18.915C27.1438 15.5365 25.2593 12.4157 22.7835 9.86572C20.9227 7.94937 18.49 6.27715 15.8228 6.42112C13.0771 6.56932 10.6567 8.8028 10.029 11.4799C9.40123 14.157 10.4537 17.0903 12.4571 18.9737C14.4978 20.8921 17.4171 21.8318 19.0623 24.0983C15.4941 24.8234 12.6732 28.2574 12.6544 31.8983C12.6357 35.5394 15.4212 39.0022 18.9817 39.7639C16.4726 41.2327 14.1246 43.0985 12.5766 45.5594C11.0285 48.0206 10.3649 51.1441 11.2912 53.8999C13.4336 60.2743 22.3635 61.7958 25.5148 67.7364C26.3683 64.9332 25.1172 61.9857 24.4742 59.1266C23.8311 56.2678 24.1945 52.5964 26.8601 51.379C26.0811 47.6242 25.302 43.8697 24.523 40.115C23.9425 37.3172 23.6513 33.7726 26.0582 32.2324C24.3623 31.7065 22.8572 30.5862 21.8667 29.1127C22.9364 30.75 24.9966 31.679 26.9319 31.3967C24.4863 26.0953 21.7747 20.9164 18.8105 15.8865C22.0044 20.7023 24.831 25.7617 27.2579 31.006C38.4825 30.7023 49.7244 31.0481 60.9092 32.0412C62.3942 32.173 63.9924 32.3649 65.09 33.3737C66.6676 34.8233 69.0361 35.3521 71.0803 34.711C71.7307 36.3233 72.2092 38.1343 71.6563 39.7826C71.1035 41.431 69.1451 42.689 67.5796 41.9329C67.9883 44.0351 68.3969 46.1375 68.8055 48.2398C72.8081 48.2879 76.8102 48.3697 80.8115 48.485C82.9321 48.5462 85.1486 48.6426 86.9918 49.6932C88.8348 50.7439 90.1355 53.0711 89.3145 55.0274C89.8382 53.4108 90.3617 51.794 90.8854 50.1774C92.731 53.107 93.6375 56.6185 93.4404 60.0753C94.0798 59.1025 94.7191 58.1297 95.3585 57.1569C93.087 53.5818 92.7979 48.8302 94.619 45.006C96.4052 47.9641 97.4113 51.3884 97.5091 54.8425C98.1751 48.6174 102.586 42.9423 108.454 40.7598C107.435 43.1055 106.418 45.4514 105.399 47.7972C104.528 49.8057 103.421 52.0334 101.326 52.6714C99.9446 53.0922 97.9441 53.0668 97.6935 54.4892C101.662 53.4486 105.885 53.397 109.878 54.3406C106.801 58.0393 100.873 58.95 96.8281 56.3452C94.9199 58.4734 93.2667 60.8298 91.9148 63.3484C94.2111 60.4945 97.7847 58.7098 101.446 58.5886C99.4788 60.9132 97.2603 63.0247 94.8414 64.8745C96.1252 64.9978 97.5134 65.167 98.4446 66.0593C99.3759 66.9516 99.3991 68.8297 98.1979 69.2994ZM44.6473 45.8724C45.7113 45.8601 46.903 45.898 47.6459 46.6599C48.2124 47.2412 48.3643 48.0986 48.4878 48.9009C49.0527 52.57 49.5815 56.2446 50.0743 59.9239C50.198 60.8468 49.4243 61.6985 48.5403 61.9911C47.6563 62.2838 46.6953 62.1553 45.7734 62.0239C46.542 61.3604 47.8396 61.8359 48.6668 61.2473C49.4087 60.7194 49.4044 59.6354 49.3156 58.7292C48.9825 55.3316 48.5291 51.9457 47.9561 48.5802C47.8548 47.9854 47.7308 47.3524 47.3094 46.9206C46.7483 46.3454 45.8515 46.307 45.0479 46.306C41.7492 46.3018 38.4505 46.2978 35.1518 46.2937C34.5833 46.293 33.9851 46.2998 33.4915 46.5818C32.0711 47.3937 32.5948 49.5378 33.3007 51.0137C35.3011 50.6082 37.3449 50.418 39.3855 50.4478C41.1934 50.474 43.4478 51.061 43.7527 52.8433C44.4225 56.7585 45.0921 60.6737 45.7619 64.5889C46.1131 66.6418 46.3067 69.1359 44.666 70.419C43.8463 71.0601 42.7583 71.2129 41.7259 71.3434C39.1873 71.6644 36.6486 71.9854 34.11 72.3063C35.1673 81.5641 36.2246 90.822 37.282 100.08C37.3999 101.112 37.6158 102.299 38.5238 102.805C39.0609 103.104 39.7124 103.08 40.3263 103.046C48.4151 102.605 56.4961 102.021 64.5643 101.294C64.2415 100.559 64.2351 99.6911 64.547 98.951C65.3643 103.735 66.1814 108.519 66.9987 113.303C68.4294 112.317 68.2094 110.176 67.8295 108.481C66.8678 104.187 65.9062 99.8942 64.9444 95.6009C64.5551 96.3151 64.1657 97.0294 63.7764 97.7436C63.5852 96.8519 64.1203 95.9292 64.8625 95.3991C65.6046 94.8689 66.5193 94.6514 67.4111 94.4602C70.1529 93.8724 72.9243 93.4234 75.7115 93.1156C74.9015 87.402 74.0916 81.6886 73.2815 75.975C68.302 77.3426 63.0287 76.9122 57.8836 76.4711C56.3598 76.3406 54.4231 75.8276 54.2777 74.305C53.9124 70.4775 53.5471 66.65 53.1819 62.8225C53.1342 62.3234 52.8451 61.6514 52.3691 61.8086C51.1995 62.1948 50.5038 60.5284 50.4081 59.3002C50.1078 55.4486 49.8075 51.5967 49.5071 47.7449C49.4678 47.2398 49.4575 46.6567 49.8342 46.3178C50.098 46.0806 50.4779 46.037 50.8311 46.0049C53.3515 45.7743 55.8718 45.5439 58.3923 45.3135C59.8315 45.1818 61.4662 45.1138 62.5135 46.1098C63.2527 46.8127 63.5007 47.8786 63.6567 48.8866C63.9443 50.7446 64.0395 52.6321 63.9404 54.5094C63.7406 52.6743 63.5409 50.8393 63.3412 49.0042C63.2513 48.1785 63.1415 47.303 62.6199 46.6567C61.7297 45.5535 60.0734 45.5721 58.6606 45.6882C56.1367 45.8959 53.6131 46.1036 51.0892 46.3113C50.7494 46.3393 50.3811 46.3794 50.134 46.6145C49.8126 46.9204 49.8217 47.4266 49.8539 47.869C50.1243 51.5916 50.3947 55.314 50.6651 59.0366C50.7161 59.7391 50.7855 60.4902 51.2297 61.0369C51.6739 61.5838 52.6375 61.7554 53.0526 61.1862C52.4841 59.9362 53.2705 58.4057 54.4347 57.6772C55.5988 56.9487 57.0275 56.8206 58.3964 56.7113C60.7572 56.523 63.118 56.3346 65.479 56.1463C65.3172 51.2598 64.7902 46.3855 63.9039 41.5774C63.0873 41.349 62.3438 40.8663 61.8028 40.2135C61.3979 41.2564 60.1919 41.9193 59.0945 41.702C57.9971 41.4847 57.1347 40.4124 57.1577 39.2938C57.0275 40.581 55.9062 41.6975 54.6183 41.822C53.3307 41.9466 52.0161 41.0657 51.6417 39.8273C51.0251 40.515 50.2249 41.1076 49.3049 41.1914C48.3851 41.2751 47.3675 40.6942 47.2179 39.7826C46.0097 41.35 43.2019 41.191 42.1783 39.4972C41.1257 41.2345 38.1287 41.1918 37.126 39.4252C36.6758 41.0585 34.1622 41.189 32.9558 39.9998C31.7492 38.8105 31.5143 36.9785 31.3465 35.2927C29.355 37.2116 28.9956 40.2942 29.3737 43.0337C29.7516 45.7734 30.7366 48.4124 30.9756 51.1676C31.5212 51.3047 32.1196 51.2182 32.6039 50.9319C32.0807 49.351 31.7367 47.227 33.1569 46.3574C33.7265 46.0086 34.4315 45.9908 35.0993 45.983C38.282 45.9462 41.4646 45.9094 44.6473 45.8724ZM76.1756 72.4782C80.3505 72.2708 84.6572 72.815 88.6247 71.4993C89.2387 71.2956 89.8676 71.0273 90.2631 70.5154C89.2497 70.0497 88.1734 69.2466 88.1982 68.1314C88.2145 67.3991 88.722 66.7662 89.2937 66.3082C89.8939 65.8274 90.5926 65.4705 91.3339 65.2658C91.3939 65.0823 91.0713 65.0426 90.9115 65.151C90.7518 65.2594 90.5092 65.3935 90.403 65.2324C90.3743 65.189 90.3686 65.1351 90.3635 65.0836C89.9652 61.0311 89.3751 56.9977 88.5958 53.0009C88.3615 51.7993 88.0134 50.4607 86.9542 49.8466C86.3823 49.515 85.6969 49.4593 85.0374 49.4137C80.0729 49.0702 75.0991 48.8599 70.1233 48.7828C68.9475 48.7647 67.6319 48.8084 66.8075 49.6471C66.1822 50.2834 66.003 51.2284 65.9367 52.1182C65.7318 54.873 66.3217 57.6154 66.7055 60.3511C67.1652 63.6284 67.3307 66.9386 67.634 70.234C67.6743 70.6726 67.7233 71.1295 67.9604 71.5006C68.3671 72.1366 69.1927 72.3361 69.9404 72.4409C71.0449 72.5958 72.1619 72.6612 73.2769 72.6366C74.2444 72.6151 75.2091 72.5262 76.1756 72.4782ZM41.9127 51.2206C40.4995 50.5993 38.8807 50.7657 37.3471 50.9438C35.0275 51.213 32.7078 51.4823 30.3881 51.7516C29.2732 51.881 28.1572 52.0106 27.0542 52.2186C26.7883 52.2689 26.5215 52.3241 26.2707 52.4254C25.2875 52.8228 24.7014 53.8828 24.5651 54.9345C24.4286 55.986 24.6623 57.0462 24.8865 58.0826C25.5828 61.3038 26.2004 64.555 26.3679 67.8463C26.4011 68.4978 26.4177 69.158 26.5969 69.7854C26.7759 70.4127 27.1415 71.0162 27.7134 71.3305C28.1531 71.5722 28.6699 71.6223 29.1707 71.6553C33.7607 71.9569 38.3484 71.2167 42.8889 70.479C43.535 70.374 44.2147 70.2542 44.7182 69.8362C45.4959 69.1906 45.6123 68.0548 45.6067 67.0439C45.5963 65.1772 45.3703 63.3118 44.9345 61.4964C44.4249 59.3734 43.6246 57.2849 43.6035 55.1017C43.594 54.1386 43.7204 53.101 43.218 52.2794C42.9212 51.794 42.4337 51.4495 41.9127 51.2206ZM20.0705 91.6484C20.6875 96.082 20.8948 100.572 20.6889 105.044C20.678 105.28 20.9644 105.4 21.1963 105.444C24.1644 106.011 27.2214 105.284 30.1017 104.37C31.739 103.85 33.3775 103.258 34.7937 102.285C35.4414 101.84 36.0969 101.17 35.9758 100.393C35.1975 95.4046 34.7695 90.3617 34.6959 85.3134C32.0751 87.3612 28.7494 88.2302 25.5262 89.0502C23.9983 89.4388 22.45 89.83 20.8737 89.8169C20.4926 89.8137 20.1763 90.1484 20.0697 90.5143C19.9633 90.8802 20.018 91.271 20.0705 91.6484ZM80.3115 93.8895C75.4022 93.4114 70.3943 93.9729 65.7129 95.526C65.9939 97.6644 66.378 99.789 66.8633 101.89C67.0575 102.732 67.2681 103.57 67.4787 104.407C67.8886 106.038 68.2985 107.669 68.7084 109.301C68.7655 109.528 68.8371 109.776 69.0327 109.904C69.2073 110.019 69.4334 110.006 69.6417 109.988C74.4891 109.584 79.3339 109.146 84.1753 108.674C83.1169 103.957 82.0585 99.2388 81.0001 94.5209C80.9595 94.3396 80.9105 94.1442 80.7663 94.0271C80.6414 93.9258 80.4715 93.905 80.3115 93.8895ZM73.0748 73.1791C72.0065 73.2335 70.9223 73.2866 69.8793 73.0497C68.8363 72.8127 67.8212 72.2442 67.2855 71.3183C66.9782 71.6722 66.367 71.6988 66.03 71.3729C65.6931 71.047 65.6991 70.4353 66.0425 70.1161C64.6855 70.1284 63.3286 70.1406 61.9715 70.1529C62.5916 70.5182 62.5407 71.5953 61.8996 71.9225C61.2585 72.2497 60.3711 71.697 60.3563 70.9774C60.3497 70.6545 60.5478 70.2918 60.8695 70.2628C60.7361 70.0342 60.3897 70.1695 60.1262 70.1446C59.7291 70.107 59.5121 69.6743 59.3727 69.3006C58.8078 67.7847 58.2937 66.2505 57.7798 64.7167C58.1398 65.3057 58.9502 65.5706 59.5886 65.3081C59.814 65.2153 59.8209 64.891 59.7249 64.6668C59.5572 64.2754 59.1751 63.9737 58.7507 63.9404C58.3262 63.9071 57.8844 64.1665 57.7409 64.5673C57.5281 64.4082 57.6188 64.0404 57.842 63.8962C58.0652 63.7522 58.3511 63.7649 58.6163 63.7809C61.1191 63.9321 63.6313 63.9297 66.1339 63.7737C66.2478 63.7666 66.3734 63.7538 66.451 63.6703C66.5388 63.5758 66.5303 63.4298 66.5164 63.3015C66.4207 62.4212 66.3251 61.5409 66.2294 60.6606C66.2188 60.563 66.2038 60.4562 66.1308 60.3905C66.0505 60.318 65.9294 60.3214 65.8215 60.329C62.6844 60.5526 59.5555 60.8903 56.443 61.3412C56.1116 61.3892 55.8035 61.1111 55.6988 60.793C55.5943 60.4751 55.6427 60.1295 55.6921 59.7983C55.7094 59.6822 55.7315 59.5564 55.8175 59.4764C55.8967 59.4028 56.0116 59.3855 56.119 59.3718C59.3572 58.9585 62.6166 58.7105 65.8801 58.629C65.8009 58.9514 65.3804 59.0209 65.0484 59.0268C62.0196 59.0806 58.9942 59.3234 55.9955 59.7534C55.7561 60.1628 56.0843 60.7143 56.5262 60.8865C56.9683 61.0586 57.4633 60.9666 57.9295 60.879C60.4987 60.3954 63.1052 60.1105 65.7183 60.0274C66.0913 60.0156 66.1359 59.4788 66.0575 59.1138C65.8755 58.2663 65.6934 57.4188 65.5113 56.5714C63.7017 56.914 61.8532 57.0508 60.0131 56.9782C58.9241 56.9351 57.8411 57.1254 56.7678 57.315C55.8558 57.4761 54.8838 57.667 54.2247 58.3177C53.4543 59.0782 53.3163 60.2674 53.363 61.349C53.4398 63.1234 53.89 64.8591 54.1123 66.6212C54.3839 68.7743 54.314 70.9567 54.5225 73.1167C54.5787 73.6986 54.6588 74.2914 54.9198 74.8146C55.1806 75.3378 55.655 75.787 56.2332 75.8732C60.9847 76.5817 65.8297 76.6622 70.6022 76.1119C71.043 76.061 71.4878 76.0038 71.9039 75.8498C72.5607 75.6068 73.1239 75.1196 73.4591 74.5047C73.5935 74.2578 73.694 73.9756 73.6449 73.6988C73.5959 73.422 73.3555 73.1649 73.0748 73.1791ZM35.0876 85.3177C35.5847 90.7886 36.082 96.2594 36.5793 101.73C36.6687 102.714 36.7548 103.73 36.4475 104.668C36.1401 105.606 35.3316 106.454 34.3447 106.487C34.9241 107.334 35.9239 107.819 36.9351 107.996C37.9462 108.174 38.983 108.08 40.0051 107.985C48.4278 107.207 56.8503 106.429 65.2729 105.651C65.0921 104.598 64.9113 103.546 64.7305 102.493C64.69 102.257 64.574 101.957 64.335 101.975C58.5439 102.407 52.7529 102.838 46.9619 103.27C44.5839 103.447 42.1942 103.624 39.8175 103.43C38.6148 103.331 37.1295 102.854 37.011 101.653C36.0615 92.0452 34.9625 82.4524 33.7142 72.8791C33.695 72.7319 33.6711 72.5745 33.5703 72.4652C33.4361 72.3194 33.2135 72.3084 33.0153 72.3074C31.8311 72.3014 30.647 72.2953 29.4628 72.2892C29.8086 74.2511 30.2575 76.1948 30.8071 78.1097C30.9087 78.4636 31.0777 78.8767 31.4403 78.9404C32.7423 79.169 33.77 80.2401 34.3057 81.4487C34.8414 82.6574 34.9679 84.0012 35.0876 85.3177ZM30.5379 51.2638C29.5214 46.1086 28.6615 40.9226 27.9595 35.7153C27.9198 35.4207 27.8814 35.1154 27.9681 34.8311C28.1467 34.2452 28.7875 33.9383 29.3835 33.7969C30.5486 33.5206 31.7654 33.6127 32.9596 33.7007C43.878 34.5058 54.8321 34.8279 65.779 34.666C65.3436 33.7828 64.4679 33.1806 63.5367 32.8612C62.6054 32.5418 61.6102 32.4708 60.6279 32.403C50.9918 31.737 41.3411 31.113 31.6825 31.2294C30.5009 31.2436 29.3054 31.2708 28.1644 31.5785C27.0235 31.8862 25.9255 32.5058 25.2673 33.4873C24.23 35.0338 24.4809 37.0769 24.802 38.9111C25.5539 43.2068 26.4686 47.474 27.5435 51.7002C28.5417 51.5548 29.5398 51.4094 30.5379 51.2638ZM54.0473 41.1881C54.5691 41.1935 55.1113 41.1642 55.5731 40.9212C56.3862 40.4932 56.7471 39.507 56.8009 38.5897C56.8547 37.6722 56.6735 36.7529 56.7318 35.8358C56.7452 35.6268 56.8619 35.3497 57.0647 35.4022C57.2116 36.458 57.3583 37.5137 57.5052 38.5694C57.5863 39.1522 57.6707 39.746 57.926 40.2762C58.1814 40.8063 58.6404 41.2724 59.2183 41.3834C59.5503 41.4471 59.8969 41.39 60.2132 41.2711C60.9707 40.9863 61.6054 40.2615 61.5766 39.4529C61.5369 38.3364 61.4971 37.2198 61.4574 36.1033C61.4417 35.6617 61.2774 35.073 60.8361 35.0962C57.8932 35.2503 54.9417 35.2367 52.0006 35.0554C51.7862 35.0422 51.7295 35.346 51.7523 35.5598C51.87 36.6671 51.9876 37.7746 52.1054 38.882C52.1943 39.7182 52.3841 40.7009 53.1513 41.045C53.4292 41.1697 53.7425 41.1849 54.0473 41.1881ZM69.1403 110.679C68.9993 110.778 68.9062 110.93 68.8204 111.079C68.374 111.856 68.0155 112.683 67.7534 113.54C72.9046 113.18 78.0516 112.762 83.1934 112.286C83.3867 112.268 83.5963 112.243 83.735 112.107C83.8249 112.019 83.8711 111.896 83.9147 111.778C84.1071 111.255 84.2995 110.732 84.4919 110.21C84.5857 109.955 84.6689 109.639 84.4857 109.439C84.3335 109.273 84.0748 109.278 83.8503 109.296C79.1492 109.672 74.4505 110.078 69.7545 110.513C69.5407 110.532 69.3161 110.556 69.1403 110.679ZM78.2207 78.9425C78.0815 77.3172 77.7977 75.4932 76.4715 74.5438C75.9539 75.9689 75.4315 77.4156 75.3131 78.9273C75.1947 80.439 75.5287 82.05 76.5427 83.1774C76.6852 83.3358 76.8436 83.4895 76.9191 83.6887C76.9947 83.8879 76.9564 84.151 76.7715 84.2567C75.3931 83.0574 74.8227 81.134 74.8548 79.3073C74.8871 77.4807 75.447 75.7095 76.0017 73.9689C76.1236 73.5865 75.775 73.1841 75.3836 73.095C74.9923 73.0058 74.5881 73.1366 74.2081 73.2658C74.1342 73.291 74.1015 73.3754 74.0782 73.45C73.8153 74.2873 73.5502 75.1751 73.7537 76.0287C74.6307 79.707 74.5174 83.5673 75.41 87.2417C75.443 87.3774 75.4787 87.5159 75.5577 87.631C76.1497 86.4734 76.7417 85.3159 77.3337 84.1583C77.6119 83.6145 77.8916 83.0666 78.0654 82.4809C78.403 81.342 78.3222 80.126 78.2207 78.9425ZM99.163 52.2439C99.2774 52.3383 99.4308 52.3681 99.5782 52.3846C101.252 52.5718 102.832 51.4322 103.759 50.0257C104.686 48.6193 105.124 46.9575 105.732 45.3865C106.302 43.9119 107.032 42.4991 107.904 41.1802C106.158 42.8183 104.009 43.9654 102.187 45.518C100.364 47.0706 98.8137 49.2482 98.9422 51.6386C98.9542 51.8596 98.9923 52.1031 99.163 52.2439ZM32.1147 36.4028C32.3526 37.446 32.2542 38.6052 32.8321 39.5057C33.3924 40.3785 34.5743 40.7945 35.5579 40.465C36.5414 40.1356 37.2342 39.0914 37.1555 38.0572C37.1375 37.8222 37.0846 37.5914 37.0316 37.3617C36.8244 36.4617 36.6172 35.5617 36.41 34.6617C36.3894 34.5721 36.3663 34.4778 36.3028 34.4114C36.2118 34.3162 36.066 34.3052 35.9343 34.3001C34.6684 34.2518 33.4025 34.2033 32.1364 34.1548C32.0147 34.1502 31.8811 34.1492 31.7863 34.2258C31.6665 34.3231 31.6596 34.5015 31.6753 34.655C31.7359 35.2534 31.9809 35.8162 32.1147 36.4028ZM66.3836 37.3758C66.4139 38.8167 67.3526 40.0697 68.3427 41.117C68.4393 41.2193 68.5385 41.322 68.6593 41.3943C68.8547 41.5111 69.0924 41.5386 69.3191 41.5193C70.0839 41.4535 70.7382 40.8751 71.0611 40.1786C71.3838 39.4822 71.4203 38.6855 71.3507 37.921C71.2812 37.1566 71.1119 36.4036 71.0438 35.6391C71.03 35.4857 70.9737 35.2855 70.8198 35.2862C69.4663 35.2913 68.1129 35.2964 66.7595 35.3017C66.5863 35.3023 66.4028 35.3058 66.2566 35.3985C66.1103 35.4911 66.0287 35.7076 66.1372 35.8425C66.4686 36.2548 66.3724 36.847 66.3836 37.3758ZM86.9654 81.9478C83.2572 81.8825 79.8579 84.0807 77.2643 86.7316C76.8271 87.1785 76.4003 87.6473 76.1092 88.2006C76.0577 88.2985 76.0171 88.4348 76.1015 88.5063C76.1463 88.5444 76.2107 88.5466 76.2695 88.5465C78.4268 88.5388 80.5015 87.6276 82.2543 86.3698C84.0071 85.1121 85.4839 83.5159 86.9654 81.9478ZM41.0819 40.2034C41.6116 39.8985 41.9526 39.2913 41.9371 38.6802C41.9292 38.3703 41.8377 38.0697 41.7641 37.7686C41.5745 36.9937 41.5009 36.1906 41.5462 35.3943C41.5559 35.2247 41.5703 35.0505 41.5195 34.8884C41.4684 34.7263 41.3332 34.5774 41.1635 34.5681C39.7623 34.4916 38.3611 34.415 36.9598 34.3385C36.9094 34.3358 36.8543 34.3343 36.8137 34.3641C36.7505 34.4103 36.7542 34.5042 36.7659 34.5815C36.9382 35.7218 37.49 36.7959 37.5254 37.9487C37.5385 38.3727 37.4817 38.8074 37.6006 39.2148C37.7526 39.7366 38.1871 40.1484 38.6913 40.3513C39.1953 40.5543 39.7609 40.5658 40.2958 40.4694C40.5694 40.4201 40.8409 40.342 41.0819 40.2034ZM97.1515 55.8145C98.1663 56.1007 99.0636 56.6993 100.048 57.0769C102.231 57.914 104.829 57.5646 106.712 56.1804C107.521 55.586 108.33 54.9916 109.139 54.3972C108.153 54.6306 107.133 54.7199 106.122 54.6617C104.431 54.5642 102.762 54.058 101.074 54.1849C99.6379 54.2927 98.2412 54.8729 97.1515 55.8145ZM68.1718 48.0049C67.9723 46.8999 67.7729 45.795 67.5734 44.69C67.306 43.209 67.0387 41.7282 66.7713 40.2473C66.7524 40.1422 66.7294 40.0295 66.6516 39.9564C66.5737 39.8833 66.4219 39.8831 66.3795 39.981C66.1124 40.5974 65.5657 41.0858 64.9235 41.2822C64.5337 41.4012 64.5004 41.9329 64.5457 42.3378C64.8652 45.1951 65.2436 48.0457 65.6803 50.8874C65.8073 49.7252 66.8033 48.7159 67.9638 48.5734C68.1895 48.5457 68.2123 48.2287 68.1718 48.0049ZM46.851 39.0175C46.727 37.8263 46.5707 36.6385 46.382 35.4558C46.3431 35.2119 46.2393 34.9079 45.9926 34.897C44.7172 34.841 43.4417 34.7852 42.1663 34.7292C42.1209 34.7273 42.0729 34.7257 42.0326 34.7471C41.9297 34.8017 41.9465 34.9518 41.9769 35.0642C42.271 36.1564 42.4271 37.2855 42.4403 38.4164C42.4435 38.6946 42.4403 38.9836 42.5567 39.2364C42.7283 39.6084 43.1185 39.8218 43.4894 39.9956C44.1356 40.2983 44.8423 40.5646 45.5476 40.4546C46.2529 40.3447 46.9249 39.7274 46.851 39.0175ZM47.4025 39.0242C47.5311 39.6474 47.767 40.3724 48.3775 40.5516C48.8929 40.7028 49.45 40.7446 49.967 40.5988C50.4838 40.453 50.9551 40.106 51.1865 39.6214C51.3511 39.2764 51.3883 38.8858 51.4097 38.5042C51.4684 37.4588 51.4281 36.4076 51.2892 35.3697C51.2817 35.3142 51.2735 35.257 51.2454 35.2084C51.171 35.0796 50.9956 35.0615 50.8468 35.0583C49.5481 35.03 48.2494 35.0017 46.9507 34.9734C46.8446 34.9711 46.6964 35.0814 46.7862 35.138C46.9315 36.442 47.1372 37.7393 47.4025 39.0242ZM91.0417 51.9225C90.0271 54.2162 89.7284 56.8204 90.1971 59.2842C90.3843 60.2686 90.7524 61.313 91.6044 61.8402C91.8551 61.9954 92.2731 62.0412 92.3659 61.7614C93.4436 58.5097 92.9407 54.7734 91.0417 51.9225ZM25.2828 80.7207C25.7132 81.0161 26.1983 81.2313 26.706 81.3522C27.3478 81.5052 28.014 81.507 28.6734 81.5228C30.2143 81.5599 31.7532 81.678 33.2817 81.8764C33.4948 81.9039 33.6711 81.6732 33.6655 81.4583C33.6599 81.2433 33.5291 81.0535 33.3935 80.8865C32.5783 79.8823 31.3879 79.1902 30.1119 78.9785C29.2079 78.8286 28.2838 78.9126 27.3678 78.8863C26.4519 78.8599 25.4959 78.7049 24.7655 78.1516C24.7268 78.6777 24.7238 79.2065 24.7563 79.733C24.7694 79.9462 24.791 80.1671 24.8996 80.351C24.9907 80.505 25.1353 80.6194 25.2828 80.7207ZM62.3535 39.8535C62.4972 40.1143 62.7281 40.3154 62.9646 40.4966C63.2207 40.6929 63.4975 40.8767 63.8123 40.9487C64.587 41.1262 65.3793 40.5521 65.7059 39.8274C66.0324 39.1026 65.9993 38.2719 65.9238 37.4807C65.8665 36.8825 65.7887 36.2862 65.6903 35.6932C65.674 35.5945 65.655 35.4911 65.5929 35.4124C65.4838 35.2745 65.2843 35.2585 65.1084 35.2538C64.1639 35.2287 63.2193 35.2036 62.2747 35.1785C62.0655 35.173 61.7686 35.273 61.8307 35.4727C62.1086 36.3671 62.2299 37.31 62.1871 38.2455C62.1622 38.7916 62.0897 39.3748 62.3535 39.8535ZM95.7822 56.4591C96.7851 54.8407 97.0852 52.803 96.5916 50.9642C96.1553 49.3385 95.1411 47.8982 94.8195 46.2458C94.07 48.5201 93.3153 50.9682 93.9932 53.2647C94.3407 54.4417 95.0427 55.4798 95.7822 56.4591ZM79.1679 81.9209C82.1507 81.1526 84.9039 79.5148 87.0025 77.2602C87.6303 76.5857 88.2731 75.925 88.9302 75.2788C87.3206 75.4994 85.7492 75.9972 84.3063 76.7436C82.1049 77.8823 80.1732 79.6554 79.1679 81.9209ZM97.3403 62.123C98.4372 61.0921 99.5342 60.061 100.631 59.03C96.9214 59.503 93.4567 61.6466 91.3779 64.7554C91.9137 65.1682 92.6825 64.9252 93.3075 64.6666C94.1769 64.3071 95.0537 63.9436 95.8276 63.4089C96.3726 63.0322 96.8575 62.5767 97.3403 62.123ZM25.1881 84.6554C25.1972 84.7506 25.2086 84.8514 25.2662 84.9278C25.3926 85.095 25.65 85.0538 25.851 84.9951C28.1531 84.3225 30.423 83.5391 32.6499 82.6489C32.8105 82.5847 32.9977 82.4831 33.0009 82.3103C31.2926 82.1918 29.5841 82.0734 27.8756 81.9548C27.4577 81.9258 27.0382 81.8966 26.6286 81.8092C26.0123 81.6777 25.4247 81.4135 24.9174 81.0399C24.9545 82.2481 25.0713 83.4522 25.1881 84.6554ZM79.1574 73.0959C79.0195 73.1954 78.9638 73.3711 78.9164 73.5343C78.7537 74.0948 78.5903 74.6894 78.7414 75.253C78.8183 75.5402 78.9727 75.7996 79.1254 76.0548C79.5476 76.7607 79.97 77.4665 80.3923 78.1724C80.4316 78.238 80.4742 78.307 80.542 78.3426C80.7436 78.4484 80.9427 78.1998 81.0363 77.9921C81.6441 76.6441 82.2655 75.2186 82.1278 73.7465C82.1065 73.5201 82.0451 73.2631 81.8428 73.1594C81.7499 73.1118 81.642 73.1057 81.5377 73.1004C80.9116 73.0694 80.2855 73.0383 79.6596 73.0071C79.4863 72.9986 79.2979 72.9942 79.1574 73.0959ZM88.726 68.1054C88.71 69.0542 89.5377 69.8474 90.4455 70.1236C91.3534 70.3998 92.3276 70.2809 93.2711 70.1796C94.93 70.0015 96.6846 69.8546 98.0484 68.8934C98.351 68.6801 98.6371 68.4169 98.7721 68.0722C98.983 67.5345 98.771 66.8996 98.3747 66.4794C97.9782 66.0593 97.4287 65.8191 96.8787 65.643C94.9131 65.0137 92.7305 65.0863 90.811 65.8446C89.7983 66.2446 88.7444 67.0167 88.726 68.1054ZM25.0318 77.797C25.2105 77.9638 25.5727 78.0063 25.6423 77.7721C25.8811 76.9695 26.4179 76.2814 27.05 75.7322C27.6823 75.1831 28.4111 74.7591 29.1353 74.3385C29.3307 74.225 29.3183 73.9436 29.2806 73.7209C29.2075 73.2895 29.1343 72.8582 29.0612 72.4268C29.0427 72.3175 29.0062 72.1873 28.8991 72.158C28.8116 72.134 28.7252 72.1932 28.6537 72.249C28.1342 72.6548 27.6148 73.0604 27.0953 73.466C26.0545 74.2788 24.9391 75.2113 24.7134 76.5124C24.6348 76.9657 24.6955 77.4833 25.0318 77.797ZM29.0838 74.8934C27.9172 75.6218 26.6823 76.4284 26.1523 77.6975C26.1191 77.7766 26.0887 77.8596 26.0913 77.9452C26.0964 78.114 26.2326 78.2564 26.3886 78.3212C26.5444 78.3862 26.7182 78.389 26.8871 78.391C27.8859 78.4028 28.8846 78.4145 29.8831 78.4263C29.9318 78.4268 29.9844 78.4262 30.0228 78.3962C30.0833 78.349 30.0772 78.2572 30.0652 78.1814C29.9059 77.1746 29.7465 76.1679 29.5873 75.161C29.5646 75.0178 29.5183 74.8465 29.3787 74.8076C29.2769 74.7791 29.1734 74.8374 29.0838 74.8934ZM78.7007 73.1577C77.9654 72.9681 77.1723 73.0094 76.4607 73.2745C76.5985 73.7268 76.8427 74.1462 77.1679 74.489C78.2643 75.6449 78.5884 77.323 78.7127 78.9111C78.7793 79.7593 78.8027 80.611 78.783 81.4617C79.2646 80.7188 79.746 79.9759 80.2276 79.233C80.2755 79.1593 80.3249 79.081 80.33 78.9932C80.3353 78.9052 80.2955 78.8215 80.255 78.7433C79.7798 77.8257 79.0815 77.0345 78.6406 76.0999C78.1998 75.1654 78.0646 73.9721 78.7007 73.1577ZM29.4372 34.2726C29.0316 34.337 28.5691 34.4401 28.3764 34.8026C28.2433 35.0534 28.2827 35.3567 28.3254 35.6374C28.5017 36.7932 28.6779 37.9492 28.8542 39.105C29.7563 37.483 30.6009 35.8298 31.4452 34.1772C31.2889 34.0004 31.0119 34.0228 30.779 34.0598C30.3318 34.1308 29.8844 34.2017 29.4372 34.2726ZM84.9571 73.5194C85.082 73.685 85.4079 73.5017 85.3313 73.3089C86.5359 73.6548 87.8492 73.4086 88.9871 72.8831C90.1251 72.3575 91.1185 71.5702 92.0963 70.786C91.6857 70.7286 91.275 70.6713 90.8644 70.6138C90.7806 70.6022 90.6719 70.6038 90.6399 70.682C90.4188 71.2233 89.9428 71.6287 89.4172 71.8847C88.8915 72.1407 88.3131 72.2647 87.7412 72.3866C87.3444 72.4711 86.9475 72.5558 86.5507 72.6402C85.9359 72.7711 85.2428 72.9598 84.9571 73.5194ZM63.1627 65.1377C63.2398 65.1182 63.3227 65.095 63.3719 65.0324C63.4486 64.9356 63.4102 64.7962 63.3902 64.6743C63.37 64.5524 63.4009 64.3902 63.5227 64.369C63.6335 64.3911 63.6847 64.5228 63.6875 64.6358C63.6902 64.7489 63.6652 64.8668 63.7062 64.9722C63.7972 65.2071 64.1214 65.2164 64.3711 65.1846C64.519 65.1657 64.6668 65.1468 64.8147 65.1281C64.8609 65.1222 64.9103 65.1148 64.9449 65.0833C65.0542 64.9831 64.902 64.8196 64.8681 64.6753C64.842 64.5636 64.8942 64.443 64.8599 64.3337C64.8017 64.1474 64.554 64.1188 64.3588 64.1254C62.8668 64.1748 61.3748 64.2244 59.8827 64.2738C59.9083 64.5562 59.9855 64.8338 60.1095 65.0887C60.1361 65.1438 60.1676 65.2004 60.2206 65.2308C60.2745 65.2617 60.3403 65.2596 60.4022 65.2567C60.7731 65.2396 61.1439 65.2223 61.5148 65.205C61.5465 65.2036 61.5796 65.2017 61.606 65.1842C61.6737 65.1394 61.6502 65.0362 61.6191 64.9614C61.5655 64.8322 61.5119 64.7033 61.4585 64.5743C61.4118 64.462 61.615 64.3956 61.7006 64.4818C61.786 64.5682 61.7892 64.7036 61.8295 64.8182C61.9132 65.0561 62.1662 65.2012 62.4164 65.2318C62.6668 65.2623 62.9182 65.1998 63.1627 65.1377ZM84.8319 73.0362C84.9132 72.9497 84.7339 72.8593 84.6161 72.8737C83.9441 72.9561 83.2723 73.0385 82.6004 73.1209C82.5107 73.1319 82.3919 73.1812 82.4134 73.269C82.634 74.173 82.5513 75.1486 82.1812 76.0023C82.1108 76.165 82.0646 76.4134 82.2332 76.4679C82.9339 75.2103 83.8113 74.0514 84.8319 73.0362ZM61.9395 65.8196C61.9183 65.7465 61.8947 65.6698 61.8391 65.6182C61.7759 65.5593 61.6847 65.5444 61.599 65.535C61.1588 65.4868 60.7102 65.517 60.2803 65.6238C60.4148 66.0599 60.5492 66.4959 60.6836 66.9321C60.7092 67.0146 60.7435 67.1074 60.8236 67.1398C60.8647 67.1564 60.9107 67.1535 60.9548 67.1505C61.3894 67.1199 61.8241 67.0895 62.2587 67.059C62.1643 66.6428 62.0579 66.2295 61.9395 65.8196ZM59.1097 67.3444C59.158 67.3708 59.2171 67.3628 59.2713 67.3538C59.6649 67.2897 60.0583 67.2257 60.4518 67.1615C60.3099 66.7065 60.1678 66.2514 60.0259 65.7964C60.0051 65.7297 59.9791 65.6564 59.9175 65.6231C59.8689 65.5969 59.8099 65.6025 59.7548 65.6089C59.4041 65.6497 59.0532 65.6905 58.7023 65.7313C58.6364 65.739 58.5583 65.7554 58.5339 65.8172C58.5172 65.8591 58.5329 65.9062 58.5486 65.9484C58.7031 66.3655 58.8577 66.7826 59.0123 67.1998C59.0329 67.2554 59.0574 67.3159 59.1097 67.3444ZM63.5307 65.5266C63.4475 65.4543 63.3243 65.4593 63.2145 65.4684C62.8679 65.4969 62.5214 65.5254 62.1748 65.5538C62.2785 65.9978 62.4089 66.4358 62.5652 66.8641C62.5857 66.9202 62.6089 66.9794 62.6566 67.0154C62.7161 67.0604 62.7977 67.0578 62.8723 67.0534C63.1087 67.0391 63.3454 67.0249 63.5819 67.0106C63.6908 67.0041 63.8233 66.9807 63.8599 66.878C63.8774 66.8286 63.866 66.774 63.8547 66.7228C63.7827 66.4023 63.7107 66.0818 63.6388 65.7615C63.6195 65.6759 63.5969 65.5842 63.5307 65.5266ZM61.4633 68.7169C61.4291 68.7223 61.3926 68.7287 61.3676 68.7529C61.319 68.7998 61.3412 68.8804 61.3668 68.943C61.4579 69.1657 61.5489 69.3886 61.6399 69.6113C61.6737 69.694 61.7118 69.7818 61.7871 69.8297C61.8569 69.8738 61.9446 69.8748 62.027 69.8743C62.3415 69.8724 62.6559 69.8705 62.9703 69.8687C63.0164 69.8684 63.0663 69.8668 63.1019 69.8374C63.1662 69.7842 63.1422 69.6822 63.1126 69.6042C62.9916 69.2854 62.8707 68.9665 62.7497 68.6476C62.7108 68.5452 62.5684 68.5438 62.4603 68.5607C62.1279 68.6127 61.7956 68.6649 61.4633 68.7169ZM64.1089 65.4636C64.0428 65.4638 63.9686 65.4674 63.9239 65.5164C63.8702 65.5753 63.8873 65.6674 63.9076 65.7446C63.9971 66.0825 64.0865 66.4206 64.1758 66.7585C64.1916 66.8178 64.2099 66.8814 64.2575 66.9202C64.3209 66.9719 64.4124 66.9622 64.4932 66.9498C64.7913 66.9044 65.0894 66.8588 65.3875 66.8134C65.3555 66.4673 65.3006 66.1236 65.2231 65.7849C65.199 65.679 65.1655 65.5634 65.0739 65.5052C65.0052 65.4617 64.9188 65.4606 64.8375 65.4609C64.5947 65.4618 64.3518 65.4626 64.1089 65.4636ZM64.7156 69.8289C64.6191 69.4782 64.5225 69.1273 64.4259 68.7764C64.3891 68.6425 64.3367 68.4906 64.2071 68.4401C64.1433 68.4153 64.0723 68.4207 64.0041 68.4266C63.686 68.4543 63.3678 68.482 63.0497 68.5097C63.1335 68.8239 63.2329 69.134 63.3471 69.4385C63.4047 69.5918 63.4919 69.7655 63.6535 69.7916C64.0043 69.8484 64.362 69.8609 64.7156 69.8289ZM65.2694 69.8046C65.5577 69.8281 65.8742 69.8441 66.1073 69.6727C66.0062 69.2798 65.9052 68.8868 65.8041 68.4938C65.7814 68.4054 65.751 68.3068 65.6699 68.2647C65.6103 68.2337 65.5388 68.2422 65.4724 68.2514C65.1867 68.2913 64.9011 68.331 64.6153 68.3708C64.6833 68.7868 64.7985 69.195 64.9582 69.585C64.9827 69.645 65.0103 69.7071 65.0615 69.7465C65.1195 69.7911 65.1967 69.7986 65.2694 69.8046ZM90.9635 64.2103C91.1836 63.7583 91.4039 63.3063 91.6241 62.8543C91.6473 62.8068 91.671 62.7554 91.6627 62.7033C91.6543 62.6526 91.6174 62.6119 91.582 62.5745C91.2686 62.2431 90.9551 61.9116 90.6415 61.5801C90.5113 61.758 90.5263 61.9999 90.5471 62.2194C90.6153 62.9399 90.6836 63.6606 90.7518 64.3812C90.8478 64.4025 90.9204 64.2986 90.9635 64.2103ZM65.5862 65.4113C65.5451 65.4084 65.4982 65.4076 65.4694 65.4372C65.4372 65.4705 65.4443 65.5241 65.4537 65.5694C65.5158 65.8686 65.5777 66.1678 65.6398 66.467C65.6628 66.5778 65.69 66.6964 65.7737 66.7727C66.0444 67.0196 66.566 66.595 66.8177 66.8614C66.862 66.4364 66.8302 66.0038 66.7243 65.59C66.7167 65.5609 66.7079 65.5302 66.6857 65.5102C66.6599 65.487 66.6225 65.4834 66.5879 65.481C66.254 65.4578 65.9201 65.4346 65.5862 65.4113ZM59.3571 67.6303C59.3209 67.6353 59.2833 67.6407 59.2535 67.6618C59.1878 67.7086 59.1903 67.8055 59.1998 67.8857C59.2249 68.0996 59.2527 68.3212 59.3646 68.5054C59.4766 68.6894 59.6977 68.8257 59.9059 68.77C60.2039 68.69 60.5022 68.61 60.8004 68.53C60.7875 68.245 60.7297 67.9622 60.63 67.6948C60.6052 67.6281 60.5739 67.5578 60.5126 67.5217C60.4489 67.4842 60.3694 67.493 60.2961 67.503C59.9831 67.5454 59.67 67.5879 59.3571 67.6303ZM66.3119 65.1297C66.4017 65.1161 66.4974 65.0998 66.5641 65.0382C66.7627 64.8546 66.5356 64.4817 66.6966 64.2646C66.7595 64.1796 66.6055 64.1038 66.5001 64.1082C66.0291 64.1281 65.558 64.1481 65.087 64.1679C65.1052 64.3628 65.1391 64.5562 65.1881 64.7457C65.2428 64.9569 65.4487 65.1014 65.6619 65.1482C65.8748 65.195 66.0963 65.1625 66.3119 65.1297ZM62.5049 67.6668C62.4443 67.3754 62.0542 67.3073 61.7615 67.3618C61.4691 67.4164 61.1422 67.522 60.8935 67.3585C60.9094 67.666 60.9812 67.9708 61.1046 68.253C61.1305 68.3122 61.1619 68.3742 61.2182 68.406C61.2817 68.4418 61.3603 68.4305 61.4323 68.418C61.7206 68.3682 62.0091 68.3185 62.2975 68.2686C62.4404 68.2439 62.6289 68.1308 62.5537 68.0066C62.4937 67.9078 62.5284 67.7799 62.5049 67.6668ZM60.7231 68.863C60.4875 68.9028 60.2518 68.9428 60.0161 68.9826C59.8886 69.0042 59.7313 69.0554 59.7177 69.1841C59.6833 69.5095 60.0075 69.7718 60.3281 69.8366C60.6487 69.9014 60.9815 69.838 61.3071 69.8702C61.2937 69.5937 61.2358 69.3193 61.1364 69.0609C61.1127 68.9994 61.0846 68.9359 61.0324 68.8958C60.9478 68.8305 60.8284 68.845 60.7231 68.863ZM66.9335 68.2318C66.6209 68.1986 66.303 68.2153 65.9953 68.2807C66.1654 68.6855 66.286 69.111 66.354 69.5447C66.3851 69.7436 66.6691 69.7474 66.8641 69.6978C66.9369 69.6793 67.0163 69.6561 67.0579 69.5937C67.0935 69.5398 67.0919 69.4702 67.0889 69.4055C67.0721 69.0484 67.0555 68.6911 67.0387 68.334C67.0377 68.3114 67.0361 68.2876 67.0231 68.269C67.0041 68.2417 66.9668 68.2353 66.9335 68.2318ZM61.8271 71.4319C62.122 71.1375 61.9708 70.5434 61.5711 70.4258C61.1715 70.3081 60.7227 70.7257 60.8111 71.1329C60.9025 71.5537 61.5222 71.7361 61.8271 71.4319ZM64.1449 67.9817C64.3324 67.7369 64.0516 67.3754 63.7478 67.3222C63.4439 67.2689 63.1361 67.3854 62.8276 67.3809C62.714 67.3791 62.7092 67.5502 62.7462 67.6575C62.794 67.7966 62.8417 67.9356 62.8895 68.0746C62.9091 68.1316 62.9444 68.1998 63.0044 68.1961C63.2244 68.1823 63.4443 68.1686 63.6643 68.1548C63.8398 68.1438 64.0379 68.1214 64.1449 67.9817ZM67.1847 70.3455C67.162 70.2841 67.1284 70.2241 67.0755 70.1854C67.0279 70.1508 66.9686 70.1361 66.9102 70.129C66.4486 70.0734 66.0006 70.5338 66.0687 70.9937C66.2652 71.2273 66.6351 71.2918 66.899 71.1385C67.1628 70.9852 67.2902 70.6319 67.1847 70.3455ZM64.3355 67.5652C64.3254 67.7674 64.5033 67.9401 64.6982 67.9946C64.8932 68.0492 65.1007 68.014 65.3001 67.9785C65.4022 67.9602 65.5166 67.934 65.57 67.845C65.6839 67.6556 65.4577 67.3082 65.6665 67.2356C65.5263 67.2162 65.3863 67.197 65.2462 67.1778C65.0611 67.1524 64.8697 67.1274 64.6902 67.1786C64.5105 67.2298 64.3449 67.3786 64.3355 67.5652ZM66.0105 67.8241C66.2228 68.0086 66.5782 67.9831 66.7755 67.7826C66.9727 67.582 66.9985 67.2422 66.8497 67.0033C66.478 67.0722 66.1065 67.1412 65.7348 67.21C65.7817 67.4337 65.838 67.674 66.0105 67.8241ZM94.723 64.2724C94.4335 64.3796 94.1443 64.4868 93.8548 64.594C93.7111 64.6473 93.5654 64.7015 93.4409 64.791C93.9142 64.9756 94.5111 64.7343 94.723 64.2724ZM67.8284 41.3078C67.8209 41.1799 67.6857 41.0754 67.5601 41.1004C67.5681 41.2305 67.6979 41.3398 67.8275 41.3258L67.8284 41.3078Z" clip-rule="evenodd"/></svg>