<svg xmlns="http://www.w3.org/2000/svg" width="120" height="120" fill="none" viewBox="0 0 120 120"><path fill="#FFE393" fill-rule="evenodd" d="M100.48 67.9999C100.48 46.9689 83.4314 29.9199 62.4003 29.9199C41.3693 29.9199 22.7094 47.0047 24.3203 67.9999C26.2403 93.0236 100.48 88.2574 100.48 67.9999Z" clip-rule="evenodd"/><path fill="#fff" d="M32.3391 67.5181C32.4636 67.5069 32.6261 67.5199 32.6615 67.6399C32.6626 67.7845 32.4792 67.8447 32.3356 67.8624C31.5616 67.9588 30.7876 68.0549 30.0136 68.1512C30.3735 68.4565 30.4092 69.0624 30.1048 69.4231C29.8004 69.7837 29.2186 69.8576 28.8204 69.6047C28.6876 69.5202 28.5743 69.4058 28.4346 69.3332C28.2949 69.2605 28.1104 69.2389 27.9895 69.3397C27.7162 69.5674 27.3039 69.506 26.9767 69.3661C26.6525 69.2276 26.3325 68.9911 26.257 68.6466C26.1823 68.3053 26.3687 67.9613 26.5892 67.6901C26.8095 67.4191 27.0759 67.1735 27.2082 66.8501C27.4026 66.3759 27.9762 66.1397 28.4844 66.2068C28.9925 66.2738 29.4375 66.5831 29.8077 66.9378C30.046 67.1661 30.4325 67.0765 30.7476 66.9781C31.0626 66.8796 31.4583 66.8068 31.6789 67.0524"/><path fill="#fff" fill-rule="evenodd" d="M77.0249 66.1862C77.0249 62.6347 79.65 61.8164 81.3156 61.8582C82.9814 61.8999 84.5702 62.9724 85.1884 64.4681C85.8067 65.9638 85.4214 67.7969 84.2515 68.9436C83.0814 70.0903 80.6111 70.1044 79.899 69.8883C79.187 69.6719 77.0249 68.1684 77.0249 66.1862Z" clip-rule="evenodd"/><path fill="#363939" fill-rule="evenodd" d="M81.1086 63.7311C81.7063 63.6833 82.3204 63.9014 82.7542 64.3154C83.4262 64.9572 83.5996 66.0609 83.157 66.8778C82.7143 67.6948 81.6948 68.1521 80.7903 67.9394C79.9289 67.737 79.2388 66.9479 79.1532 66.0671C79.0674 65.1865 79.5922 64.2791 80.3985 63.9142C80.6223 63.813 80.8638 63.7508 81.1086 63.7311ZM82.1458 64.1441C81.9343 63.9886 81.7018 63.8585 81.4503 63.8082C81.1641 63.7511 80.8644 63.8012 80.5961 63.9228C79.914 64.2316 79.4489 65.0316 79.4934 65.8295C79.5377 66.6273 80.0919 67.3636 80.8071 67.5671C81.5223 67.7705 82.3434 67.4215 82.7337 66.7426C83.1241 66.0638 83.0481 65.1094 82.5519 64.5166C82.4324 64.374 82.293 64.2522 82.1458 64.1441Z" clip-rule="evenodd"/><path fill="#fff" fill-rule="evenodd" d="M41.1091 66.4403C41.0942 66.209 41.0961 65.9752 41.1369 65.7469C41.168 65.5739 41.2211 65.4056 41.2742 65.2379C41.3885 64.8765 41.5032 64.5141 41.6598 64.1688C42.4278 62.4763 44.2637 61.3301 46.1216 61.3784C47.9793 61.4266 49.7513 62.664 50.4409 64.3898C51.1305 66.1155 50.7009 68.2307 49.396 69.5539C48.0909 70.8771 45.9851 71.3365 44.2459 70.6815C42.5067 70.0263 41.2281 68.2951 41.1091 66.4403Z" clip-rule="evenodd"/><path fill="#fff" fill-rule="evenodd" d="M46.0931 45.5309C46.1027 46.2657 45.9149 47.0513 46.2547 47.7026C46.8843 48.9093 48.6525 48.685 49.953 48.2839C48.8842 47.0673 47.8152 45.8508 46.7463 44.6341C48.9607 42.3732 51.1751 40.1122 53.3895 37.8513C53.5741 37.6628 53.7872 37.4613 54.0511 37.4562C54.3552 37.4503 54.5931 37.7047 54.788 37.9385C55.5135 38.8085 56.2387 39.6785 56.964 40.5485C57.5616 41.2653 58.1307 42.4263 57.3992 43.0058C60.1434 42.8197 62.8875 42.6335 65.6319 42.4473C65.1179 39.5122 66.0623 35.8994 66.9944 33.0693C67.0874 32.7873 67.1997 32.4804 67.4575 32.3329C67.6379 32.2295 67.8565 32.2253 68.0645 32.2239C73.0747 32.1893 78.085 32.1548 83.0952 32.1202C83.3987 32.1181 83.7189 32.1202 83.9811 32.273C84.2061 32.4041 84.3578 32.6289 84.4997 32.8473C88.7384 39.3636 91.3848 47.5477 92.1458 55.2841C92.2411 56.2545 93.4848 63.2037 92.1458 63.4098C85.7688 64.3914 87.0187 58.6121 80.2839 59.4575C74.7504 60.1521 75.7959 63.4098 72.5976 64.0445C69.7247 64.6148 59.9251 64.7565 56.7487 64.9156C52.3909 65.1338 52.0831 58.5461 45.4467 58.8137C38.8106 59.0813 38.9624 66.6165 35.3874 65.7538C35.2383 65.718 33.6197 64.7765 33.5832 64.6637C33.0563 63.0356 32.6613 57.0762 32.6613 57.0762L31.4133 56.7989C31.4133 56.7989 31.3216 53.7226 31.4133 53.6244C31.5749 53.4511 34.4039 53.7618 35.6282 53.6244C35.2664 51.1125 34.9048 48.6009 34.5431 46.089C34.5119 45.8721 34.4848 45.6338 34.6027 45.449C34.7338 45.2437 34.997 45.1757 35.2355 45.1258C38.4259 44.4593 41.6725 44.0617 44.9296 43.9385C45.6639 43.9106 46.0837 44.7962 46.0931 45.5309Z" clip-rule="evenodd"/><path fill="#F9D262" fill-rule="evenodd" d="M39.6547 52.3838L38.2185 52.4862L37.4111 44.7162L38.6687 44.5095L39.6547 52.3838Z" clip-rule="evenodd"/><path fill="#EAEAEA" fill-rule="evenodd" d="M73.5735 37.5848C73.9625 37.5101 81.4239 42.688 81.3466 42.772C81.2694 42.8561 73.4196 37.6144 73.5735 37.5848Z" clip-rule="evenodd"/><path fill="#EAEAEA" fill-rule="evenodd" d="M76.7737 37.5851C77.0754 37.5313 80.8996 40.1167 80.7933 40.2675C80.6869 40.418 76.5809 37.6193 76.7737 37.5851Z" clip-rule="evenodd"/><path fill="#EAEAEA" fill-rule="evenodd" d="M72.7731 39.1849C72.6282 38.9286 76.9079 41.8899 76.7928 41.8673C75.6901 41.6518 72.8157 39.2601 72.7731 39.1849Z" clip-rule="evenodd"/><path fill="#363939" fill-rule="evenodd" d="M72.2674 47.5389C72.3614 47.613 72.323 47.7815 72.2169 47.837C72.111 47.8925 71.9761 47.8556 71.8823 47.7812C71.6001 47.5573 71.6586 47.0829 71.9057 46.8208C72.1529 46.5588 72.5198 46.4543 72.8676 46.3608C73.0119 46.3221 73.1562 46.2832 73.3006 46.2445C73.5951 46.1655 73.9082 46.0863 74.2004 46.1738C74.4924 46.2613 74.7358 46.5852 74.6225 46.8684C74.5511 47.0464 74.3625 47.1543 74.1737 47.1884C73.9849 47.2224 73.7911 47.1965 73.5998 47.1834C73.2238 47.1578 72.8444 47.1824 72.4748 47.2565C72.4023 47.2711 72.3258 47.2898 72.274 47.3424C72.222 47.3951 72.2095 47.493 72.2674 47.5389Z" clip-rule="evenodd"/><path fill="#363939" fill-rule="evenodd" d="M74.1607 63.6774C74.0629 64.0815 73.9652 64.4858 73.8676 64.89C73.8377 65.0135 73.8047 65.143 73.718 65.2359C73.5892 65.3742 73.3807 65.394 73.1919 65.4047C67.2521 65.745 61.3077 66.0054 55.3609 66.1855C54.9588 66.1977 54.5799 65.9684 54.3161 65.6649C54.0522 65.3612 53.8844 64.9881 53.7202 64.6209C53.9802 64.5582 54.2265 64.7649 54.3849 64.9804C54.5431 65.1961 54.6825 65.4505 54.9285 65.5553C55.0905 65.6244 55.2733 65.6161 55.449 65.6066C61.2239 65.2966 66.9989 64.9865 72.7738 64.6764C72.982 64.6652 73.2077 64.647 73.3625 64.5073C73.5215 64.3636 73.5597 64.133 73.6529 63.9399C73.746 63.7468 73.9748 63.5705 74.1607 63.6774Z" clip-rule="evenodd"/><path fill="#EAEAEA" fill-rule="evenodd" d="M29.7279 67.1303C29.4471 66.8303 29.0922 66.6004 28.7036 66.4666C28.4399 66.3759 28.1376 66.3324 27.89 66.4607C27.6423 66.589 27.5042 66.9432 27.6783 67.1612C27.77 67.2759 27.5631 67.3845 27.4197 67.4159C26.9912 67.5098 26.6679 67.9848 26.7893 68.4064C26.9108 68.8279 27.5004 69.0477 27.8405 68.7706C27.9636 68.6703 28.0461 68.5239 28.1796 68.4378C28.313 68.3516 28.5378 68.3698 28.5789 68.5232C28.6653 68.8468 28.9604 69.1037 29.2927 69.1453C29.5096 69.1724 29.7664 69.0837 29.8336 68.8757C29.9528 68.5071 29.4092 68.1252 29.5943 67.7848C29.6876 67.6132 29.9135 67.5762 30.108 67.5588C30.8517 67.4919 31.5954 67.4248 32.3391 67.358C32.4636 67.3468 32.6261 67.3597 32.6613 67.4797C32.6626 67.6244 32.4792 67.6845 32.3356 67.7023C31.5616 67.7986 30.7876 67.8948 30.0136 67.9911C30.3735 68.2964 30.4092 68.9023 30.1048 69.2629C29.8004 69.6236 29.2186 69.6975 28.8204 69.4445C28.6876 69.36 28.5743 69.2456 28.4346 69.173C28.2949 69.1004 28.1104 69.0788 27.9895 69.1796C27.7162 69.4072 27.3039 69.3458 26.9767 69.206C26.6525 69.0674 26.3325 68.8309 26.257 68.4864C26.1823 68.1452 26.3687 67.8012 26.5892 67.53C26.8095 67.2589 27.0759 67.0133 27.2082 66.69C27.4026 66.2157 27.9762 65.9796 28.4844 66.0466C28.9925 66.1136 29.4375 66.4229 29.8077 66.7776C30.046 67.006 30.4325 66.9164 30.7476 66.818C31.0626 66.7194 31.4583 66.6466 31.6789 66.8922C31.2247 66.9952 30.7704 67.0984 30.316 67.2016C30.114 67.2476 29.8696 67.2816 29.7279 67.1303Z" clip-rule="evenodd"/><path fill="#363939" fill-rule="evenodd" d="M38.8231 66.6905C38.8012 66.3494 38.8039 66.0049 38.8641 65.6686C38.9098 65.4134 38.9882 65.1655 39.0663 64.9183C39.2348 64.3855 39.4039 63.8513 39.6348 63.3425C40.7666 60.8481 43.4725 59.1587 46.2108 59.2297C48.949 59.3009 51.5607 61.1246 52.577 63.6683C53.5935 66.2118 52.9602 69.3292 51.0367 71.2795C49.1134 73.2297 46.0097 73.9068 43.4463 72.9412C40.883 71.9758 38.9986 69.4239 38.8231 66.6905ZM40.2596 64.1388C40.138 64.4625 40.0429 64.8017 40.0433 65.1475C40.0445 66.2075 40.1281 67.2831 40.4879 68.2803C41.2442 70.3763 43.2831 71.9452 45.502 72.1479C47.721 72.3507 50.0066 71.1811 51.1474 69.267C52.2882 67.3531 52.2314 64.7913 51.0143 62.9251C49.797 61.0588 47.4809 59.9748 45.2671 60.2275C43.0534 60.4799 41.0439 62.0532 40.2596 64.1388Z" clip-rule="evenodd"/><path fill="#363939" fill-rule="evenodd" d="M83.5907 60.2215C85.9118 61.1972 87.5277 63.6535 87.5045 66.1715C87.4811 68.6892 85.8205 71.1153 83.4816 72.0481C81.1427 72.9807 78.2681 72.3633 76.5187 70.5524C74.7691 68.7415 74.2512 65.8475 75.264 63.5422C75.5033 62.9971 75.8275 62.4764 76.288 62.099C77.3315 61.2433 78.412 60.3692 79.703 59.9758C80.9704 59.5895 82.3693 59.7081 83.5907 60.2215ZM78.1912 61.4401C77.8864 61.635 77.5982 61.8625 77.3729 62.1455C77.1345 62.4447 76.9733 62.7967 76.8144 63.1449C76.5763 63.6667 76.3371 64.1915 76.1885 64.7454C75.6779 66.6489 76.3685 68.8182 77.8787 70.0846C79.3888 71.351 81.6381 71.6547 83.4344 70.8438C85.2309 70.0331 86.4893 68.1523 86.5646 66.1828C86.6398 64.2134 85.5337 62.2468 83.8171 61.2787C82.1005 60.3103 79.8518 60.3787 78.1912 61.4401Z" clip-rule="evenodd"/><path fill="#363939" fill-rule="evenodd" d="M81.5386 34.379C77.5125 34.4646 73.4866 34.5503 69.4605 34.6361C69.3602 34.6382 69.2488 34.6447 69.1784 34.7164C69.1328 34.7628 69.1134 34.8281 69.0963 34.8907C68.2035 38.1467 68.9267 41.5964 69.5333 44.9175C69.9115 46.9883 70.243 49.0673 70.5275 51.1529C70.7325 52.6547 70.9135 54.1649 70.9008 55.6806C70.8967 56.1627 71.2354 56.5982 71.6574 56.831C72.0794 57.0638 72.5731 57.1267 73.0544 57.15C74.0686 57.1993 75.0903 57.0915 76.0717 56.8315C76.2544 56.7831 76.4439 56.7291 76.6298 56.7638C76.8155 56.7987 76.9944 56.9548 76.983 57.1435C76.9701 57.3617 76.7339 57.4871 76.5278 57.5604C75.232 58.0215 73.8096 58.1206 72.4624 57.8436C71.816 57.7108 71.1419 57.4599 70.7715 56.9139C70.5606 56.6033 70.4706 56.2286 70.3886 55.8622C69.5634 52.1764 69.1514 48.4123 68.749 44.6566C68.3832 41.2436 68.024 37.8039 68.3306 34.3851C68.3402 34.2795 68.3517 34.1695 68.4077 34.0795C68.528 33.8863 68.7936 33.8601 69.021 33.8545C73.2795 33.75 77.5381 33.6454 81.7967 33.5407C82.0381 33.5348 82.2976 33.534 82.4968 33.6705C82.6439 33.7713 82.7357 33.9327 82.8224 34.0884C84.3662 36.8599 85.9101 39.6316 87.4539 42.4031C87.7629 42.9577 88.0816 43.5947 87.8896 44.1996C87.747 44.6483 87.3407 44.9737 86.8994 45.1377C86.4583 45.3017 85.9797 45.3284 85.5096 45.3535C84.6658 45.3985 83.8221 45.4436 82.9782 45.4886C80.8938 45.5998 78.8093 45.7112 76.7248 45.8224C76.6053 45.8288 76.4715 45.8303 76.3832 45.7495C76.2541 45.6316 76.3099 45.4012 76.4475 45.2937C76.5853 45.186 76.7704 45.1673 76.9445 45.1526C80.0902 44.8873 83.2359 44.622 86.3815 44.3568C86.628 44.3359 86.7991 44.0771 86.8101 43.8299C86.8211 43.5827 86.7141 43.3473 86.6088 43.1235C85.2459 40.2275 83.7704 37.3844 82.1864 34.6031C82.0674 34.394 81.779 34.3739 81.5386 34.379Z" clip-rule="evenodd"/><path fill="#363939" fill-rule="evenodd" d="M43.572 62.1891C44.9791 61.4104 46.8093 61.5016 48.1639 62.3681C49.5184 63.2347 50.3624 64.8243 50.3802 66.4323C50.3983 68.07 49.5104 69.748 48.0272 70.4428C47.5101 70.6851 46.9403 70.8056 46.3698 70.8278C44.2906 70.9089 42.2101 69.5417 41.5439 67.5705C40.8776 65.5993 41.7515 63.1968 43.572 62.1891ZM46.7834 70.1233C47.3301 70.0323 47.8611 69.8372 48.3261 69.5356C48.8026 69.2265 49.2066 68.8065 49.4968 68.3184C50.2522 67.0476 50.1555 65.3409 49.3171 64.1235C48.4787 62.9059 46.9621 62.2113 45.4866 62.3014C44.9365 62.335 44.3904 62.4704 43.8987 62.719C42.2019 63.5776 41.4227 65.8433 42.1407 67.6043C42.8587 69.3652 44.9077 70.4361 46.7834 70.1233Z" clip-rule="evenodd"/><path fill="#363939" fill-rule="evenodd" d="M81.742 69.8522C81.1444 69.9337 80.5284 69.8758 79.9566 69.6839C78.1436 69.0759 76.9585 67.0026 77.3548 65.1319C77.7511 63.2612 79.6751 61.8465 81.579 62.0258C83.4826 62.2054 85.1086 63.9546 85.1482 65.8663C85.1881 67.7782 83.6366 69.5937 81.742 69.8522ZM83.1103 69.0444C84.3839 68.2714 85.0831 66.6548 84.7743 65.1972C84.4654 63.7396 83.1706 62.5457 81.6927 62.3558C80.215 62.1658 78.6604 62.9935 77.9929 64.3257C77.3254 65.6577 77.593 67.3985 78.6298 68.4686C79.7612 69.6362 81.7204 69.8879 83.1103 69.0444Z" clip-rule="evenodd"/><path fill="#363939" fill-rule="evenodd" d="M45.7482 64.0512C46.346 64.0033 46.96 64.2214 47.3938 64.6355C48.0658 65.2773 48.2392 66.3809 47.7967 67.1979C47.354 68.0149 46.3344 68.4721 45.43 68.2595C44.5685 68.0571 43.8784 67.268 43.7928 66.3872C43.7071 65.5065 44.2319 64.5992 45.0381 64.2342C45.262 64.1331 45.5034 64.0709 45.7482 64.0512ZM46.7855 64.724C46.574 64.5801 46.3415 64.4597 46.09 64.4133C45.8037 64.3605 45.504 64.4067 45.2357 64.5192C44.5536 64.8049 44.0885 65.5453 44.133 66.2835C44.1773 67.0217 44.7316 67.703 45.4468 67.8913C46.162 68.0797 46.9831 67.7566 47.3733 67.1285C47.7637 66.5003 47.6877 65.6173 47.1916 65.0688C47.072 64.9368 46.9327 64.8241 46.7855 64.724Z" clip-rule="evenodd"/><path fill="#363939" fill-rule="evenodd" d="M46.0927 44.5711C46.1021 45.3058 45.9144 46.0914 46.2543 46.7428C46.8839 47.9495 48.6519 47.7252 49.9525 47.3241C48.8836 46.1074 47.8148 44.891 46.7458 43.6743C48.9602 41.4134 51.1746 39.1524 53.3888 36.8914C53.5735 36.703 53.7868 36.5015 54.0504 36.4964C54.3548 36.4905 54.5927 36.7449 54.7876 36.9786C55.5128 37.8487 56.2381 38.7186 56.9636 39.5887C57.5612 40.3055 58.1301 41.4665 57.3986 42.046C60.1429 41.8599 62.8871 41.6737 65.6312 41.4874C65.1175 38.5524 66.0616 35.5796 66.9938 32.7495C67.0868 32.4674 67.1991 32.1606 67.4568 32.013C67.6375 31.9097 67.856 31.9055 68.064 31.9041C73.0743 31.8695 78.0845 31.835 83.0948 31.8004C83.3983 31.7983 83.7183 31.8004 83.9805 31.9532C84.2056 32.0842 84.3572 32.309 84.4992 32.5274C88.738 39.0438 91.3844 46.5879 92.1452 54.3242C92.2407 55.2946 92.345 56.355 93.03 57.0489C94.0727 58.1054 94.185 59.9465 93.2783 61.1217C93.945 61.6057 93.7805 62.7228 93.1698 63.2759C92.5591 63.8289 91.6914 63.9703 90.876 64.0879C89.7938 64.2441 88.6167 64.3833 87.6706 63.8353C89.22 63.4722 90.7714 63.1177 92.3247 62.7718C91.6357 58.2343 90.9468 53.6969 90.2578 49.1594C90.0306 47.6631 89.8023 46.1615 89.3786 44.7086C88.9226 43.1441 88.2455 41.6543 87.5708 40.1708C86.5082 37.8343 85.4456 35.4978 84.3829 33.1614C84.2672 32.9066 84.1416 32.6401 83.9135 32.4785C83.637 32.283 83.272 32.2834 82.9333 32.2914C78.2167 32.4038 73.5 32.5159 68.7834 32.6282C68.5114 32.6348 68.2183 32.6484 68.0047 32.8169C67.8288 32.9553 67.7397 33.174 67.6628 33.3841C65.8055 38.4591 66.8935 44.081 68.0012 49.3705C68.2045 50.3422 66.8845 50.8386 65.8956 50.9254C54.6044 51.9151 43.3133 52.905 32.0221 53.895C31.8836 54.7902 31.8445 55.7007 31.9058 56.6046C32.6573 56.6706 33.4087 56.7366 34.1602 56.8026C33.9218 56.8966 33.6836 56.9903 33.4452 57.0841C33.8895 59.4193 34.1351 61.7922 34.1784 64.1689C34.1917 64.8922 34.8186 65.4874 35.5092 65.703C36.1997 65.9186 36.9434 65.8383 37.6621 65.7561C36.897 66.0764 36.0997 66.4026 35.2714 66.3622C34.4429 66.3215 33.5756 65.7991 33.4226 64.9839C32.9432 62.4276 32.6671 59.8332 32.5978 57.2334C32.1624 57.2439 31.7271 57.2545 31.2917 57.2652C31.1445 56.1772 31.0853 55.0774 31.1148 53.9799C31.121 53.7438 31.1402 53.4857 31.3013 53.313C31.4629 53.1399 31.7194 53.1033 31.9546 53.0769C33.1791 52.9394 34.4034 52.802 35.6277 52.6646C35.266 50.1527 34.9042 47.641 34.5426 45.1292C34.5112 44.9122 34.4844 44.674 34.6023 44.4892C34.7333 44.2839 34.9965 44.2159 35.2349 44.166C38.4255 43.4994 41.672 43.1018 44.9292 42.9786C45.6632 42.9508 46.0831 43.8364 46.0927 44.5711ZM36.0896 52.411C36.0978 52.4822 36.11 52.561 36.1661 52.6057C36.2207 52.649 36.298 52.6446 36.3672 52.638C39.5708 52.3337 42.7743 52.0295 45.9778 51.7254C46.0661 51.717 46.1668 51.7015 46.2151 51.627C46.253 51.5684 46.2452 51.4927 46.236 51.4236C45.9087 48.9657 45.5812 46.5076 45.2538 44.0497C45.2448 43.9822 45.234 43.9102 45.1882 43.8596C45.1268 43.7918 45.0245 43.7847 44.933 43.7828C41.7677 43.7135 38.594 44.0359 35.5072 44.7406C35.4232 44.7596 35.3312 44.7844 35.2832 44.8561C35.2383 44.9231 35.2456 45.011 35.2548 45.0913C35.533 47.5311 35.8114 49.9711 36.0896 52.411ZM65.8943 42.5846C65.8805 42.4706 65.8567 42.3404 65.7576 42.2823C65.6946 42.2454 65.6167 42.2484 65.5436 42.2526C62.6916 42.4135 59.8394 42.5745 56.9874 42.7356C56.9245 42.7391 56.8567 42.7446 56.8092 42.7858C56.7399 42.8462 56.7439 42.953 56.7535 43.0442C57.0146 45.5068 57.2756 47.9692 57.5367 50.4316C57.5448 50.5092 57.556 50.5932 57.6112 50.6482C57.6823 50.719 57.7964 50.7146 57.8962 50.7055C60.8554 50.4343 63.8146 50.163 66.774 49.8916C66.4807 47.4559 66.1874 45.0202 65.8943 42.5846ZM50.574 46.7334C50.6156 46.7713 50.661 46.8108 50.7168 46.8174C50.7957 46.8266 50.8645 46.7679 50.9221 46.7132C52.85 44.8809 55.098 43.3686 57.026 41.5362C57.1128 41.4537 57.2063 41.3558 57.2023 41.2361C57.1996 41.1559 57.1525 41.0847 57.1071 41.0186C56.3388 39.9004 55.2018 38.4956 54.3397 37.4479C54.2549 37.345 54.1456 37.2322 54.0135 37.249C53.9292 37.2598 53.8618 37.3218 53.8005 37.3807C51.6709 39.4324 49.5413 41.4841 47.4117 43.5358C47.3644 43.5814 47.3133 43.635 47.3143 43.7009C47.3152 43.7668 47.3677 43.8191 47.4165 43.8634C48.469 44.8201 49.5215 45.7767 50.574 46.7334ZM56.7365 47.7407C56.72 47.6351 56.6967 47.518 56.6093 47.4562C56.5319 47.4015 56.4284 47.4082 56.3338 47.4172C53.3858 47.6978 50.4378 47.9785 47.4898 48.2593C47.3357 48.2738 47.1551 48.3062 47.0879 48.4457C47.0511 48.5225 47.0602 48.6124 47.0703 48.697C47.1696 49.5388 47.2692 50.3807 47.3687 51.2225C47.3828 51.3412 47.4053 51.4746 47.504 51.542C47.5831 51.5958 47.6869 51.5897 47.7823 51.5814C50.8312 51.3169 53.88 51.0526 56.929 50.7881C57.005 50.7815 57.0896 50.7705 57.1375 50.711C57.1866 50.6498 57.177 50.5618 57.165 50.4842C57.0221 49.5697 56.8794 48.6553 56.7365 47.7407ZM56.1239 43.3444C56.1168 43.2932 56.0932 43.2276 56.0416 43.2316C56.0199 43.2334 56.002 43.2484 55.9855 43.2626C54.469 44.5876 52.9524 45.9126 51.4359 47.2375C53.0127 47.1054 54.588 46.955 56.1615 46.7866C56.2967 46.7721 56.4528 46.7441 56.5175 46.6246C56.5597 46.5465 56.5488 46.4516 56.5368 46.3636C56.3991 45.3572 56.2615 44.3508 56.1239 43.3444ZM92.7213 57.531C92.8666 58.3692 93.0119 59.2074 93.1572 60.0457C93.1716 60.1289 93.2013 60.229 93.2837 60.2471C93.4178 60.2766 93.464 60.0751 93.4456 59.9391C93.3474 59.2138 93.2492 58.4886 93.1509 57.7631C93.1333 57.6334 93.1077 57.4894 93.0028 57.4108C92.8976 57.3324 92.6989 57.4018 92.7213 57.531Z" clip-rule="evenodd"/><path fill="#363939" fill-rule="evenodd" d="M20.6056 74.1487C17.804 74.193 8.16962 74.9069 8.00319 74.5493C7.79028 74.092 18.2965 73.4908 20.5866 73.4544L21.304 73.4448C23.3862 73.4223 20.6056 74.1487 20.6056 74.1487ZM42.0038 73.2735C42.6843 73.2735 43.2168 73.4936 42.7589 73.6544C42.3008 73.8154 40.8187 74.1538 38.3368 74.2109C35.855 74.268 32.9784 74.3271 28.7275 74.4108C28.4811 74.4156 28.2773 74.2197 28.2725 73.9732C28.2677 73.7268 28.4635 73.5229 28.7099 73.5181L36.2371 73.3647C38.5222 73.3152 39.9526 73.2735 42.0038 73.2735ZM76.0043 73.012C76.2509 73.008 76.4539 73.2048 76.4578 73.4512C76.4616 73.6978 76.265 73.9008 76.0184 73.9047L74.9725 73.9175L71.772 73.9396C71.128 73.9461 45.0702 74.1127 44.717 73.7306C44.3637 73.3485 44.9059 73.2794 45.1523 73.2735C45.1523 73.2735 71.7635 73.046 72.4594 73.0408L75.1208 73.0232C75.4301 73.0202 75.7102 73.0167 76.0043 73.012ZM104.934 72.1533C104.934 72.1533 105.736 72.0149 111.587 72.453C111.833 72.4714 112.017 72.6856 111.999 72.9316C111.98 73.1773 109.087 73.0532 105.131 73.0463L104.043 73.048C101.139 73.0608 98.4407 73.1394 93.9624 73.3237L88.3102 73.5626C85.8982 73.6613 84.4592 73.7095 82.7093 73.7508C82.4629 73.7565 82.2584 73.5615 82.2525 73.3151C82.2467 73.0685 82.4418 72.864 82.6883 72.8583L84.0934 72.8215C85.7651 72.7732 87.4827 72.706 90.5282 72.5759L93.7574 72.4388C98.8069 72.23 101.615 72.1533 104.934 72.1533Z" clip-rule="evenodd"/></svg>