<svg width="120" height="120" viewBox="0 0 120 120" fill="none" xmlns="http://www.w3.org/2000/svg">
<path fill-rule="evenodd" clip-rule="evenodd" d="M77.2658 25.5924C87.5911 23.2812 97.157 26.0234 102.298 33.8562C107.44 41.6889 106.095 54.118 104.981 59.6042C103.867 65.0905 101.042 70.1154 97.5356 74.478C91.0226 82.5807 82.2212 88.7813 72.3818 92.1285C62.5425 95.4756 51.8596 96.162 41.6058 94.4687C35.8538 93.5188 17.8612 88.8653 13.9772 74.8225C10.0932 60.7796 7.63518 48.7773 16.046 43.902C24.4567 39.0265 30.2826 42.6935 34.4463 44.4967C53.8989 52.9212 66.9407 27.9037 77.2658 25.5924Z" fill="#FFE393"/>
<path fill-rule="evenodd" clip-rule="evenodd" d="M91.8054 38.7457C93.4617 38.6177 95.247 38.7006 96.5967 39.6689C97.9465 40.6374 98.5596 42.7641 97.4513 44.0015C98.7044 43.5116 100.177 44.3425 100.805 45.5326C101.432 46.7225 101.4 48.1483 101.211 49.4804C100.743 52.7793 99.3982 55.9499 97.3515 58.5788C97.2574 58.8559 97.1633 59.1332 97.0692 59.4103C99.4886 60.034 108.936 63.703 106.383 72.7478C103.831 81.7926 92.6828 85.2351 91.5417 86.3177C89.5527 88.2046 86.5171 88.3335 83.7769 88.2465C77.0396 88.0327 70.3228 87.1766 63.7473 85.6934C63.1883 85.5671 62.4801 85.4903 62.1579 85.9643C59.8254 89.3937 54.9478 89.7003 50.811 89.4017C45.4974 89.0183 40.2142 88.2124 35.0278 86.9942C32.086 86.3031 28.9622 85.3411 27.1294 82.9383C24.9929 80.1372 25.2396 76.2535 25.5863 72.7478C24.1822 73.5286 21.8531 73.9515 18.5991 74.0164C16.6835 73.6257 15.4884 72.9311 15.0142 71.9331C12.8455 67.3684 12.1018 61.4865 14.8024 56.9873C15.1268 56.4468 15.5011 55.9142 16.0294 55.5703C16.5894 55.2057 17.2723 55.0859 17.9379 55.0268C20.5635 54.7943 23.2575 55.4071 25.5241 56.7527C25.5038 49.3859 25.4836 42.019 25.4633 34.6521C25.4622 34.2302 25.4681 33.7825 25.6931 33.4255C26.0183 32.9094 26.6847 32.7494 27.2846 32.6374C32.7409 31.6188 38.2591 30.9318 43.7988 30.5815C45.6087 30.4671 48.0859 30.9708 48.094 32.7844C48.1257 39.7299 48.1572 46.6753 48.1887 53.6207C48.1963 55.2739 48.3025 55.1356 49.0771 54.6566C48.5902 54.7071 48.6988 53.8814 49.0678 53.5596C50.4451 52.359 52.4523 52.3148 54.2793 52.3335C58.3663 52.3753 62.4534 52.4171 66.5403 52.459C70.5003 52.4995 75.2491 53.0017 77.0419 56.5327C76.9899 55.4833 77.9409 54.4931 78.9916 54.5027C80.1376 54.5132 81.0958 53.5191 81.4302 52.4231C81.7647 51.3271 81.6172 50.1495 81.4667 49.0135C79.6191 47.2246 79.1355 44.1835 80.3368 41.9095C81.5382 39.6356 84.323 38.3212 86.842 38.8393C88.4692 39.1739 90.1491 38.8735 91.8054 38.7457ZM44.3819 72.8148C44.3275 74.2772 44.27 75.7591 43.8396 77.1577L44.3819 72.8148ZM42.6886 54.8687C43.0691 54.9801 43.5396 55.3174 43.3399 55.6596C44.9924 55.8247 44.499 55.7483 44.5734 53.8011C44.6488 51.8251 44.6551 49.6403 43.3615 48.1447C42.2167 46.8214 40.35 46.4075 38.6067 46.2587C36.5718 46.0849 34.5151 46.1684 32.5011 46.5065C31.5183 46.6715 30.4539 46.9556 29.8835 47.7727C29.5644 48.2302 29.447 48.795 29.3532 49.3447C28.9843 51.5071 28.8691 53.7127 29.0107 55.9018C33.2473 53.9308 38.2041 53.5564 42.6886 54.8687ZM79.4553 69.3863C79.5588 69.2817 79.7158 69.2563 79.8617 69.2363C80.4438 69.1561 81.026 69.0761 81.6083 68.9959C80.2721 68.3926 79.4624 66.959 79.2203 65.5131C78.9784 64.0671 79.2147 62.5887 79.4532 61.1422C78.5987 62.0932 78.6603 63.5283 78.7721 64.8022C79.0172 67.59 79.3518 69.491 79.4553 69.3863ZM68.463 83.1188C68.5774 82.7463 68.9673 82.5463 69.2526 82.281C69.7664 81.8036 69.9572 81.0819 70.1247 80.4007C70.7039 78.0473 71.2867 75.6652 71.2793 73.2415C71.2777 72.7281 71.2516 72.2006 71.4217 71.7161C71.5918 71.2316 72.0177 70.7934 72.5312 70.791C73.0726 70.7882 73.2019 70.0372 73.1535 69.498C72.9867 67.6387 72.8198 65.7791 72.6527 63.9198C72.5995 63.3259 72.5451 62.7265 72.3649 62.1582C71.6985 60.0567 69.1308 58.786 67.056 59.5311C66.802 59.6223 66.7342 59.9431 66.7052 60.2115C66.3859 63.1857 66.0667 66.1599 65.7473 69.1342C65.6905 69.6625 66.3729 69.9998 66.8879 69.8689C67.403 69.738 67.7963 69.3356 68.2417 69.0455C68.6871 68.7556 69.315 68.5887 69.7239 68.9281C70.1862 69.3118 70.8704 68.8855 71.272 68.4388C71.6734 67.9921 72.1963 67.4535 72.7673 67.6399C72.0975 68.2806 71.4276 68.9214 70.7579 69.562C70.5356 69.7747 70.3398 70.199 70.6204 70.3244C71.3902 70.0515 72.0859 69.5731 72.6164 68.9523C72.8617 68.9444 72.8732 69.3295 72.7363 69.5332C72.2206 70.3007 71.0068 70.4716 70.6944 71.3419C69.9649 73.3731 67.69 74.7222 65.5579 74.3881C65.1204 74.3196 64.9024 74.895 64.8497 75.3345C64.6398 77.0871 64.43 78.8398 64.2201 80.5924C64.1718 80.9956 64.1268 81.422 64.2927 81.7926C64.5697 82.411 65.3107 82.6449 65.9675 82.8113C66.8355 83.0313 67.7137 83.2524 68.6011 83.3484C68.9748 83.3889 68.9732 83.2519 68.463 83.1188ZM33.875 79.9054C35.1155 80.3209 36.4284 80.4617 37.7294 80.5998C38.2811 80.6585 38.8686 80.711 39.3635 80.4603C39.946 80.1652 40.2564 79.5257 40.507 78.9226C41.9043 75.5595 42.702 71.9484 42.8516 68.3095C42.8729 67.7926 42.2108 67.5643 41.6945 67.5295C37.5726 67.2529 33.6305 69.0649 29.8975 70.8343C29.7185 70.9191 29.5271 71.0159 29.4387 71.1931C29.3727 71.3252 29.3763 71.4798 29.3811 71.6273C29.4479 73.6375 29.5324 75.7198 30.4315 77.5191C30.6742 78.0051 30.983 78.4726 31.4203 78.795C31.6852 78.9902 31.9884 79.1257 32.2889 79.2595C32.8107 79.4918 33.3335 79.7241 33.875 79.9054ZM60.5401 72.4655C61.0896 69.5108 61.4767 66.5258 61.6995 63.5287C61.7756 62.5033 61.8315 61.4611 61.6099 60.4571C61.3881 59.4531 60.8534 58.4771 59.9791 57.9359C59.4404 57.6025 58.8099 57.4529 58.1862 57.3417C57.048 57.1387 55.89 57.0465 54.7342 57.067C53.7142 57.0851 52.6435 57.2094 51.8108 57.7988C51.5355 57.9937 51.2852 58.2489 51.1847 58.571C51.0841 58.8929 51.1687 59.2886 51.4481 59.4777C52.1542 59.9559 52.442 60.8505 52.5743 61.6929C52.7065 62.5351 52.7383 63.4172 53.1222 64.1786C53.3203 64.5713 53.6041 64.9139 53.9017 65.2375C55.5158 66.9924 57.6209 68.2907 59.9137 68.9449C60.3167 69.0599 60.8296 69.3089 60.7443 69.7193C62.0123 70.5191 60.519 72.579 60.5401 72.4655ZM57.0457 81.1806C57.5126 80.8969 57.8291 80.4247 58.1078 79.955C59.2902 77.9614 60.0654 75.7276 60.3724 73.4303C56.1195 73.411 51.8919 71.8065 48.6975 68.9988C48.5881 69.4377 48.6091 69.8969 48.6241 70.3489C48.7172 73.1705 48.5499 76.0007 48.1246 78.7916C48.0231 79.4569 48.4207 80.1222 48.9672 80.5151C49.5134 80.9079 50.1865 81.0767 50.8475 81.2041C52.3372 81.491 53.8595 81.6087 55.3756 81.554C55.9523 81.5332 56.5527 81.4801 57.0457 81.1806ZM83.8824 56.8422C83.6345 56.2447 83.4484 55.5711 82.9342 55.179C82.42 54.7867 81.4515 54.9787 81.4212 55.6247C81.9304 55.531 82.3193 56.1593 82.2326 56.6695C82.1459 57.1798 81.775 57.5854 81.4803 58.0108C81.0731 58.5986 80.7945 59.2643 80.519 59.9241C79.8635 61.4942 79.6084 63.2295 79.7843 64.9218C79.8878 65.9182 80.1608 66.9417 80.8345 67.683C81.5083 68.4243 82.663 68.795 83.5508 68.331C84.3132 67.9324 84.6936 67.0539 84.8684 66.2115C85.0433 65.3691 85.0745 64.4873 85.4048 63.6929C86.0142 62.2273 87.5172 61.342 89.004 60.7862C86.7689 60.4825 84.7468 58.9254 83.8824 56.8422ZM77.7022 58.4275C77.8016 58.8116 77.9393 59.1859 78.1124 59.543C78.2163 59.0398 78.3832 58.5497 78.6078 58.0876C78.3806 58.0617 78.1518 58.0494 77.923 58.0507C77.8675 58.051 77.8087 58.0531 77.7619 58.0828C77.6563 58.1499 77.6708 58.3063 77.7022 58.4275ZM50.7636 58.0319C50.6228 58.1452 50.5403 58.3891 50.6889 58.4918C50.9164 58.2639 51.1439 58.0361 51.3715 57.8084C51.3244 57.7502 51.256 57.7094 51.1824 57.6959C51.0921 57.8524 50.9043 57.9188 50.7636 58.0319Z" fill="white"/>
<path d="M90.1598 56.3999C90.6459 56.3999 91.0398 56.006 91.0398 55.5199C91.0398 55.0338 90.6459 54.6399 90.1598 54.6399C89.6737 54.6399 89.2798 55.0338 89.2798 55.5199C89.2798 56.006 89.6737 56.3999 90.1598 56.3999Z" fill="#F9D262"/>
<path d="M85.1201 55.5201C85.3853 55.5201 85.6001 55.3052 85.6001 55.0401C85.6001 54.7749 85.3853 54.5601 85.1201 54.5601C84.855 54.5601 84.6401 54.7749 84.6401 55.0401C84.6401 55.3052 84.855 55.5201 85.1201 55.5201Z" fill="#F9D262"/>
<path fill-rule="evenodd" clip-rule="evenodd" d="M39.668 42.8924C41.108 42.9015 42.548 42.9106 43.988 42.9198C44.0554 42.9202 44.1279 42.9222 44.1821 42.962C44.2933 43.0436 44.249 43.2346 44.1346 43.3114C44.0202 43.3882 43.8719 43.385 43.7343 43.3802C42.4671 43.3362 41.196 43.4022 39.94 43.5767C39.7492 43.6033 39.5476 43.6311 39.369 43.5586C39.1903 43.486 39.0536 43.2721 39.1359 43.0977C39.2218 42.9154 39.4666 42.8911 39.668 42.8924ZM34.8527 42.751C34.944 42.8418 34.9002 43.0089 34.7989 43.0884C34.6975 43.1679 34.5618 43.1838 34.4335 43.1967C33.157 43.326 31.8803 43.4553 30.6037 43.5846C30.4527 43.5999 30.2967 43.6146 30.1522 43.5681C30.0077 43.5217 29.8771 43.3967 29.8736 43.245C29.8701 43.0886 30.0031 42.9556 30.1514 42.9057C30.2997 42.8558 30.461 42.8697 30.617 42.882C31.9251 42.9849 33.2458 42.9255 34.5394 42.7058C34.6477 42.6874 34.7749 42.6734 34.8527 42.751ZM34.6739 40.3004C34.7693 40.3774 34.7354 40.5423 34.6395 40.619C34.5439 40.6956 34.4136 40.7082 34.2914 40.7178L30.1917 41.0414C30.0383 41.0535 29.8792 41.0649 29.7344 41.0126C29.5896 40.9601 29.4627 40.8252 29.4711 40.6714C29.4794 40.5158 29.6232 40.395 29.7747 40.3582C29.9264 40.3214 30.0851 40.3489 30.2394 40.3718C31.6309 40.5774 33.0458 40.3898 34.4466 40.2625C34.5251 40.2553 34.6125 40.2508 34.6739 40.3004ZM40.3995 39.4881C41.2551 39.5974 42.1223 39.614 42.9813 39.5377C43.3227 39.5073 43.7355 39.493 43.9296 39.7756C43.6992 39.9618 43.3827 39.9882 43.0872 40.007C42.1077 40.0686 41.128 40.1303 40.1485 40.1921C39.925 40.2062 39.6466 40.1892 39.5546 39.9852C39.4719 39.802 39.6173 39.5817 39.804 39.5076C39.9907 39.4334 40.2002 39.4626 40.3995 39.4881ZM33.0093 38.4409C33.0104 38.5887 32.825 38.6526 32.6786 38.6742L30.5256 38.9897C30.372 39.0122 30.2131 39.0345 30.0632 38.9943C29.9131 38.9543 29.7728 38.835 29.7587 38.6802C29.7416 38.491 29.9194 38.3311 30.105 38.2898C30.2906 38.2486 30.4829 38.2918 30.6714 38.3161C31.3218 38.3998 31.9778 38.2569 32.633 38.2343C32.7933 38.2289 33.0082 38.2804 33.0093 38.4409ZM43.3975 37.9255C43.564 37.9441 43.7349 38.0434 43.7795 38.205C43.4837 38.4289 43.0927 38.4695 42.7232 38.5023C42.0907 38.5583 41.4584 38.6145 40.8259 38.6705C40.6032 38.6902 40.3805 38.71 40.1576 38.7297C39.9947 38.7441 39.8253 38.7577 39.6723 38.6999C39.5194 38.6422 39.3887 38.4903 39.4114 38.3284C39.4474 38.0732 39.7823 38.007 40.0399 38.0124C40.9959 38.033 41.9639 38.1774 42.9005 37.9849C43.0647 37.9511 43.2309 37.9068 43.3975 37.9255ZM44.2371 35.5114C39.5512 36.1433 34.7469 35.8162 30.1255 36.8158C29.8514 36.875 29.4688 36.878 29.3979 36.6066C29.4043 36.287 29.8178 36.1716 30.1368 36.1489C34.6325 35.8282 39.1282 35.5076 43.624 35.187C43.8877 35.1681 44.2579 35.2479 44.2371 35.5114Z" fill="#EAEAEA"/>
<path fill-rule="evenodd" clip-rule="evenodd" d="M27.754 84.0846C27.803 84.6515 27.0215 84.8435 26.4524 84.8457C23.4951 84.8574 20.5407 85.406 17.7764 86.4566C17.3545 86.6169 16.903 86.819 16.6977 87.2209C16.4257 87.7531 16.7225 88.4342 17.2034 88.7887C17.6846 89.1435 18.2985 89.2516 18.8884 89.3476C34.2207 91.8443 49.781 92.9387 65.3119 92.6127L65.5617 92.6071C67.3529 92.5659 69.1809 92.4695 70.8218 91.7603C69.4634 90.8081 68.105 89.8561 66.7465 88.9039C69.0982 88.4342 71.5246 88.7687 73.9109 89.0044C79.3729 89.5436 84.887 89.5547 90.351 89.0372C89.9663 89.6519 89.1206 89.7372 88.3956 89.7527C81.5225 89.9007 74.6409 89.6566 67.7954 89.0219C68.6886 89.6095 69.5817 90.1974 70.4748 90.7851C70.7985 90.998 71.1566 91.2684 71.1751 91.6555C71.2033 92.2371 70.4887 92.5271 69.9143 92.6222C68.0081 92.9371 66.0689 92.9873 64.137 93.0155C49.0492 93.2361 33.9426 92.1564 19.0396 89.7926C18.3124 89.6772 17.559 89.5484 16.9526 89.1308C16.3462 88.7131 15.9329 87.9188 16.1876 87.2281C16.441 86.5409 17.2122 86.2183 17.9084 85.991C21.0942 84.9503 24.41 84.3083 27.754 84.0846ZM48.0942 32.7844C48.1257 39.7299 48.1572 46.6753 48.1889 53.6207C48.1964 55.2739 48.522 57.3657 50.1207 57.7867C52.3297 56.767 54.8196 56.3641 57.2375 56.6353C58.6217 56.7905 60.059 57.2089 60.9961 58.2395C62.2814 59.6529 62.2834 61.7819 62.1454 63.6875C61.8657 67.55 61.3146 71.3931 60.4978 75.1787C61.1468 75.1377 61.8087 75.398 62.2558 75.8702C61.5671 76.1851 60.7468 76.1983 60.0484 75.9055C60.5281 78.5057 58.4098 81.0708 55.873 81.8156C53.3362 82.5606 50.5834 81.8582 48.198 80.7182C47.9742 81.5894 49.1398 82.1014 50.0295 82.2327C52.2884 82.5667 54.5471 82.9006 56.806 83.2343C54.0164 83.3182 51.2177 83.0899 48.4786 82.555C47.9742 83.2692 49.1164 83.9905 49.9796 84.1302C52.269 84.5007 54.5586 84.8711 56.8482 85.2417C54.2621 85.2244 51.6772 85.0521 49.1119 84.7257C50.7434 86.1974 52.9705 86.9887 55.1649 86.8764C53.927 87.2835 52.5518 87.259 51.3292 86.8081C52.8586 88.8563 55.9878 89.2356 58.2729 88.09C60.5578 86.9446 62.0498 84.6007 62.7798 82.151C63.5097 79.7012 63.5806 77.1121 63.71 74.5591C63.9486 69.8468 64.4049 65.1407 65.2303 60.495C65.7863 57.3667 67.1518 53.6364 70.2983 53.1943C64.6926 52.9359 59.0815 52.7967 53.4698 52.7764C51.7646 52.7703 49.6465 53.0492 49.077 54.6566C48.5902 54.7071 48.6988 53.8814 49.0678 53.5596C50.4452 52.359 52.4522 52.3148 54.2794 52.3335L66.5404 52.459C70.5002 52.4995 75.2492 53.0017 77.042 56.5327C76.9898 55.4833 77.941 54.4931 78.9918 54.5027C80.1375 54.5132 81.0959 53.5191 81.4303 52.4231C81.7647 51.3271 81.6172 50.1495 81.4666 49.0135C79.6191 47.2246 79.1354 44.1835 80.3369 41.9095C80.6767 41.2663 81.1788 39.7327 83.9828 38.7457C85.8522 38.0876 87.7001 38.1599 89.5263 38.9628C92.9561 38.2995 95.3129 38.535 96.5969 39.6689C98.5228 41.37 98.5598 42.7641 97.4514 44.0015C98.7044 43.5116 100.177 44.3425 100.805 45.5326C101.432 46.7225 101.4 48.1483 101.211 49.4804C100.743 52.7793 99.3983 55.9499 97.3514 58.5788L97.0692 59.4103C102.021 60.6868 106.026 65.0633 106.86 70.1083C105.214 66.3977 102.986 62.4681 99.1461 61.1508C98.2797 62.0596 97.3889 63.0079 96.982 64.1958C96.5751 65.3836 96.795 66.8844 97.8266 67.6001C97.1786 67.7502 96.5306 67.9004 95.8826 68.0507C96.0983 68.4332 96.314 68.8158 96.5297 69.1983C94.0812 71.0598 93.7994 74.5806 93.8143 77.6563C93.8292 80.7321 93.7732 84.2007 91.5417 86.3177C89.5527 88.2046 86.517 88.3335 83.777 88.2465C77.0396 88.0327 70.3228 87.1766 63.7474 85.6934C63.1884 85.5671 62.4802 85.4903 62.158 85.9643C59.8255 89.3937 54.9478 89.7003 50.8111 89.4017C45.4974 89.0183 40.2143 88.2124 35.0279 86.9942C32.0862 86.3031 28.9622 85.3411 27.1295 82.9383C24.993 80.1372 25.2398 76.2535 25.5865 72.7478C23.4801 73.919 20.983 74.3723 18.5993 74.0164C21.1119 72.3737 22.3303 69.2311 22.3532 66.2292C22.3761 63.2275 21.3742 60.3177 20.2593 57.5305C17.8031 58.9551 16.5108 61.958 16.7031 64.791C16.8953 67.6238 18.3983 70.2532 20.415 72.2521C17.9289 70.6833 16.2839 67.8567 16.1478 64.9203C16.0116 61.9836 17.3881 59.0172 19.7182 57.2249C19.3458 55.9516 17.4249 55.7959 16.418 56.6599C15.4112 57.5238 15.0952 58.926 14.8363 60.2273C14.3577 62.6315 13.8772 65.0918 14.2249 67.5183C14.5726 69.9449 15.913 72.3739 18.1591 73.3558C17.1095 74.1124 15.7114 73.0231 15.0142 71.9331C12.1872 67.5121 12.1018 61.4865 14.8025 56.9873C15.1269 56.4468 15.5012 55.9142 16.0295 55.5703C16.5895 55.2057 17.2722 55.0859 17.938 55.0268C20.5636 54.7943 23.2575 55.4071 25.5242 56.7527C25.5039 49.3859 25.4838 42.019 25.4634 34.6521C25.4623 34.2302 25.4681 33.7825 25.693 33.4255C26.0183 32.9094 26.6847 32.7494 27.2846 32.6374C32.741 31.6188 38.2593 30.9318 43.7988 30.5815C45.6089 30.4671 48.086 30.9708 48.0942 32.7844ZM44.3945 31.0254C38.5212 31.3019 32.6692 32.0279 26.9065 33.1951C26.6612 33.2447 26.4015 33.3028 26.2233 33.4783C25.9804 33.7175 25.9617 34.0966 25.9585 34.4374C25.8897 41.7729 25.9188 49.1092 26.0457 56.4438C26.751 56.2679 27.4562 56.0921 28.1614 55.9163C27.8857 54.4113 27.6089 52.8859 27.7268 51.3603C27.8446 49.8348 28.4044 48.2833 29.5559 47.2756C30.8022 46.1851 32.5414 45.8769 34.1934 45.7609C35.7818 45.6494 37.3801 45.6753 38.9642 45.838C40.5814 46.0043 42.2849 46.3635 43.4514 47.4955C45.1367 49.1308 45.1641 51.7801 45.0767 54.1267C44.8452 60.3561 44.6135 66.5855 44.382 72.8148C44.3276 74.2772 44.27 75.7591 43.8396 77.1577C43.4094 78.5563 42.5551 79.8854 41.2628 80.5718C39.9946 81.2452 38.4772 81.2262 37.0505 81.0641C35.6884 80.9092 34.3394 80.6391 33.0226 80.2577C32.2228 80.026 31.4225 79.747 30.7426 79.266C28.4934 77.6742 28.2274 74.4979 28.1727 71.7428C27.309 71.587 26.4647 72.2443 26.1081 73.0462C25.7516 73.8481 25.7673 74.7593 25.7895 75.6367C25.8447 77.8252 25.93 80.1231 27.0473 82.0059C28.7711 84.9107 32.3918 85.9839 35.6977 86.6775C41.5654 87.9087 47.5228 88.7116 53.5071 89.0777C50.8364 87.7175 48.4686 85.3894 47.9054 82.4457C47.7522 81.646 47.7359 80.8275 47.7199 80.0134C47.4081 64.0967 47.0962 48.1803 46.7844 32.2636C46.7647 31.2571 45.4001 30.978 44.3945 31.0254ZM67.162 57.1574C67.0135 57.5198 66.9055 57.9217 67.0044 58.3006C67.1033 58.6795 67.4714 59.0103 67.8577 58.946C69.5878 58.6579 71.4527 59.51 72.3673 61.0065C73.1218 62.2414 73.2266 63.7521 73.3116 65.1967L74.0854 78.3559C74.1681 79.7622 74.2089 81.3097 73.3348 82.4143C72.2009 83.8478 70.0716 83.8955 68.2527 83.7175C66.7518 83.5708 65.1729 83.3212 64.0076 82.3638C64.0489 82.9211 63.8865 83.4911 63.5577 83.9428C63.1519 84.5004 63.807 85.2342 64.4442 85.4979C65.2225 85.8199 66.0689 85.9321 66.9042 86.0404C70.73 86.5371 74.5582 87.0159 78.3885 87.4771C81.3367 87.8319 84.3321 88.1756 87.2631 87.6993C85.4089 87.179 83.6345 86.3748 82.0209 85.3235C81.2159 84.7988 80.4375 84.1996 79.8884 83.411C78.9922 82.1238 78.8034 80.4883 78.6542 78.927C78.2108 74.2841 77.8807 69.6303 77.6644 64.9713C77.5049 61.535 76.403 58.147 74.5105 55.2742C74.1721 54.7604 73.7582 54.2275 73.1599 54.0844C70.7812 53.5158 68.0902 54.8947 67.162 57.1574ZM56.2548 86.895C56.4566 86.9292 56.6636 86.9743 56.83 87.0937C56.9962 87.2131 57.1122 87.4249 57.061 87.623C57.0098 87.8212 56.7482 87.9515 56.5831 87.8307C56.4007 87.6974 56.1583 87.6927 55.9409 87.6313C55.7236 87.5699 55.4958 87.3894 55.5348 87.167C55.5844 86.8851 55.9726 86.847 56.2548 86.895ZM47.8775 86.9787C48.1278 87.0307 48.4209 87.2091 48.3695 87.4596C48.3244 87.6806 48.0511 87.7542 47.8276 87.7839C47.577 87.8174 47.3097 87.8484 47.0822 87.7383C46.8548 87.6281 46.7073 87.3174 46.8564 87.1135C46.957 86.9759 47.1454 86.9393 47.3158 86.9324C47.5039 86.9247 47.693 86.9403 47.8775 86.9787ZM62.8548 84.1945C62.6172 84.3659 62.454 84.6185 62.2863 84.8587C61.522 85.9537 60.5534 86.9055 59.445 87.6505C59.4727 87.7681 59.6489 87.7383 59.7534 87.6779C61.0366 86.9343 61.9524 85.706 62.8313 84.5115C62.9031 84.4137 62.9625 84.2502 62.8548 84.1945ZM74.3295 54.6113C75.0142 55.4198 75.7041 56.2359 76.205 57.1694C76.7479 58.1815 77.053 59.303 77.2986 60.4249C78.6726 66.7014 78.3058 73.2267 79.1962 79.5897C79.3569 80.7379 79.5694 81.9105 80.1668 82.9039C80.8666 84.0679 82.0281 84.8748 83.2114 85.5415C84.1684 86.0807 85.1673 86.5543 86.2183 86.8737C87.8897 87.3815 89.8974 87.4172 91.1786 86.2297C91.898 85.563 92.2764 84.6116 92.5721 83.6763C93.8391 79.6673 93.9783 75.3086 92.97 71.2268C92.9953 73.6681 93.3124 76.1035 93.2398 78.5438C93.1673 80.9839 92.6663 83.4967 91.2319 85.4721C90.9478 85.8635 90.6185 86.239 90.189 86.4615C89.6234 86.7545 88.9516 86.7487 88.3193 86.6716C87.215 86.5367 86.1353 86.203 85.1474 85.6915C84.3972 85.3027 83.7029 84.8143 83.0303 84.3028C82.2484 83.7083 81.4807 83.0678 80.9329 82.2526C80.39 81.4444 80.0873 80.5004 79.8473 79.5569C78.0945 72.6678 79.3478 65.2366 77.2679 58.439C76.7777 56.8369 75.9263 55.1182 74.3295 54.6113ZM32.514 84.9187C36.5602 85.5433 40.6066 86.1678 44.653 86.7924C44.5505 87.0601 44.1806 87.0694 43.8964 87.0315C40.4359 86.5692 36.9754 86.107 33.515 85.6446C33.1238 85.5924 32.7326 85.5401 32.3414 85.4879C32.1556 85.4631 31.925 85.3958 31.9015 85.21C31.8684 84.9481 32.253 84.8785 32.514 84.9187ZM79.4534 61.1422C78.5986 62.0932 78.6602 63.5283 78.7722 64.8022C79.0172 67.59 79.2623 70.378 79.5073 73.166C79.5188 73.2966 79.5327 73.434 79.6092 73.5403C79.7343 73.714 79.9764 73.7443 80.19 73.7593C83.0991 73.9643 86.0082 74.1692 88.9174 74.3743C88.6999 74.7182 88.2095 74.7233 87.8039 74.6919C85.0652 74.4806 82.3153 74.4119 79.5694 74.4868C79.522 75.895 79.7295 77.3113 80.179 78.6467C80.3737 79.2255 81.1236 79.3487 81.7338 79.3735C84.0607 79.4678 86.3876 79.5619 88.7146 79.6561C88.8217 79.8972 88.4457 80.0478 88.1818 80.0447C85.7902 80.0172 83.3983 79.9897 81.0065 79.9622C80.6788 79.9585 80.5602 80.4227 80.6838 80.726C81.0065 81.5191 82.0337 81.69 82.8882 81.7435L88.2357 82.0783C88.3578 82.086 88.3833 82.2779 88.2942 82.3615C88.205 82.4454 88.0692 82.4476 87.947 82.4451L81.6858 82.3123C83.3047 84.239 85.5753 85.6079 88.0348 86.1404C88.5647 86.2551 89.1266 86.3305 89.6415 86.1606C90.2577 85.9571 90.7121 85.434 91.0677 84.8913C92.9542 82.0132 92.8287 78.3102 92.6359 74.8743L92.4174 70.9801C92.4937 70.8751 92.6505 70.8387 92.7652 70.8995C92.8095 70.7086 92.5612 70.5951 92.3684 70.5598C88.1127 69.7782 83.7457 68.9951 79.4866 69.7587C79.3505 69.7028 79.3519 69.491 79.4554 69.3863C79.559 69.2817 79.7159 69.2563 79.8617 69.2363C80.4439 69.1561 81.0262 69.0761 81.6082 68.9959C80.2722 68.3926 79.4623 66.959 79.2204 65.5131C78.9785 64.0671 79.2146 62.5887 79.4534 61.1422ZM58.537 84.8164C58.9161 84.887 59.3538 85.0028 59.5017 85.359C59.0798 85.6465 58.5255 85.6171 58.0164 85.5764C57.8764 85.5652 57.7233 85.5481 57.6249 85.4478C57.4508 85.2703 57.5807 84.9433 57.8047 84.8355C58.0287 84.7278 58.2927 84.771 58.537 84.8164ZM29.6679 82.215C34.0274 83.5847 38.545 84.4508 43.102 84.7903C43.4554 84.8167 43.9306 84.9852 43.8628 85.3331C39.0433 84.7881 34.2532 83.9825 29.5206 82.9211C29.2186 82.8534 28.8311 82.6383 28.9436 82.3499C29.0425 82.0966 29.4086 82.1335 29.6679 82.215ZM45.6356 84.3292C45.8582 84.3287 46.073 84.4051 46.281 84.4843C46.387 84.5244 46.5034 84.5764 46.5444 84.6819C46.6319 84.9068 46.3217 85.0676 46.0842 85.1107C45.9244 85.1398 45.7646 85.1687 45.6047 85.1977C45.47 85.2222 45.3249 85.2454 45.2007 85.1873C44.9991 85.0929 44.9468 84.802 45.0625 84.6118C45.178 84.4215 45.4129 84.3299 45.6356 84.3292ZM66.1641 83.8487C68.0924 84.2155 70.0676 84.2363 72.0305 84.2559C72.1823 84.2574 72.2233 84.4964 72.1148 84.6027C72.0063 84.7091 71.837 84.7137 71.685 84.7107C69.8527 84.6747 68.0182 84.4815 66.1911 84.6255C65.9922 84.6412 65.7857 84.6599 65.599 84.59C65.4121 84.5199 65.2529 84.3311 65.2884 84.135C65.319 83.9657 65.4839 83.8471 65.6527 83.8145C65.8215 83.7817 65.9951 83.8166 66.1641 83.8487ZM70.5206 53.6187C68.3372 53.9447 66.5028 55.8879 66.3033 58.0865C66.1167 60.1399 65.55 62.1367 65.1465 64.1587C63.851 70.6518 64.2439 77.3809 63.0985 83.9022C63.5169 83.1404 63.6297 82.2537 63.7351 81.3908L66.5127 58.6438C66.5866 58.0385 66.6622 57.4263 66.8796 56.8567C67.4738 55.2998 69.0097 54.3217 70.5206 53.6187ZM60.5932 83.0798C60.7121 83.1175 60.834 83.1671 60.9132 83.2636C60.9926 83.3599 61.0124 83.5156 60.9258 83.6054C60.8604 83.6732 60.758 83.6854 60.6642 83.6937C60.3574 83.7207 60.0505 83.7479 59.7436 83.775C59.5778 83.7897 59.4068 83.8036 59.2489 83.7515C59.091 83.6991 58.9487 83.5623 58.9441 83.3961C58.9364 83.1145 59.2838 82.9729 59.5649 82.9547C59.9114 82.9319 60.2622 82.9747 60.5932 83.0798ZM67.0561 59.5311C66.802 59.6223 66.7342 59.9431 66.7054 60.2115L65.7473 69.1342C65.6905 69.6625 66.3729 69.9998 66.8881 69.8689C67.4031 69.738 67.7964 69.3356 68.2417 69.0455C68.6871 68.7556 69.315 68.5887 69.7239 68.9281C70.1862 69.3118 70.8705 68.8855 71.2719 68.4388C71.6735 67.9921 72.1964 67.4535 72.7674 67.6399C72.0975 68.2806 71.4277 68.9214 70.7578 69.562C70.5358 69.7747 70.3399 70.199 70.6206 70.3244C71.3902 70.0515 72.086 69.5731 72.6164 68.9523C72.8617 68.9444 72.8732 69.3295 72.7364 69.5332C72.2207 70.3007 71.007 70.4716 70.6945 71.3419C69.965 73.3731 67.69 74.7222 65.5578 74.3881C65.1206 74.3196 64.9025 74.895 64.8498 75.3345C64.6399 77.0871 64.43 78.8398 64.2201 80.5924C64.1719 80.9956 64.1268 81.422 64.2929 81.7926C64.5698 82.411 65.3106 82.6449 65.9674 82.8113C67.2012 83.1239 68.4551 83.4387 69.7271 83.3939C70.999 83.3489 72.3142 82.894 73.1196 81.9086C72.8966 81.619 72.3998 81.9903 72.0748 81.8228C71.757 81.6588 71.9258 81.1131 72.267 81.0057C72.6082 80.8983 72.9684 81.0689 73.2852 81.2348C73.4842 80.8463 73.6889 80.4308 73.6479 79.9963C73.607 79.5619 73.2082 79.1323 72.783 79.2299C72.5034 79.2942 72.3895 78.8097 72.615 78.6323C72.8402 78.455 73.1639 78.5124 73.443 78.5788C73.4585 77.5302 73.474 76.4817 73.4895 75.4332C73.4926 75.2193 73.4934 74.9945 73.3919 74.8062C73.2903 74.6177 73.0498 74.4857 72.857 74.5787C72.5943 74.7052 72.3665 74.2579 72.5423 74.0251C72.7182 73.7924 73.0502 73.7623 73.3417 73.7521C73.3642 72.8209 73.3039 71.8878 73.162 70.9671C72.0646 71.5171 71.8726 72.9681 71.7618 74.1907C71.5495 76.5353 71.1225 78.8604 70.4878 81.1275C70.3455 81.6353 70.1855 82.1547 69.8532 82.5643C69.5209 82.9737 68.9734 83.2519 68.4631 83.1188C68.5775 82.7463 68.9673 82.5463 69.2527 82.2811C69.7665 81.8036 69.9574 81.0819 70.1249 80.4007C70.7039 78.0473 71.2866 75.6652 71.2794 73.2415L71.2783 73.079C71.2745 72.6175 71.2697 72.1495 71.4218 71.7161C71.5918 71.2316 72.0178 70.7934 72.5313 70.791C73.0727 70.7883 73.202 70.0372 73.1535 69.498C72.9866 67.6387 72.8198 65.7791 72.6529 63.9198C72.5996 63.3259 72.5452 62.7265 72.3649 62.1582C71.6986 60.0567 69.1308 58.786 67.0561 59.5311ZM75.226 82.2087C75.4804 82.2771 75.7274 82.5387 75.6217 82.7799C75.5207 83.0105 75.2036 83.0233 74.953 82.9995C74.8305 82.9879 74.6999 82.9732 74.6042 82.8958C74.4364 82.7601 74.4601 82.4723 74.6172 82.3244C74.7745 82.1766 75.0175 82.1527 75.226 82.2087ZM44.645 81.951C44.8124 81.9871 44.987 82.0359 45.1073 82.1579C45.2276 82.2798 45.2674 82.4971 45.1478 82.6196C45.05 82.7198 44.8924 82.7215 44.7526 82.7167C44.5514 82.7097 44.3503 82.7025 44.1492 82.6955C44.0327 82.6915 43.9082 82.6846 43.8146 82.6151C43.615 82.4665 43.7025 82.1185 43.9172 81.9921C44.1318 81.8657 44.4017 81.8982 44.645 81.951ZM29.1492 80.1263C30.275 80.65 31.5119 80.8783 32.7351 81.0915C35.2113 81.5228 37.695 81.9113 40.1846 82.2567C40.5329 82.3051 40.9188 82.3735 41.1311 82.654C40.167 82.7199 39.2034 82.5593 38.2505 82.3993C35.1089 81.8718 31.9673 81.3443 28.8257 80.8167C28.4964 80.7614 28.0713 80.5785 28.1354 80.2508C28.2114 79.8623 28.7903 79.9595 29.1492 80.1263ZM48.6975 68.9988C48.5882 69.4377 48.6092 69.8969 48.6241 70.3489C48.7174 73.1705 48.5498 76.0007 48.1246 78.7916C48.0233 79.4569 48.4207 80.1222 48.9671 80.5151C49.5135 80.9079 50.1866 81.0767 50.8474 81.2041C52.3372 81.491 53.8596 81.6087 55.3758 81.554C55.9522 81.5332 56.5527 81.4801 57.0458 81.1806C57.5127 80.8969 57.8292 80.4247 58.1079 79.955C59.2902 77.9614 60.0655 75.7276 60.3724 73.4303C56.1196 73.411 51.8921 71.8065 48.6975 68.9988ZM59.8207 80.186C60.1111 80.2819 60.4015 80.3777 60.6918 80.4735C60.7887 80.5054 60.8924 80.5425 60.9498 80.6267C61.047 80.7691 60.9527 80.9774 60.8025 81.0619C60.6524 81.1463 60.47 81.1419 60.2978 81.135C59.9844 81.1225 59.6382 81.0961 59.4193 80.8713C59.2006 80.6465 59.2756 80.1615 59.5886 80.1412C59.6678 80.1359 59.7454 80.1612 59.8207 80.186ZM75.0414 80.2281C75.214 80.2556 75.3962 80.2875 75.5294 80.4009C75.6625 80.5143 75.717 80.739 75.5945 80.8638C75.545 80.914 75.4764 80.9398 75.4098 80.963C75.1529 81.0524 74.8674 81.1239 74.6132 81.0265C74.3591 80.9291 74.1857 80.5931 74.3455 80.3727C74.4924 80.1702 74.7943 80.1886 75.0414 80.2281ZM29.8975 70.8343C29.7186 70.9191 29.5271 71.0159 29.4388 71.1931C29.3729 71.3252 29.3762 71.4798 29.3812 71.6273C29.4481 73.6375 29.5324 75.7198 30.4314 77.5191C30.6743 78.0051 30.9831 78.4726 31.4204 78.795C31.6852 78.9902 31.9884 79.1257 32.289 79.2595C32.8106 79.4918 33.3335 79.7241 33.8751 79.9054C35.1156 80.3209 36.4286 80.4617 37.7295 80.5998C38.2812 80.6585 38.8687 80.711 39.3636 80.4603C39.9462 80.1652 40.2566 79.5257 40.5071 78.9227C41.9044 75.5595 42.7022 71.9484 42.8516 68.3095C42.8729 67.7926 42.211 67.5643 41.6946 67.5295C37.5727 67.2529 33.6306 69.0649 29.8975 70.8343ZM43.4918 68.1638C43.386 68.3028 43.3729 68.4889 43.3623 68.6633C43.1158 72.7785 42.0916 76.8455 40.3598 80.5867C42.0097 79.7516 43.239 78.1302 43.5975 76.3161C43.7207 75.6924 43.7458 75.0542 43.7708 74.4188C43.8492 72.4158 43.9276 70.4126 44.006 68.4095C44.0102 68.3039 44.011 68.1878 43.9438 68.1062C43.8327 67.9713 43.5975 68.0246 43.4918 68.1638ZM44.1751 78.1867C44.3844 78.198 44.5812 78.2851 44.7847 78.3356C44.967 78.3809 45.022 78.6404 44.9202 78.7983C44.8185 78.9561 44.6223 79.0247 44.4364 79.0508C44.2422 79.0782 44.0335 79.0678 43.8665 78.9651C43.6996 78.8623 43.5913 78.6478 43.6578 78.4635C43.7292 78.2663 43.9657 78.1753 44.1751 78.1867ZM75.1614 77.6427C75.3572 77.6831 75.525 77.8044 75.6861 77.9227C75.7737 77.9868 75.8666 78.0588 75.8953 78.1635C75.9319 78.2971 75.8438 78.4409 75.7223 78.5075C75.6009 78.574 75.4553 78.5788 75.3174 78.5678C75.1212 78.5521 74.9185 78.5035 74.7705 78.3739C74.6225 78.2441 74.5473 78.0166 74.6394 77.8427C74.7332 77.6662 74.9657 77.6022 75.1614 77.6427ZM28.593 71.4196C28.5394 71.5151 28.5502 71.6321 28.5626 71.7409L28.8534 74.3017C29.0113 75.6915 29.218 77.1891 30.1894 78.1953C30.3513 78.1187 30.2599 77.8751 30.1578 77.7278C29.371 76.5923 29.2194 75.1486 29.0918 73.7731C29.017 72.9668 28.9422 72.1606 28.8674 71.3542C28.7922 71.2748 28.6465 71.3243 28.593 71.4196ZM80.3892 76.6654C83.0578 76.7313 85.7265 76.7971 88.3951 76.863C88.8034 76.8731 89.2132 76.8833 89.6172 76.9439C89.5329 77.2358 89.1494 77.2907 88.8455 77.2878C86.1694 77.2625 83.4844 77.0969 80.8226 77.3751C80.5951 77.399 80.3493 77.4223 80.1519 77.3068C79.9545 77.1911 79.866 76.8742 80.0476 76.735C80.1417 76.6627 80.2706 76.6625 80.3892 76.6654ZM73.057 76.1411C73.1159 76.1603 73.1759 76.1807 73.2239 76.2196C73.3834 76.3495 73.3241 76.627 73.1609 76.7523C72.9977 76.8774 72.7778 76.8919 72.5722 76.8969C72.3582 76.9022 72.1086 76.8854 71.9866 76.7094C71.8335 76.4884 72.0154 76.1615 72.2689 76.0719C72.5223 75.9823 72.8017 76.0574 73.057 76.1411ZM75.0082 75.6017C75.257 75.6286 75.4993 75.7159 75.7081 75.8539C75.8678 75.9593 75.8359 76.2243 75.6906 76.3487C75.5455 76.4732 75.3382 76.4907 75.147 76.4838C74.9537 76.4767 74.7519 76.4475 74.5954 76.3335C74.4391 76.2198 74.346 75.9998 74.4298 75.8254C74.5254 75.6265 74.7887 75.578 75.0082 75.6017ZM48.1246 69.5116C47.9793 71.6062 47.9142 73.7062 47.9294 75.8057C47.93 75.8943 47.9905 76.0204 48.0662 75.9743C48.227 74.2095 48.3058 72.4374 48.3025 70.6654C48.3017 70.2727 48.2938 69.8659 48.1246 69.5116ZM45.2718 74.8847C45.5007 74.902 45.7028 75.0351 45.8894 75.1689C45.9468 75.21 46.006 75.254 46.038 75.3171C46.1046 75.4475 46.0249 75.6155 45.8998 75.6918C45.7748 75.7681 45.6201 75.774 45.4738 75.7673C45.141 75.7516 44.7226 75.5707 44.7599 75.2396C44.7855 75.0113 45.0428 74.8675 45.2718 74.8847ZM75.5626 73.4739C75.7855 73.5654 76.0148 73.8043 75.8996 74.0158C75.8217 74.159 75.6318 74.19 75.4687 74.1916C75.2794 74.1935 75.09 74.178 74.9034 74.1455C74.641 74.0998 74.6009 73.6871 74.8046 73.5155C75.0082 73.3439 75.3162 73.3727 75.5626 73.4739ZM101.531 69.3756C101.623 69.5294 101.624 69.7187 101.623 69.8977C101.615 71.1651 101.607 72.4326 101.6 73.6999C101.599 73.8539 101.578 74.0404 101.438 74.1051C101.318 74.1609 101.169 74.0825 101.102 73.9676C101.034 73.8527 101.028 73.7135 101.026 73.5804C101.007 72.4489 101.133 71.2905 100.812 70.2051C100.717 69.8825 100.603 69.4798 100.852 69.2539C101.047 69.0772 101.396 69.15 101.531 69.3756ZM68.9458 69.2287C67.985 69.8249 66.9746 70.4379 65.8468 70.5191C65.6417 70.5339 65.5494 70.779 65.5087 70.9806C65.3266 71.8879 65.2262 72.8116 65.2089 73.7367C65.2079 73.7934 65.2084 73.8542 65.241 73.9003C65.293 73.9737 65.3991 73.9767 65.4889 73.9721C66.3687 73.926 67.2604 73.8342 68.0775 73.5047C68.8946 73.1755 69.638 72.5787 69.971 71.7631C70.3037 70.9475 70.1438 69.9073 69.4638 69.3471C69.3175 69.2267 69.1068 69.1289 68.9458 69.2287ZM61.5908 72.7964C61.8994 72.8774 62.2081 72.9585 62.5167 73.0396C62.6321 73.0699 62.7604 73.11 62.8156 73.2158C62.8806 73.3403 62.8049 73.5009 62.6874 73.5779C62.5698 73.6548 62.4236 73.6694 62.2836 73.6819C62.0618 73.7015 61.8334 73.7206 61.6204 73.6551C61.4076 73.5895 61.2114 73.4179 61.1871 73.1964C61.1628 72.975 61.3754 72.7398 61.5908 72.7964ZM18.7724 55.9067C19.9276 56.3745 20.7972 57.3867 21.3366 58.5103C21.8758 59.634 22.1214 60.8729 22.3354 62.1007C22.6897 64.1331 22.9718 66.2075 22.7135 68.254C22.4551 70.3007 21.5996 72.3415 20.0135 73.6606C21.1689 73.7223 22.5484 73.6766 23.1756 72.7044C23.457 72.2681 24.063 72.075 24.5449 72.2679C24.2418 72.0059 24.4706 71.518 24.6956 71.1867C25.617 69.8283 26.2494 68.2671 26.4753 66.6414C26.9135 63.4891 25.8119 60.2942 24.1775 57.5631C23.117 55.7913 20.6436 55.0332 18.7724 55.9067ZM46.1639 72.2366C46.4023 72.3303 46.3468 72.7243 46.1241 72.8508C45.9012 72.9774 45.6234 72.9204 45.3753 72.8574C45.2594 72.8279 45.1366 72.7934 45.058 72.7035C44.8743 72.4934 45.085 72.1383 45.3569 72.0756C45.6286 72.0131 45.9044 72.1343 46.1639 72.2366ZM54.7342 57.067C53.7142 57.0851 52.6434 57.2094 51.8108 57.7988C51.5354 57.9937 51.2854 58.2489 51.1847 58.571C51.0842 58.8929 51.1689 59.2886 51.4482 59.4777C52.1543 59.9559 52.442 60.8505 52.5743 61.6929C52.7066 62.5351 52.7385 63.4172 53.1223 64.1787C53.3202 64.5713 53.6041 64.9139 53.9018 65.2375C55.5158 66.9924 57.621 68.2907 59.9137 68.9449C60.3167 69.0599 60.8295 69.3089 60.7444 69.7193C57.446 69.0275 54.438 67.0371 52.5121 64.2713C51.9268 66.0687 50.7724 67.6763 49.2561 68.8049C52.2138 71.322 56.0415 72.7967 59.9236 72.9148C60.0994 72.9203 60.2983 72.9135 60.417 72.7836C60.4948 72.6985 60.5191 72.579 60.5402 72.4655C61.0897 69.5108 61.4769 66.5259 61.6996 63.5287C61.7758 62.5033 61.8316 61.4611 61.6098 60.4571C61.3882 59.4531 60.8535 58.4771 59.9793 57.9359C59.4406 57.6025 58.8098 57.4529 58.1861 57.3417C57.0481 57.1387 55.8902 57.0465 54.7342 57.067ZM75.0014 71.447C75.2687 71.4473 75.6062 71.5254 75.6532 71.7886C75.6999 72.051 75.401 72.2465 75.1366 72.2803C74.9431 72.3049 74.733 72.2815 74.5796 72.1612C74.4262 72.0409 74.3548 71.8052 74.4613 71.6419C74.5706 71.4745 74.8015 71.4468 75.0014 71.447ZM94.7622 66.178C94.2713 68.0795 93.9847 70.027 93.6991 71.97C93.6849 72.0667 93.6767 72.1811 93.7497 72.246C94.5148 71.2953 95.2167 70.2939 95.8493 69.2502C95.9118 69.1473 95.973 69.0126 95.9031 68.9147C95.7446 68.6931 95.586 68.4713 95.4276 68.2497C95.31 68.0854 95.1887 67.8686 95.2922 67.695C95.3762 67.5537 95.5646 67.5239 95.7282 67.5087L97.0726 67.3851C97.058 67.3017 97.0073 67.23 96.958 67.1614C96.5982 66.6604 96.2055 66.1337 95.6292 65.914C95.3097 65.7923 94.8476 65.847 94.7622 66.178ZM32.501 46.5065C31.5183 46.6715 30.4538 46.9556 29.8836 47.7727C29.5644 48.2302 29.447 48.795 29.3532 49.3447C28.9844 51.5071 28.8692 53.7127 29.0108 55.9019C33.2473 53.9308 38.2042 53.5564 42.6887 54.8687C43.069 54.9801 43.5398 55.3174 43.3401 55.6596C39.9761 54.4155 36.229 54.2299 32.7586 55.1356C31.6356 55.4287 30.5442 55.8318 29.4278 56.1484C27.7682 56.619 26.0545 56.8971 24.3314 56.9756C27.4695 61.2363 27.8756 67.3371 25.3298 71.9761C26.9138 71.6764 28.402 71.0108 29.8625 70.3284C32.0428 69.3094 34.2138 68.2348 36.53 67.5807C38.8463 66.9267 41.3505 66.7127 43.6479 67.4299C43.9167 67.5137 44.0647 67.1259 44.0754 66.8446L44.5734 53.8011C44.6489 51.8251 44.6551 49.6403 43.3615 48.1447C42.2169 46.8214 40.3502 46.4075 38.6068 46.2587C36.5719 46.0849 34.5151 46.1684 32.501 46.5065ZM62.853 70.7159C62.9174 70.7579 62.9838 70.8108 62.9988 70.8862C63.0292 71.039 62.8433 71.1363 62.6934 71.1788C62.4756 71.2406 62.2511 71.3025 62.026 71.2788C61.8007 71.2551 61.5718 71.1257 61.4977 70.9118C61.4238 70.6979 61.5724 70.4171 61.7988 70.4129C62.1698 70.406 62.5423 70.5131 62.853 70.7159ZM94.8082 62.5083C93.9887 62.9678 93.0097 63.1356 92.0839 62.9755C92.2023 63.3057 92.7215 63.4207 92.7241 63.7716C92.7257 63.9852 92.5244 64.1356 92.41 64.3159C92.322 64.4548 92.2839 64.6187 92.2487 64.7791C91.919 66.2895 91.7295 67.8305 91.6839 69.3758C91.6761 69.642 91.7423 69.9937 92.0071 70.0227C92.5556 70.0828 93.0721 70.3903 93.3863 70.8439C93.6438 69.2236 93.9012 67.6035 94.1588 65.9833C94.2185 65.6073 94.2687 65.1875 94.0484 64.8771C93.7454 64.4499 94.0092 63.8647 94.2749 63.4135L94.8082 62.5083ZM46.0134 69.5111C46.2932 69.567 46.6114 69.8086 46.5054 70.0734C46.4401 70.2366 46.243 70.3025 46.0674 70.3118C45.8919 70.3212 45.7094 70.2951 45.545 70.3575C45.3516 70.4308 45.1239 70.2595 45.1004 70.054C45.0767 69.8486 45.2196 69.6491 45.4057 69.5588C45.5918 69.4686 45.8106 69.4707 46.0134 69.5111ZM74.998 69.2609C75.1743 69.2854 75.3602 69.3241 75.4886 69.4475C75.6169 69.571 75.6522 69.8057 75.5156 69.9199C75.4705 69.9575 75.4135 69.9775 75.3578 69.9966C75.1156 70.0793 74.8564 70.1603 74.6079 70.0988C74.3594 70.0375 74.1434 69.7737 74.2294 69.5326C74.3284 69.2545 74.7055 69.2206 74.998 69.2609ZM91.0497 65.9302C90.863 65.9751 90.7268 66.131 90.6036 66.2785L89.8622 67.1665C89.7172 67.3399 89.9722 67.5819 90.1975 67.6007C90.4228 67.6196 90.686 67.5667 90.8463 67.726C91.0143 67.8931 90.945 68.1843 90.8074 68.3771C90.67 68.5699 90.475 68.7275 90.3918 68.9492C90.2674 69.2807 90.4732 69.6963 90.8122 69.7985C90.9964 69.8539 91.2548 69.7686 91.2564 69.5763C91.2658 68.4521 91.3316 67.3284 91.4532 66.2108C91.474 66.0199 91.2364 65.8852 91.0497 65.9302ZM53.4233 66.4884C53.5654 66.5828 53.6572 66.7339 53.7519 66.8758C54.5655 68.0939 55.9262 68.9311 57.3802 69.1081C57.7166 69.1491 58.1133 69.19 58.282 69.4838C57.9652 69.7975 57.4489 69.7593 57.0146 69.6583C55.4751 69.3001 54.0644 68.4108 53.0777 67.1761C52.9202 66.9791 52.7766 66.6796 52.9521 66.4987C53.0708 66.3763 53.2812 66.394 53.4233 66.4884ZM90.25 61.1057C89.1628 61.3727 88.0772 61.7499 87.1961 62.4404C86.3149 63.131 85.6596 64.1803 85.6665 65.2998C85.6753 66.7195 84.9777 68.1265 83.8423 68.979L85.7538 69.2039C85.9777 69.2302 86.2285 69.2492 86.4037 69.1076C86.6601 68.9003 86.5946 68.5023 86.5298 68.1791C86.465 67.8559 86.4794 67.4287 86.7868 67.3099C87.1687 67.1622 87.4847 67.6919 87.4268 68.0972C87.369 68.5025 87.1338 68.8926 87.2074 69.2953C88.1127 69.4238 89.0209 69.5319 89.931 69.6199C89.7498 69.4713 89.7302 69.1895 89.8218 68.974C89.9134 68.7583 90.0913 68.5934 90.2641 68.4353C90.4482 68.267 90.1828 67.9702 89.9346 67.9435C89.6866 67.9169 89.3946 67.9764 89.2198 67.7985C89.0023 67.5772 89.1655 67.2062 89.351 66.9574C89.7111 66.4747 90.1573 65.8929 89.9257 65.3371C89.3604 63.9817 89.4849 62.359 90.25 61.1057ZM48.5569 57.4023C48.4054 61.1126 48.4262 64.8299 48.6191 68.5383C50.0364 67.7692 51.0719 66.4161 51.7142 64.9369C52.106 64.0345 52.3682 63.0399 52.2116 62.0687C52.0948 61.3444 51.7519 60.6753 51.3532 60.0596C50.646 58.9671 49.7226 57.9809 48.5569 57.4023ZM81.4213 55.6247C81.9303 55.531 82.3194 56.1593 82.2327 56.6695C82.146 57.1798 81.775 57.5854 81.4802 58.0108C81.073 58.5987 80.7946 59.2643 80.5191 59.9241C79.8636 61.4942 79.6084 63.2295 79.7842 64.9219C79.8877 65.9182 80.1609 66.9417 80.8346 67.683C81.5082 68.4243 82.6631 68.795 83.5508 68.331C84.3133 67.9324 84.6937 67.0539 84.8686 66.2115C85.0434 65.3691 85.0745 64.4873 85.4049 63.6929C86.0143 62.2273 87.5172 61.342 89.0039 60.7862C86.769 60.4825 84.7469 58.9254 83.8825 56.8422C83.6346 56.2447 83.4486 55.5711 82.9343 55.179C82.4199 54.7867 81.4516 54.9787 81.4213 55.6247ZM62.5303 67.5769C62.6874 67.607 62.8417 67.6527 62.9898 67.7131C63.2345 67.8126 63.4974 68.0878 63.3399 68.2998C63.254 68.4158 63.0889 68.4297 62.9447 68.4334C62.6817 68.4401 62.398 68.4409 62.1831 68.2891C61.9684 68.1371 61.894 67.7697 62.1106 67.6203C62.2297 67.5383 62.3884 67.5497 62.5303 67.5769ZM74.3786 66.9505C74.5914 66.9686 74.8033 66.9982 75.013 67.039C75.1167 67.0591 75.2286 67.0873 75.2937 67.1705C75.3926 67.2966 75.3303 67.4942 75.2054 67.5943C75.0804 67.6945 74.9142 67.7227 74.7559 67.7475C74.5142 67.7852 74.2562 67.8212 74.0334 67.7204C73.8103 67.6198 73.658 67.3251 73.7943 67.1219C73.9132 66.9446 74.166 66.9326 74.3786 66.9505ZM13.5518 65.806C13.3715 65.8041 13.3092 66.0447 13.3147 66.2249C13.3304 66.7425 13.4352 67.2574 13.6231 67.7401C13.6753 67.7934 13.7361 67.682 13.7288 67.6078L13.5518 65.806ZM48.1823 67.139C48.0698 67.1999 48.027 67.3615 48.0945 67.4702L48.0972 67.4742L48.0948 67.4769C48.0918 67.4804 48.0886 67.4847 48.085 67.4899C48.0398 67.5583 48.1033 67.667 48.1852 67.6612C48.2406 67.4929 48.2394 67.3067 48.1823 67.139ZM45.8399 66.4062C46.0838 66.4603 46.3484 66.6625 46.2878 66.9049C46.2476 67.0654 46.0786 67.1596 45.917 67.1955C45.7556 67.2313 45.5849 67.2289 45.4305 67.2889C45.2343 67.3651 44.998 67.2068 44.9577 67.0003C44.9172 66.7937 45.0438 66.5782 45.2263 66.4734C45.409 66.3686 45.6343 66.3607 45.8399 66.4062ZM47.2511 32.2303C47.2654 43.3995 47.522 54.5684 48.0207 65.7265L48.0732 66.8801L48.081 66.5091C48.0954 65.6417 48.0828 64.7742 48.07 63.9068C47.9212 53.7399 47.7722 43.5732 47.6234 33.4063C47.6172 32.9807 47.5836 32.4963 47.2511 32.2303ZM63.2266 64.7729C63.3634 64.8139 63.5007 64.8761 63.5894 64.9879C63.6782 65.0998 63.7036 65.2718 63.6157 65.3844C63.5308 65.4934 63.3769 65.514 63.2391 65.5263L62.6514 65.5785C62.5554 65.587 62.4522 65.594 62.3687 65.5459C62.3012 65.5068 62.2566 65.4356 62.2361 65.3606C62.1743 65.1342 62.3274 64.8886 62.5391 64.7878C62.7508 64.687 63.0018 64.7057 63.2266 64.7729ZM15.8929 56.0299C15.2819 56.6302 14.9642 57.4599 14.6706 58.2646C13.8524 60.5067 13.075 62.8865 13.4786 65.2388C13.6035 65.2617 13.6629 65.0919 13.6722 64.9654C13.8382 62.6959 14.2916 60.4478 15.0184 58.2916C15.2957 57.4689 15.6292 56.6334 16.2452 56.0215C16.2367 55.8724 15.9993 55.9252 15.8929 56.0299ZM91.0017 60.9347C90.8951 60.9607 90.8262 61.0614 90.7705 61.1558C90.2447 62.0479 89.9972 63.1014 90.0706 64.1343C90.1009 64.5607 90.2382 65.0519 90.6364 65.2075C90.9602 64.8966 91.2841 64.5857 91.6079 64.2748C91.6593 64.2254 91.7119 64.1743 91.7404 64.1089C91.8114 63.9454 91.7098 63.7628 91.6166 63.6108C91.1551 62.8599 90.8084 61.9083 91.1929 61.115C91.2407 61.0163 91.1082 60.9084 91.0017 60.9347ZM97.7303 59.9721C97.6786 59.999 97.6386 60.0436 97.6001 60.0873C96.6442 61.1684 95.721 62.2783 94.8321 63.4153C94.6465 63.6527 94.4529 63.9204 94.4711 64.2212C94.4873 64.4887 94.6754 64.7217 94.9034 64.8623C95.1314 65.003 95.397 65.0671 95.6577 65.1292C95.7274 65.1459 95.8031 65.162 95.8687 65.1329C95.929 65.1062 95.9673 65.047 96.0022 64.991C96.5463 64.1135 97.0982 63.2188 97.3551 62.2188C97.41 62.0055 97.5948 61.8567 97.7426 61.6934C98.0329 61.3727 98.2029 60.9459 98.2127 60.5134C98.2161 60.367 98.1988 60.2124 98.1142 60.0931C98.0294 59.9735 97.8601 59.9043 97.7303 59.9721ZM74.4494 64.2516C74.581 64.2843 74.7263 64.3342 74.7854 64.4564C74.8895 64.6716 74.6452 64.8961 74.4167 64.9668C74.2396 65.0215 74.0422 65.0406 73.8724 64.9663C73.7025 64.8921 73.5735 64.7047 73.6121 64.5235C73.6806 64.2015 74.1298 64.1724 74.4494 64.2516ZM46.0578 63.7815C46.1201 63.8372 46.1777 63.9028 46.2012 63.9828C46.2487 64.1439 46.1362 64.3217 45.9818 64.3879C45.8274 64.4542 45.6473 64.4286 45.4918 64.3651C45.3279 64.2983 45.1684 64.1707 45.1476 63.995C45.1238 63.7942 45.3057 63.6092 45.506 63.5803C45.7062 63.5511 45.9073 63.6465 46.0578 63.7815ZM63.774 62.0155C63.9338 62.0806 63.9505 62.3222 63.8402 62.455C63.7302 62.5876 63.5463 62.6318 63.3745 62.6463C63.2026 62.6607 63.0247 62.6545 62.8642 62.7174C62.6174 62.814 62.349 62.5158 62.4078 62.2574C62.4665 61.999 62.7441 61.8383 63.0087 61.826C63.2735 61.8137 63.5287 61.9155 63.774 62.0155ZM74.1754 61.6268C74.402 61.6379 74.626 61.6974 74.8281 61.8001C74.9158 61.8446 75.0065 61.9062 75.0314 62.0014C75.0828 62.1974 74.837 62.3319 74.638 62.37C74.4617 62.4039 74.2826 62.4241 74.1033 62.4303C73.8817 62.438 73.6145 62.3953 73.5263 62.1919C73.4577 62.034 73.5412 61.8404 73.6815 61.7406C73.8218 61.6407 74.0036 61.6183 74.1754 61.6268ZM88.7769 47.1614C87.4554 47.3747 86.1282 47.5513 84.7972 47.6913C83.8329 47.7926 82.9247 48.3396 82.3844 49.1446C82.2734 49.31 82.1969 49.5739 82.3684 49.6753C82.8535 49.1156 83.5121 48.7083 84.2297 48.5243C84.4862 48.4585 84.7668 48.4227 85.0087 48.5303C85.2505 48.6382 85.4233 48.9348 85.314 49.1758C85.1458 49.546 84.6098 49.4425 84.2041 49.4177C83.0756 49.3489 82.0996 50.6404 82.474 51.7073C82.7367 50.6889 84.1906 50.2468 85.0055 50.9116C85.8206 51.5764 85.7209 53.0366 84.8494 53.6252C84.5614 53.8196 84.1914 53.9553 84.0599 54.2771C83.9473 54.5529 84.0558 54.8644 84.1639 55.142C84.3335 55.5779 84.5033 56.0137 84.6729 56.4494C85.0285 57.3631 85.4065 58.3102 86.1266 58.9756C86.6802 59.4875 87.3983 59.7919 88.1308 59.9703C90.7718 60.614 93.7449 59.5897 95.4289 57.4558C95.5639 57.2847 95.8718 57.447 95.8959 57.6635C95.9199 57.8799 95.7719 58.0747 95.6255 58.2359C94.8714 59.0659 93.921 59.7163 92.8745 60.1183C92.3796 60.3086 91.7916 60.5142 91.6396 61.0219C91.5137 61.4423 91.7786 61.907 92.1591 62.1257C92.5396 62.3446 93.0034 62.3631 93.4398 62.3153C94.3098 62.2203 95.1519 61.8796 95.8434 61.343C96.053 61.1804 96.2561 60.9903 96.3492 60.7419C96.4374 60.5065 96.4174 60.2463 96.3959 59.9959L96.3773 59.7807C96.2958 58.8473 96.19 57.9028 95.8095 57.0492C95.6263 56.6385 95.3815 56.2537 95.2466 55.8247C95.0804 55.2958 95.0905 54.7284 94.9788 54.1852C94.867 53.6422 94.5842 53.0782 94.0671 52.8779C94.2036 52.531 94.5444 52.3126 94.765 52.0119C94.9857 51.7113 95.0182 51.1862 94.6708 51.0503C94.5047 50.9854 94.3156 51.0414 94.1573 51.1236C93.4902 51.47 93.1303 52.3179 93.3444 53.0383C93.4842 53.5086 92.7414 53.8241 92.3414 53.5399C91.9414 53.2559 91.8428 52.7151 91.7639 52.231C91.4582 50.354 90.8446 48.3307 89.2417 47.3076C89.1015 47.2182 88.941 47.135 88.7769 47.1614ZM45.9178 60.475C46.1286 60.5433 46.3386 60.7327 46.2948 60.9499C46.2534 61.1551 46.017 61.2513 45.8106 61.2867C45.5178 61.3367 45.1359 61.2793 45.0535 60.9939C44.9753 60.7222 45.2596 60.4619 45.5407 60.4321C45.6674 60.4187 45.7966 60.4356 45.9178 60.475ZM79.7158 56.5657C79.5193 56.7519 79.4236 57.0177 79.3343 57.2732C79.1329 57.8499 78.9287 58.4431 78.9519 59.0534C78.9669 59.4463 78.739 59.8001 78.5762 60.158C78.4137 60.5159 78.3254 60.9743 78.5804 61.2735C79.1895 60.7614 79.3358 59.8991 79.4697 59.1147C79.6298 58.1767 79.8476 57.2046 80.4542 56.4715C80.2418 56.3036 79.9122 56.3795 79.7158 56.5657ZM63.6647 59.1795C63.8215 59.2299 63.999 59.3307 64.0009 59.4955C64.0033 59.6958 63.7567 59.7878 63.5596 59.8239C63.4609 59.842 63.3622 59.8601 63.2633 59.8782C63.0116 59.9241 62.7418 59.9684 62.5078 59.8647C62.2738 59.7611 62.118 59.4452 62.2708 59.2399C62.3695 59.1071 62.5513 59.071 62.7164 59.0607C63.0362 59.0409 63.3598 59.0814 63.6647 59.1795ZM40.7738 56.2865C41.0492 56.4183 41.3574 56.6779 41.2553 56.9657C38.4177 56.347 35.3862 56.6529 32.7294 57.8262C31.5338 58.354 30.4118 59.0521 29.1745 59.4729C28.7513 59.6169 28.2892 59.7275 27.8615 59.5969C27.4338 59.4663 27.0774 59.0126 27.2023 58.5833C27.3198 58.1804 27.7684 57.9889 28.166 57.8543C30.1252 57.191 32.1186 56.6286 34.1356 56.1697C36.3362 55.6692 38.7378 55.3127 40.7738 56.2865ZM81.5186 56.2526C81.3159 56.2518 81.1455 56.4004 81.0124 56.5531C80.6892 56.9233 80.4594 57.3675 80.2886 57.8283C80.0762 58.4007 79.9508 59.0054 79.9175 59.615C80.5044 58.6057 81.1316 57.6199 81.7975 56.6609C81.9132 56.4945 81.7212 56.2534 81.5186 56.2526ZM77.9231 58.0507C77.8676 58.051 77.8089 58.0531 77.7618 58.0828C77.6562 58.1499 77.671 58.3063 77.7023 58.4275C77.8017 58.8116 77.9393 59.1859 78.1124 59.543C78.2164 59.0398 78.3833 58.5497 78.6079 58.0876C78.3807 58.0617 78.1518 58.0494 77.9231 58.0507ZM33.4578 56.7537C31.7782 57.2699 30.0985 57.7862 28.419 58.3023C28.2183 58.3639 27.9855 58.4591 27.9426 58.6647C28.0793 58.8639 28.3394 58.9486 28.5807 58.9369C28.822 58.9252 29.051 58.8326 29.2746 58.7412C30.9786 58.0449 32.6826 57.3487 34.3866 56.6524C34.0823 56.5675 33.7599 56.6609 33.4578 56.7537ZM51.1823 57.6959C51.0921 57.8524 50.9044 57.9188 50.7636 58.0319C50.623 58.1452 50.5404 58.3891 50.6889 58.4918C50.9164 58.2639 51.1439 58.0361 51.3714 57.8084C51.3244 57.7502 51.2561 57.7094 51.1823 57.6959ZM68.9042 57.5747C70.125 57.7019 71.357 57.7668 72.5801 57.6614C72.8964 57.6342 73.2748 57.6214 73.4626 57.8775C73.2257 58.119 72.853 58.1481 72.515 58.1625C71.2455 58.2169 69.9762 58.2713 68.7068 58.3257C68.4591 58.3363 68.1455 58.3047 68.0652 58.0703C68.0018 57.8857 68.1457 57.682 68.3262 57.6079C68.5066 57.5339 68.7102 57.5545 68.9042 57.5747ZM87.7796 56.2407C88.075 56.6001 88.1828 57.1055 88.0598 57.5542C88.0295 57.6649 87.9852 57.7735 87.9143 57.8639C87.7287 58.1009 87.3858 58.171 87.0929 58.1009C86.8001 58.0307 86.5492 57.8443 86.3257 57.6423C86.0953 57.4343 85.8791 57.1972 85.7686 56.9071C85.658 56.6172 85.671 56.2643 85.8671 56.0238C86.0287 55.8255 86.29 55.7303 86.545 55.7118C87.009 55.6777 87.4841 55.8814 87.7796 56.2407ZM46.6222 57.0761C46.7388 57.1703 46.7193 57.3662 46.6196 57.4782C46.5201 57.5903 46.3682 57.6382 46.2226 57.6745C46.0508 57.7174 45.8702 57.7508 45.6978 57.7099C45.5255 57.6689 45.3641 57.5353 45.3428 57.3595C45.3121 57.1044 45.5791 56.9049 45.8329 56.8647C46.1098 56.8211 46.4039 56.8998 46.6222 57.0761ZM86.4277 56.3254C86.2985 56.4927 86.3834 56.795 86.593 56.8236C86.8353 56.8567 87.0238 57.1111 86.9847 57.3524C86.954 57.5419 87.185 57.7001 87.3684 57.6433C87.5516 57.5863 87.6577 57.3809 87.6535 57.1891C87.6495 56.9972 87.558 56.8183 87.4541 56.6571C87.3398 56.4791 87.1998 56.3063 87.0066 56.2196C86.8137 56.1331 86.5572 56.1579 86.4277 56.3254ZM85.783 39.126C84.0228 39.4484 82.2791 40.2172 81.1439 41.6004C80.0087 42.9835 79.6161 45.0535 80.5036 46.6073C80.8172 47.1564 81.2961 47.6353 81.8982 47.8286C82.5002 48.0219 83.2284 47.8796 83.63 47.3911C84.0857 46.8372 85.0057 47.3686 85.6913 47.1583C86.6399 46.8675 87.6258 46.6987 88.6172 46.6574C88.8522 46.6476 89.0946 46.6462 89.314 46.7313C89.5521 46.8236 89.7402 47.0087 89.9212 47.1889C90.5486 47.814 91.1889 48.4574 91.5604 49.2614C92.1495 50.5366 92.0037 52.0913 92.7479 53.2827C92.8348 52.5356 92.9218 51.7886 93.0087 51.0415C93.041 50.7643 93.077 50.4764 93.2268 50.2411C93.3767 50.0055 93.6762 49.8404 93.9385 49.9356C94.4012 50.1038 94.8829 50.2843 95.215 50.6476C95.5471 51.011 95.67 51.6167 95.3508 51.9915C95.0423 52.3535 95.3922 52.8769 95.5561 53.3236C95.8399 54.0974 95.5062 54.9815 95.7292 55.775C95.914 56.4321 96.4481 56.9228 96.9582 57.3766C97.1073 57.5094 97.2812 57.6508 97.4801 57.6326C97.6465 57.6175 97.7802 57.4934 97.894 57.3708C98.5719 56.6401 99.0362 55.7135 99.2158 54.7331C99.2882 54.3375 99.1506 53.7612 98.7521 53.8151C98.861 52.866 99.7335 52.2195 100.246 51.4131C100.799 50.5435 100.929 49.474 100.954 48.4439C100.98 47.4087 100.879 46.2836 100.189 45.5113C99.3599 44.5835 97.7494 44.514 96.8438 45.3673C96.618 45.5799 96.3205 45.8611 96.0513 45.7071C96.2623 45.3286 96.4734 44.9499 96.6844 44.5713C97.0284 43.9542 97.3796 43.3148 97.4495 42.6119C97.5876 41.2249 96.5318 39.9118 95.226 39.4239C93.9204 38.9363 92.4463 39.1385 91.1366 39.6155C90.8084 39.7351 90.4205 39.9919 90.5095 40.3297C90.5612 40.5254 90.7593 40.6435 90.8609 40.8183C90.9242 40.9275 90.918 40.9623 90.8463 41.0505C90.803 41.1039 90.725 41.2582 90.655 41.2281C89.9126 40.3681 89.1094 39.4678 88.0209 39.1427C87.2993 38.927 86.5238 38.9903 85.783 39.126ZM77.3498 56.8615C77.257 56.8067 77.0794 56.7705 77.0967 56.8769C77.1469 57.1374 77.3815 57.3311 77.6345 57.4108C77.8876 57.4905 78.1591 57.4771 78.4241 57.4628C78.5276 57.4572 78.6382 57.4492 78.7206 57.3862C78.7897 57.3334 78.8276 57.2505 78.8628 57.171C78.9231 57.0347 78.9834 56.8983 79.0438 56.7622C78.5514 56.4417 77.8553 57.1611 77.3498 56.8615ZM63.1337 55.9718C63.3407 55.9873 63.5462 56.0235 63.7462 56.0795C63.9194 56.1281 64.1185 56.2295 64.1271 56.4092C64.1383 56.6457 63.8306 56.7423 63.5946 56.7628C63.3545 56.7835 63.1143 56.8043 62.8742 56.8251C62.6993 56.8401 62.5014 56.8479 62.3727 56.7283C62.1999 56.5678 62.2697 56.2563 62.4567 56.1127C62.6438 55.9691 62.8985 55.9542 63.1337 55.9718ZM68.7497 55.9204C69.8982 56.0742 71.0623 56.1111 72.2183 56.0308C72.354 56.0214 72.5017 56.0135 72.6134 56.091C72.725 56.1686 72.7527 56.3684 72.631 56.4286C72.594 56.4468 72.5513 56.4487 72.5102 56.4503C71.1126 56.503 69.7151 56.5558 68.3175 56.6086C68.1902 56.6134 68.0498 56.614 67.9518 56.5324C67.7764 56.3863 67.877 56.074 68.0783 55.966C68.2794 55.8582 68.5234 55.8902 68.7497 55.9204ZM79.9012 54.782C79.4551 54.8062 79.001 54.8475 78.589 55.0206C78.177 55.1935 77.8074 55.5191 77.6844 55.9487C77.6594 56.0359 77.6502 56.1431 77.717 56.2044C77.7692 56.2521 77.8476 56.2527 77.9182 56.25C78.6593 56.2209 79.3974 56.1105 80.1146 55.9215C80.4711 55.8276 80.901 55.6009 80.8529 55.2353C80.8274 55.0428 80.6614 54.8923 80.478 54.8286C80.2946 54.7649 80.0951 54.7716 79.9012 54.782ZM28.4268 54.7283C28.3558 55.1049 28.3383 55.4915 28.3754 55.8729C28.4676 55.9724 28.5889 55.778 28.581 55.6427C28.5633 55.3334 28.5114 55.0262 28.4268 54.7283ZM52.2929 54.2678C54.862 54.3839 57.4311 54.4999 60.0002 54.6161C60.2401 54.627 60.5586 54.7188 60.5446 54.9583C60.2378 55.1553 59.8423 55.1145 59.4804 55.0724C57.1902 54.8055 54.8734 54.7687 52.5758 54.9625C52.3775 54.9793 52.1668 54.9955 51.9898 54.9044C51.8127 54.8135 51.6986 54.571 51.8135 54.4084C51.9142 54.2662 52.119 54.2599 52.2929 54.2678ZM46.0631 53.9983C46.1761 54.0155 46.2938 54.0449 46.3759 54.1244C46.5636 54.3063 46.4478 54.6521 46.222 54.7839C45.9962 54.9158 45.7166 54.8972 45.4561 54.8747C45.1703 54.85 45.0777 54.4212 45.2654 54.2044C45.453 53.9875 45.7794 53.9555 46.0631 53.9983ZM55.099 53.0481C59.2862 53.2652 63.4732 53.4825 67.6602 53.6996C67.8846 53.7113 68.1814 53.7975 68.1695 54.0219C67.4791 54.1462 66.7641 54.1324 66.079 53.9814L66.6873 54.5049C66.3974 54.6878 66.0884 54.8766 65.7455 54.8841C65.4028 54.8918 65.0295 54.639 65.0393 54.2963C65.2127 54.2163 65.3862 54.1363 65.5596 54.0563C62.1772 53.7663 58.779 53.6606 55.3852 53.7396C55.1894 53.7441 54.9802 53.7459 54.815 53.6409C54.6495 53.5359 54.5658 53.2806 54.7028 53.1406C54.8007 53.0404 54.9591 53.0407 55.099 53.0481ZM82.2111 53.6079C82.0602 53.6163 81.9322 53.7164 81.8153 53.8121C81.6766 53.9255 81.538 54.039 81.3994 54.1524C81.2542 54.2711 81.0969 54.4131 81.0884 54.6004C81.0838 54.7022 81.1612 54.823 81.2604 54.8001C81.2881 54.7937 81.3121 54.7769 81.3353 54.7606C81.6655 54.5276 81.9958 54.2947 82.326 54.0619C82.3934 54.0143 82.4654 53.9604 82.4871 53.8811C82.5271 53.7353 82.362 53.5998 82.2111 53.6079ZM87.3473 52.3879C87.3604 52.7276 87.1917 53.0459 87.1319 53.3804C87.0719 53.715 87.1861 54.1411 87.5169 54.2193C87.6145 54.2425 87.6428 54.382 87.5878 54.4659C87.5326 54.5495 87.4286 54.5857 87.3298 54.6036C87.0234 54.6593 86.6606 54.5609 86.5198 54.2831C86.4492 54.1441 86.4438 53.9823 86.4398 53.8265C86.429 53.4091 86.4183 52.9918 86.4076 52.5745C86.4002 52.2892 86.4322 51.9379 86.6934 51.8227C87.0044 51.6855 87.3342 52.0483 87.3473 52.3879ZM82.7927 54.2811C82.7324 54.3092 82.6913 54.3745 82.6919 54.4411L82.6769 54.4451C82.7103 54.5195 82.831 54.531 82.878 54.4644C82.9252 54.3977 82.8742 54.2879 82.7927 54.2811ZM82.2151 52.0999C82.0766 52.1035 81.9217 52.1286 81.8398 52.2404C81.7521 52.3599 81.7876 52.5353 81.8775 52.6531C81.9676 52.7708 82.1001 52.8465 82.2237 52.9281C82.7447 53.2718 83.1607 53.7723 83.4031 54.3475C83.5681 54.1303 83.7329 53.9134 83.8977 53.6964C84.0209 53.5343 84.1506 53.3489 84.1247 53.1471C84.106 53.0012 84.0081 52.8787 83.9041 52.7747C83.4634 52.3339 82.8382 52.0841 82.2151 52.0999ZM29.111 48.7427C28.9174 48.7585 28.8169 48.9759 28.7561 49.1604C28.6633 49.4415 28.5705 49.7227 28.4778 50.0038C28.3764 50.311 28.2743 50.6215 28.2466 50.9438C28.2282 51.1572 28.2428 51.3721 28.2574 51.586C28.303 52.2539 28.3484 52.9217 28.394 53.5894C28.4028 53.7185 28.501 53.8969 28.6078 53.8238C28.5634 52.1179 28.7329 50.4067 29.111 48.7427ZM83.8818 51.1982C83.7062 51.2652 83.5194 51.3828 83.494 51.5692C83.4686 51.7556 83.743 51.9286 83.8494 51.7734C83.9852 51.5755 84.3247 51.6788 84.4369 51.891C84.5492 52.1033 84.5162 52.3583 84.5146 52.5985C84.5129 52.8385 84.5681 53.1139 84.7774 53.2315C84.8124 52.9103 84.8476 52.5892 84.8826 52.2681C84.926 51.8718 84.9234 51.3801 84.575 51.186C84.3665 51.0699 84.105 51.1132 83.8818 51.1982ZM89.5263 51.0167C89.8116 51.0295 90.1162 51.1289 90.2722 51.3681C90.4284 51.6073 90.3455 51.9991 90.0705 52.0761C89.6782 52.186 89.3113 51.6331 88.9276 51.7703C88.6878 51.8563 88.5396 52.1937 88.2894 52.1452C88.1343 52.1153 88.0484 51.9294 88.0793 51.7745C88.1102 51.6195 88.2258 51.4955 88.3497 51.3972C88.6798 51.1358 89.1057 50.998 89.5263 51.0167ZM45.8369 50.7343C46.1119 50.7788 46.3812 51.0799 46.2362 51.3179C46.1956 51.3846 46.1294 51.4321 46.0601 51.4684C45.8886 51.5587 45.677 51.5894 45.4999 51.5107C45.3228 51.4319 45.1983 51.2276 45.2462 51.0399C45.3065 50.8039 45.5966 50.6955 45.8369 50.7343ZM89.9737 49.1686C90.1629 49.3486 90.3103 49.6875 90.0985 49.8401C89.8743 50.0017 89.6058 49.7289 89.3914 49.5548C89.1518 49.3603 88.8271 49.2743 88.5225 49.3249C88.3278 49.3574 88.1442 49.442 87.9489 49.4703C87.7535 49.4987 87.5261 49.4539 87.4196 49.2876C87.3077 49.1134 87.3788 48.8667 87.5327 48.7279C87.6865 48.5894 87.9002 48.5387 88.1065 48.5198C88.783 48.4579 89.4814 48.7006 89.9737 49.1686ZM45.8274 48.6171C45.9962 48.7161 46.0873 48.9495 45.9934 49.1212C45.869 49.3481 45.5436 49.3451 45.2926 49.2827C45.2022 49.2603 45.107 49.2305 45.0471 49.1591C44.9042 48.9887 45.0644 48.7215 45.2639 48.6231C45.4394 48.5364 45.6585 48.518 45.8274 48.6171Z" fill="#363939"/>
<path fill-rule="evenodd" clip-rule="evenodd" d="M23.1601 71.4373C23.1832 71.5014 23.2045 71.5731 23.1781 71.6358C23.1307 71.7485 22.9766 71.7529 22.8544 71.752C21.995 71.7451 21.196 72.4832 21.135 73.3405C21.1286 73.431 21.0041 73.4725 20.9235 73.4305C20.843 73.3886 20.8016 73.2981 20.7737 73.2115C20.6168 72.7245 20.7179 72.1784 20.9681 71.732C21.2185 71.2854 21.6057 70.9294 22.0265 70.6379C22.1897 70.5249 22.3931 70.4163 22.5777 70.4893C22.6996 70.5376 22.7793 70.6539 22.8459 70.767C22.971 70.9801 23.0763 71.2048 23.1601 71.4373ZM22.6609 71.3398C22.5852 71.1083 22.2782 71.0253 22.0489 71.107C21.8196 71.1888 21.6524 71.3837 21.4964 71.5705C21.3484 71.7478 21.1937 71.9411 21.1763 72.1712C21.5717 71.7525 22.0972 71.4581 22.6609 71.3398Z" fill="#F9D262"/>
</svg>
