<svg xmlns="http://www.w3.org/2000/svg" width="300" height="301" fill="none" viewBox="0 0 300 301"><path fill="#FFE393" fill-rule="evenodd" d="M289.17 125.84C285.714 151.61 281.812 165.223 259.041 192.21C236.269 219.198 132.064 236.951 93.5399 236.951C55.0155 236.951 7.53851 207.245 10.5349 172.825C13.5313 138.405 29.164 110.273 66.5815 106.81C104.82 103.271 138.41 119.66 175.952 110.87C208.408 103.271 218.338 74.3048 240.63 65.1664C285.714 46.684 291.522 108.309 289.17 125.84Z" clip-rule="evenodd"/><path fill="#fff" d="M265.976 138.427C264.703 140.586 248.579 151.51 238.798 153.127C236.905 153.44 234.839 153.547 233.194 152.559C232.223 151.975 231.499 151.064 230.812 150.164C229.24 148.104 227.741 145.99 226.317 143.825C225.569 142.687 224.827 141.5 224.573 140.162C223.9 136.62 226.755 133.439 229.577 131.195C236.063 126.036 243.657 122.278 251.693 120.251C253.115 119.892 254.623 119.588 256.033 119.996C258.32 120.657 259.687 122.972 260.56 125.187C261.432 127.402 262.113 129.825 263.857 131.446C264.256 131.816 267.249 136.268 265.976 138.427Z"/><path fill="#fff" fill-rule="evenodd" d="M179.337 232.542C163.688 235.218 171.147 223.844 173.305 209.609C176.851 186.217 181.223 150.67 181.223 150.67C181.223 150.67 184.075 204.836 184.075 218.024C184.075 231.214 181.223 232.219 179.337 232.542Z" clip-rule="evenodd"/><path fill="#fff" d="M162.617 219.654C163.017 223.421 163.438 227.267 165.038 230.7C164.165 222.927 163.292 215.153 162.418 207.379C162.311 206.419 162.343 205.197 163.225 204.805C163.973 213.583 165.087 222.33 166.564 231.015C166.739 232.047 165.191 232.636 164.321 232.055C163.451 231.474 163.173 230.343 162.975 229.316C161.533 221.832 160.741 214.223 160.609 206.603C158.774 206.964 157.487 208.743 157.116 210.577C156.745 212.409 157.103 214.303 157.46 216.139C158.611 222.048 159.762 227.957 160.913 233.866C161.451 236.63 161.989 239.486 161.395 242.239C159.111 231.81 157.275 221.284 155.893 210.699C138.368 221.415 115.786 223.408 96.6541 215.926C92.4757 214.292 88.3257 212.127 85.5661 208.589C83.3921 205.803 82.2321 202.343 81.6241 198.862C79.4657 186.497 83.8889 173.884 89.8925 162.861C92.1705 158.678 94.7649 154.321 94.5809 149.562C94.5177 147.924 94.1645 146.11 95.1213 144.778C95.2565 145.025 88.8573 99.2486 91.4245 89.123C97.6045 64.7466 117.681 61.4454 130.536 61.7462C139.161 61.9478 193.83 72.8126 201.729 87.587C212.11 107.005 209.906 123.331 208.063 134.096C207.513 137.302 181.231 150.433 181.224 150.5C179.722 164.468 169.639 194.904 161.182 206.123C161.661 210.633 162.139 215.144 162.617 219.654Z"/><path fill="#fff" fill-rule="evenodd" d="M36.4244 162.819C31.4955 160.852 25.6218 161.435 21.1781 164.334C20.7479 164.615 20.1295 164.302 19.9165 163.835C19.7035 163.368 19.7832 162.825 19.8921 162.324C21.3113 155.793 26.9651 150.795 33.2525 148.499C39.54 146.202 46.4175 146.196 53.1011 146.588C53.7643 146.627 54.4575 146.679 55.0231 147.027C55.5887 147.374 55.9695 148.118 55.6875 148.718C53.0583 154.317 51.0779 160.219 49.7979 166.269C49.5903 167.249 48.5739 167.9 47.5727 167.982C46.5715 168.064 45.5907 167.695 44.6823 167.267C41.8507 165.934 39.331 163.98 36.4244 162.819Z" clip-rule="evenodd"/><path fill="#363939" fill-rule="evenodd" d="M187.923 64.2247C188.168 60.4783 187.885 56.6975 187.087 53.0291L187.069 52.9507C186.934 52.3303 186.795 51.6923 186.919 51.0715C187.196 49.6987 188.721 48.8723 190.121 48.9011C191.521 48.9299 192.818 49.5983 194.057 50.2511C199.999 53.3815 206.049 56.5907 210.727 61.4095C210.874 65.3107 209.955 69.1603 209.047 72.9607L208.962 73.3179C205.173 89.2023 202.071 105.251 199.666 121.403C199.435 122.951 198.998 124.777 197.53 125.319C196.477 125.708 195.252 125.211 194.503 124.374C193.755 123.537 193.397 122.426 193.148 121.331C192.532 118.63 192.458 115.806 192.931 113.077C193.221 111.408 193.709 109.784 194.199 108.16L194.199 108.16V108.159V108.159C194.638 106.701 195.077 105.243 195.372 103.751C195.667 102.259 195.816 100.743 195.96 99.2287C196.727 91.1779 197.377 83.1159 197.911 75.0463C197.987 73.9063 198.055 72.7299 197.682 71.6499C197.017 69.7291 195.082 68.5147 193.127 67.9583C192.79 67.8623 192.448 67.7807 192.106 67.6991C191.309 67.5091 190.513 67.3191 189.787 66.9491C188.748 66.4199 187.847 65.3879 187.923 64.2247ZM191.554 63.9167C194.317 64.4999 197.017 65.3803 199.593 66.5383C200.112 66.7715 200.658 67.0443 200.938 67.5391C201.167 67.9431 201.18 68.4299 201.187 68.8943C201.268 74.3483 201.285 79.8171 200.707 85.2411C200.361 88.4891 199.803 91.7087 199.246 94.9279C199.069 95.9467 198.893 96.9659 198.723 97.9855C197.882 103.032 197.206 108.106 196.695 113.196C196.324 116.89 196.053 120.707 197.201 124.237C197.791 124.13 198.018 123.42 198.129 122.831L208.747 66.8679C209.004 65.5119 209.261 64.1099 208.958 62.7635C208.427 60.4063 206.335 58.7671 204.318 57.4371C200.435 54.8771 196.301 52.6967 191.995 50.9371C191.637 55.2531 191.49 59.5863 191.554 63.9167ZM197.014 100.671C198.958 90.6907 199.836 80.5031 199.629 70.3375C199.613 69.5695 199.572 68.7443 199.102 68.1367C198.758 67.6915 198.233 67.4307 197.719 67.2007C195.79 66.3367 193.763 65.6939 191.688 65.2887C191.088 65.1715 190.205 65.2987 190.232 65.9099L197.687 68.9903C198.124 69.1711 198.59 69.3755 198.837 69.7791C199.079 70.1747 199.056 70.6719 199.024 71.1347L197.014 100.671ZM190.077 49.9499C189.462 49.5423 188.574 49.9623 188.231 50.6155C187.889 51.2687 187.941 52.0503 188.019 52.7835C188.133 53.8595 188.283 54.9359 188.433 56.0127C188.848 58.9995 189.264 61.9875 188.911 64.9683C189.475 65.1619 190.104 64.7643 190.377 64.2347C190.651 63.7051 190.658 63.0831 190.659 62.4867L190.678 51.7379C190.679 51.0811 190.624 50.3127 190.077 49.9499ZM195.597 123.995C195.258 121.338 195.169 118.65 195.332 115.978C195.419 114.548 195.577 113.124 195.736 111.7C195.946 109.817 196.155 107.934 196.199 106.041C194.651 110.65 194.066 115.58 194.494 120.423C194.605 121.682 194.811 123.004 195.597 123.995ZM196.449 103.319C196.698 103.207 196.803 102.857 196.655 102.627C196.403 102.752 196.295 103.105 196.436 103.35L196.449 103.319ZM194.133 80.2371C181.811 72.6379 167.878 68.0847 153.944 64.1559C149.489 62.8999 144.998 61.6963 140.399 61.1811C126.771 59.6547 112.956 64.3563 101.625 72.0791C97.0806 75.1767 92.6958 78.9863 90.7326 84.1235C89.2758 87.9351 89.2858 92.1311 89.4262 96.2091C89.911 110.274 91.7154 124.256 93.5182 138.213C94.9274 137.959 95.0666 136.01 94.8626 134.592C92.9882 121.576 91.9374 108.442 91.7182 95.2931C91.6566 91.6063 91.6758 87.8263 92.9518 84.3663C95.2618 78.1035 101.219 74.0079 107.064 70.7843C114.427 66.7243 122.43 63.3115 130.835 63.1303C141.017 62.9111 150.669 67.4275 159.563 72.3879C164.522 75.1531 169.549 78.2415 172.704 82.9619C175.569 87.2487 176.609 92.4727 177.361 97.5731C179.746 113.761 179.834 130.188 179.917 146.551C179.92 147.213 179.879 147.971 179.361 148.383C179.006 148.664 178.522 148.699 178.07 148.723L161.459 149.588C169.199 151.813 177.786 150.935 184.916 147.19L203.373 137.493C205.096 136.588 206.874 135.638 208.062 134.096C209.696 131.974 209.93 129.12 210.007 126.443C210.291 116.556 209.303 106.634 207.073 96.9979C207.846 107.422 207.953 117.895 207.394 128.333C207.299 130.115 207.155 131.985 206.186 133.484C205.151 135.085 203.351 135.992 201.636 136.825L181.717 146.507C182.541 131.03 181.902 115.475 179.81 100.118C179.107 94.9531 178.209 89.7155 175.845 85.0695C170.259 74.0895 157.895 68.6579 146.468 64.0559C163.552 69.0539 180.831 74.1347 196.201 83.1139C196.401 81.8735 195.203 80.8967 194.133 80.2371ZM257.792 127.481C258.677 129.763 259.923 132.196 262.211 133.066C262.753 133.108 263.077 132.389 262.899 131.876C262.751 131.446 262.401 131.134 262.058 130.827C262.033 130.804 262.008 130.782 261.983 130.76L261.945 130.726L261.915 130.698L261.896 130.681C261.883 130.669 261.87 130.657 261.857 130.645C260.401 129.292 259.686 127.38 258.982 125.496L258.981 125.494C258.842 125.122 258.704 124.752 258.56 124.386C257.687 122.171 256.319 119.857 254.032 119.195C252.623 118.787 251.115 119.091 249.693 119.45C241.657 121.478 234.063 125.236 227.577 130.394C224.755 132.638 221.9 135.82 222.573 139.362C222.827 140.699 223.569 141.887 224.317 143.024C225.741 145.189 227.24 147.304 228.812 149.363C229.499 150.264 230.223 151.174 231.194 151.758C232.838 152.746 234.905 152.639 236.798 152.326C246.579 150.709 254.949 144.631 262.915 138.73C263.33 138.422 263.761 138.095 263.976 137.626C264.191 137.157 264.099 136.504 263.643 136.262C263.121 135.985 262.505 136.368 262.039 136.733C254.627 142.536 246.709 148.207 237.518 150.246C235.775 150.632 233.855 150.86 232.287 150.007C231.115 149.369 230.323 148.221 229.575 147.115L224.938 140.254C224.548 139.677 224.143 139.056 224.128 138.358C224.114 137.661 224.677 136.907 225.369 136.997C231.868 137.842 238.398 138.45 244.941 138.818C245.463 138.847 246.007 138.871 246.482 138.654C247.093 138.375 247.466 137.756 247.792 137.169C250.562 132.175 252.679 126.818 254.069 121.28C255.918 122.606 256.781 124.851 257.605 126.994L257.605 126.996C257.667 127.158 257.73 127.32 257.792 127.481ZM252.072 120.841C250.834 125.474 249.002 129.947 246.636 134.117C246.239 134.816 245.799 135.536 245.105 135.942C244.223 136.459 243.125 136.362 242.108 136.248L225.919 134.442C228.605 130.892 232.595 128.589 236.582 126.61C240.356 124.736 244.23 123.065 248.182 121.605C249.433 121.143 250.746 120.696 252.072 120.841ZM162.616 219.654C163.016 223.421 163.437 227.267 165.037 230.7L162.417 207.379C162.309 206.419 162.341 205.197 163.225 204.805C163.972 213.584 165.086 222.33 166.563 231.016C166.738 232.046 165.19 232.636 164.32 232.055C163.45 231.474 163.172 230.343 162.974 229.316C161.533 221.832 160.74 214.223 160.608 206.603C158.773 206.964 157.486 208.743 157.115 210.576C156.744 212.41 157.102 214.302 157.459 216.138L160.912 233.866C161.45 236.63 161.988 239.486 161.394 242.238C159.11 231.81 157.274 221.284 155.892 210.698C138.367 221.415 115.785 223.408 96.653 215.926C92.4746 214.292 88.325 212.127 85.565 208.59C83.391 205.803 82.231 202.343 81.6234 198.862C79.465 186.496 83.8882 173.884 89.8914 162.86C90.0478 162.573 90.2058 162.285 90.3642 161.996C92.5126 158.078 94.7514 153.995 94.5802 149.562C94.5686 149.27 94.5482 148.971 94.5274 148.67C94.4322 147.29 94.3346 145.872 95.1202 144.778C96.1742 146.695 96.5758 148.964 96.2434 151.127C114.387 150.346 132.557 150.188 150.712 150.655C150.924 151.49 149.715 151.878 148.853 151.865C131.911 151.612 114.961 151.901 98.0378 152.73C97.5018 152.756 96.9394 152.791 96.485 153.077C96.007 153.377 95.7286 153.904 95.4714 154.406C90.6686 163.804 85.8494 173.339 83.5278 183.635C82.3338 188.929 81.8766 194.724 84.3238 199.568C85.2518 201.406 86.565 203.03 88.0306 204.476C95.9006 212.238 107.685 214.618 118.737 214.432C125.791 214.313 132.829 213.299 139.63 211.422C146.839 209.432 154.03 206.294 158.951 200.662C161.841 197.354 163.805 193.349 165.525 189.308C168.809 181.591 171.328 173.549 173.033 165.338C174.101 165.563 174.116 167.072 173.87 168.135C170.821 181.286 167.278 195.303 157.238 204.326C148.17 212.476 135.393 215.003 123.219 215.685C116.188 216.078 109.045 215.955 102.235 214.163C95.4242 212.37 88.9214 208.785 84.5974 203.226C85.8586 208.034 90.1302 211.466 94.5774 213.686C106.254 219.517 120.043 219.209 132.936 217.182C141.525 215.832 150.34 213.616 157.024 208.056C162.738 203.304 166.379 196.516 169.119 189.608C172.153 181.962 174.257 173.948 175.371 165.798C176.065 165.359 176.579 166.585 176.492 167.401C174.989 181.37 169.637 194.904 161.181 206.122L162.616 219.654ZM154.496 243.54C153.751 242.282 153.271 240.868 153.097 239.416L152.027 243.043L149.325 232.74C149.116 231.941 148.606 230.941 147.797 231.113C147.012 231.28 146.924 232.358 147.041 233.153C147.629 237.15 148.752 241.067 150.369 244.77L147.496 242.248C147.356 243.449 147.672 244.696 148.366 245.685C146.87 244.583 144.863 244.208 143.069 244.694C144.351 246.475 146.091 247.923 148.075 248.86L145.647 245.471C147.61 246.604 149.665 247.574 151.787 248.37L149.73 245.79L152.271 246.495C150.327 242.071 148.346 237.478 148.393 232.646C149.129 236.577 150.206 240.444 151.609 244.189C151.847 244.824 152.111 245.48 152.617 245.93C153.124 246.381 153.947 246.55 154.477 246.129C154.89 245.801 155.011 245.236 155.104 244.717L156.249 238.369L157.506 246.242C158.459 243.834 161.559 243.23 164.149 243.214C167.568 243.193 171.013 243.57 174.449 243.946H174.449H174.45C180.644 244.623 186.809 245.297 192.745 243.631C192.57 244.548 192.265 245.441 191.842 246.274C196.631 245.576 201.477 245.27 206.315 245.36C208.359 245.398 210.409 245.505 212.458 245.613H212.459H212.459H212.459C217.878 245.897 223.297 246.181 228.606 245.175L193.37 244.866C194.032 244.827 194.539 244.058 194.313 243.434C194.088 242.811 193.206 242.544 192.673 242.938C192.326 241.836 190.768 241.346 189.853 242.052C190.384 240.416 191.433 238.954 192.811 237.927C191.255 237.843 189.675 238.32 188.425 239.249L192.215 221.708C191.894 221.433 191.36 221.618 191.123 221.968C190.889 222.315 190.863 222.756 190.838 223.174L190.837 223.187C190.482 229.176 188.37 235.052 184.83 239.896L183.44 235.874L181.447 240.678C180.545 239.979 179.264 239.802 178.205 240.232C178.476 241.259 179.297 242.123 180.31 242.444L180.781 241.181L183.894 243.266C182.704 242.02 182.446 239.98 183.288 238.476L185.172 241.636L188.823 234.415C188.843 237.314 187.601 240.055 186.383 242.686C187.707 241.649 188.844 240.376 189.726 238.944C190.577 240.452 189.648 242.473 188.167 243.37C186.687 244.268 184.856 244.316 183.126 244.243C180.487 244.132 177.827 243.8 175.171 243.469C169.207 242.726 163.258 241.984 157.592 243.74L156.775 236.207C155.527 238.462 154.746 240.974 154.496 243.54ZM190.045 243.741C189.917 243.588 189.918 243.342 190.047 243.19L190.15 243.229C190.323 242.815 191.051 242.849 191.185 243.278C190.849 243.52 190.455 243.68 190.045 243.741ZM209.296 163.7C205.193 161.626 200.309 162.186 195.753 162.81C194.466 162.987 193.154 163.172 191.988 163.745C190.822 164.318 189.807 165.356 189.605 166.64C178.48 165.251 167.819 160.354 159.516 152.819C157.714 151.184 155.875 148.855 156.686 146.561C156.941 145.84 157.436 145.231 157.952 144.666C161.823 140.422 167.159 137.87 172.355 135.42C166.467 135.936 160.817 138.8 156.919 143.244C156.026 144.263 155.203 145.401 154.895 146.72C154.136 149.978 156.666 153.034 159.198 155.219C167.278 162.192 177.441 166.721 188.029 168.066C188.663 168.146 188.696 169.039 188.638 169.676C188.38 172.512 189.926 175.278 192.068 177.154C194.21 179.029 196.893 180.155 199.555 181.164C207.8 184.286 216.356 186.586 225.056 188.018C225.631 188.113 226.42 188.068 226.541 187.498C224.533 186.17 222.117 185.664 219.755 185.17L219.746 185.168L219.719 185.162L219.516 185.12L219.372 185.09C213.382 183.828 207.472 182.186 201.691 180.176C199.319 179.351 196.941 178.45 194.873 177.026C192.804 175.601 191.048 173.588 190.387 171.166C190.06 169.97 190.503 168.184 191.734 168.334C196.746 168.947 201.896 169.552 206.79 168.309C207.897 168.028 209.052 167.604 209.727 166.682C210.402 165.76 210.316 164.216 209.296 163.7ZM196.653 167.013C194.933 166.716 193.175 166.637 191.435 166.777C192.281 165.171 194.346 164.748 196.145 164.503C200.054 163.971 204.125 163.452 207.87 164.691C208.117 164.773 208.381 164.878 208.515 165.101C208.691 165.396 208.563 165.796 208.312 166.031C208.062 166.266 207.721 166.372 207.39 166.464C203.911 167.437 200.214 167.626 196.653 167.013ZM139.721 248.043C142.6 247.962 145.497 248.599 148.077 249.879C147.387 250.87 146.001 251.009 144.794 251.055L113.254 252.252C112.965 252.216 112.911 251.77 113.115 251.563C113.32 251.356 113.641 251.329 113.931 251.315L144.721 249.813C142.941 249.65 141.206 249.036 139.721 248.043ZM79.023 143.734C78.5734 145.883 80.3922 148.176 82.5822 148.339C79.001 153.736 72.5502 156.399 66.3518 158.28C62.4834 159.453 58.1922 160.416 54.5046 158.761C54.047 159.04 54.535 159.729 55.0182 159.962C58.607 161.691 62.8618 160.728 66.679 159.588C72.2774 157.918 78.0478 155.758 81.8574 151.329C82.013 151.148 82.1686 150.961 82.325 150.773V150.773C83.3054 149.594 84.3278 148.366 85.8022 148.093C90.5478 147.215 94.5006 144.243 98.4066 141.305H98.407V141.305H98.4074C99.293 140.639 100.176 139.974 101.066 139.337C106.473 135.461 112.471 132.41 118.789 130.322C119.347 130.137 120.025 129.795 119.975 129.21C112.143 129.928 105.297 134.599 98.985 139.29L98.7742 139.447C94.4842 142.636 90.0014 145.969 84.7226 146.76C86.4466 145.4 86.0826 142.257 84.1374 141.238C82.1918 140.22 79.4726 141.584 79.023 143.734ZM80.4846 145.047C80.1326 144.004 80.6758 142.764 81.6414 142.236C81.9154 142.086 82.2222 141.986 82.5346 141.986C83.5658 141.985 84.319 143.088 84.3254 144.119C84.3322 145.15 83.8098 146.101 83.3018 146.998C82.1134 146.816 80.869 146.186 80.4846 145.047ZM197.681 122.07C197.389 121.745 197.479 121.308 197.572 120.854C197.637 120.534 197.705 120.205 197.64 119.903C197.584 119.642 197.431 119.419 197.278 119.195C197.143 118.997 197.007 118.799 196.937 118.572C196.953 118.273 197.353 118.12 197.626 118.244C197.899 118.368 198.051 118.661 198.147 118.945C198.494 119.982 198.315 121.18 197.681 122.07ZM171.279 99.3207C172.008 97.5903 173.455 96.0563 175.3 95.7051C175.897 95.5915 175.878 94.6071 175.355 94.2979C174.832 93.9883 174.16 94.1711 173.611 94.4323C171.056 95.6491 169.442 98.3267 168.81 101.086C168.178 103.845 168.387 106.718 168.599 109.54L169.729 124.543C169.768 125.053 169.815 125.589 170.099 126.014C170.677 126.881 171.918 126.908 172.958 126.842L178.221 126.508C177.051 125.591 175.481 125.205 174.02 125.475C173.167 125.632 172.309 125.07 171.857 124.329C171.405 123.588 171.272 122.702 171.16 121.841C170.427 116.211 170.157 110.52 170.357 104.845C170.422 102.968 170.549 101.051 171.279 99.3207ZM184.717 232.488C184.418 232.705 184.119 232.211 184.075 231.844C182.041 214.748 181.734 197.498 181.43 180.283L181.225 168.678C181.219 168.347 181.223 167.985 181.436 167.731C181.802 167.295 182.571 167.495 182.89 167.966C183.21 168.437 183.21 169.047 183.2 169.616C182.887 186.557 183.092 203.53 184.714 220.396C184.734 220.601 184.754 220.806 184.774 221.012C185.145 224.843 185.523 228.732 184.717 232.488ZM167.807 124.719C167.362 124.474 166.812 124.612 166.325 124.757C143.776 131.426 121.279 138.302 99.1126 146.151C98.6978 146.298 98.223 146.51 98.1278 146.94C98.027 147.394 98.4554 147.829 98.9138 147.914C99.3726 147.998 99.8362 147.834 100.274 147.673C122.487 139.502 145.036 132.238 167.843 125.909C168.333 125.773 168.253 124.963 167.807 124.719Z" clip-rule="evenodd"/><path fill="#F9D262" fill-rule="evenodd" d="M248.147 226.735C247.622 226.966 247.053 227.18 246.488 227.083C245.923 226.986 245.395 226.455 245.508 225.893C246.546 220.755 245.243 215.19 242.031 211.046C240.906 209.593 239.566 208.316 238.469 206.841C237.779 205.913 237.164 204.745 237.514 203.641C238.013 202.071 240.021 201.689 241.665 201.577C245.486 201.317 249.307 201.056 253.128 200.796C254.888 200.676 256.916 200.658 258.091 201.974C261.363 205.639 267.739 205.885 271.283 202.483C271.832 201.957 272.523 203.005 272.501 203.765C272.433 206.154 271.448 208.505 269.793 210.231C269.403 210.637 268.904 211.036 268.343 210.978C267.782 210.919 267.369 210.114 267.816 209.771C268.775 209.034 269.752 208.278 270.425 207.273C271.098 206.267 271.424 204.949 270.965 203.829C268.497 206.952 266.005 210.056 263.49 213.141C259.129 218.489 254.465 223.96 248.147 226.735ZM255.039 210.997C254.411 211.17 253.741 211.037 253.115 210.859C248.605 209.585 244.45 206.062 239.837 206.886C245.216 211.219 248.072 218.482 247.084 225.318C250.628 224.559 253.427 221.913 255.937 219.299C259.653 215.429 263.18 211.379 266.504 207.167C264.115 207.148 261.735 206.459 259.705 205.199C257.197 205.819 257.529 210.308 255.039 210.997ZM258.314 203.881C256.82 202.12 254.135 202.175 251.835 202.377C248.834 202.64 245.833 202.904 242.832 203.167C241.614 203.275 240.215 203.488 239.579 204.533C244.773 205.621 249.837 207.329 254.628 209.609C255.244 207.673 256.479 205.94 258.108 204.725C258.291 204.589 258.501 204.413 258.476 204.186C258.464 204.07 258.39 203.971 258.314 203.881Z" clip-rule="evenodd"/><path fill="#F9D262" fill-rule="evenodd" d="M35.8432 161.883C31.3235 160.075 25.9374 160.611 21.8626 163.274C21.4681 163.532 20.9009 163.245 20.7057 162.816C20.5104 162.387 20.5834 161.888 20.6833 161.428C21.9847 155.428 27.1692 150.837 32.9347 148.727C38.7002 146.617 45.0066 146.611 51.1358 146.972C51.7438 147.008 52.3794 147.055 52.8982 147.375C53.417 147.694 53.7658 148.377 53.5074 148.928C51.0962 154.072 49.2802 159.494 48.1066 165.051C47.9162 165.952 46.9842 166.55 46.0662 166.626C45.1482 166.701 44.2486 166.361 43.4154 165.968C40.819 164.744 38.5085 162.949 35.8432 161.883ZM36.3599 155.812C35.9571 156.139 35.3275 155.966 34.9485 155.612C34.5694 155.257 34.3535 154.766 34.0555 154.342C32.4575 152.062 28.7903 152.251 26.6165 153.99C24.4428 155.73 23.3909 158.478 22.433 161.092C28.8103 158.322 36.6649 159.316 42.151 163.588C42.9002 164.171 43.6434 164.828 44.5658 165.052C45.4882 165.277 46.6502 164.873 46.8838 163.953C48.1318 159.038 49.6698 154.196 51.487 149.462C48.0002 153.796 40.6774 152.304 36.3599 155.812ZM34.9722 153.193C35.3303 153.642 35.9805 153.762 36.5465 153.66C37.1126 153.559 37.6268 153.277 38.1542 153.048C39.97 152.258 41.981 152.082 43.9278 151.722C45.8746 151.36 47.8822 150.75 49.2526 149.321C46.1606 149.312 43.0686 149.302 39.9768 149.293C36.8695 149.284 33.521 149.349 31.0248 151.2C32.5444 151.255 34.0252 152.003 34.9722 153.193Z" clip-rule="evenodd"/><path fill="#363939" fill-rule="evenodd" d="M181.05 161.469C181.043 158.749 181.036 156.029 181.028 153.31C181.026 152.529 181.024 151.748 181.022 150.967C181.02 150.428 181.111 149.754 181.623 149.587C182.01 149.46 182.436 149.738 182.617 150.103C182.798 150.468 182.796 150.893 182.79 151.301C182.733 155.096 182.677 158.891 182.62 162.687C182.612 163.233 182.521 163.904 182.01 164.096C181.157 163.613 181.053 162.449 181.05 161.469Z" clip-rule="evenodd"/><path fill="#363939" fill-rule="evenodd" d="M175.622 158.952C175.228 159.124 175.025 158.476 175.086 158.05C175.303 156.527 175.522 155.001 175.892 153.508C176.123 152.578 176.455 151.6 177.223 151.028C177.991 150.455 179.309 150.555 179.685 151.436C179.867 151.863 179.791 152.35 179.708 152.807C179.191 155.632 178.495 158.425 177.625 161.162C177.588 161.278 177.547 161.399 177.459 161.484C177.245 161.689 176.859 161.551 176.711 161.294C176.563 161.037 176.582 160.721 176.605 160.425C176.959 160.399 177.124 159.983 177.209 159.639C177.555 158.234 177.902 156.828 178.249 155.423C178.519 154.329 178.765 153.084 178.137 152.148C177.492 152.546 177.249 153.349 177.058 154.082C176.671 155.556 176.285 157.03 175.899 158.503C175.853 158.68 175.789 158.878 175.622 158.952Z" clip-rule="evenodd"/></svg>