<svg width="300" height="301" viewBox="0 0 300 301" fill="none" xmlns="http://www.w3.org/2000/svg">
<path fill-rule="evenodd" clip-rule="evenodd" d="M219.068 185.647C214.705 187.353 209.658 189.913 209.19 194.574C215.117 190.015 222.438 187.293 229.904 186.875C224.746 193.374 218.233 198.792 210.905 202.681C204.323 206.173 195.991 209.898 195.426 217.327C202.494 208.91 213.362 203.815 224.353 203.764C217.321 214.063 206.046 221.368 193.773 223.576C194.194 226.741 207.802 233.519 211.765 234.824C214.588 246.951 215.811 262.677 218.634 274.804C219.328 277.788 219.94 281.217 218.113 283.677C216.3 286.116 212.876 286.536 209.844 286.751C197.895 287.601 181.545 288.451 169.596 289.3C168.165 282.818 166.735 276.337 165.304 269.855C145.147 271.726 58.7366 291.528 42.879 281.14C-18.3365 241.038 59.7242 227.378 61.4018 178.554C61.7862 167.359 28.1278 147.791 28.6622 136.351C29.0111 128.882 30.1675 121.585 33.8631 115.171C37.5587 108.758 43.415 103.817 49.7798 100.038C41.0166 97.7854 34.3793 89.0502 34.5569 80.0042C34.7345 70.9582 41.7098 62.4902 50.5542 60.5838C46.3842 55.6142 39.818 53.3366 35.0218 48.9686C29.4346 43.8802 26.627 35.6722 28.6622 28.3944C30.6974 21.1166 37.8631 15.3905 45.4134 15.7132C51.615 15.9782 57.0726 19.9007 61.4018 24.3495C68.1154 31.2491 73.1086 39.8105 75.8082 49.0514C77.6074 55.2106 84.2018 58.3438 89.771 61.5314C95.3402 64.719 101.123 70.2714 99.5542 76.493C97.4798 67.979 128.311 78.1202 156.273 80.603C159.985 80.9326 163.981 81.4122 166.725 83.9342C170.669 87.5582 176.59 88.8802 181.701 87.2774C183.327 91.3082 184.523 95.8358 183.141 99.9566C181.759 104.077 176.863 107.223 172.949 105.332C173.971 110.588 174.992 115.844 176.014 121.099C186.02 121.22 196.025 121.424 206.029 121.713C211.33 121.865 216.871 122.107 221.479 124.733C226.087 127.36 232.254 123.639 236.807 114.078C233.861 129.678 237.352 135.911 243.373 137.606C243.385 137.488 243.853 137.545 243.867 137.427C245.659 122.011 256.12 108.323 270.678 102.908C269.391 105.875 260.179 111.734 253.783 119.217C247.535 126.526 244.545 136.311 244.235 138.069C254.155 135.467 257.463 142.858 274.294 136.351C266.603 145.598 251.782 147.875 241.67 141.363C236.9 146.683 237.167 152.575 233.787 158.871C239.528 151.736 247.151 158.062 241.103 162.686C244.313 162.995 247.783 163.417 250.111 165.648C252.439 167.879 252.497 172.574 249.495 173.749C239.353 177.715 229.21 181.681 219.068 185.647Z" fill="#C1D3E5"/>
<path fill-rule="evenodd" clip-rule="evenodd" d="M202.605 150.488C202.972 149.79 203.371 149.058 204.046 148.652C204.722 148.245 205.758 148.329 206.122 149.029C206.509 149.773 205.933 150.671 205.257 151.168C204.581 151.665 203.749 152.015 203.309 152.73C205.685 154.295 208.059 155.86 210.434 157.425C212.294 158.651 214.399 160.401 214.018 162.596C213.795 163.883 212.704 164.883 211.489 165.363C210.275 165.844 208.939 165.894 207.634 165.931C198.86 166.184 190.077 166.139 181.306 165.798C180.697 165.774 180.019 165.717 179.613 165.263C179.299 164.911 179.234 164.408 179.183 163.94C178.679 159.271 178.174 154.602 177.669 149.934C177.65 149.762 177.633 149.582 177.694 149.419C177.954 148.738 178.974 149.158 179.544 149.613C183.581 152.836 190.037 152.457 193.67 148.784C194.547 147.897 196.042 148.012 197.17 148.546C198.298 149.082 199.241 149.952 200.373 150.479C200.252 149.825 200.829 149.135 201.494 149.138C202.159 149.14 202.731 149.835 202.605 150.488Z" fill="white"/>
<path fill-rule="evenodd" clip-rule="evenodd" d="M61.3107 98.9618C61.3107 98.9618 60.3307 87.2218 62.7979 83.4478C65.2647 79.6738 74.6623 78.5378 74.6623 78.5378C74.6623 78.5378 100.419 78.201 114.335 78.733C128.251 79.265 156.083 81.6502 156.083 81.6502C156.083 81.6502 159.699 82.439 161.325 83.4478C162.95 84.457 165.218 87.3198 165.218 87.3198C165.218 87.3198 170.152 88.0394 172.607 88.137C175.061 88.235 177.311 87.8018 177.311 87.8018C177.311 87.8018 180.439 96.925 178.227 101.274C176.015 105.622 168.59 104.948 168.59 104.948L171.219 121.222C171.219 121.222 168.093 122.699 166.386 124.551C164.678 126.403 163.992 129.058 163.992 129.058L169.068 178.554C169.068 178.554 170.561 181.127 173.769 182.104C176.977 183.081 184.203 183.164 184.203 183.164C184.203 183.164 183.946 188.155 184.203 190.303C184.461 192.45 184.691 193.627 184.691 193.627L190.131 232.578C190.131 232.578 184.843 233.54 179.611 234.81C174.378 236.079 163.992 238.92 163.992 238.92C163.992 238.92 160.331 240.589 159.857 243.284C159.383 245.979 161.325 254.078 161.325 254.078L103.021 258.522C103.021 258.522 97.3479 258.629 95.3963 257.399C93.4447 256.17 92.9099 252.151 92.9099 252.151L85.0239 181.223C85.0239 181.223 72.4223 181.531 68.7415 179.43C65.0611 177.328 64.6159 169.571 64.6159 169.571C64.6159 169.571 65.2275 165.173 64.6159 162.122C64.4119 161.104 61.7467 150.066 60.8515 139.564C60.3447 133.621 67.3375 129.058 67.3375 129.058L61.3107 98.9618Z" fill="white"/>
<path fill-rule="evenodd" clip-rule="evenodd" d="M102.45 82.6335C101.996 83.2727 102.376 84.2259 103.031 84.6559C103.686 85.0859 104.511 85.1343 105.294 85.1695C113.8 85.5523 122.305 85.9351 130.811 86.3179C131.639 86.3551 132.557 86.3635 133.185 85.8211C133.813 85.2791 133.73 83.9859 132.911 83.8559C123.453 82.3519 113.855 81.7275 104.282 81.9931C103.61 82.0115 102.839 82.0851 102.45 82.6335Z" fill="#EAEAEA"/>
<path fill-rule="evenodd" clip-rule="evenodd" d="M140.293 143.596L138.083 133.224C138.083 133.224 137.979 135.362 136.809 136.232C135.639 137.102 133.325 136.76 133.325 136.76C133.325 136.76 132.959 129.517 134.587 127.312C136.216 125.106 137.821 127.189 140.914 126.484C144.005 125.779 143.365 123.457 146.956 124.491C150.548 125.525 153.201 133.211 153.201 133.211C153.201 133.211 150.385 134.155 149.187 133.913C147.989 133.671 148.281 132.217 148.281 132.217C148.281 132.217 147.432 131.856 147.648 134.404C147.753 135.642 148.691 137.504 149.187 139.94C149.372 140.846 149.187 142.884 149.187 142.884C149.187 142.884 145.991 143.21 143.23 143.802C140.468 144.393 140.293 143.596 140.293 143.596Z" fill="#EAEAEA"/>
<path fill-rule="evenodd" clip-rule="evenodd" d="M61.8219 117.795C60.7583 117.223 59.8931 116.349 59.0455 115.488C56.8583 113.268 54.6439 111.012 53.1263 108.29C52.9819 108.031 52.8399 107.733 52.9231 107.449C53.0063 107.164 53.4411 107.002 53.6039 107.25C56.2415 111.277 59.5727 114.849 63.4063 117.76C63.0615 118.224 62.3307 118.069 61.8219 117.795Z" fill="#363939"/>
<path fill-rule="evenodd" clip-rule="evenodd" d="M65.0084 66.828C65.6368 66.1804 65.972 65.3096 66.2612 64.4548C67.1636 61.79 67.7784 59.028 68.092 56.232C68.1484 55.7284 68.2408 55.1484 68.6776 54.8916C69.1692 57.2892 68.5604 59.76 67.9552 62.1312C67.4232 64.2156 66.834 66.4044 65.3252 67.938C65.1724 68.0932 64.9772 68.2512 64.7628 68.2156C64.4732 68.1672 64.3572 67.7824 64.4604 67.5076C64.564 67.2332 64.804 67.0384 65.0084 66.828Z" fill="#363939"/>
<path fill-rule="evenodd" clip-rule="evenodd" d="M216.689 87.7384C216.988 87.6584 217.293 87.8944 217.423 88.1752C217.554 88.456 217.563 88.7748 217.621 89.0792C217.848 90.2672 218.919 91.2424 220.124 91.3568C220.274 91.706 219.942 92.0552 219.679 92.33C219.082 92.9548 218.705 93.7868 218.628 94.648C218.578 95.2072 218.46 95.9848 217.899 95.9776C217.448 95.9717 217.25 95.4264 217.088 95.0056C216.691 93.978 215.796 93.156 214.739 92.848C214.517 92.7832 214.423 92.4996 214.484 92.2764C214.545 92.0536 214.715 91.8792 214.876 91.7136C215.571 91.0004 216.276 90.1564 216.269 89.1608C216.265 88.6224 216.169 87.8776 216.689 87.7384Z" fill="#81B5E9"/>
<path fill-rule="evenodd" clip-rule="evenodd" d="M237.752 181.26C236.818 182.219 236.488 183.72 236.932 184.982C236.44 185.202 236.073 184.524 235.829 184.043C235.464 183.322 234.774 182.773 233.989 182.58C235.126 181.863 235.834 180.513 235.777 179.17C236.234 178.872 236.746 179.493 236.877 180.023C237.008 180.553 237.206 181.241 237.752 181.26Z" fill="#EAEAEA"/>
<path fill-rule="evenodd" clip-rule="evenodd" d="M229.789 183.059C230.331 183.917 231.1 184.63 231.997 185.105C232.319 185.275 232.027 185.75 231.761 185.999C231.09 186.626 230.666 187.509 230.595 188.425C230.008 187.837 229.422 187.249 228.835 186.661C228.601 186.426 228.354 186.062 228.556 185.799C229.171 184.997 229.597 184.051 229.789 183.059Z" fill="#EAEAEA"/>
<path fill-rule="evenodd" clip-rule="evenodd" d="M190.609 79.6771C191.143 76.2779 192.433 72.9371 194.7 70.3483C196.966 67.7595 200.276 65.9923 203.716 65.9951C207.157 65.9979 210.632 67.9467 212.062 71.0763C212.802 72.6959 212.984 74.5187 212.933 76.2987C212.838 79.6831 211.928 83.0423 210.304 86.0131C208.839 88.6919 206.733 91.1019 203.999 92.4607C201.264 93.8199 197.857 94.0023 195.199 92.4999C193.094 91.3103 191.622 89.1751 190.92 86.8615C190.218 84.5479 190.234 82.0655 190.609 79.6771ZM211.64 77.1047C211.702 74.9971 211.354 72.8207 210.246 71.0271C209.572 69.9367 208.628 69.0143 207.522 68.3655C203.956 66.2743 199.103 67.3979 196.141 70.2819C193.179 73.1659 191.895 77.4279 191.763 81.5599C191.692 83.7639 191.929 86.0239 192.866 88.0199C193.804 90.0159 195.518 91.7235 197.654 92.2719C200.448 92.9895 203.398 91.6383 205.589 89.7611C209.245 86.6295 211.498 81.9167 211.64 77.1047Z" fill="#81B5E9"/>
<path fill-rule="evenodd" clip-rule="evenodd" d="M225.821 77.3162C225.252 78.0602 224.657 79.0374 225.093 79.8658C225.249 80.1622 224.845 80.507 224.524 80.4138C224.202 80.3202 224.019 79.9802 223.933 79.6562C223.848 79.3322 223.82 78.985 223.648 78.6974C223.476 78.4098 223.086 78.2098 222.801 78.387C222.397 78.339 222.355 77.7294 222.591 77.3966C222.826 77.0638 223.212 76.835 223.357 76.4542C223.471 76.1522 223.41 75.8138 223.464 75.4958C223.518 75.1778 223.789 74.8382 224.101 74.9194C224.091 75.4786 224.155 76.0586 224.439 76.5402C224.723 77.0222 225.265 77.3826 225.821 77.3162Z" fill="#81B5E9"/>
<path fill-rule="evenodd" clip-rule="evenodd" d="M174.921 76.2153C175.366 75.6981 175.925 75.2553 176.581 75.0669C177.236 74.8785 177.997 74.9781 178.509 75.4289C179.066 75.9193 179.241 76.7389 179.123 77.4717C179.004 78.2045 178.634 78.8705 178.245 79.5025C177.741 80.3229 177.193 81.1169 176.605 81.8797C176.421 82.1177 176.219 82.3633 175.938 82.4697C175.566 82.6097 175.152 82.4733 174.785 82.3201C173.497 81.7817 172.299 81.0261 171.259 80.0953C170.306 79.2429 169.427 77.9937 169.813 76.7749C170.059 75.9981 170.811 75.4365 171.616 75.3165C172.422 75.1965 173.257 75.4805 173.897 75.9837C174.204 76.2241 174.667 76.5109 174.921 76.2153ZM170.852 76.6665C170.243 77.5033 170.904 78.6761 171.67 79.3709C172.627 80.2381 173.763 80.8785 174.888 81.5117C175.032 81.5933 175.194 81.6773 175.356 81.6425C175.501 81.6113 175.608 81.4929 175.703 81.3797C176.465 80.4765 177.148 79.5065 177.741 78.4841C178.197 77.6981 178.531 76.5425 177.797 76.0073C177.215 75.5837 176.368 75.9249 175.875 76.4489C175.383 76.9725 175.073 77.6565 174.534 78.1333C174.113 77.4701 173.666 76.7817 172.984 76.3925C172.302 76.0037 171.313 76.0313 170.852 76.6665Z" fill="#81B5E9"/>
<path fill-rule="evenodd" clip-rule="evenodd" d="M166.209 53.3412C167.604 52.254 169.155 51.3668 170.799 50.7156C171.807 50.3164 172.958 50.0092 173.954 50.4368C175.551 51.1216 175.862 53.4144 175.022 54.9348C174.182 56.4556 172.588 57.3776 171.072 58.2248C168.097 59.886 165.123 61.5472 162.149 63.2084C162.735 62.0396 162.074 60.6672 161.532 59.4768C160.313 56.796 159.676 53.8528 159.675 50.908C159.675 49.9776 159.745 49.0196 160.153 48.1836C160.561 47.3476 161.375 46.654 162.305 46.6324C163.793 46.5972 164.783 48.1472 165.285 49.5484C165.725 50.7756 166.035 52.0492 166.209 53.3412ZM172.513 51.21C170.107 51.6988 167.866 52.9644 166.205 54.7716C166.042 54.9496 165.724 54.8712 165.574 54.6812C165.425 54.4912 165.396 54.236 165.368 53.996C165.181 52.4064 164.764 50.8436 164.137 49.3704C163.787 48.5496 163.202 47.6428 162.309 47.6284C161.648 47.6176 161.073 48.1472 160.829 48.762C160.585 49.3768 160.605 50.0612 160.652 50.7212C160.913 54.4008 161.881 58.0296 163.488 61.35C166.119 59.8756 168.751 58.4012 171.382 56.9268C172.203 56.4664 173.039 55.9952 173.677 55.3036C174.315 54.612 174.735 53.6512 174.549 52.7288C174.364 51.806 173.435 51.0228 172.513 51.21Z" fill="#81B5E9"/>
<path fill-rule="evenodd" clip-rule="evenodd" d="M147.797 235.606C155.477 234.731 163.206 234.291 170.935 234.287C172.353 234.287 173.587 233.185 174.163 231.89C174.739 230.594 174.785 229.133 174.786 227.715C174.789 222.447 174.293 217.193 173.798 211.948C173.597 209.821 173.397 207.694 173.196 205.567C173.074 204.277 172.945 202.957 172.402 201.78C171.459 199.738 169.37 198.41 167.195 197.838C165.019 197.266 162.732 197.344 160.484 197.426C153.02 197.699 145.556 197.973 138.092 198.246C142.395 196.668 147.081 196.594 151.663 196.538C155.177 196.495 158.69 196.453 162.203 196.409C165.794 196.366 169.897 196.546 172.188 199.312C173.668 201.099 173.994 203.545 174.242 205.852C175.021 213.115 175.591 220.401 175.952 227.697C176.072 230.115 175.975 232.956 174.007 234.365C172.905 235.153 171.477 235.271 170.126 235.363C161.901 235.92 153.675 236.477 145.449 237.034C143.518 237.165 141.483 237.277 139.745 236.423C139.142 236.126 138.522 235.456 138.846 234.867C141.52 236.323 144.772 235.951 147.797 235.606Z" fill="#363939"/>
<path fill-rule="evenodd" clip-rule="evenodd" d="M115.266 119.094C115.42 119.324 115.456 119.611 115.487 119.886C115.559 120.527 115.631 121.168 115.703 121.81C115.788 122.57 115.806 123.49 115.175 123.924C114.839 124.155 114.405 124.174 113.998 124.185C105.417 124.417 96.8365 124.649 88.2561 124.881C87.7041 124.896 87.0653 124.872 86.7269 124.435C86.5145 124.162 86.4817 123.793 86.4621 123.447C86.3993 122.36 86.3821 121.271 86.4097 120.182C86.4141 120.016 86.4237 119.838 86.5265 119.708C86.6497 119.552 86.8669 119.514 87.0637 119.488C95.9297 118.286 104.915 117.97 113.843 118.542C114.371 118.576 114.973 118.655 115.266 119.094ZM114.914 123.264C114.043 122.793 114.921 121.413 114.604 120.475C114.331 119.669 113.297 119.478 112.447 119.43C104.357 118.969 96.2241 119.256 88.1861 120.287C87.8901 120.325 87.5617 120.382 87.3821 120.62C87.2045 120.856 87.2365 121.182 87.2769 121.474C87.3397 121.926 87.4021 122.378 87.4645 122.831C87.5141 123.187 87.5893 123.586 87.8885 123.786C88.1057 123.931 88.3849 123.929 88.6457 123.923C97.4017 123.703 106.158 123.484 114.914 123.264Z" fill="#363939"/>
<path fill-rule="evenodd" clip-rule="evenodd" d="M131.407 134.284C131.448 133.332 131.489 132.38 131.53 131.427C131.609 129.57 131.707 127.644 132.57 125.998C133.433 124.351 135.296 123.072 137.105 123.5C138.237 123.767 139.28 124.657 140.418 124.418C141.409 124.21 142.017 123.231 142.854 122.661C144.849 121.303 147.631 122.565 149.281 124.326C151.059 126.224 152.215 128.696 152.532 131.278C152.559 131.497 152.573 131.743 152.431 131.913C152.315 132.054 152.123 132.103 151.945 132.143C151.258 132.301 150.571 132.458 149.884 132.615C149.299 132.749 148.692 132.884 148.105 132.762C147.517 132.641 146.953 132.187 146.905 131.589C146.73 134.933 149.233 138.126 148.536 141.401C148.277 141.259 148.017 141.117 147.758 140.975C148.37 137.692 145.443 134.513 146.055 131.229C146.135 130.795 146.31 130.332 146.698 130.121C147.087 129.91 147.701 130.15 147.686 130.592C147.661 131.299 148.425 131.828 149.133 131.822C149.842 131.816 150.486 131.437 151.091 131.068C151.306 130.937 151.247 130.613 151.157 130.377C150.488 128.621 149.608 126.945 148.542 125.397C147.821 124.35 146.953 123.316 145.756 122.891C144.558 122.466 142.977 122.899 142.536 124.091C142.02 125.486 140.071 125.58 138.639 125.178C137.208 124.775 135.601 124.148 134.323 124.909C133.255 125.546 132.898 126.903 132.698 128.13C132.355 130.235 132.196 132.371 132.225 134.504C132.283 134.83 132.698 134.935 133.028 134.926C134.77 134.881 136.387 133.507 136.713 131.796C137.182 132.336 137.35 133.067 137.501 133.766C138.027 136.186 138.553 138.607 139.079 141.027C139.24 141.772 139.051 142.917 138.301 142.782C137.961 140.142 137.457 137.523 136.794 134.946C135.54 135.231 134.286 135.516 133.031 135.801C132.647 135.889 132.216 135.969 131.879 135.764C131.415 135.48 131.384 134.829 131.407 134.284Z" fill="#363939"/>
<path fill-rule="evenodd" clip-rule="evenodd" d="M168.099 200.021C168.739 200.715 167.744 201.995 168.331 202.735C168.635 203.118 168.418 203.727 168.015 204.005C167.612 204.283 167.095 204.321 166.607 204.349C158.204 204.837 149.801 205.325 141.398 205.814C140.827 205.847 140.145 205.827 139.833 205.348C139.696 205.139 139.663 204.881 139.634 204.633C139.557 203.987 139.48 203.341 139.403 202.695C139.379 202.493 139.358 202.275 139.453 202.095C139.611 201.797 140.001 201.733 140.336 201.703C149.167 200.924 158.008 200.265 166.857 199.727C167.297 199.7 167.8 199.697 168.099 200.021ZM167.134 201.112C167.107 200.953 167.071 200.778 166.943 200.679C166.817 200.579 166.639 200.587 166.478 200.598C158.643 201.169 150.808 201.741 142.973 202.312C142.339 202.358 141.683 202.411 141.129 202.723C140.576 203.035 140.159 203.685 140.325 204.298C140.377 204.487 140.487 204.668 140.655 204.77C140.861 204.895 141.118 204.886 141.359 204.873C149.631 204.424 157.903 203.975 166.176 203.527C167.159 203.473 167.301 202.083 167.134 201.112Z" fill="#363939"/>
<path fill-rule="evenodd" clip-rule="evenodd" d="M174.729 192.497C176.216 196.411 176.69 200.624 177.152 204.785C178.226 214.453 179.299 224.12 180.373 233.787C179.574 233.853 179.206 232.828 179.106 232.033C177.48 219.025 176.957 205.85 174.207 193.033C174.381 192.854 174.555 192.675 174.729 192.497Z" fill="#363939"/>
<path fill-rule="evenodd" clip-rule="evenodd" d="M126.754 125.155C126.522 125.057 126.527 124.695 126.704 124.517C126.882 124.339 127.151 124.296 127.4 124.264C129.269 124.027 131.153 123.911 133.036 123.918C132.936 124.722 131.898 124.957 131.089 124.994C129.73 125.057 128.371 125.119 127.012 125.182C126.925 125.186 126.834 125.19 126.754 125.155Z" fill="#363939"/>
<path fill-rule="evenodd" clip-rule="evenodd" d="M137.294 223.468C137.139 220.591 136.984 217.713 136.829 214.836C136.411 207.091 135.98 199.267 133.824 191.817C133.549 190.866 133.235 189.9 132.625 189.12C131.098 187.167 128.273 186.942 125.794 186.942C116.236 186.943 106.679 187.852 97.2928 189.653C96.3392 189.836 95.3476 190.046 94.5864 190.649C93.3772 191.608 93.0584 193.293 92.946 194.832C92.7408 197.642 92.944 200.482 93.5468 203.234C93.2016 203.176 92.8568 203.119 92.512 203.061C91.2472 200.427 90.6708 197.466 90.8556 194.55C90.936 193.283 91.1688 191.994 91.8212 190.905C93.4444 188.198 97.0167 187.549 100.155 187.213C108.117 186.36 116.108 185.786 124.11 185.492C127.332 185.373 130.971 185.463 133.182 187.809C134.293 188.989 134.856 190.574 135.298 192.134C136.834 197.553 137.258 203.215 137.674 208.832C138.08 214.32 138.486 219.808 138.893 225.295C138.988 226.585 139.083 227.895 138.822 229.162C137.972 233.29 133.576 235.8 129.391 236.3C125.206 236.799 120.993 235.842 116.779 235.772C111.112 235.678 105.412 237.185 99.8232 236.244C98.2136 235.972 96.502 235.402 95.6172 234.03C95.0032 233.079 94.8924 231.899 94.7988 230.771C94.1356 222.811 93.4728 214.851 92.81 206.892C92.7656 206.359 93.162 205.564 93.5716 205.908C94.3024 213.575 95.0332 221.242 95.764 228.909C95.8628 229.947 95.9704 231.015 96.4528 231.94C97.1532 233.281 98.5664 234.134 100.031 234.514C101.496 234.894 103.032 234.863 104.546 234.843C110.948 234.76 117.354 234.919 123.745 235.321C125.883 235.456 128.043 235.616 130.154 235.258C132.265 234.899 134.36 233.958 135.671 232.264C137.537 229.852 137.459 226.514 137.294 223.468Z" fill="#363939"/>
<path fill-rule="evenodd" clip-rule="evenodd" d="M126.428 122.043C127.024 121.578 126.523 120.626 126.641 119.879C126.807 118.823 128.121 118.46 129.183 118.337C136.005 117.549 142.876 117.176 149.743 117.221C150.315 117.225 150.99 117.289 151.278 117.783C151.623 118.375 151.301 119.41 151.955 119.618C152.263 119.715 152.656 119.535 152.889 119.758C153.274 120.126 152.557 120.624 152.027 120.671C143.99 121.393 135.936 121.92 127.873 122.254C127.38 122.275 126.857 122.287 126.428 122.043ZM150.435 118.715C150.247 118.243 149.619 118.174 149.111 118.181C142.636 118.28 136.165 118.6 129.712 119.141C128.955 119.204 128.062 119.362 127.747 120.053C127.595 120.445 127.884 120.897 128.266 121.075C128.647 121.253 129.088 121.23 129.508 121.204C135.954 120.795 142.4 120.386 148.846 119.977C149.243 119.952 149.656 119.922 149.998 119.719C150.34 119.517 150.581 119.084 150.435 118.715Z" fill="#363939"/>
<path fill-rule="evenodd" clip-rule="evenodd" d="M159.124 213.305C160.118 214.095 159.693 215.825 160.558 216.755C160.96 217.187 161.562 217.356 162.129 217.522C162.493 217.628 162.944 217.896 162.828 218.257C162.709 218.627 162.17 218.567 161.808 218.426C160.627 217.963 159.295 217.193 159.23 215.926C159.182 215.001 158.907 214.089 158.436 213.292C158.568 213.067 158.92 213.143 159.124 213.305Z" fill="#363939"/>
<path fill-rule="evenodd" clip-rule="evenodd" d="M163.825 226.408C163.501 222.239 163.177 218.069 162.853 213.899C162.806 213.286 162.752 212.65 162.448 212.116C162.145 211.581 161.516 211.178 160.922 211.338C158.236 212.058 155.447 212.392 152.666 212.327C150.235 212.269 147.747 211.914 145.409 212.58C145.452 213.738 145.496 214.896 145.539 216.054C145.552 216.392 145.571 216.751 145.763 217.03C146.303 217.81 147.642 217.215 147.946 216.316C148.25 215.418 147.975 214.435 148.028 213.488C148.037 213.32 148.071 213.129 148.213 213.04C148.517 212.852 148.808 213.302 148.886 213.651C149.109 214.65 149.332 215.696 149.069 216.686C148.805 217.675 147.887 218.572 146.872 218.441C145.82 218.305 145.389 219.743 145.364 220.804C145.313 222.921 145.262 225.037 145.211 227.154C145.195 227.82 145.435 228.741 146.097 228.666C147.807 228.472 149.516 228.278 151.225 228.084C151.639 228.038 152.083 227.996 152.446 228.198C152.809 228.4 153.002 228.951 152.704 229.241C150.696 229.417 148.688 229.593 146.681 229.769C146.094 229.82 145.485 229.869 144.932 229.668C144.379 229.467 143.897 228.94 143.947 228.354C144.441 222.596 144.552 216.805 144.278 211.032C144.22 209.804 145.716 209.18 146.924 208.954C150.76 208.234 154.672 207.922 158.573 208.025C159.881 208.059 161.307 208.189 162.255 209.09C163.221 210.008 163.41 211.453 163.543 212.778C164.043 217.746 164.541 222.713 165.041 227.68C165.067 227.948 165.074 228.267 164.86 228.43C164.732 228.527 164.56 228.538 164.4 228.544C162.735 228.614 161.07 228.683 159.405 228.752C158.523 228.789 157.573 228.808 156.839 228.318C156.335 227.982 156.002 227.448 155.71 226.918C155.008 225.646 154.447 224.296 154.041 222.902C153.404 224.496 153.001 226.183 152.848 227.893C152.043 227.98 151.894 226.773 152.081 225.986C152.467 224.361 152.853 222.736 153.239 221.112C153.298 220.864 153.391 220.577 153.634 220.501C153.991 220.389 154.265 220.816 154.395 221.167C154.939 222.628 155.483 224.089 156.027 225.55C156.495 226.808 157.844 227.564 159.177 227.719C160.51 227.874 161.846 227.538 163.146 227.206C163.403 227.14 163.695 227.045 163.795 226.799C163.845 226.677 163.835 226.54 163.825 226.408ZM145.712 211.141C146.918 211.156 148.123 211.172 149.329 211.188C150.235 211.2 151.141 211.211 152.047 211.194C155.317 211.132 158.579 210.694 161.749 209.89C161.042 209.164 159.907 209.123 158.895 209.141C155.268 209.206 151.645 209.417 148.036 209.773C147.07 209.869 145.869 210.183 145.712 211.141Z" fill="#363939"/>
<path fill-rule="evenodd" clip-rule="evenodd" d="M140.316 208.018C140.247 207.642 140.736 207.436 141.115 207.377C145.489 206.699 149.922 206.399 154.347 206.482C154.411 206.484 154.476 206.485 154.535 206.51C154.743 206.596 154.733 206.923 154.568 207.076C154.403 207.23 154.161 207.256 153.936 207.272C149.722 207.588 145.446 207.426 141.317 208.327C140.933 208.411 140.387 208.404 140.316 208.018Z" fill="#363939"/>
<path fill-rule="evenodd" clip-rule="evenodd" d="M238.137 198.962C238.379 198.392 238.645 197.791 239.158 197.444C239.591 197.152 240.133 197.087 240.652 197.031C242.192 196.864 243.732 196.697 245.272 196.529C246.033 196.447 247.017 196.126 246.987 195.36C246.894 192.888 247.085 190.04 249.049 188.536C250.846 187.159 253.537 187.537 255.38 188.85C257.223 190.163 258.391 192.208 259.399 194.235C259.845 195.133 261.066 195.296 262.054 195.123C263.041 194.95 264.042 194.562 265.016 194.798C266.515 195.162 267.273 196.8 267.789 198.255C270.375 205.555 272.131 213.165 275.347 220.21C276.551 222.845 276.17 226.133 274.396 228.423C274.177 226.604 274.482 224.726 275.265 223.069C275.633 222.289 274.406 221.776 273.543 221.779C264.749 221.801 255.917 221.826 247.22 223.131C246.955 223.171 246.672 223.22 246.474 223.401C246.282 223.577 246.207 223.844 246.14 224.097C245.871 225.121 245.601 226.145 245.331 227.169C245.162 227.811 245.268 228.808 245.929 228.741C254.536 227.869 263.189 227.454 271.841 227.496C272.751 227.5 273.993 227.862 273.875 228.764C264.659 228.872 255.409 228.983 246.292 230.34C244.841 230.556 243.838 228.759 244.003 227.3C244.167 225.842 245.004 224.534 245.239 223.085C245.443 221.837 245.189 220.563 244.915 219.328C244.48 217.365 243.994 215.413 243.458 213.475C242.935 211.583 242.364 209.706 241.793 207.828C240.929 204.989 240.065 202.149 239.201 199.309C238.013 201.048 237.484 203.226 237.741 205.317C237.921 206.772 238.46 208.155 238.865 209.565C239.443 211.58 239.746 213.662 240.048 215.737C240.642 219.823 241.237 223.909 241.831 227.996C241.919 228.597 241.746 229.484 241.145 229.395C238.472 221.126 239.206 211.985 236.052 203.888C236.747 202.246 237.442 200.604 238.137 198.962ZM258.044 200.462C258.915 199.977 259.366 198.847 259.067 197.896C258.769 196.945 257.753 196.275 256.761 196.375C254.329 196.621 251.897 196.868 249.466 197.114C249.241 197.137 248.99 197.174 248.855 197.355C248.749 197.498 248.747 197.691 248.757 197.868C248.821 198.979 249.207 200.07 249.855 200.975C250.359 201.678 251.055 202.52 250.662 203.29C250.171 204.253 248.556 203.713 248.155 202.709C247.755 201.706 248.04 200.573 247.965 199.495C247.891 198.417 247.116 197.176 246.05 197.355C244.303 197.649 242.555 197.943 240.807 198.238C240.556 198.28 240.229 198.435 240.302 198.679C242.431 205.723 244.559 212.768 246.687 219.812C246.952 220.69 247.55 221.777 248.443 221.568C256.641 219.654 265.284 221.464 273.607 220.206C271.114 212.388 268.534 204.597 265.868 196.836C265.79 196.607 265.701 196.363 265.505 196.221C265.289 196.062 264.997 196.067 264.73 196.078C263.481 196.131 262.233 196.184 260.984 196.237C260.49 196.258 259.817 196.493 259.925 196.976C260.264 198.488 260.603 200.001 260.943 201.513C261.001 201.773 261.059 202.052 260.961 202.301C260.697 202.977 259.702 202.806 259.038 202.513C258.602 202.322 258.144 202.111 257.875 201.719C257.605 201.326 257.628 200.693 258.044 200.462ZM254.826 189.488C253.869 188.786 252.609 188.279 251.505 188.714C251.119 188.866 250.785 189.121 250.456 189.372C249.871 189.821 249.268 190.289 248.922 190.941C248.601 191.547 248.535 192.251 248.475 192.935C248.422 193.532 248.37 194.129 248.317 194.726C248.285 195.097 248.271 195.522 248.54 195.779C248.797 196.026 249.202 196.008 249.557 195.975C252.1 195.733 254.643 195.491 257.187 195.249C257.549 195.214 257.992 195.116 258.088 194.764C258.125 194.626 258.095 194.478 258.061 194.339C257.592 192.411 256.425 190.661 254.826 189.488ZM253.874 195.807C253.618 195.879 253.902 196.359 254.089 196.169C254.327 196.071 254.063 195.624 253.862 195.785L253.874 195.807Z" fill="#81B5E9"/>
<path fill-rule="evenodd" clip-rule="evenodd" d="M173.238 138.632C173.194 138.483 173.282 138.328 173.387 138.212C173.899 137.648 174.757 137.606 175.519 137.604C180.14 137.594 184.762 137.583 189.383 137.572C189.708 137.572 190.057 137.578 190.322 137.766C190.588 137.954 190.692 138.397 190.436 138.599C190.301 138.706 190.114 138.713 189.941 138.715C184.572 138.774 179.203 138.834 173.834 138.894C173.601 138.896 173.305 138.856 173.238 138.632Z" fill="#363939"/>
<path fill-rule="evenodd" clip-rule="evenodd" d="M174.952 143.404C174.673 143.244 174.712 142.795 174.946 142.575C175.18 142.355 175.521 142.303 175.84 142.265C177.753 142.034 179.677 141.908 181.6 141.781C182.659 141.711 183.718 141.641 184.777 141.572C186.154 141.481 187.532 141.39 188.909 141.299C189.346 141.27 189.835 141.258 190.164 141.547C190.494 141.836 190.413 142.532 189.976 142.559C185.115 142.86 180.254 143.162 175.394 143.463C175.243 143.472 175.082 143.479 174.952 143.404Z" fill="#363939"/>
<path fill-rule="evenodd" clip-rule="evenodd" d="M201.005 149.688C201.372 148.99 201.771 148.258 202.447 147.851C203.122 147.444 204.159 147.528 204.523 148.228C204.909 148.972 204.333 149.87 203.657 150.367C202.981 150.864 202.149 151.214 201.71 151.93C204.085 153.494 206.46 155.06 208.835 156.624C210.695 157.85 212.799 159.6 212.418 161.795C212.195 163.082 211.105 164.082 209.89 164.562C208.675 165.043 207.34 165.093 206.034 165.13C197.26 165.383 188.477 165.338 179.706 164.997C179.098 164.973 178.419 164.916 178.013 164.462C177.699 164.11 177.635 163.608 177.584 163.139C177.079 158.47 176.574 153.802 176.069 149.133C176.051 148.961 176.033 148.781 176.095 148.618C176.354 147.937 177.374 148.357 177.944 148.812C181.982 152.035 188.437 151.656 192.07 147.983C192.948 147.096 194.443 147.211 195.57 147.746C196.698 148.281 197.642 149.151 198.773 149.678C198.652 149.024 199.229 148.334 199.894 148.337C200.559 148.34 201.131 149.034 201.005 149.688ZM201.502 152.695C201.213 151.636 199.647 151.414 198.784 152.092C197.92 152.77 197.64 153.951 197.565 155.046C197.537 155.455 196.865 155.496 196.635 155.157C196.405 154.818 196.498 154.362 196.626 153.972C196.963 152.946 197.483 151.979 198.153 151.13C198.485 150.711 197.998 150.143 197.56 149.835C196.015 148.749 193.828 147.677 192.411 148.925C188.527 152.346 182.333 152.801 177.992 149.986C178.043 153.49 178.302 156.992 178.765 160.466C178.811 160.816 178.871 161.19 179.113 161.447C179.433 161.788 179.957 161.811 180.424 161.812C187.967 161.822 195.509 161.831 203.052 161.841C203.786 161.842 204.784 161.58 204.727 160.848C204.593 159.145 205.347 157.397 206.677 156.325C205.631 155.565 204.585 154.805 203.539 154.045C203.22 153.813 202.886 153.575 202.497 153.508C201.323 153.307 200.539 154.653 200.124 155.769C199.488 154.632 200.229 152.977 201.502 152.695ZM181.788 164.323C189.643 164.385 197.498 164.372 205.352 164.284C207.582 164.259 210.186 164.032 211.395 162.159C200.549 162.635 189.687 162.753 178.833 162.512C178.698 163.815 180.478 164.313 181.788 164.323ZM208.669 157.322C208.435 157.174 208.194 157.022 207.921 156.976C207.099 156.834 206.45 157.656 206.093 158.41C205.886 158.846 205.706 159.295 205.555 159.753C205.44 160.102 205.341 160.474 205.413 160.834C205.485 161.194 205.781 161.536 206.149 161.54C207.484 161.555 208.82 161.541 210.155 161.497C210.47 161.487 210.812 161.464 211.048 161.256C211.326 161.01 211.359 160.585 211.29 160.221C211.039 158.903 209.803 158.04 208.669 157.322ZM203.951 148.795C203.936 148.388 203.393 148.182 203.018 148.339C202.642 148.496 202.411 148.869 202.205 149.22C201.956 149.644 201.707 150.068 201.457 150.492C201.327 150.715 201.256 151.093 201.508 151.149C202.171 150.598 202.834 150.046 203.497 149.495C203.719 149.311 203.961 149.084 203.951 148.795ZM199.653 149.458C199.541 150.006 199.822 150.613 200.314 150.88C200.484 150.316 200.384 149.676 200.05 149.19C200.029 149.052 199.843 148.972 199.729 149.053C199.642 149.164 199.611 149.316 199.647 149.452L199.653 149.458Z" fill="#363939"/>
<path fill-rule="evenodd" clip-rule="evenodd" d="M172.647 133.284C172.448 132.32 172.249 131.354 172.049 130.389C171.972 130.014 171.901 129.598 172.097 129.269C172.365 128.821 172.979 128.762 173.501 128.752C186.322 128.53 199.147 128.578 211.966 128.899C212.841 128.921 213.559 129.676 213.825 130.509C214.091 131.343 214.003 132.242 213.913 133.112C213.865 133.583 213.787 134.107 213.412 134.395C213.105 134.63 212.685 134.636 212.298 134.632C199.423 134.491 186.548 134.351 173.672 134.211C173.46 134.208 173.236 134.202 173.057 134.09C172.794 133.924 172.71 133.588 172.647 133.284ZM174.418 129.599C173.47 129.592 172.798 130.718 173.035 131.636C173.272 132.553 174.159 133.185 175.079 133.408C176.001 133.631 176.965 133.524 177.909 133.435C189.536 132.348 201.294 134.426 212.913 133.253C212.973 132.546 213.031 131.816 212.804 131.144C212.576 130.472 211.983 129.87 211.273 129.864C198.988 129.776 186.703 129.688 174.418 129.599Z" fill="#363939"/>
<path fill-rule="evenodd" clip-rule="evenodd" d="M95.3396 161.237C94.9104 162.05 94.3188 162.876 93.4316 163.118C91.7416 163.579 90.3444 161.703 89.8832 160.013C89.1632 157.375 89.3452 154.5 90.3924 151.974C90.9524 150.623 90.4856 149.025 89.6072 147.855C87.9512 145.648 84.8612 144.682 82.2064 145.433C79.5516 146.183 77.4564 148.545 76.9012 151.248C76.814 151.671 76.8756 152.265 77.3032 152.325C79.4372 152.624 80.4168 155.128 80.7416 157.258C80.9896 158.884 81.0972 160.588 80.5456 162.138C79.994 163.688 78.644 165.049 77.0036 165.174C75.5316 164.183 74.4232 162.663 73.9288 160.959C73.0092 157.789 74.2036 154.428 75.4368 151.367C76.1896 149.498 76.9972 147.585 78.4268 146.166C81.4828 143.132 87.1892 143.492 89.8392 146.886C90.8588 148.191 91.444 149.813 92.5736 151.024C93.4252 151.937 94.5512 152.576 95.328 153.554C97.0156 155.677 96.6052 158.838 95.3396 161.237ZM74.8636 155.376C74.09 157.509 74.3056 159.978 75.4372 161.944C75.6228 162.267 75.844 162.588 76.1688 162.771C76.4936 162.953 76.9464 162.957 77.2032 162.686C77.9728 161.877 78.0688 160.654 78.0664 159.537C78.0632 158.217 77.982 156.897 77.8228 155.586C77.7576 155.049 77.6464 154.456 77.2124 154.134C76.7784 153.812 75.964 154.081 76.032 154.617C76.2304 156.178 76.4288 157.738 76.6268 159.298C76.672 159.653 76.7116 160.037 76.534 160.347C76.356 160.657 75.8648 160.802 75.6396 160.524C75.056 159.334 74.88 157.948 75.1476 156.649C75.244 156.182 75.31 155.543 74.8636 155.376ZM92.7252 161.563C92.9224 161.409 93.0144 161.159 93.088 160.921C93.6664 159.042 93.6728 156.992 93.1056 155.11C92.89 154.394 92.3056 153.557 91.598 153.797C91.1888 153.935 90.9816 154.383 90.8516 154.795C90.2596 156.666 90.3384 158.741 91.07 160.561C91.2104 160.91 91.3836 161.263 91.6808 161.493C91.9776 161.724 92.4288 161.795 92.7252 161.563ZM78.8376 154.812C79.3532 157.425 79.2436 160.159 78.5204 162.722C78.454 162.958 78.7216 163.142 78.9456 163.241C80.0304 160.611 80.1676 157.6 79.3272 154.881C79.1876 154.782 78.9992 154.755 78.8376 154.812ZM93.8872 154.107C93.7268 154.362 93.5668 154.618 93.4064 154.874C93.9344 154.785 94.1764 155.505 94.2044 156.04C94.27 157.277 94.3352 158.513 94.4008 159.75C94.8928 159.565 94.9816 158.92 94.9908 158.394C95.0116 157.211 95.032 156.028 95.0528 154.845C94.8756 154.824 94.6984 154.803 94.5212 154.783C94.5028 154.447 94.2204 154.146 93.8872 154.107Z" fill="#363939"/>
<path fill-rule="evenodd" clip-rule="evenodd" d="M151.888 156.351C148.363 156.183 144.823 156.336 141.325 156.808C141.016 156.849 140.669 156.884 140.421 156.696C140.172 156.507 140.199 156.006 140.51 155.972C144.007 155.587 147.52 155.34 151.037 155.231C151.419 155.219 151.847 155.226 152.12 155.494C152.392 155.763 152.27 156.37 151.888 156.351Z" fill="#363939"/>
<path fill-rule="evenodd" clip-rule="evenodd" d="M70.0083 142.276C71.0091 142.182 72.0099 142.088 73.0103 141.994C73.5143 141.947 74.0187 141.9 74.5227 141.852C77.7291 141.551 80.9355 141.25 84.1447 140.982C84.2707 140.972 84.4023 140.962 84.5191 141.01C84.8667 141.154 84.8131 141.716 84.5103 141.939C84.2079 142.162 83.7983 142.149 83.4227 142.137C78.6963 141.98 73.9859 143.4 69.2815 142.92C68.9759 142.888 68.5759 142.731 68.6299 142.428C69.0875 142.363 69.5483 142.32 70.0083 142.276Z" fill="#363939"/>
<path fill-rule="evenodd" clip-rule="evenodd" d="M177.786 246.14C177.629 244.764 177.516 243.266 176.591 242.235C175.88 241.444 176.248 239.973 177.247 239.609C178.245 239.245 179.473 240.134 179.438 241.197C179.426 241.562 179.293 241.91 179.19 242.26C178.484 244.65 179.14 247.223 180.003 249.561C180.877 251.929 182.215 254.45 184.616 255.228C187.393 256.129 190.467 254.136 191.699 251.488C192.93 248.84 192.743 245.766 192.313 242.878C192.27 242.588 192.192 242.253 191.926 242.13C190.845 241.632 190.682 239.879 191.651 239.188C192.62 238.498 194.223 239.225 194.342 240.409C194.382 240.811 194.279 241.211 194.203 241.607C193.672 244.358 194.374 247.242 193.793 249.982C193.428 251.698 192.555 253.302 191.312 254.54C189.994 255.852 188.214 256.756 186.354 256.788C183.85 256.83 181.508 255.277 180.093 253.211C178.678 251.145 178.071 248.628 177.786 246.14Z" fill="#363939"/>
<path fill-rule="evenodd" clip-rule="evenodd" d="M104.766 133.134C104.835 134.077 104.902 135.048 104.608 135.947C104.314 136.845 103.568 137.664 102.626 137.745C97.77 138.162 92.9136 138.58 88.0488 138.867C81.4152 139.26 74.7696 139.411 68.126 139.563C67.8888 139.568 67.6352 139.569 67.4376 139.438C67.1408 139.242 67.0852 138.837 67.0576 138.483C66.986 137.554 66.914 136.625 66.842 135.697C66.8204 135.414 66.8036 135.109 66.956 134.87C67.1788 134.52 67.656 134.46 68.0704 134.435C80.2896 133.711 92.526 133.277 104.766 133.134ZM102.722 136.391C103.502 136.339 103.66 135.111 103.088 134.577C102.515 134.044 101.646 134.032 100.864 134.052C90.8076 134.302 80.7476 134.552 70.7116 135.234C69.9888 135.283 69.2368 135.343 68.612 135.71C67.9872 136.077 67.5364 136.848 67.7748 137.532C68.114 138.503 69.4248 138.61 70.452 138.542C81.2084 137.825 91.9648 137.108 102.722 136.391Z" fill="#363939"/>
<path fill-rule="evenodd" clip-rule="evenodd" d="M92.2803 156.602C92.2899 156.857 92.2995 157.112 92.3091 157.368C92.3291 157.9 92.3491 158.435 92.2723 158.961C91.6055 158.89 91.3987 158.033 91.3599 157.364C91.3415 157.045 91.3351 156.689 91.5483 156.452C91.7615 156.215 92.2683 156.283 92.2803 156.602Z" fill="#363939"/>
<path fill-rule="evenodd" clip-rule="evenodd" d="M140.293 158.779C140.948 158.175 141.942 158.194 142.832 158.219C145.648 158.299 148.472 158.082 151.242 157.571C151.569 157.511 151.744 158.019 151.541 158.282C151.337 158.544 150.969 158.599 150.639 158.632C147.517 158.95 144.382 159.138 141.245 159.196C140.871 159.203 140.397 159.139 140.293 158.779Z" fill="#363939"/>
<path fill-rule="evenodd" clip-rule="evenodd" d="M245.403 169.335C245.095 170.379 244.069 171.025 243.091 171.503C238.195 173.898 232.439 174.484 227.161 173.126C225.388 172.669 223.368 171.614 223.293 169.785C223.237 168.441 224.31 167.314 225.447 166.593C227.19 165.488 229.223 164.929 231.249 164.536C235.159 163.776 239.397 163.619 242.935 165.446C244.418 166.211 245.876 167.735 245.403 169.335ZM224.501 169.582C224.504 171.059 226.152 171.924 227.581 172.299C232.543 173.6 237.971 173.039 242.561 170.749C243.298 170.381 244.075 169.897 244.309 169.107C244.623 168.047 243.802 166.979 242.891 166.353C240.148 164.469 236.52 164.726 233.211 165.081C230.547 165.366 227.71 165.738 225.68 167.485C225.053 168.025 224.499 168.754 224.501 169.582Z" fill="#363939"/>
<path fill-rule="evenodd" clip-rule="evenodd" d="M101.349 82.8099C101.183 81.8603 101.837 80.9167 102.681 80.4503C103.525 79.9839 104.52 79.8939 105.482 79.8371C114.064 79.3323 122.632 80.7107 131.217 81.1635C132.321 81.2219 133.487 81.2831 134.416 81.8831C135.345 82.4835 135.891 83.8307 135.248 84.7311C134.937 85.1663 134.423 85.4083 133.913 85.5695C132.441 86.0343 130.862 85.9727 129.32 85.9067C121.294 85.5615 113.269 85.2163 105.243 84.8715C103.65 84.8031 101.625 84.3807 101.349 82.8099ZM102.451 81.4339C101.997 82.0727 102.377 83.0263 103.032 83.4563C103.687 83.8863 104.513 83.9347 105.295 83.9699C113.801 84.3527 122.307 84.7355 130.812 85.1183C131.641 85.1555 132.559 85.1635 133.187 84.6215C133.814 84.0791 133.731 82.7863 132.912 82.6559C123.454 81.1523 113.857 80.5279 104.283 80.7931C103.611 80.8119 102.84 80.8855 102.451 81.4339Z" fill="#363939"/>
<path fill-rule="evenodd" clip-rule="evenodd" d="M195.453 74.5685C196.759 71.8485 198.876 69.0445 201.884 68.8125C203.888 68.6581 206.014 69.0085 207.6 70.2429C210.477 72.4825 210.677 76.8245 209.649 80.3221C208.437 84.4445 205.734 88.2625 201.855 90.1113C200.93 90.5525 199.924 90.8821 198.9 90.8417C196.179 90.7349 194.197 88.0617 193.611 85.4021C192.808 81.7573 193.839 77.9333 195.453 74.5685ZM198.837 89.8461C200.849 90.1201 202.744 88.8389 204.163 87.3873C206.823 84.6665 208.608 81.1037 209.197 77.3449C209.366 76.2617 209.437 75.1377 209.142 74.0813C208.562 72.0041 206.593 70.5029 204.48 70.0709C202.448 69.6557 200.215 70.1513 198.649 71.5105C197.896 72.1641 197.311 72.9893 196.801 73.8453C195.136 76.6381 194.189 79.8877 194.305 83.1369C194.357 84.6049 194.636 86.0969 195.379 87.3641C196.122 88.6309 197.382 89.6481 198.837 89.8461Z" fill="#81B5E9"/>
<path fill-rule="evenodd" clip-rule="evenodd" d="M129.491 190.015C129.759 190.001 130.045 189.992 130.272 190.135C130.552 190.312 130.654 190.664 130.735 190.984C130.911 191.688 131.089 192.419 130.947 193.13C130.804 193.84 130.244 194.523 129.52 194.554C127.673 194.635 125.826 194.716 123.979 194.796C123.255 194.828 122.406 194.932 122.046 195.561C121.802 195.987 121.875 196.517 121.955 197.002C122.181 198.376 122.821 200.112 124.213 200.062C125.139 200.028 125.964 200.731 126.362 201.567C126.761 202.404 126.82 203.355 126.873 204.28C126.923 205.15 126.701 206.34 125.829 206.362C125.126 206.379 124.932 207.329 124.955 208.032C125.11 212.92 125.265 217.808 125.42 222.696C125.445 223.484 124.436 223.815 123.652 223.894C117.082 224.558 110.443 224.54 103.877 223.842C103.641 223.817 103.341 223.725 103.335 223.488C103.214 217.965 103.092 212.442 102.971 206.919C102.964 206.597 102.806 206.152 102.495 206.236C101.517 206.504 100.533 205.596 100.33 204.602C100.127 203.608 100.475 202.593 100.817 201.638C100.976 201.197 101.153 200.729 101.532 200.452C102.341 199.862 103.836 200.282 104.198 199.348C104.258 199.194 104.27 199.025 104.264 198.859C104.213 197.417 102.87 196.279 101.455 195.994C100.041 195.708 98.5822 196.084 97.2042 196.513C96.8886 195.322 96.8078 194.068 96.9674 192.846C97.0054 192.558 97.0638 192.255 97.2578 192.038C97.5342 191.728 97.9946 191.686 98.4086 191.664C108.769 191.114 119.13 190.565 129.491 190.015ZM101.867 201.206C101.668 201.437 101.624 201.76 101.588 202.063C101.494 202.853 101.401 203.643 101.307 204.433C101.287 204.6 101.269 204.775 101.336 204.928C101.479 205.257 101.913 205.314 102.272 205.322C104.174 205.37 106.076 205.417 107.978 205.464C108.299 205.472 108.635 205.477 108.92 205.329C109.378 205.092 109.566 204.446 109.308 204C109.54 203.976 109.773 203.952 110.006 203.928C109.903 204.618 110.605 205.194 111.295 205.296C111.984 205.397 112.677 205.187 113.371 205.132C114.828 205.017 116.282 205.588 117.733 205.416C117.885 205.398 118.048 205.367 118.155 205.256C118.295 205.112 118.292 204.886 118.281 204.685C118.226 203.722 118.171 202.759 118.116 201.796C118.099 201.492 118.073 201.166 117.878 200.933C117.599 200.6 117.101 200.59 116.667 200.607C114.573 200.688 112.479 200.769 110.385 200.85C110.239 200.856 110.077 200.868 109.976 200.974C109.863 201.092 109.871 201.278 109.886 201.441C109.956 202.19 110.027 202.94 110.097 203.689C109.819 203.716 109.547 203.797 109.299 203.927C109.237 203.336 109.176 202.746 109.114 202.155C109.057 201.617 108.847 200.927 108.305 200.92C106.577 200.897 104.849 200.874 103.121 200.851C102.671 200.845 102.16 200.865 101.867 201.206ZM111.824 207.015C111.795 206.618 111.623 206.091 111.227 206.134C108.762 206.399 106.268 206.384 103.807 206.089C103.868 211.451 103.968 216.813 104.107 222.174C104.125 222.864 104.995 223.14 105.682 223.211C107.722 223.42 109.775 223.491 111.825 223.424C111.993 223.419 112.175 223.407 112.303 223.298C112.471 223.155 112.482 222.904 112.479 222.683C112.421 217.455 112.202 212.23 111.824 207.015ZM124.148 206.72C124.081 206.604 123.927 206.58 123.794 206.569C121.674 206.389 119.543 206.339 117.417 206.418C117.224 206.425 117.018 206.438 116.865 206.556C116.634 206.735 116.619 207.074 116.626 207.367C116.743 212.719 116.86 218.071 116.977 223.423C119.318 223.649 121.701 223.428 123.961 222.775C124.101 222.735 124.25 222.686 124.341 222.572C124.439 222.448 124.445 222.278 124.447 222.12C124.492 218.676 124.403 215.233 124.314 211.79C124.272 210.168 124.23 208.546 124.188 206.925C124.187 206.854 124.184 206.78 124.148 206.72ZM97.8614 193.152C97.455 193.791 97.8918 194.693 98.5598 195.05C99.2278 195.407 100.028 195.372 100.785 195.329C105.359 195.064 109.934 194.798 114.509 194.534C118.872 194.281 123.235 194.028 127.591 193.673C128.229 193.621 128.899 193.556 129.427 193.193C129.954 192.83 130.26 192.062 129.906 191.529C129.552 190.994 128.789 190.969 128.148 191.002C118.642 191.492 109.136 191.983 99.6294 192.473C98.973 192.507 98.2142 192.597 97.8614 193.152ZM116.147 223.298C115.825 218.074 115.762 212.833 115.956 207.602C115.967 207.302 115.977 206.989 115.857 206.714C115.507 205.908 114.381 205.911 113.513 206.045C113.117 206.106 112.61 206.296 112.64 206.696C113.012 211.7 113.384 216.712 113.301 221.728C113.289 222.392 113.67 223.049 114.251 223.37C114.833 223.69 115.591 223.662 116.147 223.298ZM125.965 204.01C125.852 203.32 125.734 202.614 125.397 202.001C125.061 201.388 124.457 200.874 123.759 200.84C122.431 200.773 121.104 200.707 119.777 200.641C119.431 200.624 118.953 200.728 118.97 201.074C119.021 202.124 119.071 203.175 119.122 204.225C119.144 204.684 119.229 205.237 119.654 205.411C119.791 205.467 119.943 205.472 120.091 205.475C121.822 205.514 123.553 205.554 125.283 205.594C125.614 205.601 125.891 205.311 125.981 204.993C126.071 204.675 126.018 204.336 125.965 204.01ZM117.585 198.834C117.412 198.104 117.231 197.358 116.817 196.733C116.402 196.108 115.698 195.62 114.951 195.676C113.798 195.76 112.646 195.845 111.493 195.93C110.775 195.982 109.962 196.086 109.541 196.67C109.033 197.376 109.381 198.362 109.244 199.222C109.196 199.524 109.432 199.813 109.714 199.93C109.997 200.048 110.314 200.034 110.619 200.018C112.683 199.912 114.745 199.806 116.808 199.7C117.111 199.684 117.475 199.629 117.595 199.35C117.665 199.19 117.626 199.004 117.585 198.834ZM121.2 197.512C120.808 196.975 120.817 196.178 121.223 195.65C120.5 195.201 119.487 195.284 118.847 195.845C118.207 196.406 117.991 197.399 118.341 198.175C118.464 198.448 118.393 198.772 118.481 199.06C118.604 199.468 119.031 199.724 119.454 199.776C119.877 199.829 120.301 199.718 120.713 199.608C121.253 199.463 121.911 199.174 121.905 198.615C121.901 198.169 121.463 197.873 121.2 197.512ZM108.309 199.427C108.548 198.643 108.226 197.75 107.611 197.208C106.996 196.667 106.134 196.456 105.318 196.529C104.99 196.558 104.648 196.64 104.411 196.868C104.173 197.096 104.089 197.507 104.302 197.757C104.46 197.942 104.731 197.996 104.896 198.175C105.149 198.447 105.063 198.882 105.179 199.235C105.44 200.032 106.522 200.107 107.357 200.03C107.643 200.004 107.958 199.964 108.147 199.747C108.225 199.656 108.273 199.542 108.309 199.427ZM108.444 196.79C108.637 196.603 108.673 196.274 108.523 196.05C108.189 195.951 107.817 196.149 107.641 196.45C107.771 196.748 108.138 196.92 108.451 196.831M117.957 195.958C118.006 195.828 117.977 195.671 117.886 195.566C117.569 195.466 117.201 195.556 116.966 195.79C117.208 196.064 117.647 196.138 117.966 195.958L117.957 195.958Z" fill="#363939"/>
<path fill-rule="evenodd" clip-rule="evenodd" d="M245.494 173.749C235.352 177.715 225.21 181.681 215.068 185.647C210.705 187.353 205.658 189.913 205.19 194.574C211.117 190.015 218.438 187.293 225.904 186.875C220.746 193.374 214.233 198.792 206.904 202.681C200.323 206.173 191.99 209.898 191.426 217.327C198.494 208.91 209.362 203.815 220.352 203.764C213.321 214.063 202.046 221.368 189.772 223.576C190.194 226.741 190.615 229.906 191.036 233.071C195.206 232.923 199.402 233.519 203.365 234.824C206.188 246.951 209.011 259.077 211.834 271.204C212.528 274.188 213.14 277.617 211.312 280.077C209.5 282.516 206.076 282.936 203.044 283.151C191.095 284.001 179.145 284.851 167.196 285.7C165.765 279.218 164.334 272.737 162.904 266.255C142.748 268.126 122.591 269.998 102.435 271.869C98.1904 272.264 93.7012 272.617 89.8604 270.768C75.9288 264.061 59.036 277.043 44.3212 272.293C57.2496 272.05 70.138 269.795 82.3812 265.634C86.8212 264.125 92.1376 259.992 89.8176 255.917C78.464 263.839 63.896 267.002 50.2792 264.501C51.0784 251.277 50.5644 237.974 48.7464 224.851C58.4352 223.465 67.984 221.1 77.1992 217.803C79.7624 216.885 82.3996 215.83 84.2248 213.81C86.0504 211.79 86.7884 208.527 85.1844 206.327C71.168 213.795 54.9848 217.138 39.1565 215.834C39.9824 233.743 40.8084 251.653 41.6344 269.563C39.2947 251.666 38.0539 233.626 37.9213 215.577C46.0692 214.855 54.2168 214.132 62.3644 213.409C61.0544 207.594 59.736 201.645 60.4092 195.721C61.082 189.798 64.1308 183.799 69.4896 181.187C65.4356 172.54 59.3084 164.874 51.768 159.013C42.9284 152.143 31.5638 146.963 27.5271 136.521C24.8581 129.616 26.1673 121.585 29.8629 115.171C33.5586 108.758 39.4147 103.817 45.7796 100.038C37.0166 97.7854 30.3791 89.0502 30.5567 80.0042C30.7343 70.9582 37.7095 62.4902 46.554 60.5838C42.384 55.6142 35.8178 53.3366 31.0217 48.9686C25.4344 43.8802 22.6268 35.6722 24.662 28.3944C26.6972 21.1166 33.8629 15.3905 41.4132 15.7132C47.6148 15.9782 53.0724 19.9007 57.4016 24.3495C64.1152 31.2491 69.1084 39.8105 71.808 49.0514C73.6072 55.2106 80.2016 58.3438 85.7708 61.5314C91.34 64.719 97.1232 70.2714 95.554 76.493C93.4796 67.979 86.514 60.8426 78.0528 58.5622C73.644 57.3742 72.0372 52.1278 70.6188 47.7874C67.8592 39.3411 63.148 31.5392 56.9584 25.1643C52.3064 20.3734 46.2248 16.1929 39.5567 16.5528C32.6925 16.9233 26.6415 22.507 25.0721 29.1997C23.5028 35.8924 26.134 43.2258 31.1426 47.9342C36.2442 52.7302 43.5424 55.0794 47.6556 60.7458C38.7351 62.5586 31.6827 71.1434 31.6359 80.2458C31.589 89.3486 38.5527 98.0054 47.454 99.9098C41.1812 103.582 35.3113 108.246 31.4412 114.399C27.571 120.551 25.912 128.36 28.2277 135.25C33.5838 151.186 55.9084 154.989 63.7868 169.841C65.9204 162.833 62.7928 155.464 61.1852 148.317C59.5776 141.169 60.486 131.991 67.15 128.947C65.2024 119.561 63.2548 110.174 61.3072 100.787C59.856 93.793 59.128 84.9314 65.1452 81.081C60.9056 79.7662 57.1428 76.9654 54.6664 73.2818C57.3408 77.375 62.4912 79.6974 67.3296 78.9918C61.2156 65.7382 54.4364 52.791 47.026 40.2162C55.0108 52.2558 62.0772 64.9042 68.1444 78.015C96.206 77.2558 124.311 78.1202 152.273 80.603C155.985 80.9326 159.981 81.4122 162.725 83.9342C166.669 87.5582 172.59 88.8802 177.7 87.2774C179.326 91.3082 180.523 95.8358 179.14 99.9566C177.758 104.077 172.862 107.223 168.949 105.332C169.97 110.588 170.992 115.844 172.014 121.099C182.02 121.22 192.025 121.424 202.028 121.713C207.33 121.865 212.871 122.107 217.479 124.733C222.087 127.36 225.338 133.178 223.286 138.069C224.595 134.027 225.904 129.985 227.213 125.943C231.827 133.267 234.094 142.046 233.601 150.688C235.199 148.256 236.798 145.824 238.396 143.392C232.717 134.455 231.994 122.575 236.547 113.015C241.013 120.41 243.528 128.971 243.772 137.606C245.438 122.043 256.464 107.856 271.134 102.399C268.588 108.264 266.044 114.129 263.498 119.993C261.319 125.014 258.551 130.583 253.315 132.179C249.861 133.231 244.86 133.167 244.234 136.723C254.154 134.121 264.713 133.993 274.694 136.351C267.003 145.598 252.182 147.875 242.07 141.363C237.3 146.683 233.166 152.575 229.787 158.871C235.528 151.736 244.462 147.275 253.614 146.971C248.697 152.783 243.15 158.062 237.103 162.686C240.313 162.995 243.783 163.417 246.111 165.648C248.44 167.879 248.498 172.574 245.494 173.749ZM111.618 115.181C114.278 115.15 117.257 115.245 119.114 117.15C120.531 118.603 120.91 120.747 121.219 122.752C122.632 131.925 123.954 141.111 125.186 150.31C125.495 152.617 123.56 154.746 121.35 155.478C119.14 156.209 116.738 155.888 114.433 155.56C116.355 153.901 119.599 155.09 121.667 153.618C123.522 152.299 123.511 149.589 123.289 147.323C122.456 138.829 121.322 130.364 119.89 121.951C119.637 120.463 119.327 118.881 118.273 117.801C116.87 116.363 114.628 116.267 112.62 116.265C104.373 116.255 96.126 116.245 87.8792 116.234C86.458 116.233 84.9624 116.249 83.7284 116.955C80.1776 118.984 81.4868 124.345 83.2516 128.034C88.2524 127.021 93.362 126.545 98.4636 126.619C102.983 126.685 108.619 128.153 109.382 132.608C111.056 142.396 112.73 152.184 114.404 161.972C115.282 167.105 115.766 173.34 111.665 176.547C109.616 178.15 106.896 178.532 104.314 178.859C97.968 179.661 91.6212 180.463 85.2748 181.266C87.918 204.41 90.5612 227.555 93.2048 250.699C93.4996 253.281 94.0392 256.249 96.3092 257.513C97.652 258.261 99.2808 258.2 100.816 258.116C121.038 257.013 141.24 255.553 161.41 253.736C160.604 251.897 160.588 249.728 161.367 247.877C163.41 259.838 165.453 271.798 167.496 283.759C171.073 281.293 170.523 275.941 169.574 271.702C167.169 260.969 164.765 250.235 162.361 239.502C161.388 241.288 160.414 243.073 159.441 244.859C158.963 242.63 160.3 240.323 162.156 238.998C164.011 237.672 166.298 237.129 168.528 236.651C175.382 235.181 182.31 234.059 189.278 233.289C187.254 219.005 185.229 204.721 183.204 190.437C170.755 193.857 157.572 192.781 144.709 191.678C140.899 191.351 136.058 190.069 135.694 186.263C134.781 176.694 133.868 167.125 132.954 157.556C132.835 156.309 132.112 154.629 130.922 155.021C127.998 155.987 126.259 151.821 126.02 148.751C125.269 139.121 124.518 129.492 123.768 119.862C123.669 118.599 123.644 117.142 124.585 116.295C125.245 115.701 126.194 115.593 127.078 115.512C133.378 114.936 139.679 114.36 145.98 113.784C149.578 113.455 153.665 113.285 156.284 115.775C158.132 117.532 158.752 120.197 159.142 122.717C159.86 127.361 160.098 132.08 159.851 136.773C159.351 132.186 158.852 127.598 158.353 123.011C158.128 120.946 157.854 118.757 156.55 117.142C154.324 114.384 150.183 114.43 146.651 114.721C140.342 115.24 134.032 115.759 127.723 116.278C126.873 116.348 125.952 116.449 125.335 117.036C124.531 117.801 124.554 119.067 124.634 120.173C125.31 129.479 125.986 138.785 126.662 148.091C126.79 149.848 126.964 151.725 128.074 153.092C129.184 154.459 131.594 154.889 132.631 153.465C131.21 150.341 133.176 146.514 136.086 144.693C138.997 142.872 142.568 142.551 145.991 142.278C151.893 141.807 157.795 141.337 163.697 140.866C163.293 128.649 161.975 116.464 159.76 104.443C157.718 103.873 155.859 102.666 154.507 101.034C153.494 103.641 150.48 105.298 147.736 104.755C144.992 104.212 142.836 101.531 142.894 98.7346C142.568 101.953 139.765 104.744 136.546 105.055C133.326 105.367 130.04 103.164 129.104 100.068C127.562 101.787 125.562 103.269 123.262 103.479C120.962 103.688 118.418 102.235 118.044 99.9566C115.024 103.875 108.004 103.477 105.446 99.243C102.814 103.586 95.3216 103.479 92.8148 99.063C91.6892 103.146 85.4052 103.473 82.3892 100.499C79.3728 97.5262 78.7856 92.9462 78.366 88.7318C73.3872 93.529 72.4888 101.235 73.434 108.084C74.3788 114.933 76.8412 121.531 77.4388 128.419C78.8028 128.762 80.2988 128.545 81.5096 127.83C80.2016 123.877 79.3416 118.567 82.892 116.393C84.316 115.521 86.0784 115.477 87.748 115.457C95.7048 115.365 103.661 115.273 111.618 115.181ZM190.439 181.695C200.876 181.177 211.643 182.537 221.562 179.248C223.096 178.739 224.669 178.068 225.658 176.789C223.124 175.624 220.433 173.617 220.495 170.829C220.536 168.998 221.805 167.415 223.234 166.271C224.734 165.069 226.481 164.176 228.334 163.665C228.484 163.206 227.678 163.107 227.278 163.377C226.879 163.649 226.273 163.984 226.007 163.581C225.936 163.473 225.921 163.338 225.908 163.209C224.913 153.078 223.438 142.994 221.489 133.002C220.904 129.998 220.033 126.652 217.385 125.117C215.956 124.287 214.242 124.148 212.593 124.034C200.182 123.175 187.748 122.65 175.308 122.457C172.368 122.412 169.08 122.521 167.018 124.618C165.455 126.209 165.007 128.571 164.842 130.795C164.329 137.683 165.804 144.539 166.764 151.378C167.913 159.571 168.326 167.847 169.085 176.085C169.186 177.181 169.308 178.324 169.901 179.251C170.918 180.841 172.982 181.34 174.851 181.602C177.612 181.989 180.404 182.153 183.192 182.091C185.611 182.038 188.022 181.815 190.439 181.695ZM104.782 128.551C101.248 126.998 97.2016 127.414 93.3676 127.859C87.5684 128.533 81.7692 129.206 75.97 129.879C73.1828 130.203 70.3928 130.527 67.6352 131.047C66.9704 131.172 66.3036 131.31 65.6764 131.563C63.2184 132.557 61.7532 135.207 61.4124 137.836C61.0712 140.465 61.6556 143.115 62.216 145.707C63.9568 153.759 65.5008 161.887 65.9196 170.116C66.0024 171.745 66.044 173.395 66.492 174.963C66.9396 176.532 67.8536 178.041 69.2832 178.826C70.3824 179.431 71.6744 179.556 72.9264 179.638C84.4016 180.392 95.8708 178.542 107.222 176.697C108.837 176.435 110.536 176.135 111.795 175.091C113.74 173.477 114.03 170.637 114.016 168.11C113.99 163.443 113.426 158.779 112.336 154.241C111.062 148.933 109.061 143.712 109.008 138.254C108.985 135.847 109.301 133.253 108.045 131.199C107.303 129.985 106.084 129.124 104.782 128.551ZM50.176 229.621C51.7184 240.705 52.2368 251.931 51.722 263.11C51.6948 263.699 52.4108 263.999 52.9904 264.11C60.4108 265.529 68.0532 263.711 75.254 261.425C79.3472 260.125 83.4436 258.644 86.984 256.212C88.6032 255.1 90.242 253.424 89.9392 251.483C87.9936 239.011 86.9236 226.404 86.7396 213.783C80.1876 218.903 71.8732 221.075 63.8152 223.125C59.9956 224.097 56.1248 225.075 52.184 225.042C51.2312 225.034 50.4404 225.871 50.174 226.786C49.908 227.701 50.0448 228.677 50.176 229.621ZM200.778 235.224C188.505 234.029 175.986 235.432 164.282 239.315C164.984 244.661 165.945 249.973 167.158 255.226C167.644 257.33 168.17 259.424 168.696 261.518C169.721 265.596 170.746 269.673 171.771 273.751C171.914 274.319 172.092 274.939 172.582 275.261C173.018 275.547 173.583 275.514 174.104 275.471C186.222 274.46 198.334 273.365 210.438 272.186C207.792 260.391 205.146 248.597 202.5 236.802C202.398 236.349 202.276 235.861 201.916 235.568C201.603 235.315 201.178 235.263 200.778 235.224ZM182.687 183.448C180.016 183.584 177.306 183.717 174.698 183.124C172.09 182.532 169.553 181.111 168.214 178.796C167.445 179.681 165.917 179.747 165.075 178.932C164.232 178.117 164.248 176.588 165.106 175.79C161.714 175.821 158.321 175.851 154.928 175.882C156.479 176.795 156.352 179.488 154.749 180.306C153.146 181.124 150.928 179.743 150.89 177.943C150.874 177.136 151.369 176.229 152.174 176.157C151.84 175.585 150.974 175.924 150.315 175.861C149.322 175.767 148.78 174.686 148.432 173.751C147.019 169.962 145.734 166.126 144.449 162.292C145.349 163.764 147.375 164.427 148.971 163.77C149.535 163.538 149.552 162.727 149.312 162.167C148.893 161.189 147.938 160.434 146.876 160.351C145.815 160.268 144.711 160.916 144.352 161.918C143.82 161.521 144.047 160.601 144.605 160.241C145.163 159.881 145.878 159.912 146.54 159.952C152.798 160.33 159.078 160.324 165.334 159.934C165.619 159.917 165.933 159.885 166.127 159.676C166.347 159.439 166.326 159.075 166.291 158.754C166.052 156.553 165.812 154.352 165.573 152.151C165.547 151.907 165.509 151.641 165.327 151.476C165.126 151.295 164.823 151.303 164.554 151.323C156.711 151.881 148.888 152.726 141.107 153.853C140.279 153.973 139.508 153.278 139.247 152.483C138.986 151.688 139.106 150.824 139.23 149.996C139.273 149.705 139.328 149.391 139.544 149.191C139.742 149.007 140.029 148.964 140.297 148.929C148.393 147.896 156.541 147.276 164.7 147.073C164.502 147.879 163.451 148.052 162.621 148.067C155.049 148.201 147.485 148.809 139.988 149.883C139.39 150.907 140.21 152.286 141.315 152.716C142.42 153.147 143.658 152.917 144.824 152.697C151.246 151.489 157.763 150.776 164.296 150.569C165.228 150.539 165.34 149.197 165.144 148.285C164.688 146.166 164.233 144.047 163.778 141.929C159.254 142.785 154.633 143.127 150.032 142.945C147.31 142.838 144.602 143.313 141.919 143.787C139.639 144.19 137.209 144.667 135.562 146.294C133.636 148.195 133.29 151.169 133.407 153.873C133.599 158.309 134.725 162.648 135.28 167.053C135.96 172.436 135.785 177.892 136.306 183.292C136.446 184.747 136.647 186.229 137.299 187.537C137.951 188.845 139.137 189.967 140.583 190.183C152.462 191.954 164.574 192.155 176.505 190.78C177.607 190.653 178.719 190.509 179.76 190.125C181.402 189.517 182.81 188.299 183.648 186.762C183.984 186.145 184.235 185.439 184.112 184.747C183.99 184.055 183.388 183.412 182.687 183.448ZM87.7188 213.794C88.9616 227.471 90.2048 241.149 91.448 254.826C91.6716 257.284 91.8868 259.824 91.1184 262.169C90.35 264.515 88.3288 266.636 85.8616 266.717C87.31 268.835 89.8096 270.047 92.3376 270.49C94.8652 270.934 97.4572 270.699 100.012 270.463C121.069 268.517 142.126 266.572 163.182 264.627C162.73 261.995 162.278 259.364 161.826 256.733C161.725 256.142 161.435 255.393 160.837 255.438C146.36 256.517 131.882 257.595 117.404 258.674C111.46 259.117 105.485 259.561 99.5436 259.074C96.5368 258.829 92.8236 257.634 92.5272 254.632C90.1536 230.613 87.406 206.631 84.2852 182.698C84.2372 182.33 84.1776 181.936 83.9256 181.663C83.59 181.299 83.0336 181.271 82.538 181.269C79.5776 181.253 76.6172 181.238 73.6568 181.223C74.5212 186.128 75.6436 190.987 77.0176 195.774C77.2716 196.659 77.694 197.692 78.6004 197.851C81.8556 198.423 84.4248 201.1 85.764 204.122C87.1032 207.143 87.4196 210.503 87.7188 213.794ZM76.3444 128.659C73.8032 115.771 71.6536 102.807 69.8984 89.7882C69.7992 89.0518 69.7032 88.2886 69.92 87.5778C70.3664 86.113 71.9684 85.3458 73.4584 84.9922C76.3712 84.3014 79.4132 84.5318 82.3988 84.7518C109.695 86.7646 137.08 87.5698 164.447 87.165C163.359 84.957 161.17 83.4514 158.842 82.653C156.513 81.8546 154.025 81.677 151.57 81.5074C127.479 79.8426 103.352 78.2826 79.206 78.5734C76.252 78.609 73.2632 78.677 70.4108 79.4462C67.5584 80.2154 64.8136 81.7646 63.168 84.2182C60.5748 88.0846 61.202 93.1922 62.0048 97.7778C63.8844 108.517 66.1712 119.185 68.8584 129.751C71.354 129.387 73.8492 129.023 76.3444 128.659ZM135.118 103.47C136.422 103.484 137.778 103.411 138.932 102.803C140.965 101.733 141.868 99.2674 142.002 96.9742C142.136 94.6806 141.684 92.3822 141.829 90.0894C141.863 89.567 142.154 88.8742 142.662 89.0054C143.029 91.645 143.396 94.2842 143.763 96.9234C143.966 98.3806 144.176 99.865 144.815 101.191C145.453 102.516 146.601 103.681 148.046 103.959C148.876 104.118 149.742 103.975 150.533 103.678C152.426 102.966 154.013 101.154 153.941 99.1322C153.842 96.341 153.742 93.5494 153.643 90.7582C153.604 89.6542 153.193 88.1826 152.09 88.2406C144.733 88.6258 137.354 88.5918 130.001 88.1386C129.465 88.1054 129.324 88.865 129.38 89.3994C129.675 92.1678 129.969 94.9366 130.263 97.705C130.486 99.7954 130.96 102.252 132.878 103.113C133.573 103.424 134.356 103.462 135.118 103.47ZM172.85 277.198C172.498 277.445 172.265 277.825 172.051 278.198C170.935 280.141 170.038 282.209 169.383 284.351C182.261 283.451 195.129 282.405 207.983 281.215C208.466 281.17 208.99 281.107 209.337 280.767C209.562 280.547 209.678 280.241 209.786 279.945C210.268 278.638 210.748 277.331 211.23 276.024C211.464 275.388 211.672 274.597 211.214 274.097C210.834 273.681 210.187 273.695 209.626 273.739C197.873 274.681 186.126 275.695 174.386 276.781C173.852 276.831 173.29 276.89 172.85 277.198ZM195.552 197.856C195.204 193.793 194.494 189.233 191.178 186.859C189.884 190.422 188.578 194.039 188.282 197.818C187.986 201.597 188.822 205.625 191.356 208.443C191.713 208.839 192.109 209.224 192.298 209.722C192.486 210.22 192.391 210.877 191.928 211.142C188.482 208.143 187.056 203.335 187.137 198.768C187.218 194.202 188.617 189.774 190.004 185.422C190.309 184.466 189.437 183.46 188.459 183.237C187.48 183.015 186.47 183.341 185.52 183.665C185.335 183.727 185.254 183.939 185.195 184.125C184.538 186.218 183.875 188.438 184.384 190.572C186.576 199.767 186.293 209.418 188.525 218.604C188.607 218.943 188.696 219.29 188.894 219.577C190.374 216.683 191.854 213.79 193.334 210.896C194.03 209.536 194.729 208.167 195.163 206.702C196.007 203.855 195.805 200.815 195.552 197.856ZM247.907 131.11C248.193 131.346 248.577 131.42 248.945 131.461C253.13 131.929 257.08 129.081 259.398 125.564C261.715 122.048 262.81 117.894 264.33 113.966C265.756 110.28 267.579 106.748 269.759 103.451C265.395 107.546 260.022 110.413 255.466 114.295C250.911 118.177 247.034 123.621 247.355 129.597C247.385 130.149 247.48 130.758 247.907 131.11ZM80.2864 91.507C80.8812 94.115 80.6352 97.013 82.08 99.2642C83.4808 101.446 86.4356 102.486 88.8944 101.663C91.3532 100.839 93.0852 98.2286 92.8884 95.643C92.8436 95.0554 92.7112 94.4786 92.5788 93.9042C92.0608 91.6542 91.5428 89.4042 91.0248 87.1542C90.9732 86.9302 90.9156 86.6946 90.7568 86.5286C90.5292 86.2906 90.1648 86.263 89.8356 86.2502C86.6708 86.1294 83.506 86.0082 80.3408 85.887C80.0364 85.8754 79.7024 85.873 79.4656 86.0646C79.166 86.3078 79.1488 86.7538 79.188 87.1374C79.3396 88.6334 79.952 90.0406 80.2864 91.507ZM165.959 93.9394C166.034 97.5418 168.381 100.674 170.856 103.293C171.098 103.548 171.346 103.805 171.648 103.986C172.136 104.278 172.731 104.347 173.298 104.298C175.21 104.134 176.845 102.688 177.652 100.947C178.459 99.2054 178.55 97.2138 178.376 95.3026C178.203 93.3914 177.78 91.509 177.609 89.5978C177.575 89.2142 177.434 88.7138 177.049 88.7154C173.666 88.7282 170.282 88.741 166.898 88.7542C166.466 88.7558 166.007 88.7646 165.641 88.9962C165.276 89.2278 165.072 89.769 165.343 90.1062C166.171 91.137 165.931 92.6174 165.959 93.9394ZM217.413 205.369C208.143 205.206 199.644 210.702 193.16 217.329C192.068 218.446 191 219.618 190.273 221.001C190.144 221.246 190.042 221.587 190.254 221.766C190.366 221.861 190.526 221.867 190.674 221.866C196.067 221.847 201.254 219.569 205.636 216.425C210.018 213.28 213.71 209.29 217.413 205.369ZM102.704 101.009C104.029 100.246 104.881 98.7282 104.842 97.2006C104.823 96.4258 104.594 95.6742 104.41 94.9214C103.936 92.9842 103.752 90.9766 103.865 88.9858C103.89 88.5618 103.926 88.1262 103.798 87.721C103.671 87.3158 103.333 86.9434 102.908 86.9202C99.4056 86.729 95.9024 86.5374 92.3992 86.3462C92.2732 86.3394 92.1356 86.3358 92.034 86.4102C91.876 86.5258 91.8852 86.7606 91.9144 86.9538C92.3452 89.8046 93.7248 92.4898 93.8132 95.3718C93.846 96.4318 93.704 97.5186 94.0012 98.537C94.3812 99.8414 95.4676 100.871 96.728 101.378C97.988 101.886 99.402 101.915 100.739 101.673C101.423 101.55 102.102 101.355 102.704 101.009ZM242.878 140.036C245.416 140.752 247.659 142.248 250.12 143.192C255.576 145.285 262.071 144.411 266.78 140.951C268.803 139.465 270.825 137.979 272.847 136.493C270.382 137.077 267.832 137.3 265.304 137.154C261.078 136.911 256.905 135.645 252.685 135.962C249.094 136.232 245.603 137.682 242.878 140.036ZM170.429 120.512C169.93 117.75 169.432 114.987 168.933 112.225C168.265 108.523 167.596 104.821 166.928 101.118C166.881 100.855 166.823 100.574 166.629 100.391C166.434 100.208 166.054 100.208 165.948 100.453C165.281 101.993 163.914 103.215 162.308 103.705C161.334 104.003 161.251 105.332 161.364 106.345C162.163 113.488 163.109 120.614 164.2 127.719C164.518 124.813 167.008 122.29 169.909 121.933C170.474 121.864 170.53 121.072 170.429 120.512ZM117.127 98.0438C116.817 95.0658 116.426 92.0962 115.955 89.1394C115.858 88.5298 115.598 87.7698 114.981 87.7426C111.793 87.6026 108.604 87.463 105.416 87.323C105.302 87.3182 105.182 87.3142 105.081 87.3678C104.824 87.5042 104.866 87.8794 104.942 88.1606C105.677 90.891 106.068 93.7138 106.1 96.541C106.108 97.2366 106.1 97.959 106.392 98.591C106.82 99.521 107.796 100.055 108.723 100.489C110.339 101.246 112.106 101.911 113.869 101.637C115.632 101.362 117.312 99.8186 117.127 98.0438ZM118.506 98.0606C118.828 99.6186 119.417 101.431 120.944 101.879C122.232 102.257 123.625 102.361 124.917 101.997C126.209 101.633 127.388 100.765 127.966 99.5534C128.378 98.691 128.47 97.7146 128.524 96.7606C128.671 94.147 128.57 91.519 128.223 88.9242C128.204 88.7854 128.184 88.6426 128.113 88.521C127.927 88.199 127.489 88.1538 127.117 88.1458C123.87 88.075 120.623 88.0042 117.376 87.9334C117.111 87.9278 116.741 88.2034 116.965 88.345C117.328 91.605 117.843 94.8482 118.506 98.0606ZM227.604 130.306C225.068 136.041 224.321 142.551 225.492 148.711C225.96 151.171 226.881 153.783 229.011 155.101C229.638 155.489 230.682 155.603 230.914 154.903C233.609 146.774 232.352 137.433 227.604 130.306ZM63.2068 202.302C64.2828 203.04 65.4956 203.578 66.7648 203.881C68.3692 204.263 70.0348 204.267 71.6832 204.307C75.5356 204.4 79.3828 204.695 83.204 205.191C83.7368 205.26 84.1776 204.683 84.1636 204.146C84.1496 203.608 83.8224 203.134 83.4836 202.716C81.4456 200.206 78.4696 198.475 75.2796 197.946C73.0196 197.571 70.7092 197.781 68.4192 197.716C66.1296 197.65 63.7396 197.262 61.9136 195.879C61.8168 197.194 61.8092 198.516 61.8904 199.833C61.9232 200.365 61.9772 200.918 62.2488 201.377C62.4764 201.763 62.838 202.049 63.2068 202.302ZM155.884 100.134C156.243 100.786 156.82 101.289 157.411 101.741C158.052 102.232 158.744 102.692 159.53 102.872C161.467 103.315 163.448 101.88 164.264 100.069C165.081 98.2566 164.998 96.1798 164.809 94.2018C164.666 92.7062 164.472 91.2154 164.226 89.733C164.185 89.4862 164.137 89.2278 163.982 89.031C163.709 88.6862 163.21 88.6462 162.771 88.6346C160.41 88.5718 158.048 88.509 155.686 88.4462C155.164 88.4326 154.421 88.6826 154.576 89.1818C155.271 91.4178 155.574 93.775 155.468 96.1138C155.405 97.479 155.224 98.937 155.884 100.134ZM239.455 141.648C241.962 137.602 242.713 132.507 241.479 127.911C240.388 123.846 237.852 120.245 237.048 116.115C235.175 121.8 233.288 127.921 234.983 133.662C235.852 136.604 237.606 139.199 239.455 141.648ZM197.92 205.302C205.376 203.381 212.26 199.287 217.506 193.651C219.076 191.964 220.682 190.313 222.325 188.697C218.301 189.249 214.373 190.493 210.766 192.359C205.262 195.206 200.433 199.639 197.92 205.302ZM243.35 155.807C246.093 153.23 248.835 150.653 251.578 148.075C242.303 149.257 233.642 154.617 228.444 162.389C229.784 163.421 231.706 162.813 233.268 162.167C235.442 161.268 237.634 160.359 239.569 159.022C240.931 158.081 242.144 156.942 243.35 155.807ZM62.97 212.139C62.9928 212.377 63.0212 212.629 63.1652 212.819C63.4812 213.237 64.1248 213.135 64.6272 212.988C70.3824 211.306 76.0572 209.348 81.6244 207.122C82.026 206.962 82.494 206.708 82.502 206.276C78.2312 205.979 73.96 205.683 69.6888 205.387C68.644 205.315 67.5952 205.241 66.5712 205.023C65.0304 204.694 63.5616 204.034 62.2932 203.1C62.386 206.12 62.678 209.131 62.97 212.139ZM197.893 183.24C197.548 183.489 197.409 183.928 197.291 184.336C196.884 185.737 196.476 187.223 196.853 188.633C197.046 189.351 197.432 189.999 197.813 190.637C198.869 192.402 199.925 194.166 200.98 195.931C201.079 196.095 201.185 196.267 201.355 196.357C201.859 196.621 202.356 195.999 202.59 195.48C204.11 192.11 205.664 188.547 205.319 184.866C205.266 184.3 205.112 183.658 204.607 183.399C204.374 183.279 204.105 183.264 203.844 183.251C202.279 183.173 200.714 183.096 199.149 183.018C198.716 182.997 198.244 182.985 197.893 183.24ZM221.815 170.763C221.775 173.135 223.844 175.119 226.114 175.809C228.383 176.499 230.819 176.202 233.178 175.949C237.325 175.504 241.711 175.137 245.121 172.733C245.877 172.2 246.592 171.542 246.93 170.681C247.457 169.336 246.927 167.749 245.936 166.699C244.945 165.648 243.572 165.048 242.196 164.607C237.282 163.034 231.826 163.216 227.027 165.111C224.496 166.111 221.861 168.042 221.815 170.763ZM62.5792 194.993C63.026 195.409 63.9316 195.516 64.1056 194.93C64.7024 192.924 66.0444 191.203 67.6248 189.831C69.2056 188.458 71.0276 187.398 72.838 186.346C73.3264 186.063 73.2956 185.359 73.2012 184.802C73.0184 183.724 72.8356 182.645 72.6528 181.567C72.6064 181.294 72.5152 180.968 72.2476 180.895C72.0288 180.835 71.8128 180.983 71.634 181.123C70.3352 182.137 69.0368 183.151 67.738 184.165C65.136 186.197 62.3476 188.528 61.7832 191.781C61.5868 192.914 61.7384 194.208 62.5792 194.993ZM72.7092 187.733C69.7928 189.555 66.7056 191.571 65.3804 194.744C65.2976 194.941 65.2216 195.149 65.228 195.363C65.2408 195.785 65.5812 196.141 65.9712 196.303C66.3608 196.465 66.7952 196.473 67.2176 196.477C69.7144 196.507 72.2112 196.536 74.7076 196.566C74.8292 196.567 74.9608 196.565 75.0568 196.491C75.208 196.373 75.1928 196.143 75.1628 195.953C74.7644 193.437 74.366 190.92 73.968 188.403C73.9112 188.045 73.7956 187.616 73.4464 187.519C73.192 187.448 72.9332 187.593 72.7092 187.733ZM196.752 183.394C194.913 182.92 192.93 183.023 191.152 183.686C191.496 184.817 192.106 185.865 192.92 186.723C195.66 189.612 196.471 193.807 196.782 197.778C196.948 199.898 197.006 202.027 196.957 204.154C198.161 202.297 199.365 200.44 200.569 198.583C200.688 198.398 200.812 198.203 200.825 197.983C200.838 197.763 200.738 197.554 200.637 197.358C199.449 195.064 197.704 193.086 196.601 190.75C195.499 188.413 195.161 185.43 196.752 183.394ZM73.5928 86.1814C72.5788 86.3426 71.4224 86.6002 70.9408 87.5066C70.608 88.1334 70.7064 88.8918 70.8132 89.5934C71.254 92.483 71.6944 95.373 72.1352 98.2626C74.3904 94.2074 76.502 90.0746 78.6128 85.943C78.222 85.501 77.5296 85.557 76.9472 85.6494C75.8292 85.827 74.7108 86.0042 73.5928 86.1814ZM212.392 184.299C212.705 184.713 213.52 184.254 213.328 183.772C216.34 184.637 219.623 184.021 222.468 182.708C225.312 181.394 227.796 179.425 230.24 177.465C229.214 177.321 228.187 177.178 227.161 177.035C226.951 177.005 226.68 177.009 226.6 177.205C226.047 178.558 224.857 179.572 223.543 180.212C222.228 180.852 220.782 181.162 219.353 181.467C218.361 181.678 217.368 181.889 216.376 182.101C214.84 182.428 213.107 182.899 212.392 184.299ZM157.906 163.344C158.099 163.295 158.306 163.237 158.43 163.081C158.621 162.839 158.525 162.491 158.475 162.186C158.425 161.881 158.502 161.475 158.806 161.423C159.084 161.478 159.212 161.807 159.218 162.089C159.225 162.372 159.163 162.667 159.265 162.931C159.493 163.518 160.303 163.541 160.928 163.461C161.297 163.414 161.667 163.367 162.036 163.32C162.152 163.305 162.276 163.287 162.362 163.208C162.635 162.958 162.255 162.549 162.17 162.188C162.105 161.909 162.235 161.607 162.15 161.334C162.004 160.869 161.385 160.797 160.897 160.813C157.167 160.937 153.437 161.061 149.706 161.185C149.77 161.891 149.964 162.585 150.274 163.222C150.34 163.359 150.419 163.501 150.551 163.577C150.686 163.654 150.85 163.649 151.005 163.642C151.932 163.599 152.86 163.556 153.787 163.513C153.866 163.509 153.949 163.504 154.015 163.461C154.184 163.349 154.125 163.091 154.048 162.903C153.914 162.581 153.78 162.258 153.646 161.936C153.529 161.655 154.037 161.489 154.251 161.705C154.465 161.921 154.473 162.259 154.574 162.545C154.783 163.14 155.415 163.503 156.041 163.579C156.667 163.656 157.295 163.499 157.906 163.344ZM212.08 183.091C212.283 182.874 211.834 182.648 211.54 182.684C209.86 182.89 208.18 183.096 206.501 183.302C206.276 183.33 205.98 183.453 206.033 183.673C206.585 185.933 206.378 188.371 205.453 190.506C205.277 190.913 205.161 191.533 205.583 191.67C207.334 188.526 209.528 185.629 212.08 183.091ZM154.848 165.049C154.796 164.866 154.736 164.675 154.598 164.545C154.44 164.398 154.212 164.361 153.997 164.337C152.897 164.217 151.775 164.293 150.7 164.559C151.037 165.65 151.373 166.74 151.709 167.83C151.773 168.037 151.858 168.269 152.059 168.349C152.162 168.391 152.276 168.384 152.387 168.376C153.473 168.3 154.56 168.224 155.646 168.147C155.41 167.107 155.144 166.074 154.848 165.049ZM147.774 168.861C147.895 168.927 148.042 168.907 148.178 168.885C149.162 168.724 150.146 168.564 151.129 168.404C150.774 167.266 150.419 166.129 150.064 164.991C150.012 164.824 149.948 164.641 149.794 164.558C149.672 164.492 149.524 164.506 149.387 164.522C148.51 164.624 147.633 164.726 146.756 164.828C146.591 164.847 146.396 164.889 146.334 165.043C146.293 165.148 146.332 165.265 146.371 165.371C146.758 166.414 147.144 167.457 147.53 168.499C147.582 168.639 147.643 168.79 147.774 168.861ZM158.826 164.317C158.618 164.136 158.31 164.148 158.036 164.171C157.17 164.242 156.303 164.313 155.437 164.385C155.696 165.495 156.022 166.589 156.413 167.66C156.464 167.801 156.522 167.949 156.641 168.039C156.79 168.151 156.994 168.145 157.18 168.133C157.772 168.098 158.363 168.062 158.954 168.027C159.227 168.01 159.558 167.952 159.65 167.695C159.693 167.571 159.665 167.435 159.636 167.307C159.456 166.506 159.276 165.705 159.097 164.904C159.048 164.69 158.992 164.461 158.826 164.317ZM153.658 172.292C153.572 172.306 153.481 172.322 153.419 172.382C153.297 172.499 153.353 172.701 153.417 172.857C153.644 173.414 153.872 173.971 154.1 174.528C154.184 174.735 154.279 174.955 154.468 175.074C154.642 175.185 154.861 175.187 155.067 175.186C155.854 175.181 156.64 175.176 157.426 175.172C157.541 175.171 157.666 175.167 157.754 175.093C157.915 174.961 157.855 174.705 157.781 174.511C157.479 173.713 157.176 172.916 156.874 172.119C156.777 171.863 156.421 171.859 156.15 171.902C155.32 172.032 154.489 172.162 153.658 172.292ZM160.272 164.159C160.107 164.159 159.921 164.169 159.81 164.291C159.675 164.438 159.718 164.669 159.769 164.861C159.992 165.706 160.216 166.551 160.439 167.396C160.479 167.545 160.524 167.703 160.644 167.801C160.802 167.93 161.031 167.905 161.233 167.875C161.978 167.761 162.723 167.647 163.468 167.533C163.388 166.668 163.251 165.809 163.058 164.962C162.997 164.697 162.914 164.409 162.684 164.263C162.513 164.154 162.297 164.151 162.094 164.152C161.486 164.155 160.879 164.157 160.272 164.159ZM161.789 175.072C161.548 174.195 161.306 173.318 161.064 172.441C160.972 172.106 160.842 171.727 160.518 171.6C160.358 171.538 160.18 171.552 160.01 171.567C159.215 171.636 158.419 171.705 157.624 171.774C157.834 172.56 158.082 173.335 158.368 174.096C158.512 174.479 158.73 174.914 159.134 174.979C160.01 175.121 160.905 175.152 161.789 175.072ZM163.173 175.011C163.894 175.07 164.685 175.11 165.268 174.682C165.015 173.699 164.763 172.717 164.51 171.735C164.453 171.513 164.377 171.267 164.174 171.162C164.026 171.084 163.847 171.105 163.681 171.129C162.966 171.228 162.252 171.327 161.538 171.427C161.708 172.467 161.996 173.487 162.395 174.463C162.456 174.613 162.526 174.768 162.654 174.866C162.798 174.978 162.992 174.997 163.173 175.011ZM227.408 161.026C227.959 159.896 228.51 158.766 229.06 157.636C229.118 157.517 229.177 157.389 229.156 157.258C229.136 157.131 229.043 157.03 228.955 156.936C228.171 156.108 227.388 155.279 226.604 154.45C226.278 154.895 226.316 155.5 226.368 156.049C226.538 157.85 226.709 159.651 226.879 161.453C227.119 161.506 227.301 161.247 227.408 161.026ZM163.965 164.028C163.862 164.021 163.745 164.019 163.673 164.093C163.593 164.176 163.61 164.31 163.634 164.423C163.789 165.171 163.944 165.919 164.099 166.667C164.157 166.945 164.225 167.241 164.434 167.432C165.111 168.049 166.415 166.987 167.044 167.653C167.155 166.591 167.075 165.509 166.81 164.475C166.792 164.402 166.77 164.325 166.714 164.275C166.65 164.217 166.556 164.209 166.47 164.203C165.635 164.145 164.8 164.087 163.965 164.028ZM148.392 169.576C148.302 169.588 148.208 169.602 148.134 169.655C147.969 169.771 147.976 170.014 147.999 170.214C148.062 170.749 148.132 171.303 148.411 171.763C148.691 172.223 149.244 172.564 149.764 172.425C150.51 172.225 151.255 172.025 152.001 171.825C151.968 171.113 151.824 170.405 151.575 169.737C151.513 169.57 151.434 169.395 151.281 169.304C151.122 169.211 150.923 169.233 150.74 169.257C149.958 169.363 149.175 169.47 148.392 169.576ZM165.78 163.324C166.004 163.29 166.243 163.249 166.41 163.095C166.906 162.637 166.339 161.704 166.741 161.161C166.898 160.949 166.514 160.759 166.25 160.771C165.072 160.82 163.895 160.87 162.717 160.92C162.763 161.407 162.848 161.891 162.97 162.364C163.107 162.892 163.622 163.253 164.154 163.371C164.687 163.487 165.24 163.406 165.78 163.324ZM156.262 169.667C156.11 168.939 155.135 168.768 154.404 168.905C153.672 169.041 152.855 169.305 152.234 168.896C152.273 169.665 152.453 170.427 152.761 171.133C152.826 171.281 152.904 171.435 153.045 171.515C153.204 171.605 153.4 171.576 153.58 171.545C154.301 171.421 155.022 171.296 155.744 171.171C156.101 171.11 156.572 170.827 156.384 170.517C156.234 170.269 156.321 169.95 156.262 169.667ZM151.808 172.657C151.218 172.757 150.629 172.857 150.04 172.957C149.721 173.011 149.328 173.139 149.294 173.46C149.208 174.274 150.018 174.929 150.82 175.091C151.622 175.253 152.454 175.095 153.268 175.175C153.234 174.484 153.089 173.798 152.841 173.152C152.782 172.999 152.711 172.84 152.581 172.739C152.369 172.576 152.071 172.613 151.808 172.657ZM167.334 171.079C166.552 170.997 165.757 171.038 164.988 171.202C165.413 172.214 165.715 173.277 165.885 174.362C165.962 174.859 166.672 174.869 167.16 174.745C167.342 174.698 167.54 174.64 167.644 174.484C167.734 174.349 167.73 174.175 167.722 174.014C167.68 173.121 167.638 172.228 167.596 171.335C167.594 171.279 167.59 171.219 167.558 171.173C167.51 171.104 167.417 171.088 167.334 171.079ZM154.568 179.08C155.305 178.344 154.927 176.859 153.928 176.565C152.928 176.27 151.806 177.314 152.028 178.332C152.256 179.384 153.805 179.84 154.568 179.08ZM160.362 170.454C160.831 169.842 160.129 168.939 159.369 168.805C158.61 168.672 157.84 168.963 157.069 168.952C156.785 168.948 156.773 169.375 156.865 169.644C156.985 169.991 157.104 170.339 157.224 170.687C157.272 170.829 157.361 170.999 157.511 170.99C158.061 170.956 158.61 170.921 159.16 170.887C159.599 170.859 160.094 170.803 160.362 170.454ZM167.962 176.364C167.905 176.21 167.821 176.06 167.688 175.963C167.57 175.877 167.421 175.84 167.275 175.823C166.121 175.683 165.001 176.835 165.172 177.984C165.663 178.568 166.588 178.729 167.247 178.346C167.907 177.963 168.225 177.08 167.962 176.364ZM160.838 169.413C160.813 169.919 161.258 170.35 161.745 170.487C162.233 170.623 162.752 170.535 163.25 170.446C163.505 170.401 163.791 170.335 163.925 170.113C164.21 169.639 163.644 168.771 164.166 168.589C163.816 168.541 163.466 168.493 163.115 168.445C162.652 168.381 162.174 168.319 161.725 168.447C161.276 168.575 160.862 168.947 160.838 169.413ZM165.026 170.06C165.557 170.521 166.445 170.458 166.938 169.957C167.432 169.455 167.496 168.605 167.124 168.008C166.195 168.181 165.266 168.353 164.337 168.525C164.454 169.084 164.595 169.685 165.026 170.06ZM236.807 161.181C236.084 161.449 235.36 161.717 234.637 161.985C234.278 162.118 233.913 162.254 233.602 162.477C234.785 162.939 236.278 162.336 236.807 161.181ZM169.571 103.769C169.552 103.45 169.214 103.189 168.9 103.251C168.92 103.576 169.244 103.849 169.568 103.815L169.571 103.769Z" fill="#363939"/>
</svg>
