<svg xmlns="http://www.w3.org/2000/svg" width="24" height="24" fill="none" viewBox="0 0 24 24"><path stroke="#1F2223" stroke-linecap="round" stroke-linejoin="round" stroke-width="2" d="M22 7C22 4.23858 19.7614 2 17 2H12H7C4.23858 2 2 4.23858 2 7V17C2 19.7614 4.23858 22 7 22H17C19.7614 22 22 19.7614 22 17V7Z"/><path stroke="#1F2223" stroke-linecap="round" stroke-linejoin="round" stroke-width="2" d="M15.5937 13.7988C15.9812 13.052 16.1234 12.2021 16 11.3698C15.8741 10.5209 15.4785 9.73496 14.8716 9.12812C14.2648 8.52128 13.4789 8.1257 12.63 7.99981C11.7977 7.8764 10.9477 8.01856 10.2009 8.40605C9.45414 8.79355 8.84854 9.40667 8.47028 10.1582C8.09202 10.9097 7.96035 11.7614 8.09402 12.592C8.22768 13.4227 8.61987 14.1901 9.21479 14.785C9.80971 15.3799 10.5771 15.7721 11.4077 15.9057C12.2384 16.0394 13.0901 15.9077 13.8416 15.5295C14.5931 15.1512 15.2062 14.5456 15.5937 13.7988Z"/><path stroke="#1F2223" stroke-linecap="round" stroke-linejoin="round" stroke-width="2" d="M17.5 6.5H17.51"/></svg>