<svg width="24" height="24" viewBox="0 0 24 24" fill="none" xmlns="http://www.w3.org/2000/svg">
<path d="M20.2426 9.75736C19.1174 8.63214 17.5913 8 16 8C14.4087 8 12.8826 8.63214 11.7574 9.75736C10.6321 10.8826 10 12.4087 10 14V21H14V14C14 13.4696 14.2107 12.9609 14.5858 12.5858C14.9609 12.2107 15.4696 12 16 12C16.5304 12 17.0391 12.2107 17.4142 12.5858C17.7893 12.9609 18 13.4696 18 14V21H22V14C22 12.4087 21.3679 10.8826 20.2426 9.75736Z" stroke="#1F2223" stroke-width="2" stroke-linecap="round" stroke-linejoin="round"/>
<path d="M6 9H2V21H6V9Z" stroke="#1F2223" stroke-width="2" stroke-linecap="round" stroke-linejoin="round"/>
<path d="M4 6C5.10457 6 6 5.10457 6 4C6 2.89543 5.10457 2 4 2C2.89543 2 2 2.89543 2 4C2 5.10457 2.89543 6 4 6Z" stroke="#1F2223" stroke-width="2" stroke-linecap="round" stroke-linejoin="round"/>
</svg>
