<svg width="24" height="24" viewBox="0 0 24 24" fill="none" xmlns="http://www.w3.org/2000/svg">
<path d="M19.86 4.5298C20.9821 4.19191 22.0424 3.67528 23 2.9998C22.6608 4.39251 21.9406 5.6633 20.92 6.6698C20.9723 6.9434 20.9991 7.22126 21 7.4998C21 18.9998 10 23.9998 1 18.9998C3.48716 19.0987 5.94053 18.3978 8 16.9998C-1 12.9998 3 3.9998 3 3.9998C4.01032 5.43844 5.36074 6.60488 6.93101 7.39525C8.50127 8.18561 10.2426 8.57537 12 8.5298V7.5298C11.9877 6.61214 12.2575 5.71283 12.773 4.95352C13.2884 4.1942 14.0247 3.61151 14.8821 3.28426C15.7395 2.957 16.6767 2.90096 17.567 3.12373C18.4573 3.34649 19.2577 3.83731 19.86 4.5298Z" stroke="#1F2223" stroke-width="2" stroke-linecap="round" stroke-linejoin="round"/>
</svg>
