<svg xmlns="http://www.w3.org/2000/svg" width="120" height="120" fill="none" viewBox="0 0 120 120"><path fill="#FFE393" fill-rule="evenodd" d="M24.012 58.3259C24.012 58.3259 20.4554 55.2877 25.4451 44.7973C30.4349 34.307 40.5402 36.6062 46.9994 32.48C56.543 26.3834 52.6314 21.6122 64.5317 20.8432C79.515 19.8749 80.3637 35.5227 87.86 35.5227C88.3531 35.5227 100.026 30.8323 101.735 43.6726C102.596 50.1392 87.86 60.0003 87.86 60.0003C87.86 60.0003 81.7272 65.5592 81.3904 68.3043C79.9781 79.8163 82.9235 93.0016 49.915 99.0715C45.6461 99.8566 38.5574 97.017 34.6467 91.7715C31.5829 87.6619 19.2928 90.5776 18.1456 77.067C17.5674 70.2573 24.012 58.3259 24.012 58.3259Z" clip-rule="evenodd"/><path fill="#fff" d="M46.0296 49.1985C46.1409 49.1329 46.2845 49.1698 46.3502 49.2812L46.615 49.7281C47.6672 51.4932 48.088 52.0663 48.5352 52.3254C48.9027 52.5383 49.2827 52.4722 49.9785 52.0642L50.0713 52.0086C50.5089 51.7358 52.5112 50.3604 53.2853 49.8665C53.3942 49.797 53.539 49.829 53.6085 49.938C53.6781 50.047 53.6461 50.1916 53.5371 50.2612L53.4179 50.3378C52.5552 50.897 50.6173 52.2279 50.2742 52.433C49.432 52.9367 48.8859 53.0498 48.3387 52.7519L48.3005 52.7305C47.7126 52.3898 47.2552 51.7362 45.947 49.519C45.8814 49.4078 45.9184 49.2642 46.0296 49.1985Z"/><path fill="#fff" d="M49.8196 51.9037C49.9478 51.8866 50.0655 51.9765 50.0827 52.1047C50.1623 52.6999 50.3532 53.2968 50.6564 53.8962C50.7147 54.0114 50.6686 54.1522 50.5532 54.2106C50.4379 54.269 50.2971 54.2227 50.2387 54.1074C49.9126 53.4626 49.7055 52.8154 49.6188 52.1667C49.6015 52.0386 49.6916 51.9208 49.8196 51.9037Z"/><path fill="#fff" fill-rule="evenodd" d="M77.0843 66.1979C77.0465 66.2934 76.9638 66.4258 76.8676 66.5509L76.9505 66.6368L77.0465 66.739L77.0678 66.7595C77.0772 66.7679 77.0844 66.7728 77.0897 66.7742C77.1209 66.7787 77.1425 66.8074 77.1382 66.8386C77.1337 66.8691 77.1052 66.8912 77.0742 66.8867C77.0462 66.8861 76.9439 66.8462 76.8223 66.7474C76.8003 66.7294 76.7782 66.7088 76.7559 66.6861C76.6857 66.7645 76.6148 66.8318 76.5535 66.8736C76.4633 66.9358 76.3852 66.9408 76.3479 66.9155C76.3113 66.891 76.2761 66.8086 76.3358 66.6421C76.3451 66.6118 76.3772 66.596 76.407 66.6054C76.4367 66.6149 76.4532 66.6466 76.4438 66.6767C76.4347 66.7075 76.4335 66.7358 76.4334 66.7584L76.4679 66.7349C76.4803 66.7261 76.4927 66.7162 76.5043 66.7046C76.546 66.6635 76.5927 66.6134 76.6396 66.5594C76.5654 66.473 76.4897 66.3717 76.4284 66.2547C76.3985 66.1976 76.3747 66.1371 76.3521 66.0735C76.3364 66.0379 76.3526 65.9962 76.3883 65.9803C76.4239 65.9647 76.4657 65.981 76.4814 66.0165C76.5495 66.1594 76.6366 66.2824 76.7227 66.3879L76.7513 66.4223C76.8295 66.3199 76.8969 66.2162 76.9275 66.1371C76.9444 66.0941 76.9932 66.0727 77.0363 66.0891C77.0798 66.1063 77.1012 66.1549 77.0843 66.1979Z" clip-rule="evenodd"/><path fill="#363939" fill-rule="evenodd" d="M42.2614 36.6736L42.1188 36.6479C41.3222 36.4997 40.7115 36.3179 39.5705 35.9223C39.4396 35.877 39.3704 35.7341 39.4158 35.6032C39.4611 35.4725 39.604 35.4032 39.7348 35.4485L40.0192 35.5464C41.02 35.8879 41.5816 36.0445 42.3484 36.1797C44.9292 36.6347 46.8616 35.3099 47.0196 32.7831C47.0283 32.6448 47.1473 32.5397 47.2856 32.5483C47.4236 32.557 47.5288 32.676 47.5201 32.8143C47.3424 35.6562 45.1227 37.1781 42.2614 36.6736Z" clip-rule="evenodd"/><path fill="#363939" fill-rule="evenodd" d="M48.7106 39.3798L48.8544 39.6998L49.1827 39.794C49.2005 39.7991 49.2107 39.8177 49.2056 39.8353C49.204 39.8409 49.2011 39.8458 49.1971 39.8498L48.9477 40.0982L48.9616 40.4554C48.9624 40.4738 48.948 40.4894 48.9296 40.4902C48.9234 40.4903 48.9171 40.4889 48.9117 40.4857L48.6294 40.3249C48.6205 40.3199 48.6099 40.3191 48.6005 40.323L48.2986 40.4428C48.2814 40.4497 48.2619 40.4414 48.255 40.4241C48.2528 40.4183 48.2522 40.4119 48.2533 40.4058L48.3168 40.054L48.1045 39.7734C48.0933 39.7586 48.0962 39.7377 48.1109 39.7266C48.1155 39.7231 48.1208 39.7209 48.1264 39.7201L48.4646 39.6726L48.6517 39.3758C48.6616 39.3601 48.6822 39.3554 48.6978 39.3652C48.7034 39.3687 48.7078 39.3738 48.7106 39.3798Z" clip-rule="evenodd"/><path fill="#fff" d="M81.6944 31.3373C81.8233 31.328 81.9352 31.4251 81.9444 31.5541C81.9536 31.683 81.8566 31.7949 81.7276 31.8042C80.8041 31.8701 80.0788 32.2278 79.7566 33.1131C79.7372 33.1664 79.7212 33.2179 79.7081 33.2667L79.6993 33.3003L79.7136 33.2709C80.1192 32.4426 80.9017 31.867 81.8084 31.721L81.8676 31.712C81.9956 31.6941 82.114 31.7834 82.1318 31.9114C82.1497 32.0394 82.0604 32.1578 81.9324 32.1755C81.09 32.2931 80.3696 32.853 80.0552 33.6558L80.0348 33.7098C79.8854 34.1202 79.5268 34.317 79.2961 33.9658C79.1553 33.7515 79.1646 33.371 79.3168 32.9531C79.7027 31.8928 80.5883 31.4162 81.6944 31.3373Z"/><path fill="#fff" d="M80.6283 29.5939C80.7572 29.5846 80.8692 29.6817 80.8783 29.8107C80.8876 29.9396 80.7905 30.0515 80.6615 30.0608C79.1926 30.1656 77.9044 31.1196 77.3919 32.5278C77.2399 32.9452 77.2116 33.302 77.266 33.4828L77.2727 33.503L77.2831 33.4881C77.3092 33.4484 77.3387 33.3915 77.3675 33.3177L77.3798 33.2851C77.9212 31.7976 79.2339 30.756 80.7734 30.5411C80.9014 30.5232 81.0196 30.6124 81.0375 30.7404C81.0555 30.8684 80.9662 30.9867 80.8382 31.0046C79.4913 31.1926 78.3401 32.0915 77.8443 33.3793L77.8196 33.4451C77.6188 33.9968 77.1847 34.235 76.9071 33.8126C76.7171 33.5232 76.7303 32.9769 76.9521 32.3676C77.5283 30.7844 78.9767 29.7116 80.6283 29.5939Z"/><path fill="#fff" d="M79.192 27.2689C79.3208 27.2598 79.4328 27.3567 79.442 27.4857C79.4512 27.6147 79.3542 27.7267 79.2252 27.7358C77.13 27.8852 75.2926 29.246 74.5616 31.2545C74.3129 31.938 74.2921 32.5174 74.428 32.7582L74.4404 32.7787C74.4604 32.8092 74.4537 32.8102 74.4588 32.8059L74.462 32.8038C74.5308 32.766 74.6217 32.6374 74.7048 32.4238L74.7212 32.3799C75.468 30.3286 77.2782 28.8919 79.4016 28.5956C79.5296 28.5777 79.6478 28.667 79.6657 28.795C79.6835 28.923 79.5942 29.0412 79.4662 29.0591C77.5382 29.3283 75.8912 30.6188 75.1883 32.4668L75.1611 32.5401C74.9014 33.2537 74.3804 33.5396 74.0492 33.0356C73.8022 32.6598 73.8203 31.923 74.1219 31.0945C74.9166 28.9108 76.9142 27.4315 79.192 27.2689Z"/><path fill="#fff" d="M76.6269 25.0842C76.7538 25.0594 76.8767 25.142 76.9015 25.2689C76.9264 25.3958 76.8437 25.5186 76.7168 25.5436C74.82 25.915 73.2946 27.3638 72.8522 29.2801C72.7025 29.9287 72.7477 30.4561 72.8948 30.6572L72.9143 30.6825L72.9157 30.686L72.9185 30.6838C72.9711 30.6364 73.0327 30.5151 73.0804 30.327L73.0903 30.2857C73.5453 28.3148 75.0479 26.7892 76.9672 26.2769C77.0921 26.2436 77.2204 26.3177 77.2537 26.4426C77.2869 26.5674 77.2128 26.6958 77.0879 26.729C75.3588 27.1906 74.0002 28.5521 73.5642 30.3162L73.5464 30.391C73.386 31.0862 72.9252 31.4178 72.5519 30.9778C72.2789 30.6561 72.2119 29.9732 72.3962 29.1748C72.8805 27.077 74.5504 25.4908 76.6269 25.0842Z"/><path fill="#fff" d="M50.6841 53.9478L50.8193 53.8986C52.0961 53.4404 53.1733 53.2383 53.4471 53.5167C53.6871 53.7609 53.901 54.2031 54.1038 54.8518C54.1423 54.9751 54.0735 55.1063 53.9501 55.1449C53.8268 55.1834 53.6956 55.1146 53.657 54.9913C53.4817 54.4305 53.3026 54.0529 53.1335 53.8663L53.1265 53.859L53.1205 53.8593C53.0884 53.8527 53.0404 53.8494 52.9793 53.8506C52.8444 53.8532 52.6601 53.877 52.4399 53.9206C51.9869 54.0103 51.4145 54.1772 50.846 54.387C49.8956 54.7375 49.1037 55.1495 48.6663 55.5217C48.5057 55.6583 48.2125 55.2777 48.4946 55.0598C49.0023 54.6674 49.7724 54.2841 50.6841 53.9478Z"/><path fill="#fff" d="M50.0418 49.5266C50.0418 50.3072 50.8674 51.1525 51.043 51.2005C51.1678 51.2346 49.0199 52.6341 49.0199 52.6341C48.2438 52.7362 47.7881 52.0802 47.7881 51.1031C47.7881 50.9738 50.0418 49.3973 50.0418 49.5266Z"/><path fill="#F9D262" fill-rule="evenodd" d="M47.5091 49.9368C47.781 49.8839 47.9658 49.6575 47.9216 49.4309C47.8776 49.2044 47.6216 49.0634 47.3496 49.1164C47.0778 49.1692 46.8931 49.3957 46.9371 49.6223C46.9811 49.8488 47.2373 49.9896 47.5091 49.9368Z" clip-rule="evenodd"/><path fill="#fff" d="M75.2111 23.7864C75.3384 23.7644 75.4597 23.8496 75.4818 23.9768C75.504 24.1042 75.4188 24.2255 75.2914 24.2476C74.6858 24.3532 74.0752 24.7197 73.4455 25.3028C72.6279 26.0599 72.0879 27.106 71.7901 28.5008C71.5501 29.6245 71.7716 31.0288 72.3986 32.2632C73.112 33.6676 74.3741 34.0148 75.8456 34.2836C77.3564 34.5594 77.7738 34.389 79.2013 33.8815L79.3327 33.8338C79.5277 33.7599 80.4399 33.4031 80.6592 33.3367C81.1207 33.1972 81.4356 33.2088 81.6639 33.452C81.7522 33.5463 81.7476 33.6944 81.6533 33.7829C81.565 33.8658 81.4293 33.8669 81.3397 33.789L81.3224 33.7724C81.2552 33.7007 81.1159 33.6924 80.8357 33.7727L80.7948 33.7847C80.5837 33.8485 79.5946 34.2367 79.4664 34.2836C77.9247 34.8463 77.4018 35.0436 75.7616 34.7439C74.1362 34.4471 72.7572 34.0026 71.9813 32.4752C71.3071 31.1477 71.0693 29.6348 71.3324 28.4031C71.6501 26.9144 72.2386 25.7823 73.1274 24.9592C73.8232 24.3151 74.5164 23.9076 75.2111 23.7864Z"/><path fill="#fff" d="M86.2211 42.4082C84.8869 42.3401 83.8363 43.3705 83.8253 44.7537C83.816 45.9191 84.4723 46.8788 85.3741 47.0647C85.7389 47.1397 86.4389 47.0493 86.9581 46.7581C87.7467 46.3353 88.3495 45.466 88.4255 44.7252C88.5495 43.5183 87.5723 42.4773 86.2211 42.4082Z"/><path fill="#fff" d="M62.0452 42.1647C62.4714 43.0254 63.1332 45.0134 62.8469 45.0038C62.0519 44.9772 60.9882 43.7554 60.2442 42.1033L60.1855 41.9705C59.5359 40.4705 59.1468 39.5281 59.5986 39.3476C60.0658 39.1609 61.1656 40.3882 62.0452 42.1647Z"/><path fill="#EAEAEA" fill-rule="evenodd" d="M59.5981 39.3291C60.0655 39.1424 61.1815 40.3136 62.061 42.09C62.4871 42.9507 62.7762 43.7764 62.8517 44.3684C62.8517 44.3684 61.4125 41.336 60.5346 40.2252C60.1975 39.7987 59.5981 39.3291 59.5981 39.3291Z" clip-rule="evenodd"/><path fill="#fff" d="M59.3534 46.9658C59.3876 46.8412 59.5164 46.7681 59.641 46.8023C59.7657 46.8365 59.8388 46.9653 59.8046 47.09C59.7606 47.2503 59.1406 47.6708 57.7881 48.5045L56.9343 49.0271C55.2489 50.053 54.1242 50.7097 53.9836 50.7097C53.053 50.7097 52.2145 49.8317 51.6023 48.4466C51.0678 47.2372 50.7902 45.7975 50.9156 44.8541C50.9546 44.5596 51.9356 43.7973 53.4505 42.7761L53.6674 42.6308C55.0074 41.738 56.153 41.0759 56.5674 40.9922C56.6942 40.9666 56.8175 41.0487 56.8431 41.1754C56.8591 41.2546 53.1652 44.3682 52.8044 46.4348C52.5601 47.8341 53.4838 50.2189 53.9422 50.2405L53.9836 50.2415C53.9463 50.2415 53.9583 50.2329 53.9626 50.2305L54.0049 50.2087C54.0359 50.1924 54.0729 50.1724 54.1153 50.149L54.31 50.0402C54.3846 49.998 54.4676 49.9505 54.5583 49.898L54.7906 49.7631C55.2342 49.5042 55.7874 49.1745 56.3518 48.833L56.8886 48.5068C57.5412 48.1079 58.131 47.7402 58.5742 47.4548L58.8025 47.3063C58.9438 47.2137 59.0633 47.1333 59.1588 47.0668L59.1935 47.0425C59.2462 47.0053 59.29 46.9733 59.3241 46.9473C59.3241 46.9473 59.3626 46.9319 59.3534 46.9658Z"/><path fill="#363939" fill-rule="evenodd" d="M59.8178 42.2954C59.2522 41.0398 59.0023 39.889 59.1917 39.1922C58.8495 39.3009 58.4218 39.4964 57.9971 39.7401C57.4327 40.0638 56.9847 40.4259 56.9743 40.5044C56.8651 41.3257 57.2839 42.9236 57.9797 44.3481C58.724 45.8718 59.6096 46.8505 60.2951 46.8505C60.3607 46.8505 60.5485 46.8118 60.7368 46.746C61.0047 46.6524 61.2555 46.5161 61.461 46.3377C61.5632 46.2489 61.669 46.1486 61.7794 46.0366L61.9125 45.899C61.9911 45.8159 62.072 45.7265 62.1986 45.5849L62.3746 45.3883L62.3823 45.3799C61.5003 45.0577 60.5781 43.9219 59.8882 42.4489L59.8178 42.2954ZM56.5103 40.4427C56.5831 39.8948 58.6344 38.7105 59.5706 38.6339C59.6098 38.6094 59.6516 38.5881 59.6964 38.5702C60.5071 38.2463 61.7423 39.634 62.7333 41.5865L62.8011 41.722C63.2485 42.6254 63.5536 43.4971 63.6367 44.1489C63.736 44.9281 63.5104 45.4446 62.9189 45.4711C62.9031 45.5324 62.8631 45.5838 62.8099 45.6148L62.8008 45.6195L62.7776 45.6425C62.7546 45.6663 62.7272 45.6959 62.685 45.7428L62.3943 46.0673C62.2887 46.1836 62.2139 46.2625 62.1127 46.3652C61.9943 46.4852 61.8799 46.5937 61.768 46.691C61.3149 47.0846 60.645 47.3185 60.2951 47.3185C60.1095 47.3185 59.9218 47.2755 59.7338 47.1931C59.533 47.4025 58.9147 47.8103 57.7885 48.5046L56.9347 49.027C55.2493 50.0531 54.1247 50.7095 53.984 50.7095C53.6653 50.7095 53.3575 50.6067 53.0658 50.4156C53.0631 50.4174 53.0603 50.4193 53.0575 50.421L52.9383 50.4977C52.5237 50.7665 51.8607 51.2135 51.2456 51.6283L51.2455 51.6284L51.2072 51.6542C51.2869 52.2225 51.4679 52.7924 51.7509 53.3643C52.7562 53.0534 53.5523 52.9484 53.7821 53.1822C54.0221 53.4263 54.2359 53.8686 54.4387 54.5172C54.4773 54.6406 54.4085 54.7718 54.2851 54.8103C54.1618 54.8489 54.0304 54.7802 53.9919 54.6569C53.8167 54.0959 53.6376 53.7183 53.4685 53.5318L53.4615 53.5244L53.4555 53.5247C53.4234 53.5182 53.3754 53.515 53.3143 53.5161C53.1794 53.5187 52.9951 53.5425 52.7749 53.5862C52.3219 53.6758 51.7495 53.8427 51.181 54.0524C49.8816 54.5318 48.8786 55.1259 48.6725 55.5759C48.6122 55.7076 48.6199 55.9004 48.692 56.1956L48.7055 56.2489C48.7163 56.2907 48.7275 56.3321 48.7424 56.3846L48.8269 56.6836L48.8304 56.6972C48.8328 56.7062 48.8354 56.7159 48.8383 56.727C48.8707 56.8521 48.7957 56.9799 48.6706 57.0124C48.5455 57.0449 48.4176 56.9697 48.3851 56.8446L48.3437 56.6932L48.2744 56.4491C48.2666 56.4201 48.2594 56.3934 48.2523 56.3663C48.1427 55.9435 48.1251 55.6471 48.2469 55.3811C48.4536 54.9298 49.1 54.4623 50 54.0372L49.8043 53.5316L49.756 53.4038C49.6818 53.2042 49.5956 52.9339 49.5426 52.7366C48.8396 53.1156 48.3498 53.179 47.8591 52.9118L47.821 52.8903C47.7239 52.8342 47.6304 52.7694 47.536 52.6905L44.7931 54.3564C44.8187 54.4115 44.8443 54.4668 44.8704 54.5227C44.9935 54.7865 44.7765 54.9734 44.4435 55.1188L44.4075 55.1342C44.1215 55.2526 43.8632 55.2798 43.7095 55.1111C43.0717 54.411 42.3965 52.7364 42.7597 52.3534C42.8295 52.2798 43.0136 52.1703 43.3618 51.9876L43.3895 51.9732C43.3967 51.9683 43.404 51.9638 43.4119 51.9595L45.9759 50.5703C45.9818 50.5671 45.9877 50.5642 45.9938 50.5617C45.8354 50.2998 45.6618 50.0083 45.4698 49.683C45.4407 49.6358 45.4298 49.5807 45.4373 49.5276C45.4419 49.4939 45.4539 49.4611 45.4733 49.4316C45.4839 49.4155 45.4967 49.4004 45.5112 49.387C46.0384 48.8871 46.7567 48.3658 47.6578 47.8046L47.7669 47.7369C48.157 47.4964 48.9479 47.0454 49.6197 46.6622C50.141 46.3649 50.5906 46.1084 50.7259 46.0228L50.7587 46.001C50.8077 45.9652 50.8659 45.9513 50.9218 45.9572C50.8773 45.5513 50.8735 45.174 50.916 44.854C50.9551 44.5596 51.9362 43.7974 53.4509 42.7761L53.6679 42.6306C54.9375 41.7849 56.0325 41.146 56.4965 41.0102C56.484 40.8006 56.4882 40.6097 56.5103 40.4427ZM56.5477 41.4847C56.0931 41.6508 54.9547 42.3267 53.7125 43.1641L53.5136 43.2991C52.9546 43.6806 52.4381 44.0524 52.048 44.3554L51.9397 44.4406C51.7656 44.5785 51.6248 44.6974 51.5226 44.7927C51.4714 44.8404 51.4311 44.8814 51.4026 44.914L51.3826 44.9374C51.3783 44.942 51.3771 44.9403 51.3787 44.9255L51.38 44.9156C51.3794 44.9194 51.3791 44.9227 51.3787 44.9255L51.3725 44.9758C51.1475 46.9508 52.5757 50.1763 53.9426 50.2406L53.9747 50.2412C53.9775 50.2414 53.9805 50.2415 53.984 50.2415L53.9747 50.2412C53.949 50.2399 53.9592 50.2326 53.9631 50.2303L54.0053 50.2086C54.0364 50.1922 54.0733 50.1724 54.1159 50.1491L54.3106 50.0401C54.385 49.9979 54.468 49.9503 54.5589 49.8979L54.7911 49.763C55.2346 49.5041 55.7879 49.1745 56.3522 48.8331L56.889 48.5066C57.5416 48.1079 58.1314 47.7403 58.5746 47.4547L58.8029 47.3063C58.9443 47.2135 59.0637 47.1332 59.1592 47.0668L59.1939 47.0425C59.2445 47.0068 59.2869 46.9759 59.3205 46.9503C58.7176 46.5079 58.124 45.691 57.5971 44.6305L57.5592 44.5535C57.0514 43.5138 56.684 42.3881 56.5477 41.4847ZM50.9864 46.411C50.8175 46.5172 50.3194 46.8017 49.7651 47.1182C49.1083 47.4932 48.3728 47.9132 48.0127 48.1353C47.1621 48.6596 46.476 49.1459 45.9669 49.6035L46.1355 49.8881C46.8736 51.1263 47.301 51.778 47.6447 52.1462C47.5306 51.8753 47.4714 51.5315 47.4714 51.1003C47.4714 51.0804 47.4738 51.0612 47.4784 51.0427C47.4557 50.9531 47.4877 50.8547 47.5669 50.7966L47.7263 50.678C47.8219 50.6059 47.9792 50.4855 48.1581 50.3489C48.5495 50.0497 49.044 49.6718 49.2205 49.5454C49.7755 49.1478 50.1847 48.9247 50.5571 48.8473C50.7351 48.8103 50.8733 48.9156 50.9133 49.0787L50.9199 49.1083C50.9291 49.1567 50.9309 49.2046 50.9307 49.3087L50.9306 49.3417C50.9287 49.7311 50.9672 49.9559 51.1322 50.2154C51.245 50.3932 51.4109 50.5553 51.6419 50.7004C51.6661 50.7156 51.6866 50.7345 51.7031 50.7559C52.0757 50.5055 52.425 50.2727 52.6826 50.1057C52.2767 49.7129 51.9109 49.1439 51.6027 48.4465C51.3155 47.7969 51.1026 47.0809 50.9864 46.411ZM63.1725 44.2081C63.097 43.6161 62.8079 42.7905 62.3818 41.9297C61.5021 40.1534 60.3373 38.8182 59.8699 39.0049C59.4183 39.1854 59.5362 40.4703 60.1858 41.9703L60.2445 42.1031C60.9885 43.7553 62.0522 44.9772 62.8472 45.0038C63.1335 45.0132 63.2453 44.7794 63.1725 44.2081ZM46.2355 50.9574C46.6415 51.6137 46.9381 52.0475 47.1967 52.3491L44.5963 53.9284C44.3299 53.3444 44.0917 52.8009 43.8605 52.2487L46.1989 50.9819C46.212 50.9748 46.2243 50.9665 46.2355 50.9574ZM51.3021 53.5119C51.0498 52.99 50.8755 52.4667 50.7797 51.9423C50.4437 52.1684 50.1512 52.3641 49.9634 52.4863C49.9955 52.6478 50.1152 53.031 50.2183 53.3035L50.4103 53.7979L50.4287 53.8462C50.6175 53.7665 50.8146 53.6887 51.0191 53.6134L51.1541 53.5641C51.2039 53.5463 51.2531 53.5289 51.3021 53.5119ZM51.2938 51.0313C51.0541 50.8651 50.8703 50.6761 50.7371 50.4665C50.5216 50.1273 50.465 49.8377 50.4626 49.4001L50.4624 49.3609L50.4293 49.3732C50.192 49.4654 49.9088 49.6319 49.553 49.8833L49.4931 49.9258C49.3237 50.0473 48.8415 50.4158 48.4527 50.7129L48.4525 50.7131C48.2363 50.8782 48.0491 51.0212 47.9603 51.0878L47.9394 51.1031C47.9399 51.8817 48.1343 52.239 48.4957 52.4124L48.5247 52.4257C48.6108 52.4638 48.6722 52.483 48.8479 52.531C48.8514 52.5319 48.8549 52.533 48.8583 52.5342C49.0405 52.4729 49.2495 52.3705 49.4989 52.2243L49.5919 52.1684C49.7979 52.0399 50.3509 51.667 50.9594 51.2567C51.0695 51.1823 51.1816 51.1068 51.2938 51.0313ZM43.4469 52.4726L43.4827 52.558C43.7312 53.1475 43.9896 53.731 44.2827 54.3676L44.3967 54.6145C44.3594 54.6396 44.3103 54.6663 44.2562 54.6899C44.1786 54.7238 44.0999 54.7476 44.0407 54.7556L44.0218 54.7574L43.9933 54.7233C43.7717 54.4505 43.5146 53.9871 43.3288 53.5262C43.2298 53.2807 43.1594 53.0556 43.1275 52.8827C43.1146 52.8123 43.1087 52.7531 43.1091 52.7081L43.1104 52.6785C43.1109 52.6713 43.1109 52.6676 43.1091 52.667L43.1162 52.6623C43.1557 52.635 43.2568 52.5759 43.4069 52.4943L43.4469 52.4726ZM46.6752 51.9571C46.5847 51.8647 46.4365 51.8633 46.3442 51.9539C46.1819 52.1131 45.9544 52.2614 45.5573 52.4819L45.153 52.7062C45.0461 52.767 44.9587 52.8195 44.8795 52.871C44.8133 52.9139 44.7543 52.9553 44.701 52.9964C44.5987 53.0753 44.5799 53.2223 44.6589 53.3246C44.7379 53.427 44.885 53.4457 44.9872 53.3667C45.0295 53.334 45.0783 53.2999 45.1343 53.2636C45.1859 53.23 45.2427 53.1953 45.3085 53.1569L45.4375 53.0831L45.848 52.8556C46.2426 52.6342 46.4803 52.4759 46.672 52.2879C46.7642 52.1975 46.7656 52.0494 46.6752 51.9571Z" clip-rule="evenodd"/><path fill="#fff" d="M41.4399 75.7232C42.6103 82.2482 46.9966 87.1535 52.5939 88.3099C53.6212 88.5223 55.4004 88.5501 57.2427 88.3117C59.6163 88.0045 61.9263 87.2999 63.9579 86.1578C69.5388 83.1583 73.7735 77.0367 74.3225 71.6779C74.8046 66.9707 73.0063 62.6223 69.751 59.52C69.751 59.52 59.5244 64.5429 54.5044 67.3979C50.1361 69.8823 41.4399 75.7232 41.4399 75.7232Z"/><path fill="#fff" d="M65.2563 56.2653C63.1586 55.2304 60.5306 54.4128 57.9534 54.281C48.5018 53.7978 41.0683 61.3484 40.9907 71.0872C40.9907 71.0872 51.5398 64.368 57.0202 61.1261C59.7467 59.5131 65.2563 56.2653 65.2563 56.2653Z"/><path fill="#363939" fill-rule="evenodd" d="M84.6967 51.3019C84.6649 52.9289 82.9431 55.6373 80.1753 58.7019C78.1705 60.9219 75.8373 63.0678 73.8812 64.5137L73.7594 64.603L73.8402 64.9624C74.3159 67.0472 74.937 69.3136 74.7023 71.5992C74.1329 77.1464 69.7938 83.4049 64.0599 86.4798C61.9687 87.6531 59.5916 88.3766 57.1532 88.6915L56.9207 88.7201C55.1026 88.9344 53.3628 88.8989 52.2996 88.6797C48.1727 87.8288 44.6789 84.944 42.5665 80.7688C42.5594 80.7549 42.5538 80.7405 42.5498 80.7257C42.2717 80.8845 41.8975 81.0617 41.7266 81.1197L41.2585 81.2779C36.2134 82.9749 31.2116 84.3945 29.1684 83.5085C28.3905 83.1712 28.1245 82.5224 28.45 81.6509C28.7661 80.8038 29.6426 79.7125 31.1133 78.3542L31.1941 78.2798C32.5876 77.0024 35.6823 74.6681 40.4781 71.2769L40.4793 71.2147C40.7133 61.1664 48.5185 53.5064 58.3293 54.1317C61.3302 54.3229 63.7199 55.3893 64.9135 56.0441L65.4385 55.7624C70.3617 53.1299 74.3119 51.2795 77.326 50.172C82.2825 48.3505 84.7337 49.2021 84.6967 51.3019ZM77.4874 51.2513C71.945 53.288 63.1858 57.8686 50.9905 65.2368L50.6198 65.4609C41.1236 71.2096 34.8354 75.5769 31.5103 78.6248L31.3465 78.7761L31.1911 78.9219C28.6951 81.2801 28.2527 82.6013 29.3546 83.079C31.2409 83.8971 36.3061 82.5181 41.2668 80.891L41.7266 80.7393C42.169 80.5928 42.4625 80.5086 42.6441 80.4697C42.6519 80.4641 42.6605 80.459 42.6697 80.4544C42.7317 80.423 42.8012 80.4219 42.8612 80.4454C42.8742 80.448 42.8826 80.452 42.8871 80.4576C42.9274 80.4795 42.9618 80.5134 42.9842 80.5576C45.0348 84.6107 48.4138 87.0806 52.3941 87.9013C53.4274 88.1142 55.1705 88.1454 56.9844 87.9211L57.0933 87.9073C59.4756 87.5997 61.7957 87.2134 63.8348 86.0696C69.438 83.0646 73.6834 76.9413 74.2367 71.5513C74.4732 69.2478 74.1714 66.9867 73.3692 64.8822C73.3029 64.9285 73.2372 64.9739 73.1721 65.0184C73.0489 65.1024 73.0949 64.9662 73.31 64.6102C73.3214 64.5638 73.3471 64.5214 73.3839 64.4897L73.4501 64.3848C73.4734 64.3481 73.4977 64.3102 73.5233 64.2705L73.8007 64.0366C76.4149 61.8254 78.4241 59.9427 79.8279 58.3881L79.9882 58.2097C82.5857 55.303 84.2004 52.7353 84.2269 51.2933C84.2562 49.7112 82.1689 49.5309 77.4874 51.2513ZM53.9868 80.8481C54.6146 82.7673 53.6647 84.0017 51.9925 84.0656C50.4474 84.1245 49.0404 83.1509 49.1121 81.7673C49.1742 80.5717 49.9929 79.2933 51.0009 78.824C52.2199 78.2561 53.3639 78.9449 53.9868 80.8481ZM51.2477 79.3544C50.4412 79.7299 49.7474 80.8131 49.6964 81.7976C49.6457 82.7782 50.7295 83.5281 51.9701 83.4809C53.2674 83.4313 53.9332 82.5661 53.4306 81.0301C52.9074 79.4309 52.1117 78.952 51.2477 79.3544ZM66.7537 76.9374C67.555 78.4513 67.3452 79.9387 66.1132 80.6053L66.0786 80.6235L66.0609 80.6414C64.4087 82.2773 62.3447 82.4758 60.999 81.2901L60.9527 81.2486C59.4025 79.8283 59.7717 77.3885 62.2388 75.4757C63.8263 74.2448 65.7657 75.0702 66.7537 76.9374ZM62.546 75.872C60.3065 77.6085 59.9916 79.688 61.2914 80.8787C62.2238 81.7328 63.6013 81.78 64.8879 80.9512L64.913 80.9344L64.9036 80.9325C64.8146 80.9089 64.7431 80.8371 64.7228 80.7433L64.7188 80.7195C64.7025 80.5821 64.8009 80.4574 64.9383 80.4411C65.2529 80.4038 65.5258 80.3278 65.7573 80.2192L65.789 80.2037L65.8273 80.164C65.9783 80.0051 66.1257 79.8323 66.2685 79.6453L66.3161 79.5824C66.3697 79.5105 66.4543 79.4757 66.5375 79.4824L66.5439 79.483L66.5473 79.4768C66.8476 78.883 66.7765 78.0787 66.3367 77.2224L66.3105 77.172C65.4513 75.5483 63.8452 74.8646 62.546 75.872ZM77.4596 57.8758C77.3306 58.3337 76.9385 58.9621 76.3372 59.7062C75.289 61.0033 73.7145 62.5131 72.3382 63.5456L72.6434 63.2097C72.6404 63.2072 72.638 63.2035 72.6357 63.1995L72.5303 63.0059C71.8417 61.7488 71.0743 60.5088 69.8343 59.4979C66.6245 60.8213 62.9441 62.6302 59.5911 64.5217L58.4919 65.143C50.3983 69.7278 46.1401 72.4726 41.5865 75.847C41.7585 76.6209 41.9749 77.3763 42.2343 78.1081C42.2751 78.223 41.7433 78.6528 41.6458 78.5997C40.7375 79.2083 39.3151 79.6504 38.5052 79.6734C37.7159 79.6958 37.2601 79.3763 37.4949 78.7393C37.6914 78.2064 38.4316 77.4462 39.7637 76.4277L39.9156 76.3125L40.2226 76.0817C45.2364 72.3281 50.1996 69.2822 59.361 64.1141L59.7446 63.899C66.0281 60.3915 73.3044 57.2317 76.6372 56.9401C77.3223 56.8801 77.633 57.2592 77.4596 57.8758ZM40.9769 76.3011L39.9265 77.0937C38.9893 77.8043 38.3137 78.3297 37.9489 78.6669L37.922 78.6918C37.4765 79.1096 37.9807 79.22 38.4919 79.2056C39.2663 79.1837 40.4524 78.5965 41.4565 78.0621C41.2709 77.4872 41.1108 76.8995 40.9769 76.3011ZM57.4079 73.76C57.533 73.7917 57.6089 73.919 57.577 74.0443C57.5452 74.1696 57.418 74.2454 57.2927 74.2136C56.6633 74.0537 56.2916 74.1152 56.1709 74.2846C56.0909 74.3971 56.1353 74.5888 56.2849 74.7112C56.4018 74.8069 56.5575 74.8525 56.6646 74.8293C56.7577 74.8089 56.81 74.7371 56.81 74.5574C56.81 74.4281 56.9148 74.3233 57.0439 74.3233C57.1732 74.3233 57.278 74.4281 57.278 74.5574C57.278 74.9481 57.0825 75.2173 56.7642 75.2865C56.5082 75.3422 56.2101 75.2547 55.9885 75.0734C55.6613 74.8057 55.5545 74.3437 55.7897 74.0133C56.0473 73.651 56.6121 73.5579 57.4079 73.76ZM47.1276 72.9008C47.4885 73.0089 47.6439 73.2861 47.693 73.7017L47.6978 73.7469L47.7037 73.8153C47.7045 73.8267 47.7053 73.8384 47.7061 73.8509L47.7185 74.0885L47.7221 74.1421C47.7241 74.1656 47.7261 74.1848 47.7285 74.2019L47.7348 74.2376L47.7386 74.2534L47.7452 74.2592C47.8173 74.3299 47.8365 74.4408 47.7898 74.5323L47.7778 74.5531C47.7077 74.6617 47.563 74.6929 47.4543 74.6229C47.3049 74.5265 47.271 74.4273 47.2529 74.1427L47.238 73.864C47.2362 73.8389 47.2343 73.8171 47.2319 73.7925C47.2053 73.5198 47.1389 73.3928 46.9932 73.3491C46.5844 73.2267 46.3498 73.3517 46.2756 73.6249C46.2093 73.8685 46.3052 74.1243 46.4729 74.1953L46.5153 74.2112C46.6249 74.2581 46.6829 74.3814 46.646 74.4974C46.6068 74.6205 46.4751 74.6885 46.3521 74.6493C45.9063 74.5072 45.6946 73.9777 45.8239 73.5021C45.9682 72.9713 46.4701 72.7038 47.1276 72.9008ZM64.0121 69.3173C64.6602 70.2283 64.5397 71.3877 63.4999 71.9121C63.3845 71.9704 63.2437 71.9241 63.1855 71.8086C63.1273 71.6933 63.1737 71.5525 63.289 71.4944C64.0418 71.1145 64.1279 70.2875 63.6306 69.5885C63.1478 68.9094 62.4754 68.8349 62.0133 69.5685C61.5236 70.3464 61.5593 70.8029 61.9119 71.0085C62.1917 71.1718 62.6426 71.1374 62.7665 71.004L62.7785 70.9894C62.8535 70.8841 62.9996 70.8595 63.1049 70.9344C63.2101 71.0094 63.2348 71.1555 63.1598 71.2608C62.8996 71.6262 62.1572 71.6934 61.6761 71.4129C61.0601 71.0537 61.0012 70.2976 61.6173 69.3192C62.277 68.2713 63.3532 68.3909 64.0121 69.3173ZM54.309 67.9752C54.4308 67.9752 54.5306 68.0681 54.542 68.1867L54.5431 68.2093C54.5431 68.2505 54.5813 68.2965 54.7188 68.3973L54.8487 68.4905C54.9903 68.5937 55.0586 68.6579 55.1233 68.76C55.2708 68.9933 55.3545 69.2309 55.3545 69.5102C55.3545 70.2254 54.2799 71.1982 53.1071 71.6312C51.701 72.1501 50.5492 71.7653 50.2357 70.3225C50.2082 70.1961 50.2884 70.0715 50.4148 70.0441C50.541 70.0166 50.6657 70.0968 50.6932 70.2232C50.9364 71.3429 51.7762 71.6234 52.945 71.192C53.9543 70.8195 54.8863 69.9757 54.8863 69.5102C54.8863 69.3301 54.8316 69.1745 54.7276 69.0102L54.7135 68.9904C54.6897 68.9603 54.6524 68.9277 54.5854 68.8779L54.4309 68.7667C54.1745 68.5776 54.0751 68.4499 54.0751 68.2093C54.0751 68.08 54.1799 67.9752 54.309 67.9752ZM55.4076 55.0037L55.2599 55.0203C47.2738 55.9808 41.2829 62.3681 40.9562 70.9395L41.813 70.3366C44.2725 68.6102 47.1273 66.6382 50.3773 64.4205L51.0106 64.0377C52.9014 62.8971 54.7092 61.8237 56.4348 60.8166C56.4033 60.7614 56.3945 60.6936 56.4159 60.6285C56.5365 60.2601 56.6481 60.0126 56.8524 59.7648C57.4917 58.9891 58.3677 58.6102 58.9884 59.0973C59.0495 59.1453 59.0804 59.2174 59.0778 59.2896L59.6292 58.975C61.3653 57.9867 63.0082 57.0739 64.5586 56.2355L63.953 56.0632C63.0549 55.8104 61.9377 55.5105 60.8247 55.2798C60.8349 56.0203 60.2806 56.6117 59.3596 57.0185C58.5765 57.3643 57.5564 57.5504 56.8309 57.507C55.4738 57.4262 54.71 56.2358 55.4076 55.0037ZM69.4165 65.1672C69.9892 66.7318 69.5167 68.1547 68.0866 68.1454C66.0492 68.1321 64.0596 66.3531 64.3813 64.7593C64.5247 64.0485 65.0593 63.4195 65.9887 63.1056C67.473 62.6043 68.8335 63.5744 69.4165 65.1672ZM66.1385 63.5491C65.3703 63.8085 64.9511 64.3017 64.8401 64.852C64.5849 66.1169 66.317 67.6657 68.0897 67.6774C69.1052 67.684 69.4543 66.6325 68.9769 65.3281C68.4717 63.9478 67.3423 63.1425 66.1385 63.5491ZM48.9297 58.0088L48.9463 58.0329L49.059 58.212C49.1141 58.303 49.1636 58.3921 49.2106 58.4885C49.7289 59.5481 49.7156 60.9374 48.8383 62.8659C48.441 63.7395 47.4287 64.9136 46.5447 65.6142C45.4159 66.5089 44.573 66.7121 43.5671 66.6016L43.2685 66.5665L43.2322 66.5632C43.2122 66.5617 43.1994 66.5617 43.1855 66.5621L43.165 66.563C43.1495 66.5637 43.1441 66.563 43.1431 66.5609V66.5593L43.1356 66.5715C43.0677 66.6688 42.9359 66.7008 42.83 66.6419C42.717 66.579 42.6764 66.4366 42.7393 66.3237C42.8234 66.1723 42.9639 66.104 43.1428 66.0955C43.1903 66.0933 43.2404 66.0949 43.3001 66.0998L43.3698 66.1065L43.5629 66.1301C44.4793 66.2411 45.2082 66.0761 46.254 65.2475C47.0842 64.5894 48.0494 63.4701 48.4122 62.6721C49.2332 60.8675 49.2452 59.6243 48.7901 58.6941C48.7598 58.6321 48.7282 58.5733 48.694 58.5141L48.645 58.4323L48.5468 58.2771C48.4781 58.1677 48.5113 58.0232 48.6207 57.9545C48.7234 57.8901 48.8567 57.9152 48.9297 58.0088ZM76.678 57.4064C75.1818 57.5373 72.8365 58.2763 70.1327 59.3757L70.2117 59.4456C70.9642 60.1206 72.4825 61.7216 72.9577 62.8635L73.4309 62.3385C74.5989 61.0395 75.4463 60.064 75.9732 59.412L76.0798 59.2784C76.5833 58.6393 76.9087 58.1054 77.009 57.7491L77.0233 57.695C77.0857 57.4379 77.0133 57.3769 76.678 57.4064ZM54.269 58.1665C54.8514 58.4481 55.0879 59.0752 54.7047 59.6435C54.6324 59.7507 54.4869 59.779 54.3798 59.7067C54.2726 59.6345 54.2444 59.4891 54.3165 59.3819C54.5274 59.0693 54.4084 58.7539 54.0652 58.588C53.7039 58.4133 53.3079 58.5137 53.1036 58.8952C52.9153 59.2467 52.9023 59.7224 53.0527 60.0341C53.1847 60.3077 53.3767 60.3601 53.6698 60.1395C53.7732 60.0617 53.9199 60.0824 53.9977 60.1857C54.0753 60.2889 54.0546 60.4357 53.9514 60.5134C53.4172 60.9155 52.8885 60.7712 52.6311 60.2374C52.4153 59.7901 52.4325 59.1566 52.6909 58.6741C53.0207 58.0587 53.693 57.8881 54.269 58.1665ZM57.2135 60.0625C57.1044 60.1949 57.0265 60.3345 56.9541 60.5137C57.5572 60.1635 58.15 59.8211 58.7327 59.487L58.7157 59.4771L58.6994 59.4654C58.3421 59.1849 57.7122 59.4574 57.2135 60.0625ZM56.2154 54.9321L56.0108 54.9465L55.997 54.9638C55.1881 55.9862 55.4998 56.816 56.6045 56.9339C57.398 57.0185 59.5044 56.4297 59.7516 56.2232C59.9922 56.0219 60.2965 55.5592 60.3434 55.1841C59.6285 55.0497 58.9292 54.951 58.3054 54.919C57.6679 54.8865 57.0393 54.8872 56.4212 54.92L56.2154 54.9321Z" clip-rule="evenodd"/><path fill="#fff" d="M77.3447 51.3093C82.3014 49.4879 82.1878 50.0283 77.5062 51.7487C71.9638 53.7853 51.0427 66.5471 51.0427 66.5471C41.5465 72.2957 40.8361 71.4083 50.0404 65.8144L50.6078 65.4703C50.7146 65.4055 61.194 58.7917 68.6822 55.2531C69.5249 54.8551 76.7804 51.5167 77.3447 51.3093Z"/><path fill="#363939" fill-rule="evenodd" d="M85.9036 42.2417C84.3677 42.1631 83.1688 43.3567 83.1564 44.9183C83.146 46.2268 83.8965 47.3377 84.972 47.5595C85.2554 47.6179 86.0727 47.6179 86.7816 47.2201L86.8404 47.1878C87.7343 46.6817 88.3423 45.7188 88.4236 44.9267C88.5677 43.5223 87.4394 42.3203 85.9036 42.2417ZM83.4908 44.9211C83.4908 44.911 83.4909 44.9009 83.4911 44.8908C83.5007 44.8878 83.5101 44.8838 83.5192 44.8788C84.7234 44.2302 85.4668 43.7358 85.7636 43.3788C85.9596 43.1433 86.0551 42.8774 86.0474 42.5886C86.2496 42.611 86.4423 42.6553 86.6231 42.7188C86.622 42.7275 86.6215 42.7364 86.6218 42.7454C86.6365 43.1611 86.5256 43.4932 86.2901 43.7519C86.0194 44.0494 85.6916 44.3323 85.3186 44.599C84.92 44.8843 84.492 45.1361 84.0639 45.3518C83.964 45.4022 83.869 45.4479 83.7799 45.4894L83.6506 45.5479C83.632 45.5561 83.6149 45.5636 83.5991 45.5705L83.5607 45.5867C83.5133 45.3759 83.4888 45.1526 83.4908 44.9211ZM83.6546 45.9099C83.7605 46.2035 83.9138 46.4636 84.1037 46.6756L84.2036 46.618C85.7749 45.7083 86.7506 44.9935 87.1197 44.4894C87.493 43.9796 87.6261 43.5883 87.5426 43.322C87.5407 43.3158 87.5391 43.3095 87.538 43.3031C87.3735 43.1305 87.1776 42.9822 86.957 42.8649C86.9476 43.3068 86.8079 43.6799 86.5373 43.9771C86.2496 44.2932 85.904 44.5913 85.5132 44.871C85.0994 45.1671 84.6568 45.4275 84.2143 45.6503C84.0853 45.7155 83.9637 45.7734 83.852 45.8241L83.7216 45.8819L83.6546 45.9099ZM84.9061 47.1983C84.7087 47.1393 84.5248 47.0425 84.3592 46.9142C85.9768 45.9787 86.9836 45.2414 87.3895 44.687C87.6413 44.343 87.8024 44.0337 87.8679 43.7577C87.9492 43.9097 88.0108 44.0718 88.0503 44.2409C88.0418 44.2582 88.0362 44.2772 88.0341 44.2974C87.9933 44.6883 87.7919 45.0761 87.4236 45.4625C87.0701 45.8332 86.3072 46.3681 85.1416 47.0598L84.9061 47.1983ZM85.4712 47.2524C85.8301 47.2297 86.269 47.1244 86.6236 46.9255C87.2832 46.5718 87.8128 45.9057 88.0128 45.2638C87.9162 45.4087 87.8004 45.5518 87.6656 45.6932C87.3026 46.0739 86.573 46.5915 85.4712 47.2524ZM83.5879 44.4609L83.5285 44.4932C83.7183 43.3886 84.6008 42.5959 85.7122 42.5729C85.724 42.79 85.6565 42.9847 85.5064 43.1652C85.264 43.4567 84.6207 43.8932 83.5879 44.4609Z" clip-rule="evenodd"/><path fill="#EAEAEA" fill-rule="evenodd" d="M97.972 39.0383C98.0032 39.0418 98.0249 39.0702 98.0214 39.101C98.0212 39.1466 97.9918 39.1714 97.9524 39.1874C97.9168 39.2017 97.86 39.1962 97.827 39.2007C97.4649 39.2286 97.1803 38.9623 97.0551 38.619C96.9348 38.289 96.9668 37.8946 97.1852 37.6514C97.2104 37.6228 97.2539 37.6199 97.2825 37.645C97.3112 37.6702 97.474 37.7138 97.4489 37.7425C97.2689 37.9526 97.1472 38.0801 97.3169 38.5788C97.4867 39.0775 97.9488 39.0356 97.972 39.0383Z" clip-rule="evenodd"/><path fill="#363939" fill-rule="evenodd" d="M40.3309 42.6091C40.2359 42.5436 40.1058 42.5678 40.0404 42.663C39.9751 42.7582 39.9993 42.8883 40.0945 42.9535C40.1989 43.0252 40.2913 43.0915 40.3729 43.1531C40.285 43.223 40.1973 43.303 40.1061 43.394L39.9213 43.5817C39.8402 43.6638 39.8407 43.7961 39.9226 43.8772C40.0047 43.9585 40.137 43.9579 40.2181 43.876L40.4399 43.652C40.5301 43.564 40.6148 43.4905 40.6997 43.4294C40.8887 43.6167 40.9463 43.754 40.9493 43.8907V43.9256L40.9505 43.947C40.9612 44.0524 41.0501 44.1345 41.1583 44.1345C41.2737 44.1345 41.3673 44.0411 41.3673 43.9256V43.8846C41.3633 43.6716 41.2882 43.4692 41.086 43.2379C41.2196 43.198 41.3701 43.1758 41.5525 43.1662C41.6679 43.1603 41.7564 43.0619 41.7505 42.9467C41.7444 42.8315 41.6461 42.7428 41.5308 42.7489C41.2138 42.7654 40.9676 42.8184 40.7482 42.9187C40.6565 42.8438 40.5529 42.7652 40.4356 42.682L40.3309 42.6091Z" clip-rule="evenodd"/><path fill="#363939" fill-rule="evenodd" d="M71.6412 88.3962L71.7861 88.3969C72.5964 88.4044 73.2294 88.4774 74.4217 88.6687C74.5585 88.6908 74.6514 88.8194 74.6295 88.9561C74.6076 89.0929 74.479 89.1858 74.3422 89.1639L73.9514 89.1025C72.9649 88.951 72.3964 88.8977 71.6412 88.8977C69.0207 88.8977 67.3479 90.538 67.6309 93.054C67.6465 93.1916 67.5474 93.3156 67.4098 93.3311C67.2722 93.3466 67.1481 93.2476 67.1326 93.11C66.8142 90.2804 68.7359 88.3962 71.6412 88.3962ZM73.6708 89.4087L73.6463 89.3871C73.6226 89.3668 73.5863 89.3697 73.5665 89.3934C73.5457 89.4172 73.5489 89.4529 73.5726 89.4734L73.5977 89.4946C73.6213 89.515 73.6569 89.5122 73.6775 89.4884C73.6975 89.4647 73.6951 89.4289 73.6708 89.4087ZM69.1268 89.933C69.0369 89.8607 68.9053 89.8751 68.833 89.965C68.5412 90.3282 68.3284 90.6822 68.1957 91.0276C68.0666 91.3636 68.0226 91.9282 68.0562 92.7356L68.0642 92.906C68.0703 93.0212 68.1685 93.1098 68.2839 93.1038C68.3991 93.0977 68.4876 92.9993 68.4815 92.8841C68.4372 92.0407 68.475 91.4662 68.5858 91.1775C68.702 90.8753 68.8927 90.558 69.1588 90.2268C69.2311 90.1369 69.2169 90.0054 69.1268 89.933ZM71.4073 89.2417C71.5098 89.1887 71.6359 89.2287 71.689 89.3311C71.742 89.4337 71.702 89.5598 71.5996 89.6127C71.1751 89.8327 70.8511 90.2012 70.625 90.7266C70.3826 91.2906 70.1842 91.7938 70.03 92.2361C69.9919 92.345 69.8729 92.4026 69.7638 92.3646C69.6548 92.3265 69.5974 92.2074 69.6354 92.0985C69.7932 91.6462 69.9951 91.134 70.2412 90.5617C70.5037 89.9508 70.8932 89.5081 71.4073 89.2417ZM72.6222 89.2308C72.5462 89.1439 72.414 89.1353 72.3273 89.2113C71.9785 89.5169 71.7105 89.7948 71.523 90.0468C71.3367 90.297 71.1186 90.6713 70.8663 91.1721C70.8143 91.2751 70.8558 91.4007 70.9588 91.4527C71.0618 91.5047 71.1876 91.4633 71.2394 91.3601C71.482 90.8791 71.689 90.5238 71.8582 90.2962C72.026 90.0708 72.2743 89.8132 72.6026 89.5255C72.6895 89.4495 72.6982 89.3175 72.6222 89.2308ZM71.8593 91.5905C71.7724 91.6665 71.6404 91.6578 71.5644 91.571C71.4882 91.4842 71.497 91.3522 71.5838 91.2761C71.9121 90.9886 72.1604 90.731 72.3282 90.5054C72.4975 90.278 72.7046 89.9226 72.947 89.4415C72.999 89.3385 73.1246 89.297 73.2276 89.349C73.3306 89.401 73.3721 89.5266 73.3202 89.6297C73.0678 90.1303 72.8497 90.5047 72.6636 90.755C72.4759 91.007 72.2081 91.2849 71.8593 91.5905ZM70.2772 89.4121C70.1821 89.3465 70.0521 89.3703 69.9865 89.4654C69.5193 90.1418 69.221 90.6473 69.0892 90.9906C68.9567 91.3353 68.8653 91.7998 68.8122 92.3868C68.8018 92.5017 68.8866 92.6033 69.0015 92.6137C69.1164 92.6241 69.218 92.5393 69.2284 92.4244C69.2783 91.8726 69.3628 91.4438 69.4793 91.1406C69.5877 90.8578 69.8409 90.4218 70.2366 89.8398L70.3303 89.7028C70.3959 89.6078 70.3721 89.4777 70.2772 89.4121Z" clip-rule="evenodd"/><path fill="#363939" fill-rule="evenodd" d="M66.3102 88.1796L66.454 88.4996L66.7823 88.5938C66.8001 88.5989 66.8103 88.6175 66.8052 88.6351C66.8036 88.6407 66.8007 88.6456 66.7967 88.6496L66.5473 88.898L66.5612 89.2553C66.562 89.2737 66.5476 89.2892 66.5292 89.29C66.523 89.2901 66.5167 89.2887 66.5113 89.2855L66.2291 89.1247C66.2201 89.1197 66.2095 89.1189 66.2001 89.1228L65.8982 89.2426C65.8811 89.2495 65.8615 89.2412 65.8547 89.2239C65.8524 89.2181 65.8518 89.2117 65.8529 89.2057L65.9164 88.8538L65.7041 88.5732C65.6929 88.5585 65.6958 88.5375 65.7105 88.5265C65.7151 88.5229 65.7204 88.5207 65.726 88.5199L66.0643 88.4724L66.2513 88.1756C66.2612 88.1599 66.2819 88.1553 66.2974 88.165C66.303 88.1685 66.3075 88.1737 66.3102 88.1796Z" clip-rule="evenodd"/><path fill="#363939" fill-rule="evenodd" d="M77.9377 43.382C78.0146 43.4502 78.1105 43.5731 78.1953 43.7062L78.3044 43.6577L78.4334 43.6025C78.4593 43.5907 78.4759 43.5814 78.481 43.5739C78.4959 43.5462 78.5303 43.5356 78.5582 43.5503C78.5854 43.5651 78.5964 43.5993 78.5815 43.627C78.5714 43.6532 78.499 43.7355 78.3644 43.8161C78.3401 43.8307 78.313 43.8443 78.2842 43.8575C78.3338 43.9502 78.3727 44.0399 78.3911 44.1118C78.4186 44.2177 78.3967 44.2929 78.3602 44.3193C78.3246 44.3454 78.2351 44.3502 78.099 44.2372C78.0738 44.2182 78.07 44.1825 78.089 44.1577C78.1081 44.1331 78.1434 44.1284 78.1686 44.1475C78.1945 44.1667 78.2205 44.1774 78.2418 44.1852L78.2314 44.1447C78.2274 44.1302 78.2225 44.1151 78.2154 44.1003C78.1911 44.047 78.1601 43.986 78.1252 43.9235C78.0188 43.9636 77.8975 44.0001 77.7666 44.0177C77.7029 44.0262 77.6378 44.0279 77.5703 44.0273C77.5316 44.0299 77.4978 44.0004 77.4953 43.9615C77.4927 43.9227 77.5222 43.8891 77.561 43.8865C77.7185 43.8713 77.8641 43.8315 77.9926 43.7868L78.0346 43.7716C77.9652 43.663 77.8906 43.5643 77.8268 43.5086C77.7922 43.4779 77.7887 43.4247 77.819 43.3897C77.8502 43.3548 77.9031 43.3513 77.9377 43.382Z" clip-rule="evenodd"/><path fill="#fff" fill-rule="evenodd" d="M31.9281 71.6707C31.7095 71.6849 31.363 71.7406 31.0798 71.8529C30.8374 71.9493 30.8374 74.5653 31.6658 74.7739C32.4895 75.0486 33.3903 74.6849 33.2826 73.2849C33.2807 73.2557 33.257 73.176 33.2298 73.0848C33.1902 72.9512 33.1428 72.7925 33.1457 72.7304C33.1569 72.5105 33.0991 72.3253 32.9466 72.2089C32.7825 71.8608 32.4606 71.6363 31.9281 71.6707ZM31.8095 74.1371C31.4041 73.8341 31.4183 72.4201 31.881 72.3257C32.169 72.5472 32.4319 72.8667 32.5206 73.4825C32.4214 73.8217 32.2119 74.0181 32.0287 74.1896C32.0092 74.208 31.9898 74.2261 31.971 74.244C31.9186 74.2142 31.8649 74.1779 31.8095 74.1371Z" clip-rule="evenodd"/><path fill="#F9D262" fill-rule="evenodd" d="M31.3175 73.3129C31.2809 73.093 31.3058 72.8468 31.4166 72.5839C31.4666 72.4649 31.5985 72.3679 31.7634 72.3028C31.9562 72.2266 32.1921 72.1889 32.3409 72.1791C32.7033 72.1558 32.9222 72.3074 33.0338 72.543C33.1375 72.6215 33.1769 72.747 33.1692 72.8956C33.1658 72.9662 33.259 73.2218 33.2622 73.2706C33.335 74.2174 32.722 74.4636 32.1615 74.2782C31.9486 74.3863 31.7431 74.4042 31.5886 74.2894C31.45 74.1868 31.3434 73.9703 31.3191 73.5887C31.3126 73.4903 31.3121 73.3983 31.3175 73.3129ZM32.3118 72.6894C31.9902 72.7526 31.9767 73.6809 32.2575 73.8788C32.2958 73.9055 32.3332 73.9292 32.3694 73.9486C32.5052 73.8262 32.6063 73.7273 32.6638 73.5247C32.7212 73.3223 32.5111 72.834 32.3118 72.6894Z" clip-rule="evenodd"/><path fill="#363939" fill-rule="evenodd" d="M53.2631 96.4984C53.168 96.4331 53.0379 96.4572 52.9725 96.5524C52.9072 96.6475 52.9314 96.7776 53.0266 96.8428C53.1311 96.9147 53.2234 96.9809 53.305 97.0425C53.2171 97.1123 53.1295 97.1924 53.0383 97.2835L52.8535 97.4711C52.7723 97.5531 52.7728 97.6854 52.8549 97.7667C52.9368 97.848 53.0691 97.8473 53.1504 97.7654L53.372 97.5412C53.4623 97.4534 53.5469 97.38 53.6319 97.3188C53.8208 97.506 53.8784 97.6435 53.8815 97.78V97.815L53.8826 97.8364C53.8933 97.9417 53.9823 98.0239 54.0904 98.0239C54.2058 98.0239 54.2994 97.9304 54.2994 97.815V97.7739C54.2955 97.5611 54.2203 97.3587 54.0181 97.1272C54.1517 97.0875 54.3023 97.0652 54.4848 97.0556C54.6 97.0495 54.6885 96.9513 54.6826 96.8361C54.6765 96.7207 54.5783 96.6323 54.4629 96.6384C54.1461 96.6548 53.8997 96.7076 53.6803 96.808C53.5888 96.7331 53.485 96.6545 53.3677 96.5713L53.2631 96.4984Z" clip-rule="evenodd"/><path fill="#363939" fill-rule="evenodd" d="M53.2631 96.4984C53.168 96.4331 53.0379 96.4572 52.9725 96.5524C52.9072 96.6475 52.9314 96.7776 53.0266 96.8428C53.1311 96.9147 53.2234 96.9809 53.305 97.0425C53.2171 97.1123 53.1295 97.1924 53.0383 97.2835L52.8535 97.4711C52.7723 97.5531 52.7728 97.6854 52.8549 97.7667C52.9368 97.848 53.0691 97.8473 53.1504 97.7654L53.372 97.5412C53.4623 97.4534 53.5469 97.38 53.6319 97.3188C53.8208 97.506 53.8784 97.6435 53.8815 97.78V97.815L53.8826 97.8364C53.8933 97.9417 53.9823 98.0239 54.0904 98.0239C54.2058 98.0239 54.2994 97.9304 54.2994 97.815V97.7739C54.2955 97.5611 54.2203 97.3587 54.0181 97.1272C54.1517 97.0875 54.3023 97.0652 54.4848 97.0556C54.6 97.0495 54.6885 96.9513 54.6826 96.8361C54.6765 96.7207 54.5783 96.6323 54.4629 96.6384C54.1461 96.6548 53.8997 96.7076 53.6803 96.808C53.5888 96.7331 53.485 96.6545 53.3677 96.5713L53.2631 96.4984Z" clip-rule="evenodd"/><path fill="#363939" fill-rule="evenodd" d="M60.4047 90.7738L60.5487 91.0938L60.8771 91.1881C60.8948 91.1932 60.9051 91.2116 60.8999 91.2293C60.8983 91.2349 60.8955 91.2399 60.8915 91.2439L60.642 91.4921L60.6559 91.8495C60.6567 91.8679 60.6423 91.8834 60.6239 91.8841C60.6177 91.8844 60.6115 91.8829 60.606 91.8797L60.3236 91.7189C60.3148 91.714 60.3043 91.7132 60.2948 91.717L59.9929 91.8369C59.9756 91.8437 59.9563 91.8353 59.9494 91.8181C59.9471 91.8124 59.9465 91.806 59.9476 91.7999L60.0111 91.4481L59.7988 91.1674C59.7876 91.1527 59.7905 91.1317 59.8052 91.1207C59.8097 91.1172 59.8151 91.1149 59.8207 91.1141L60.159 91.0666L60.346 90.7697C60.3559 90.7541 60.3766 90.7495 60.3921 90.7593C60.3977 90.7628 60.4022 90.7679 60.4047 90.7738Z" clip-rule="evenodd"/><path fill="#363939" fill-rule="evenodd" d="M42.2895 88.5751L42.5343 88.8265L42.8749 88.8028C42.8933 88.8015 42.9093 88.8154 42.9106 88.8338C42.9111 88.8394 42.91 88.8452 42.9076 88.8503L42.7581 89.1689L42.8935 89.4999C42.9004 89.517 42.8922 89.5366 42.8751 89.5434C42.8693 89.5458 42.8631 89.5466 42.8568 89.5455L42.5365 89.491C42.5266 89.4894 42.5164 89.4922 42.5087 89.499L42.266 89.715C42.2522 89.7273 42.2311 89.726 42.2188 89.7122C42.2146 89.7076 42.2119 89.7018 42.2108 89.6956L42.1503 89.3433L41.8546 89.1522C41.8391 89.1422 41.8348 89.1215 41.8447 89.106C41.8479 89.1012 41.852 89.0974 41.8572 89.0946L42.1586 88.9343L42.2328 88.5913C42.2368 88.5734 42.2546 88.5618 42.2727 88.5657C42.2791 88.5671 42.285 88.5703 42.2895 88.5751Z" clip-rule="evenodd"/><path fill="#363939" fill-rule="evenodd" d="M38.4678 65.6605L38.6118 65.9805L38.94 66.0748C38.9578 66.0799 38.968 66.0983 38.963 66.1161C38.9614 66.1215 38.9584 66.1266 38.9544 66.1306L38.705 66.3788L38.719 66.7361C38.7197 66.7546 38.7053 66.7701 38.6869 66.7708C38.6806 66.7711 38.6746 66.7697 38.6691 66.7665L38.3867 66.6057C38.3779 66.6007 38.3672 66.5999 38.3578 66.6037L38.0558 66.7236C38.0387 66.7305 38.0192 66.722 38.0125 66.7049C38.0101 66.6991 38.0094 66.6927 38.0106 66.6866L38.0742 66.3348L37.8618 66.0541C37.8506 66.0394 37.8536 66.0185 37.8683 66.0073C37.8728 66.0039 37.8781 66.0017 37.8838 66.0009L38.2219 65.9533L38.4091 65.6564C38.4189 65.6409 38.4395 65.6362 38.4552 65.646C38.4608 65.6495 38.4651 65.6546 38.4678 65.6605Z" clip-rule="evenodd"/><path fill="#EAEAEA" fill-rule="evenodd" d="M38.4342 65.9794L38.4953 66.1152L38.6348 66.1552C38.6423 66.1575 38.6467 66.1653 38.6444 66.1728C38.6438 66.1752 38.6425 66.1773 38.6409 66.1791L38.535 66.2845L38.5409 66.4362C38.5412 66.444 38.535 66.4506 38.5271 66.4509C38.5246 66.4511 38.5219 66.4504 38.5196 66.4491L38.3998 66.3808C38.3959 66.3787 38.3915 66.3784 38.3875 66.3799L38.2591 66.4309C38.2519 66.4338 38.2436 66.4303 38.2407 66.4229C38.2398 66.4205 38.2395 66.4178 38.2399 66.4152L38.267 66.2656L38.1767 66.1466C38.1719 66.1403 38.1732 66.1314 38.1795 66.1266C38.1814 66.1251 38.1836 66.1242 38.186 66.1239L38.3297 66.1037L38.4092 65.9776C38.4134 65.9709 38.4222 65.969 38.4287 65.9731C38.4311 65.9746 38.4331 65.9768 38.4342 65.9794Z" clip-rule="evenodd"/><path fill="#363939" fill-rule="evenodd" d="M21.3502 79.6996L21.4941 80.0196L21.8224 80.1138C21.8401 80.119 21.8504 80.1375 21.8453 80.1551C21.8437 80.1607 21.8408 80.1657 21.8368 80.1697L21.5873 80.418L21.6013 80.7753C21.6021 80.7937 21.5877 80.8092 21.5693 80.81C21.563 80.8101 21.5568 80.8087 21.5513 80.8055L21.2691 80.6447C21.2601 80.6398 21.2496 80.639 21.2401 80.6428L20.9382 80.7626C20.9211 80.7695 20.9016 80.7612 20.8947 80.7439C20.8925 80.7382 20.8918 80.7318 20.8929 80.7257L20.9565 80.3738L20.7441 80.0932C20.7329 80.0785 20.7358 80.0575 20.7505 80.0465C20.7552 80.0429 20.7605 80.0407 20.7661 80.0399L21.1043 79.9924L21.2913 79.6956C21.3013 79.6799 21.3219 79.6753 21.3374 79.685C21.343 79.6886 21.3475 79.6937 21.3502 79.6996Z" clip-rule="evenodd"/><path fill="#363939" fill-rule="evenodd" d="M35.8177 50.9671L35.9222 51.0401C36.0396 51.1233 36.4778 51.5364 36.5694 51.6113C36.7886 51.5106 37.0348 51.4578 37.3518 51.4414C37.467 51.4353 37.5654 51.5239 37.5714 51.6391C37.5774 51.7543 37.4889 51.8527 37.3735 51.8586C37.191 51.8682 37.0404 51.8905 36.9068 51.9303C37.1092 52.1618 37.1842 52.3642 37.1882 52.5769V52.618C37.1882 52.7335 37.0946 52.827 36.9793 52.827C36.8711 52.827 36.7822 52.7447 36.7714 52.6394L36.7703 52.618V52.583C36.7673 52.4465 36.7097 52.3092 36.5207 52.1218C36.4358 52.183 36.3511 52.2564 36.2609 52.3442L36.0391 52.5684C35.958 52.6503 35.8257 52.651 35.7436 52.5697C35.6617 52.4884 35.6612 52.3562 35.7423 52.2741L35.9271 52.0865C36.0183 51.9954 36.106 51.9154 36.1937 51.8455C36.0396 51.4935 35.4617 51.1162 35.5271 51.021C35.5924 50.926 35.7225 50.9018 35.8177 50.9671Z" clip-rule="evenodd"/><path fill="#363939" fill-rule="evenodd" d="M76.1336 75.0658L76.4184 75.2709L76.7497 75.1886C76.7676 75.1841 76.7857 75.1949 76.7902 75.2129C76.7916 75.2183 76.7915 75.2242 76.79 75.2297L76.6982 75.5694L76.8889 75.8717C76.8988 75.8874 76.894 75.9081 76.8785 75.918C76.8732 75.9212 76.8672 75.9231 76.8609 75.9231L76.536 75.925C76.5257 75.925 76.5163 75.9297 76.5099 75.9377L76.3084 76.1925C76.2969 76.2069 76.276 76.2095 76.2614 76.198C76.2564 76.1941 76.2528 76.189 76.2507 76.1831L76.1297 75.8466L75.8056 75.7098C75.7886 75.7026 75.7806 75.6829 75.7878 75.666C75.79 75.6607 75.7936 75.6562 75.798 75.6527L76.067 75.4423L76.0806 75.0917C76.0814 75.0733 76.0969 75.059 76.1153 75.0596C76.1219 75.0599 76.1283 75.062 76.1336 75.0658Z" clip-rule="evenodd"/><path fill="#363939" fill-rule="evenodd" d="M79.4037 61.9698L79.4899 62.31L79.7968 62.4597C79.8135 62.4677 79.8203 62.4879 79.8122 62.5044C79.8098 62.5095 79.8059 62.514 79.8013 62.5172L79.5127 62.7183L79.4643 63.0727C79.4618 63.0909 79.445 63.1037 79.4267 63.1013C79.4205 63.1004 79.4147 63.0978 79.4099 63.0938L79.1597 62.8865C79.1519 62.8801 79.1416 62.8775 79.1317 62.8796L78.8135 62.9452C78.7954 62.9489 78.7776 62.9373 78.7739 62.9193C78.7727 62.913 78.7731 62.9068 78.7754 62.9009L78.8991 62.5653L78.7386 62.2522C78.7301 62.2357 78.7367 62.2156 78.753 62.2073C78.7581 62.2045 78.7637 62.2034 78.7695 62.2036L79.1107 62.2154L79.3466 61.9556C79.3591 61.9418 79.3802 61.9409 79.3938 61.9533C79.3987 61.9577 79.4021 61.9634 79.4037 61.9698Z" clip-rule="evenodd"/><path fill="#363939" fill-rule="evenodd" d="M71.9564 48.281L72.0427 48.6212L72.3495 48.771C72.3662 48.7791 72.3731 48.7991 72.3651 48.8158C72.3625 48.8209 72.3587 48.8252 72.354 48.8284L72.0654 49.0297L72.0171 49.3839C72.0145 49.4022 71.9977 49.415 71.9795 49.4126C71.9732 49.4118 71.9675 49.4092 71.9627 49.4052L71.7124 49.1978C71.7047 49.1913 71.6943 49.1887 71.6844 49.1908L71.3662 49.2564C71.3481 49.2602 71.3303 49.2486 71.3267 49.2305C71.3254 49.2244 71.3259 49.218 71.3281 49.2121L71.4518 48.8767L71.2913 48.5634C71.2828 48.547 71.2894 48.527 71.3059 48.5185C71.3108 48.5159 71.3166 48.5146 71.3222 48.5148L71.6635 48.5266L71.8993 48.2668C71.9118 48.2532 71.9329 48.2521 71.9465 48.2646C71.9515 48.2689 71.9548 48.2746 71.9564 48.281Z" clip-rule="evenodd"/><path fill="#363939" fill-rule="evenodd" d="M93.9574 51.6137L94.0844 51.6023C94.2278 51.5907 94.358 51.5843 94.4764 51.5827C94.5796 51.3649 94.7344 51.166 94.9665 50.9497C95.0508 50.871 95.1832 50.8756 95.2617 50.9599C95.3404 51.0444 95.3358 51.1766 95.2515 51.2553C95.1177 51.3801 95.0166 51.4939 94.94 51.6103C95.2438 51.6575 95.4313 51.7643 95.5712 51.9247L95.5976 51.9563C95.6716 52.0446 95.6601 52.1764 95.5718 52.2507C95.4889 52.3201 95.368 52.3143 95.292 52.2406L95.2774 52.2249L95.2548 52.198C95.1648 52.0955 95.0324 52.0271 94.7673 52.0052C94.7414 52.1067 94.7238 52.2172 94.7112 52.3425L94.6854 52.6567C94.6758 52.7718 94.5748 52.8572 94.4598 52.8478C94.3449 52.8382 94.2593 52.7372 94.2689 52.6222L94.2899 52.3596C94.3011 52.2313 94.3168 52.1135 94.3392 52.0036C94.2374 52.0089 94.124 52.0175 93.9977 52.0297C93.8828 52.0407 93.7806 51.9567 93.7696 51.8419C93.7584 51.727 93.8425 51.6249 93.9574 51.6137Z" clip-rule="evenodd"/><path fill="#EAEAEA" fill-rule="evenodd" d="M77.0843 66.038C77.0465 66.1335 76.9638 66.2659 76.8676 66.391L76.9505 66.4769L77.0465 66.5791L77.0678 66.5996C77.0772 66.6079 77.0844 66.6129 77.0897 66.6143C77.1209 66.6188 77.1425 66.6475 77.1382 66.6787C77.1337 66.7092 77.1052 66.7313 77.0742 66.7268C77.0462 66.7262 76.9439 66.6863 76.8223 66.5875C76.8003 66.5695 76.7782 66.5489 76.7559 66.5262C76.6857 66.6046 76.6148 66.6719 76.5535 66.7137C76.4633 66.7759 76.3852 66.7809 76.3479 66.7556C76.3113 66.7311 76.2761 66.6487 76.3358 66.4822C76.3451 66.4519 76.3772 66.4361 76.407 66.4455C76.4367 66.455 76.4532 66.4867 76.4438 66.5167C76.4347 66.5476 76.4335 66.5759 76.4334 66.5985L76.4679 66.575C76.4803 66.5662 76.4927 66.5563 76.5043 66.5447C76.546 66.5036 76.5927 66.4535 76.6396 66.3995C76.5654 66.3131 76.4897 66.2118 76.4284 66.0948C76.3985 66.0377 76.3747 65.9772 76.3521 65.9135C76.3364 65.878 76.3526 65.8363 76.3883 65.8204C76.4239 65.8047 76.4657 65.8211 76.4814 65.8566C76.5495 65.9995 76.6366 66.1225 76.7227 66.2279L76.7513 66.2623C76.8295 66.1599 76.8969 66.0563 76.9275 65.9772C76.9444 65.9342 76.9932 65.9127 77.0363 65.9292C77.0798 65.9463 77.1012 65.995 77.0843 66.038Z" clip-rule="evenodd"/><path fill="#363939" fill-rule="evenodd" d="M75.0445 23.4523C75.1718 23.43 75.2929 23.5153 75.3152 23.6427C75.3373 23.7699 75.2521 23.8911 75.1248 23.9134C74.5192 24.0188 73.7902 24.3807 73.1606 24.9639C72.343 25.7209 71.7398 26.7895 71.4421 28.1844C71.2021 29.3081 71.4225 30.7878 72.0496 32.0222C72.763 33.4265 73.9099 34.3814 75.3814 34.6502C76.892 34.9262 78.1701 34.7548 79.5976 34.2473L79.7289 34.1996C79.7707 34.1838 79.8451 34.1551 79.9384 34.119H79.9387C80.2824 33.9863 80.883 33.7547 81.0555 33.7025C81.5171 33.5628 81.8318 33.5745 82.0601 33.8179C82.1486 33.9121 82.1438 34.0601 82.0496 34.1486C81.9613 34.2316 81.8256 34.2326 81.736 34.1548L81.7189 34.1382C81.6515 34.0663 81.5123 34.058 81.232 34.1383L81.191 34.1505C81.039 34.1964 80.4827 34.411 80.136 34.5447H80.1358C80.0014 34.5966 79.8985 34.6363 79.8629 34.6492C78.3209 35.2121 76.9374 35.4102 75.2973 35.1107C73.672 34.8137 72.4083 33.7615 71.6323 32.2342C70.9581 30.9067 70.7214 29.3183 70.9843 28.0867C71.3021 26.598 71.9537 25.4435 72.8425 24.6204C73.5384 23.9763 74.3498 23.5732 75.0445 23.4523ZM76.6272 24.5828C76.7541 24.558 76.8769 24.6407 76.9019 24.7675C76.9267 24.8943 76.844 25.0174 76.7171 25.0422C74.8203 25.4137 73.295 26.8623 72.8525 28.7787C72.7029 29.4273 72.7481 29.9547 72.895 30.1558L72.9145 30.1811L72.9162 30.1846L72.9189 30.1825C72.9714 30.135 73.0329 30.0137 73.0806 29.8257L73.0906 29.7843C73.5456 27.8134 75.0483 26.2878 76.9675 25.7755C77.0923 25.7422 77.2206 25.8164 77.2539 25.9412C77.2873 26.066 77.2131 26.1943 77.0881 26.2276C75.359 26.6892 74.0006 28.0507 73.5646 29.8148L73.5467 29.8895C73.3862 30.5847 72.9254 30.9166 72.5521 30.4766C72.2792 30.1547 72.2121 29.4718 72.3965 28.6734C72.8808 26.5756 74.5509 24.9895 76.6272 24.5828ZM79.4419 27.1516C79.4326 27.0227 79.3208 26.9255 79.1918 26.9348C76.9141 27.0972 74.9165 28.5767 74.1217 30.7603C73.8201 31.5889 73.8022 32.3257 74.0491 32.7014C74.3803 33.2055 74.9013 32.9196 75.161 32.2059L75.1883 32.1327C75.8912 30.2847 77.5381 28.994 79.4661 28.7249C79.5942 28.7071 79.6835 28.5889 79.6656 28.4607C79.6477 28.3327 79.5294 28.2435 79.4014 28.2614C77.2781 28.5577 75.4678 29.9943 74.7211 32.0459L74.7046 32.0897C74.6217 32.3031 74.5307 32.4319 74.4619 32.4697L74.4589 32.4718C74.4582 32.4721 74.4579 32.4724 74.4576 32.4727C74.4571 32.4732 74.4568 32.4735 74.4565 32.4735C74.4561 32.4735 74.4558 32.4729 74.4552 32.4713C74.4537 32.4678 74.4504 32.4599 74.4403 32.4444L74.4278 32.4241C74.292 32.1833 74.3128 31.6039 74.5616 30.9204C75.2926 28.9118 77.1299 27.5511 79.2251 27.4017C79.3541 27.3924 79.451 27.2804 79.4419 27.1516ZM80.4611 29.4267C80.5901 29.4174 80.7021 29.5145 80.7112 29.6435C80.7205 29.7724 80.6233 29.8843 80.4945 29.8935C79.0254 29.9983 77.7373 30.9524 77.2248 32.3606C77.0728 32.778 77.0446 33.135 77.0989 33.3156L77.1056 33.3358L77.116 33.3209C77.1421 33.2812 77.1715 33.2243 77.2003 33.1505L77.2126 33.1179C77.7541 31.6303 79.0667 30.5887 80.6062 30.3739C80.7342 30.3559 80.8525 30.4452 80.8704 30.5732C80.8883 30.7012 80.799 30.8195 80.671 30.8374C79.3241 31.0254 78.1731 31.9243 77.6771 33.2121L77.6525 33.2779C77.4518 33.8295 77.0176 34.0678 76.74 33.6454C76.5499 33.3559 76.5632 32.8097 76.7849 32.2004C77.3611 30.6172 78.8096 29.5444 80.4611 29.4267ZM81.6945 31.3123C81.6854 31.1833 81.5734 31.0863 81.4445 31.0955C80.3384 31.1743 79.3685 31.8929 78.9825 32.9532C78.8304 33.3711 78.8211 33.7516 78.9619 33.9659C79.1926 34.3171 79.5512 34.1203 79.7005 33.7099L79.721 33.6559C80.0352 32.8531 80.7557 32.2932 81.5981 32.1756C81.7261 32.1577 81.8153 32.0395 81.7976 31.9115C81.7797 31.7835 81.6614 31.6942 81.5334 31.7121L81.4741 31.7211C80.5674 31.867 79.7849 32.4427 79.3793 33.271L79.3651 33.3004L79.3739 33.2668C79.3869 33.218 79.4029 33.1665 79.4224 33.1132C79.7445 32.2279 80.5542 31.6283 81.4777 31.5623C81.6067 31.5532 81.7038 31.4412 81.6945 31.3123Z" clip-rule="evenodd"/><path fill="#363939" fill-rule="evenodd" d="M80.4608 29.4266C80.5897 29.4174 80.7017 29.5145 80.7109 29.6434C80.7201 29.7724 80.623 29.8842 80.4942 29.8935C79.0251 29.9983 77.737 30.9524 77.2245 32.3606C77.0725 32.778 77.0443 33.135 77.0987 33.3156L77.1053 33.3358L77.1157 33.3209C77.1417 33.2812 77.1712 33.2242 77.2 33.1505L77.2123 33.1178C77.7537 31.6303 79.0664 30.5887 80.6059 30.3738C80.7339 30.3559 80.8521 30.4452 80.8701 30.5732C80.888 30.7012 80.7987 30.8194 80.6707 30.8374C79.3238 31.0254 78.1728 31.9242 77.6768 33.2121L77.6521 33.2778C77.4515 33.8295 77.0173 34.0678 76.7397 33.6454C76.5496 33.3559 76.5629 32.8097 76.7846 32.2004C77.3608 30.6172 78.8093 29.5444 80.4608 29.4266Z" clip-rule="evenodd"/><path fill="#fff" d="M65.886 59.8967C70.7923 57.6018 74.8945 56.3895 77.4485 56.167C78.2305 56.0988 78.5854 56.53 78.3872 57.2314C78.2401 57.7521 77.7923 58.4668 77.1059 59.3132C75.9091 60.7884 74.3312 62.051 72.7598 63.2252C75.2737 60.9049 75.9148 59.9343 76.6902 58.9785L76.812 58.8265C77.3869 58.0996 77.7584 57.4924 77.8728 57.0871L77.8891 57.0257C77.9605 56.7332 77.8779 56.6639 77.495 56.6974C74.9988 56.9148 70.9123 58.1295 66.024 60.4214C61.1276 62.7169 60.9876 62.1879 65.886 59.8967Z"/><path fill="#fff" d="M43.4467 52.4729L43.4825 52.5583C43.731 53.1476 43.9894 53.7313 44.2825 54.3678L44.3964 54.6148C44.3592 54.6399 44.31 54.6665 44.256 54.6902C44.1784 54.7241 44.0996 54.7478 44.0404 54.7558L44.0216 54.7577L43.9931 54.7236C43.7715 54.4508 43.5144 53.9873 43.3286 53.5265C43.2296 53.2811 43.1592 53.0559 43.1273 52.883C43.1144 52.8124 43.1084 52.7532 43.1089 52.7084L43.1102 52.6788C43.1107 52.6716 43.1107 52.6679 43.1089 52.6673L43.116 52.6627C43.1555 52.6353 43.2566 52.5761 43.4067 52.4945L43.4467 52.4729Z"/><path fill="#363939" fill-rule="evenodd" d="M49.6488 50.3378C49.8024 50.1498 50.0015 50.1778 50.2538 50.3308L50.3184 50.3717L50.4999 50.4919C50.5506 50.5244 50.5725 50.5356 50.6021 50.5474C50.6708 50.5746 50.7042 50.6525 50.6768 50.721C50.6495 50.7896 50.5717 50.8232 50.5031 50.7959L50.4788 50.7858C50.4324 50.766 50.3973 50.7453 50.3034 50.6829L50.1733 50.5962C50.1519 50.5823 50.1333 50.5706 50.1151 50.5594C49.9642 50.468 49.8957 50.4583 49.8559 50.5069C49.8309 50.5376 49.837 50.6029 49.8868 50.737L49.9413 50.8775C50.0498 51.1655 50.0504 51.2941 49.8572 51.404C49.6909 51.4986 49.6056 51.4544 49.3668 51.2204L49.3087 51.1629C49.1557 51.0101 49.0756 50.957 49.0239 50.9679C49.0068 50.9716 48.9868 50.9837 48.9623 51.0098C48.9336 51.0404 48.9255 51.1381 48.9431 51.3114L48.9701 51.5378C49.0015 51.8144 48.9888 51.8861 48.8746 51.9626C48.7173 52.0679 48.508 51.9488 48.12 51.6005C48.0652 51.5511 48.0605 51.4666 48.11 51.4116C48.1592 51.3567 48.2439 51.3522 48.2988 51.4015C48.4645 51.5504 48.5898 51.6474 48.6773 51.6972L48.6968 51.7079L48.7133 51.716L48.7136 51.6992L48.7127 51.6592C48.7109 51.6263 48.7068 51.5866 48.6986 51.5192L48.6816 51.3804C48.649 51.0986 48.6592 50.942 48.7672 50.8268C48.8272 50.7629 48.8946 50.722 48.9685 50.7063C49.1404 50.67 49.2624 50.7434 49.465 50.9415L49.5674 51.0421C49.6776 51.1482 49.7186 51.1752 49.725 51.1716C49.7501 51.1573 49.7463 51.113 49.6784 50.9391L49.6488 50.8637C49.5543 50.6208 49.5364 50.4754 49.6488 50.3378Z" clip-rule="evenodd"/><path fill="#363939" fill-rule="evenodd" d="M64.2485 28.5706L64.1215 28.582C64.0066 28.593 63.9224 28.6953 63.9336 28.8101C63.9404 28.8796 63.9804 28.9377 64.0362 28.9705L64.0141 28.9861C63.9199 29.0527 63.8975 29.1831 63.9642 29.2773C64.0308 29.3716 64.1612 29.394 64.2554 29.3274L64.4701 29.1753C64.4639 29.2245 64.4584 29.2753 64.454 29.3279L64.433 29.5905C64.4234 29.7055 64.509 29.8065 64.6239 29.8159C64.7389 29.8255 64.8399 29.7401 64.8495 29.625L64.8752 29.3108C64.882 29.2436 64.8903 29.1805 64.9004 29.1209C64.9738 29.2601 64.9884 29.3674 64.9728 29.4687L64.9668 29.5033L64.9642 29.5245C64.9564 29.6301 65.0298 29.7265 65.1364 29.7453C65.25 29.7653 65.3583 29.6895 65.3784 29.5759L65.3855 29.5354C65.4077 29.3943 65.3975 29.2524 65.3404 29.0948C65.3703 29.1162 65.396 29.1402 65.4189 29.1663L65.4415 29.193L65.456 29.2087C65.5319 29.2826 65.653 29.2884 65.7359 29.2188C65.8242 29.1447 65.8357 29.0129 65.7616 28.9244L65.7351 28.893C65.7258 28.8821 65.7162 28.8717 65.7063 28.8613C65.8154 28.8677 65.9122 28.7882 65.9256 28.6783C65.9397 28.5637 65.8583 28.4594 65.7437 28.4453C65.5468 28.4212 65.3744 28.4157 65.216 28.43C65.2728 28.3631 65.3388 28.2951 65.4154 28.2236C65.4999 28.1449 65.5045 28.0127 65.4258 27.9282C65.3471 27.8439 65.2149 27.8393 65.1304 27.9178C64.9888 28.0498 64.876 28.1754 64.7863 28.3026C64.7516 28.2658 64.7151 28.2281 64.6768 28.1893L64.5864 28.0993C64.504 28.0185 64.3719 28.0196 64.2909 28.102C64.2101 28.1844 64.2114 28.3167 64.2936 28.3975C64.3509 28.4537 64.4036 28.5068 64.4522 28.557C64.3876 28.5604 64.3196 28.5649 64.2485 28.5706Z" clip-rule="evenodd"/><path fill="#EAEAEA" fill-rule="evenodd" d="M56.1953 30.0187C56.1452 29.9672 56.064 29.9686 56.014 30.0219C55.964 30.075 55.964 30.1598 56.0142 30.2113C56.0617 30.26 56.1043 30.3052 56.1422 30.3473C56.0619 30.3814 55.9812 30.4254 55.8948 30.48L55.7638 30.564C55.7064 30.6006 55.6937 30.674 55.7358 30.7278C55.7779 30.7816 55.8585 30.7955 55.9161 30.7588L56.0732 30.6585C56.1553 30.6083 56.2292 30.5702 56.3036 30.5436C56.4166 30.7006 56.4401 30.8014 56.4257 30.8947L56.4219 30.9169L56.4201 30.9305C56.4148 30.9982 56.4595 31.0596 56.5248 31.0712C56.5944 31.0835 56.6612 31.0344 56.6742 30.9614L56.6787 30.9353C56.7001 30.8 56.6772 30.6635 56.5801 30.495C56.646 30.494 56.7177 30.4988 56.7992 30.5092C56.8699 30.5184 56.9336 30.4734 56.9411 30.4089C56.9488 30.3446 56.8974 30.2849 56.8265 30.2758C56.6712 30.256 56.5409 30.2537 56.4217 30.2699C56.3728 30.2096 56.316 30.1452 56.2504 30.0758L56.1953 30.0187Z" clip-rule="evenodd"/><path fill="#363939" fill-rule="evenodd" d="M29.2671 64.8537L29.4111 65.1737L29.7392 65.2679C29.757 65.273 29.7674 65.2914 29.7623 65.3092C29.7607 65.3148 29.7576 65.3197 29.7536 65.3237L29.5044 65.5719L29.5183 65.9293C29.5189 65.9477 29.5047 65.9633 29.4861 65.9639C29.4799 65.9642 29.4738 65.9628 29.4684 65.9596L29.186 65.7988C29.1772 65.7938 29.1666 65.793 29.1572 65.7969L28.8551 65.9167C28.838 65.9236 28.8186 65.9151 28.8117 65.898C28.8095 65.8922 28.8088 65.8858 28.81 65.8797L28.8735 65.5279L28.661 65.2473C28.65 65.2325 28.6528 65.2116 28.6676 65.2005C28.672 65.197 28.6773 65.1948 28.6831 65.194L29.0212 65.1465L29.2084 64.8495C29.2181 64.834 29.2388 64.8293 29.2544 64.8391C29.26 64.8426 29.2644 64.8477 29.2671 64.8537Z" clip-rule="evenodd"/><path fill="#363939" fill-rule="evenodd" d="M31.187 47.0936L31.331 47.4136L31.6592 47.5079C31.6769 47.513 31.6873 47.5314 31.6822 47.5492C31.6806 47.5548 31.6776 47.5597 31.6736 47.5637L31.4243 47.8119L31.4382 48.1693C31.4388 48.1877 31.4246 48.2032 31.406 48.2039C31.3998 48.2042 31.3937 48.2028 31.3883 48.1996L31.1059 48.0388C31.0971 48.0338 31.0865 48.033 31.0771 48.0368L30.775 48.1567C30.7579 48.1636 30.7385 48.1551 30.7316 48.138C30.7294 48.1322 30.7288 48.1258 30.7299 48.1197L30.7934 47.7679L30.5809 47.4872C30.5699 47.4725 30.5728 47.4516 30.5875 47.4405C30.592 47.437 30.5972 47.4348 30.603 47.434L30.9411 47.3864L31.1283 47.0895C31.138 47.074 31.1587 47.0693 31.1744 47.0791C31.18 47.0826 31.1843 47.0877 31.187 47.0936Z" clip-rule="evenodd"/><path fill="#fff" d="M35.5367 75.3698C35.6439 75.2919 35.794 75.3157 35.8719 75.4229C35.9499 75.5303 32.5543 78.2957 31.2372 79.5633L31.0841 79.7117C30.3318 80.4479 29.7771 81.0853 29.4644 81.5892C29.1331 82.1233 29.1119 82.4132 29.3257 82.5317C30.1374 82.9815 31.3041 83.2007 32.9753 82.9237L33.147 82.8945C33.7831 82.7831 38.5681 81.7396 38.4924 81.7673L38.463 81.7761C38.3121 81.8161 36.3638 82.4898 35.6913 82.661L35.61 82.6815C34.5819 82.9402 33.7774 83.1175 33.0537 83.2373C31.2852 83.5303 30.0219 83.4663 29.0931 82.9516C28.5572 82.6546 28.5999 82.0722 29.0566 81.3362C29.4158 80.7572 30.0476 80.0418 30.9044 79.2173C32.2391 77.933 34.1166 76.401 35.5367 75.3698Z"/><path fill="#363939" fill-rule="evenodd" d="M60.5372 42.1012C60.5958 42.0622 60.6744 42.0788 60.7128 42.1383L61.5792 43.4807C61.6176 43.5402 61.6012 43.6201 61.5427 43.659C61.4841 43.698 61.4056 43.6814 61.3672 43.6218L60.5008 42.2794C60.4624 42.2199 60.4787 42.1401 60.5372 42.1012Z" clip-rule="evenodd"/><path fill="#363939" fill-rule="evenodd" d="M60.5797 41.1092C60.6468 41.0697 60.7356 41.0895 60.7778 41.1535L61.374 42.0566C61.4164 42.1207 61.3962 42.2046 61.329 42.2441C61.262 42.2836 61.1733 42.2638 61.1311 42.1998L60.5348 41.2967C60.4925 41.2327 60.5127 41.1487 60.5797 41.1092Z" clip-rule="evenodd"/></svg>